<svg width="613" height="193" viewBox="0 0 613 193" fill="none" xmlns="http://www.w3.org/2000/svg">
<path fill-rule="evenodd" clip-rule="evenodd" d="M32.667 31.9842C32.667 31.802 32.667 31.6197 32.667 31.4375C41.1555 31.4375 49.6441 31.4375 58.1326 31.4375C58.1326 35.4469 58.1326 39.4564 58.1326 43.4658C62.0939 43.4658 66.0552 43.4658 70.0166 43.4658C70.0166 43.6481 70.0166 43.8303 70.0166 44.0126C65.8668 44.0126 61.7165 44.0126 57.5667 44.0126C57.5667 40.0031 57.5667 35.9937 57.5667 31.9842C49.2666 31.9842 40.9671 31.9842 32.667 31.9842Z" fill="#9F4E64"/>
<path fill-rule="evenodd" clip-rule="evenodd" d="M32.6668 31.9844C32.6668 35.8116 32.6668 39.6388 32.6668 43.466C28.517 43.466 24.3667 43.466 20.2169 43.466C20.2169 47.4754 20.2169 51.4849 20.2169 55.4943C16.0672 55.4943 11.9169 55.4943 7.76709 55.4943C7.76709 51.6671 7.76709 47.8399 7.76709 44.0127C7.76709 40.0033 7.76709 35.9938 7.76709 31.9844C16.0672 31.9844 24.3667 31.9844 32.6668 31.9844Z" fill="#8E68E5"/>
<path fill-rule="evenodd" clip-rule="evenodd" d="M32.6671 31.9844C40.9672 31.9844 49.2668 31.9844 57.5669 31.9844C57.5669 35.9938 57.5669 40.0033 57.5669 44.0127C49.2668 44.0127 40.9672 44.0127 32.6671 44.0127C32.6671 48.0221 32.6671 52.0316 32.6671 56.041C28.5174 56.041 24.367 56.041 20.2173 56.041C20.2173 55.859 20.2173 55.6764 20.2173 55.4943C20.2173 51.4849 20.2173 47.4754 20.2173 43.466C24.367 43.466 28.5174 43.466 32.6671 43.466C32.6671 39.6388 32.6671 35.8116 32.6671 31.9844Z" fill="#FA6BA2"/>
<path fill-rule="evenodd" clip-rule="evenodd" d="M32.6669 31.4375C32.6669 31.6197 32.6669 31.802 32.6669 31.9842C24.3668 31.9842 16.0673 31.9842 7.76722 31.9842C7.76722 35.9937 7.76722 40.0031 7.76722 44.0126C7.57878 44.0126 7.38977 44.0126 7.20132 44.0126C3.24 44.0126 -0.721314 44.0126 -4.68263 44.0126C-4.68263 47.8398 -4.68263 51.667 -4.68263 55.4942C-4.87108 55.4942 -5.06009 55.4942 -5.24854 55.4942C-5.24854 51.4847 -5.24854 47.4753 -5.24854 43.4658C-1.09877 43.4658 3.05156 43.4658 7.20132 43.4658C7.20132 39.4564 7.20132 35.4469 7.20132 31.4375C15.6899 31.4375 24.1784 31.4375 32.6669 31.4375Z" fill="#664C81"/>
<path fill-rule="evenodd" clip-rule="evenodd" d="M7.20134 44.0127C7.20134 47.8399 7.20134 51.6671 7.20134 55.4943C3.24002 55.4943 -0.721299 55.4943 -4.68262 55.4943C-4.68262 51.6671 -4.68262 47.8399 -4.68262 44.0127C-0.721299 44.0127 3.24002 44.0127 7.20134 44.0127Z" fill="#5561D3"/>
<path fill-rule="evenodd" clip-rule="evenodd" d="M57.5665 44.0127C61.7163 44.0127 65.8666 44.0127 70.0164 44.0127C70.0164 48.0221 70.0164 52.0316 70.0164 56.041C74.3551 56.041 78.6934 56.041 83.0321 56.041C83.0321 60.0503 83.0321 64.0601 83.0321 68.0694C87.1819 68.0694 91.3322 68.0694 95.482 68.0694C95.482 72.0786 95.482 76.0884 95.482 80.0977C99.6317 80.0977 103.782 80.0977 107.932 80.0977C107.932 92.126 107.932 104.154 107.932 116.183C95.482 116.183 83.0321 116.183 70.5823 116.183C70.5823 112.173 70.5823 108.164 70.5823 104.154C53.7936 104.154 37.0056 104.154 20.2169 104.154C20.2169 96.1353 20.2169 88.1168 20.2169 80.0977C16.0672 80.0977 11.9169 80.0977 7.76709 80.0977C7.76709 72.0786 7.76709 64.0601 7.76709 56.041C11.9169 56.041 16.0672 56.041 20.2169 56.041C24.3667 56.041 28.517 56.041 32.6668 56.041C32.6668 52.0316 32.6668 48.0221 32.6668 44.0127C40.9669 44.0127 49.2664 44.0127 57.5665 44.0127Z" fill="#FE989A"/>
<path fill-rule="evenodd" clip-rule="evenodd" d="M70.0166 43.4658C74.3554 43.4658 78.6936 43.4658 83.0324 43.4658C83.0324 47.4752 83.0324 51.4847 83.0324 55.4941C87.2874 55.3165 91.4371 55.4985 95.4822 56.0409C91.3325 56.0409 87.1821 56.0409 83.0324 56.0409C78.6936 56.0409 74.3554 56.0409 70.0166 56.0409C70.0166 52.0315 70.0166 48.022 70.0166 44.0126C70.0166 43.8303 70.0166 43.648 70.0166 43.4658Z" fill="#E8B262"/>
<path fill-rule="evenodd" clip-rule="evenodd" d="M70.582 44.0127C74.5433 44.0127 78.5047 44.0127 82.466 44.0127C82.466 47.8399 82.466 51.6671 82.466 55.4943C78.5047 55.4943 74.5433 55.4943 70.582 55.4943C70.582 51.6671 70.582 47.8399 70.582 44.0127Z" fill="#FEE14C"/>
<path fill-rule="evenodd" clip-rule="evenodd" d="M83.0322 56.041C87.182 56.041 91.3323 56.041 95.4821 56.041C95.4821 59.8682 95.4821 63.6954 95.4821 67.5226C95.4821 67.7047 95.4821 67.8873 95.4821 68.0693C91.3323 68.0693 87.182 68.0693 83.0322 68.0693C83.0322 64.0601 83.0322 60.0503 83.0322 56.041Z" fill="#FFDF4E"/>
<path fill-rule="evenodd" clip-rule="evenodd" d="M95.4824 68.0692C95.4824 67.8871 95.4824 67.7045 95.4824 67.5225C99.8212 67.5225 104.159 67.5225 108.498 67.5225C108.498 71.5317 108.498 75.5415 108.498 79.5508C108.31 79.5508 108.121 79.5508 107.932 79.5508C107.932 75.7236 107.932 71.8964 107.932 68.0692C103.783 68.0692 99.6322 68.0692 95.4824 68.0692Z" fill="#674B2D"/>
<path fill-rule="evenodd" clip-rule="evenodd" d="M7.20114 44.0127C7.38958 44.0127 7.57859 44.0127 7.76704 44.0127C7.76704 47.8399 7.76704 51.6671 7.76704 55.4943C11.9168 55.4943 16.0671 55.4943 20.2169 55.4943C20.2169 55.6763 20.2169 55.859 20.2169 56.041C16.0671 56.041 11.9168 56.041 7.76704 56.041C7.76704 64.0601 7.76704 72.0786 7.76704 80.0977C7.76704 88.1167 7.76704 96.1353 7.76704 104.154C7.20227 88.2102 7.01382 72.1727 7.20114 56.041C3.23982 56.041 -0.7215 56.041 -4.68282 56.041C-4.68282 60.0503 -4.68282 64.0601 -4.68282 68.0694C-8.83258 68.0694 -12.9829 68.0694 -17.1327 68.0694C-17.1327 79.9156 -17.1327 91.7613 -17.1327 103.608C-12.9829 103.608 -8.83258 103.608 -4.68282 103.608C-4.68282 107.617 -4.68282 111.627 -4.68282 115.636C3.42826 115.636 11.5399 115.636 19.651 115.636C19.651 111.809 19.651 107.982 19.651 104.154C19.8394 104.154 20.0285 104.154 20.2169 104.154C20.2169 108.164 20.2169 112.173 20.2169 116.183C11.9168 116.183 3.61728 116.183 -4.68282 116.183C-4.68282 120.192 -4.68282 124.202 -4.68282 128.211C-5.24419 124.303 -5.43264 120.294 -5.24872 116.183C-5.24872 112.173 -5.24872 108.164 -5.24872 104.154C-9.21004 104.154 -13.1714 104.154 -17.1327 104.154C-17.1327 108.164 -17.1327 112.173 -17.1327 116.183C-16.9488 120.294 -17.1372 124.303 -17.6986 128.211C-17.6986 124.202 -17.6986 120.192 -17.6986 116.183C-17.6986 112.173 -17.6986 108.164 -17.6986 104.154C-21.8483 104.154 -25.9987 104.154 -30.1484 104.154C-30.1484 100.145 -30.1484 96.1353 -30.1484 92.126C-30.1484 88.1167 -30.1484 84.1069 -30.1484 80.0977C-30.1484 79.9156 -30.1484 79.733 -30.1484 79.5509C-29.5848 87.4732 -29.3964 95.4923 -29.5825 103.608C-25.6212 103.608 -21.6599 103.608 -17.6986 103.608C-17.6986 91.7613 -17.6986 79.9156 -17.6986 68.0694C-21.8483 68.0694 -25.9987 68.0694 -30.1484 68.0694C-26.1034 67.527 -21.9536 67.3449 -17.6986 67.5226C-17.6986 63.5133 -17.6986 59.5035 -17.6986 55.4943C-13.5488 55.4943 -9.39849 55.4943 -5.24872 55.4943C-5.06028 55.4943 -4.87126 55.4943 -4.68282 55.4943C-0.7215 55.4943 3.23982 55.4943 7.20114 55.4943C7.20114 51.6671 7.20114 47.8399 7.20114 44.0127Z" fill="#996FC5"/>
<path fill-rule="evenodd" clip-rule="evenodd" d="M7.76739 104.154C11.7287 104.154 15.69 104.154 19.6513 104.154C19.6513 107.982 19.6513 111.809 19.6513 115.636C11.5403 115.636 3.42862 115.636 -4.68247 115.636C-4.68247 111.627 -4.68247 107.617 -4.68247 103.608C-8.83223 103.608 -12.9826 103.608 -17.1323 103.608C-17.1323 91.7613 -17.1323 79.9156 -17.1323 68.0693C-12.9826 68.0693 -8.83223 68.0693 -4.68247 68.0693C-4.68247 64.0601 -4.68247 60.0503 -4.68247 56.041C-0.721149 56.041 3.24017 56.041 7.20149 56.041C7.01417 72.1726 7.20262 88.2102 7.76739 104.154Z" fill="#8D68E6"/>
<path fill-rule="evenodd" clip-rule="evenodd" d="M32.667 68.0693C36.8168 68.0693 40.9671 68.0693 45.1168 68.0693C45.1168 76.0884 45.1168 84.1069 45.1168 92.126C40.9671 92.126 36.8168 92.126 32.667 92.126C32.667 84.1069 32.667 76.0884 32.667 68.0693Z" fill="#FB6BA1"/>
<path fill-rule="evenodd" clip-rule="evenodd" d="M95.4824 68.0693C99.6322 68.0693 103.783 68.0693 107.932 68.0693C107.932 71.8965 107.932 75.7237 107.932 79.5509C107.932 79.733 107.932 79.9156 107.932 80.0977C103.783 80.0977 99.6322 80.0977 95.4824 80.0977C95.4824 76.0884 95.4824 72.0786 95.4824 68.0693Z" fill="#FFE04E"/>
<path fill-rule="evenodd" clip-rule="evenodd" d="M333.727 68.0693C333.727 72.0786 333.727 76.0884 333.727 80.0977C329.577 80.0977 325.427 80.0977 321.277 80.0977C321.277 83.9249 321.277 87.7521 321.277 91.5793C317.127 91.5793 312.977 91.5793 308.827 91.5793C308.827 87.7521 308.827 83.9249 308.827 80.0977C308.827 79.9156 308.827 79.733 308.827 79.5509C308.827 75.7237 308.827 71.8965 308.827 68.0693C317.127 68.0693 325.427 68.0693 333.727 68.0693Z" fill="#8E68E5"/>
<path fill-rule="evenodd" clip-rule="evenodd" d="M107.932 80.0975C107.932 79.9155 107.932 79.7328 107.932 79.5508C108.12 79.5508 108.309 79.5508 108.498 79.5508C112.647 79.5508 116.798 79.5508 120.947 79.5508C120.947 87.5698 120.947 95.5884 120.947 103.607C120.947 103.79 120.947 103.972 120.947 104.154C120.759 104.154 120.57 104.154 120.381 104.154C120.381 96.1351 120.381 88.1166 120.381 80.0975C116.232 80.0975 112.081 80.0975 107.932 80.0975Z" fill="#783B4B"/>
<path fill-rule="evenodd" clip-rule="evenodd" d="M308.827 79.5508C308.827 79.7328 308.827 79.9155 308.827 80.0975C300.527 80.0975 292.228 80.0975 283.928 80.0975C283.928 84.1068 283.928 88.1166 283.928 92.1259C279.778 92.1259 275.627 92.1259 271.478 92.1259C271.478 96.1351 271.478 100.145 271.478 104.154C267.139 104.154 262.801 104.154 258.462 104.154C262.507 103.612 266.657 103.43 270.912 103.607C270.912 99.5982 270.912 95.5884 270.912 91.5791C275.062 91.5791 279.212 91.5791 283.362 91.5791C283.362 87.5698 283.362 83.56 283.362 79.5508C291.85 79.5508 300.339 79.5508 308.827 79.5508Z" fill="#4F3D62"/>
<path fill-rule="evenodd" clip-rule="evenodd" d="M371.643 80.0977C363.154 80.0977 354.666 80.0977 346.177 80.0977C342.028 80.0977 337.877 80.0977 333.728 80.0977C333.728 76.0885 333.728 72.0787 333.728 68.0694C346.268 67.5243 358.907 67.3417 371.643 67.5227C371.643 71.7145 371.643 75.9059 371.643 80.0977Z" fill="#D9AD55"/>
<path fill-rule="evenodd" clip-rule="evenodd" d="M334.293 68.0693C346.554 68.0693 358.815 68.0693 371.077 68.0693C371.077 71.8965 371.077 75.7237 371.077 79.5509C358.815 79.5509 346.554 79.5509 334.293 79.5509C334.293 75.7237 334.293 71.8965 334.293 68.0693Z" fill="#FEE14C"/>
<path fill-rule="evenodd" clip-rule="evenodd" d="M384.093 80.0979C388.327 79.5555 392.666 79.3735 397.109 79.5512C397.109 83.743 397.109 87.9344 397.109 92.1262C396.922 92.1262 396.729 92.1262 396.543 92.1262C396.543 88.117 396.543 84.1072 396.543 80.0979C392.395 80.0979 388.243 80.0979 384.093 80.0979Z" fill="#674D2E"/>
<path fill-rule="evenodd" clip-rule="evenodd" d="M7.76709 80.0977C11.9169 80.0977 16.0672 80.0977 20.2169 80.0977C20.2169 88.1167 20.2169 96.1352 20.2169 104.154C20.0285 104.154 19.8395 104.154 19.651 104.154C15.6897 104.154 11.7284 104.154 7.76709 104.154C7.76709 96.1352 7.76709 88.1167 7.76709 80.0977Z" fill="#FA6BA2"/>
<path fill-rule="evenodd" clip-rule="evenodd" d="M57.5664 80.0977C66.0549 80.0977 74.5435 80.0977 83.032 80.0977C83.032 84.1069 83.032 88.1167 83.032 92.126C74.5435 92.126 66.0549 92.126 57.5664 92.126C57.5664 88.1167 57.5664 84.1069 57.5664 80.0977Z" fill="#FB6CA1"/>
<path fill-rule="evenodd" clip-rule="evenodd" d="M107.932 80.0977C112.081 80.0977 116.232 80.0977 120.381 80.0977C120.381 88.1167 120.381 96.1352 120.381 104.154C120.381 108.164 120.381 112.173 120.381 116.183C116.232 116.183 112.081 116.183 107.932 116.183C107.932 104.154 107.932 92.126 107.932 80.0977Z" fill="#FA6BA1"/>
<path fill-rule="evenodd" clip-rule="evenodd" d="M308.827 80.0977C308.827 83.9249 308.827 87.752 308.827 91.5792C304.488 91.5792 300.15 91.5792 295.811 91.5792C295.811 95.5885 295.811 99.5983 295.811 103.608C291.662 103.608 287.511 103.608 283.362 103.608C283.175 111.905 283.364 120.106 283.928 128.211C287.889 128.211 291.85 128.211 295.811 128.211C296 128.211 296.189 128.211 296.377 128.211C296.377 132.22 296.377 136.23 296.377 140.239C317.316 140.239 338.254 140.239 359.193 140.239C359.193 136.23 359.193 132.22 359.193 128.211C367.493 128.211 375.792 128.211 384.092 128.211C384.092 124.202 384.092 120.192 384.092 116.183C388.242 116.183 392.394 116.183 396.542 116.183C396.542 112.173 396.542 108.164 396.542 104.154C400.69 104.154 404.844 104.154 408.992 104.154C408.992 108.164 408.992 112.173 408.992 116.183C413.14 116.183 417.294 116.183 421.442 116.183C421.261 120.294 421.448 124.303 422.008 128.211C430.31 128.211 438.606 128.211 446.907 128.211C446.907 132.22 446.907 136.23 446.907 140.239C451.055 140.239 455.209 140.239 459.357 140.239C459.357 136.23 459.357 132.22 459.357 128.211C463.505 128.211 467.659 128.211 471.807 128.211C471.807 132.22 471.807 136.23 471.807 140.239C505.382 140.239 538.963 140.239 572.538 140.239C572.538 144.249 572.538 148.258 572.538 152.268C346.554 152.268 120.57 152.268 -105.413 152.268C-105.413 148.258 -105.413 144.249 -105.413 140.239C-109.563 140.239 -113.714 140.239 -117.863 140.239C-117.863 132.22 -117.863 124.202 -117.863 116.183C-113.714 116.183 -109.563 116.183 -105.413 116.183C-105.413 112.173 -105.413 108.164 -105.413 104.154C-101.264 104.154 -97.1133 104.154 -92.9636 104.154C-92.9636 108.164 -92.9636 112.173 -92.9636 116.183C-88.8138 116.183 -84.6635 116.183 -80.5137 116.183C-80.6976 120.294 -80.5092 124.303 -79.9478 128.211C-67.498 128.211 -55.0481 128.211 -42.5982 128.211C-42.5982 132.22 -42.5982 136.23 -42.5982 140.239C-21.6599 140.239 -0.721458 140.239 20.2169 140.239C20.2169 136.23 20.2169 132.22 20.2169 128.211C36.8166 128.211 53.4167 128.211 70.0164 128.211C70.0164 132.22 70.0164 136.23 70.0164 140.239C74.3551 140.239 78.6933 140.239 83.0321 140.239C83.0321 136.23 83.0321 132.22 83.0321 128.211C87.1819 128.211 91.3322 128.211 95.482 128.211C95.482 132.22 95.482 136.23 95.482 140.239C103.782 140.239 112.082 140.239 120.382 140.239C120.382 136.23 120.382 132.22 120.382 128.211C124.531 128.211 128.682 128.211 132.832 128.211C133.393 124.12 133.581 119.929 133.397 115.636C129.248 115.636 125.097 115.636 120.948 115.636C120.948 111.809 120.948 107.982 120.948 104.154C129.248 104.154 137.547 104.154 145.847 104.154C145.847 112.173 145.847 120.192 145.847 128.211C149.997 128.211 154.147 128.211 158.297 128.211C158.297 132.22 158.297 136.23 158.297 140.239C162.447 140.239 166.597 140.239 170.747 140.239C170.747 136.23 170.747 132.22 170.747 128.211C174.897 128.211 179.047 128.211 183.197 128.211C183.197 132.22 183.197 136.23 183.197 140.239C195.835 140.239 208.474 140.239 221.112 140.239C221.112 136.23 221.112 132.22 221.112 128.211C229.412 128.211 237.712 128.211 246.012 128.211C246.012 124.202 246.012 120.192 246.012 116.183C250.162 116.183 254.312 116.183 258.462 116.183C258.462 112.173 258.462 108.164 258.462 104.154C262.801 104.154 267.139 104.154 271.478 104.154C271.478 100.145 271.478 96.1352 271.478 92.126C275.627 92.126 279.778 92.126 283.928 92.126C283.928 88.1167 283.928 84.1069 283.928 80.0977C292.228 80.0977 300.527 80.0977 308.827 80.0977Z" fill="#5561D2"/>
<path fill-rule="evenodd" clip-rule="evenodd" d="M333.727 80.0977C337.877 80.0977 342.027 80.0977 346.177 80.0977C346.177 84.1069 346.177 88.1167 346.177 92.126C354.665 92.126 363.154 92.126 371.642 92.126C371.642 88.1167 371.642 84.1069 371.642 80.0977C375.792 80.0977 379.942 80.0977 384.092 80.0977C388.242 80.0977 392.394 80.0977 396.542 80.0977C396.542 84.1069 396.542 88.1167 396.542 92.126C396.542 96.1352 396.542 100.145 396.542 104.154C384.092 104.154 371.642 104.154 359.192 104.154C359.192 108.164 359.192 112.173 359.192 116.183C350.704 116.183 342.215 116.183 333.727 116.183C333.727 120.192 333.727 124.202 333.727 128.211C325.427 128.211 317.127 128.211 308.827 128.211C308.827 120.192 308.827 112.173 308.827 104.154C308.827 103.972 308.827 103.79 308.827 103.608C308.827 99.7804 308.827 95.9532 308.827 92.126C313.082 92.3037 317.232 92.1216 321.277 91.5792C321.277 87.752 321.277 83.9249 321.277 80.0977C325.427 80.0977 329.577 80.0977 333.727 80.0977Z" fill="#FE989A"/>
<path fill-rule="evenodd" clip-rule="evenodd" d="M346.177 80.0977C354.665 80.0977 363.154 80.0977 371.642 80.0977C371.642 84.1069 371.642 88.1167 371.642 92.126C363.154 92.126 354.665 92.126 346.177 92.126C346.177 88.1167 346.177 84.1069 346.177 80.0977Z" fill="#FB6CA1"/>
<path fill-rule="evenodd" clip-rule="evenodd" d="M384.093 80.0977C388.243 80.0977 392.395 80.0977 396.543 80.0977C396.543 84.1069 396.543 88.1167 396.543 92.126C392.395 92.126 388.243 92.126 384.093 92.126C384.093 88.1167 384.093 84.1069 384.093 80.0977Z" fill="#FFE04D"/>
<path fill-rule="evenodd" clip-rule="evenodd" d="M459.357 80.0977C459.357 84.1069 459.357 88.1167 459.357 92.126C459.357 95.9532 459.357 99.7804 459.357 103.608C455.209 103.608 451.055 103.608 446.907 103.608C446.907 99.7804 446.907 95.9532 446.907 92.126C446.907 88.1167 446.907 84.1069 446.907 80.0977C451.055 80.0977 455.209 80.0977 459.357 80.0977Z" fill="#8D68E6"/>
<path fill-rule="evenodd" clip-rule="evenodd" d="M459.357 80.0977C463.505 80.0977 467.659 80.0977 471.807 80.0977C471.807 84.1069 471.807 88.1167 471.807 92.126C467.659 92.126 463.505 92.126 459.357 92.126C459.357 88.1167 459.357 84.1069 459.357 80.0977Z" fill="#FB6BA1"/>
<path fill-rule="evenodd" clip-rule="evenodd" d="M471.808 80.0977C475.956 80.0977 480.109 80.0977 484.257 80.0977C484.257 84.1069 484.257 88.1167 484.257 92.126C480.109 92.126 475.956 92.126 471.808 92.126C471.808 88.1167 471.808 84.1069 471.808 80.0977Z" fill="#FFDF4E"/>
<path fill-rule="evenodd" clip-rule="evenodd" d="M471.808 80.0975C471.808 79.9155 471.808 79.7328 471.808 79.5508C476.148 79.5508 480.483 79.5508 484.823 79.5508C484.823 83.7427 484.823 87.934 484.823 92.1259C484.637 92.1259 484.444 92.1259 484.257 92.1259C484.257 88.1166 484.257 84.1068 484.257 80.0975C480.109 80.0975 475.956 80.0975 471.808 80.0975Z" fill="#9F7843"/>
<path fill-rule="evenodd" clip-rule="evenodd" d="M157.731 91.5791C157.731 91.7612 157.731 91.9438 157.731 92.1258C153.77 92.1258 149.808 92.1258 145.847 92.1258C145.847 96.1351 145.847 100.145 145.847 104.154C137.547 104.154 129.247 104.154 120.947 104.154C120.947 103.972 120.947 103.789 120.947 103.607C129.058 103.607 137.17 103.607 145.281 103.607C145.281 99.5982 145.281 95.5884 145.281 91.5791C149.431 91.5791 153.581 91.5791 157.731 91.5791Z" fill="#422A34"/>
<path fill-rule="evenodd" clip-rule="evenodd" d="M157.731 92.1258C157.731 91.9438 157.731 91.7612 157.731 91.5791C166.408 91.5791 175.086 91.5791 183.763 91.5791C183.763 95.5884 183.763 99.5982 183.763 103.607C192.163 103.428 200.463 103.61 208.663 104.154C208.474 104.154 208.285 104.154 208.097 104.154C204.135 104.154 200.174 104.154 196.213 104.154C196.024 104.154 195.835 104.154 195.647 104.154C191.497 104.154 187.347 104.154 183.197 104.154C183.197 100.145 183.197 96.1351 183.197 92.1258C174.897 92.1258 166.597 92.1258 158.297 92.1258C158.109 92.1258 157.92 92.1258 157.731 92.1258Z" fill="#664B2E"/>
<path fill-rule="evenodd" clip-rule="evenodd" d="M308.827 91.5791C312.977 91.5791 317.127 91.5791 321.277 91.5791C317.232 92.1215 313.082 92.3035 308.827 92.1258C304.678 92.1258 300.527 92.1258 296.377 92.1258C296.377 95.953 296.377 99.7802 296.377 103.607C296.189 103.607 296 103.607 295.812 103.607C295.812 99.5982 295.812 95.5884 295.812 91.5791C300.15 91.5791 304.489 91.5791 308.827 91.5791Z" fill="#8D6FCE"/>
<path fill-rule="evenodd" clip-rule="evenodd" d="M471.807 79.5508C471.807 79.7328 471.807 79.9155 471.807 80.0975C467.659 80.0975 463.506 80.0975 459.358 80.0975C455.209 80.0975 451.056 80.0975 446.908 80.0975C446.908 84.1068 446.908 88.1166 446.908 92.1259C446.721 92.1259 446.529 92.1259 446.342 92.1259C434.079 92.1259 421.821 92.1259 409.558 92.1259C409.371 92.1259 409.179 92.1259 408.992 92.1259C421.346 91.5807 433.796 91.3981 446.342 91.5791C446.342 87.5698 446.342 83.56 446.342 79.5508C454.83 79.5508 463.319 79.5508 471.807 79.5508Z" fill="#503550"/>
<path fill-rule="evenodd" clip-rule="evenodd" d="M157.732 92.126C157.92 92.126 158.109 92.126 158.298 92.126C158.298 96.1352 158.298 100.145 158.298 104.154C154.148 104.154 149.997 104.154 145.848 104.154C145.848 100.145 145.848 96.1352 145.848 92.126C149.809 92.126 153.77 92.126 157.732 92.126Z" fill="#FE9999"/>
<path fill-rule="evenodd" clip-rule="evenodd" d="M158.297 92.126C166.597 92.126 174.896 92.126 183.197 92.126C183.197 96.1352 183.197 100.145 183.197 104.154C174.896 104.154 166.597 104.154 158.297 104.154C158.297 100.145 158.297 96.1352 158.297 92.126Z" fill="#FFE04D"/>
<path fill-rule="evenodd" clip-rule="evenodd" d="M308.828 92.126C308.828 95.9532 308.828 99.7804 308.828 103.608C304.678 103.608 300.528 103.608 296.378 103.608C296.378 99.7804 296.378 95.9532 296.378 92.126C300.528 92.126 304.678 92.126 308.828 92.126Z" fill="#8E68E5"/>
<path fill-rule="evenodd" clip-rule="evenodd" d="M459.357 92.126C463.505 92.126 467.659 92.126 471.807 92.126C475.955 92.126 480.109 92.126 484.257 92.126C484.444 92.126 484.636 92.126 484.823 92.126C488.784 92.126 492.746 92.126 496.707 92.126C496.707 96.1352 496.707 100.145 496.707 104.154C505.196 104.154 513.684 104.154 522.173 104.154C522.173 108.164 522.173 112.173 522.173 116.183C501.234 116.183 480.296 116.183 459.357 116.183C459.357 112.173 459.357 108.164 459.357 104.154C459.357 103.972 459.357 103.79 459.357 103.608C459.357 99.7804 459.357 95.9532 459.357 92.126Z" fill="#FE989A"/>
<path fill-rule="evenodd" clip-rule="evenodd" d="M497.272 92.126C505.574 92.126 513.87 92.126 522.172 92.126C522.172 95.9532 522.172 99.7804 522.172 103.608C513.87 103.608 505.574 103.608 497.272 103.608C497.272 99.7804 497.272 95.9532 497.272 92.126Z" fill="#FFE04D"/>
<path fill-rule="evenodd" clip-rule="evenodd" d="M396.542 92.126C396.729 92.126 396.921 92.126 397.108 92.126C397.108 95.9532 397.108 99.7804 397.108 103.608C401.069 103.608 405.031 103.608 408.992 103.608C408.992 103.79 408.992 103.972 408.992 104.154C404.844 104.154 400.69 104.154 396.542 104.154C396.542 100.145 396.542 96.1352 396.542 92.126Z" fill="#452F42"/>
<path fill-rule="evenodd" clip-rule="evenodd" d="M408.992 92.126C409.179 92.126 409.371 92.126 409.558 92.126C409.558 95.9532 409.558 99.7804 409.558 103.608C421.821 103.608 434.079 103.608 446.342 103.608C446.342 99.7804 446.342 95.9532 446.342 92.126C446.529 92.126 446.721 92.126 446.908 92.126C446.908 95.9532 446.908 99.7804 446.908 103.608C451.056 103.608 455.209 103.608 459.358 103.608C459.358 103.79 459.358 103.972 459.358 104.154C455.209 104.154 451.056 104.154 446.908 104.154C446.908 108.164 446.908 112.173 446.908 116.183C446.347 112.275 446.161 108.265 446.342 104.154C434.079 104.154 421.821 104.154 409.558 104.154C409.558 107.982 409.558 111.809 409.558 115.636C413.706 115.636 417.86 115.636 422.008 115.636C422.008 119.828 422.008 124.019 422.008 128.211C421.448 124.303 421.261 120.294 421.442 116.183C417.294 116.183 413.14 116.183 408.992 116.183C408.992 112.173 408.992 108.164 408.992 104.154C408.992 103.972 408.992 103.79 408.992 103.608C408.992 99.7804 408.992 95.9532 408.992 92.126Z" fill="#8D6CCE"/>
<path fill-rule="evenodd" clip-rule="evenodd" d="M409.558 92.126C421.821 92.126 434.078 92.126 446.341 92.126C446.341 95.9532 446.341 99.7804 446.341 103.608C434.078 103.608 421.821 103.608 409.558 103.608C409.558 99.7804 409.558 95.9532 409.558 92.126Z" fill="#5561D3"/>
<path fill-rule="evenodd" clip-rule="evenodd" d="M496.707 92.126C496.894 92.126 497.086 92.126 497.273 92.126C497.273 95.9532 497.273 99.7804 497.273 103.608C505.575 103.608 513.871 103.608 522.173 103.608C522.173 103.79 522.173 103.972 522.173 104.154C513.684 104.154 505.196 104.154 496.707 104.154C496.707 100.145 496.707 96.1352 496.707 92.126Z" fill="#FFCC63"/>
<path fill-rule="evenodd" clip-rule="evenodd" d="M20.2173 104.154C37.0059 104.154 53.794 104.154 70.5826 104.154C70.5826 108.164 70.5826 112.173 70.5826 116.183C83.0325 116.183 95.4823 116.183 107.932 116.183C107.932 120.192 107.932 124.202 107.932 128.211C103.782 128.211 99.6321 128.211 95.4823 128.211C91.3326 128.211 87.1822 128.211 83.0325 128.211C78.6937 128.211 74.3555 128.211 70.0167 128.211C70.0167 124.202 70.0167 120.192 70.0167 116.183C53.4171 116.183 36.8169 116.183 20.2173 116.183C20.2173 112.173 20.2173 108.164 20.2173 104.154Z" fill="#FA6BA2"/>
<path fill-rule="evenodd" clip-rule="evenodd" d="M145.848 104.154C149.997 104.154 154.148 104.154 158.298 104.154C158.298 112.173 158.298 120.192 158.298 128.211C154.148 128.211 149.997 128.211 145.848 128.211C145.848 120.192 145.848 112.173 145.848 104.154Z" fill="#FB6BA1"/>
<path fill-rule="evenodd" clip-rule="evenodd" d="M158.297 104.154C166.597 104.154 174.896 104.154 183.197 104.154C187.346 104.154 191.497 104.154 195.646 104.154C195.646 108.164 195.646 112.173 195.646 116.183C199.985 116.183 204.323 116.183 208.662 116.183C212.812 116.183 216.962 116.183 221.112 116.183C221.112 120.192 221.112 124.202 221.112 128.211C208.474 128.211 195.835 128.211 183.197 128.211C179.047 128.211 174.896 128.211 170.747 128.211C166.597 128.211 162.447 128.211 158.297 128.211C158.297 120.192 158.297 112.173 158.297 104.154Z" fill="#FE9899"/>
<path fill-rule="evenodd" clip-rule="evenodd" d="M295.811 103.607C296 103.607 296.189 103.607 296.377 103.607C300.527 103.607 304.677 103.607 308.827 103.607C308.827 103.789 308.827 103.972 308.827 104.154C304.677 104.154 300.527 104.154 296.377 104.154C296.377 112.173 296.377 120.192 296.377 128.211C296.189 128.211 296 128.211 295.811 128.211C295.811 120.192 295.811 112.173 295.811 104.154C291.85 104.154 287.889 104.154 283.927 104.154C283.927 112.173 283.927 120.192 283.927 128.211C283.364 120.106 283.175 111.905 283.361 103.607C287.511 103.607 291.661 103.607 295.811 103.607Z" fill="#AF71C9"/>
<path fill-rule="evenodd" clip-rule="evenodd" d="M295.812 128.211C291.85 128.211 287.889 128.211 283.928 128.211C283.928 120.192 283.928 112.173 283.928 104.154C287.889 104.154 291.85 104.154 295.812 104.154C295.812 112.173 295.812 120.192 295.812 128.211Z" fill="#8E68E5"/>
<path fill-rule="evenodd" clip-rule="evenodd" d="M308.828 104.154C308.828 112.173 308.828 120.192 308.828 128.211C304.678 128.211 300.528 128.211 296.378 128.211C296.378 120.192 296.378 112.173 296.378 104.154C300.528 104.154 304.678 104.154 308.828 104.154Z" fill="#FA6BA2"/>
<path fill-rule="evenodd" clip-rule="evenodd" d="M396.542 104.154C396.542 108.164 396.542 112.173 396.542 116.183C392.394 116.183 388.242 116.183 384.092 116.183C375.792 116.183 367.492 116.183 359.192 116.183C359.192 112.173 359.192 108.164 359.192 104.154C371.642 104.154 384.092 104.154 396.542 104.154Z" fill="#FA6BA2"/>
<path fill-rule="evenodd" clip-rule="evenodd" d="M446.907 116.183C451.055 116.183 455.209 116.183 459.357 116.183C459.357 120.192 459.357 124.202 459.357 128.211C459.357 132.22 459.357 136.23 459.357 140.239C455.209 140.239 451.055 140.239 446.907 140.239C446.907 136.23 446.907 132.22 446.907 128.211C438.605 128.211 430.309 128.211 422.007 128.211C422.007 124.019 422.007 119.828 422.007 115.636C417.859 115.636 413.706 115.636 409.558 115.636C409.558 111.809 409.558 107.981 409.558 104.154C421.821 104.154 434.078 104.154 446.341 104.154C446.16 108.265 446.347 112.275 446.907 116.183Z" fill="#8D68E6"/>
<path fill-rule="evenodd" clip-rule="evenodd" d="M459.357 104.154C459.357 108.164 459.357 112.173 459.357 116.183C455.209 116.183 451.055 116.183 446.907 116.183C446.907 112.173 446.907 108.164 446.907 104.154C451.055 104.154 455.209 104.154 459.357 104.154Z" fill="#FA6BA2"/>
<path fill-rule="evenodd" clip-rule="evenodd" d="M120.382 104.154C120.57 104.154 120.759 104.154 120.948 104.154C120.948 107.981 120.948 111.809 120.948 115.636C125.098 115.636 129.248 115.636 133.398 115.636C133.582 119.929 133.393 124.12 132.832 128.211C132.832 124.202 132.832 120.192 132.832 116.183C128.682 116.183 124.532 116.183 120.382 116.183C120.382 112.173 120.382 108.164 120.382 104.154Z" fill="#926EC8"/>
<path fill-rule="evenodd" clip-rule="evenodd" d="M195.646 104.154C195.835 104.154 196.024 104.154 196.212 104.154C196.212 107.981 196.212 111.809 196.212 115.636C200.174 115.636 204.135 115.636 208.096 115.636C208.096 111.809 208.096 107.981 208.096 104.154C208.285 104.154 208.474 104.154 208.662 104.154C208.662 108.164 208.662 112.173 208.662 116.183C204.323 116.183 199.985 116.183 195.646 116.183C195.646 112.173 195.646 108.164 195.646 104.154Z" fill="#EFC459"/>
<path fill-rule="evenodd" clip-rule="evenodd" d="M196.213 104.154C200.174 104.154 204.136 104.154 208.097 104.154C208.097 107.981 208.097 111.809 208.097 115.636C204.136 115.636 200.174 115.636 196.213 115.636C196.213 111.809 196.213 107.981 196.213 104.154Z" fill="#FEE14C"/>
<path fill-rule="evenodd" clip-rule="evenodd" d="M-17.1325 116.183C-13.1712 116.183 -9.2099 116.183 -5.24858 116.183C-5.4325 120.294 -5.24405 124.303 -4.68267 128.211C3.61742 128.211 11.9169 128.211 20.217 128.211C20.217 132.22 20.217 136.23 20.217 140.239C-0.721355 140.239 -21.6597 140.239 -42.5981 140.239C-42.5981 136.23 -42.5981 132.22 -42.5981 128.211C-34.2981 128.211 -25.9985 128.211 -17.6984 128.211C-17.1371 124.303 -16.9486 120.294 -17.1325 116.183Z" fill="#8E68E5"/>
<path fill-rule="evenodd" clip-rule="evenodd" d="M20.2171 116.183C20.2171 120.192 20.2171 124.202 20.2171 128.211C11.917 128.211 3.61748 128.211 -4.68262 128.211C-4.68262 124.202 -4.68262 120.192 -4.68262 116.183C3.61748 116.183 11.917 116.183 20.2171 116.183Z" fill="#5661D2"/>
<path fill-rule="evenodd" clip-rule="evenodd" d="M20.2173 116.183C36.8169 116.183 53.4171 116.183 70.0167 116.183C70.0167 120.192 70.0167 124.202 70.0167 128.211C53.4171 128.211 36.8169 128.211 20.2173 128.211C20.2173 124.202 20.2173 120.192 20.2173 116.183Z" fill="#8E68E5"/>
<path fill-rule="evenodd" clip-rule="evenodd" d="M107.932 116.183C112.082 116.183 116.232 116.183 120.382 116.183C124.532 116.183 128.682 116.183 132.832 116.183C132.832 120.192 132.832 124.202 132.832 128.211C128.682 128.211 124.532 128.211 120.382 128.211C120.382 132.22 120.382 136.23 120.382 140.239C112.082 140.239 103.783 140.239 95.4824 140.239C95.4824 136.23 95.4824 132.22 95.4824 128.211C99.6322 128.211 103.783 128.211 107.932 128.211C107.932 124.202 107.932 120.192 107.932 116.183Z" fill="#8E68E5"/>
<path fill-rule="evenodd" clip-rule="evenodd" d="M359.193 116.183C359.193 120.192 359.193 124.202 359.193 128.211C350.705 128.211 342.216 128.211 333.728 128.211C333.728 124.202 333.728 120.192 333.728 116.183C342.216 116.183 350.705 116.183 359.193 116.183Z" fill="#FA6BA2"/>
<path fill-rule="evenodd" clip-rule="evenodd" d="M359.192 116.183C367.492 116.183 375.792 116.183 384.092 116.183C384.092 120.192 384.092 124.202 384.092 128.211C375.792 128.211 367.492 128.211 359.192 128.211C359.192 124.202 359.192 120.192 359.192 116.183Z" fill="#8E68E5"/>
<path fill-rule="evenodd" clip-rule="evenodd" d="M459.357 116.183C480.296 116.183 501.234 116.183 522.173 116.183C530.474 116.183 538.771 116.183 547.072 116.183C547.072 120.192 547.072 124.202 547.072 128.211C521.986 128.211 496.894 128.211 471.807 128.211C467.659 128.211 463.505 128.211 459.357 128.211C459.357 124.202 459.357 120.192 459.357 116.183Z" fill="#FA6BA2"/>
<path fill-rule="evenodd" clip-rule="evenodd" d="M547.073 116.183C551.413 116.183 555.748 116.183 560.088 116.183C560.088 120.192 560.088 124.202 560.088 128.211C568.39 128.211 576.686 128.211 584.988 128.211C584.988 132.22 584.988 136.23 584.988 140.239C580.84 140.239 576.686 140.239 572.538 140.239C538.963 140.239 505.383 140.239 471.808 140.239C471.808 136.23 471.808 132.22 471.808 128.211C496.894 128.211 521.986 128.211 547.073 128.211C547.073 124.202 547.073 120.192 547.073 116.183Z" fill="#8E68E5"/>
<path fill-rule="evenodd" clip-rule="evenodd" d="M70.0166 128.211C74.3554 128.211 78.6936 128.211 83.0324 128.211C83.0324 132.22 83.0324 136.23 83.0324 140.239C78.6936 140.239 74.3554 140.239 70.0166 140.239C70.0166 136.23 70.0166 132.22 70.0166 128.211Z" fill="#8F68E4"/>
<path fill-rule="evenodd" clip-rule="evenodd" d="M158.297 128.211C162.447 128.211 166.597 128.211 170.747 128.211C170.747 132.22 170.747 136.23 170.747 140.239C166.597 140.239 162.447 140.239 158.297 140.239C158.297 136.23 158.297 132.22 158.297 128.211Z" fill="#FB6BA2"/>
<path fill-rule="evenodd" clip-rule="evenodd" d="M183.197 128.211C195.836 128.211 208.474 128.211 221.113 128.211C221.113 132.22 221.113 136.23 221.113 140.239C208.474 140.239 195.836 140.239 183.197 140.239C183.197 136.23 183.197 132.22 183.197 128.211Z" fill="#FA6BA2"/>
<path fill-rule="evenodd" clip-rule="evenodd" d="M296.378 128.211C300.528 128.211 304.678 128.211 308.828 128.211C317.128 128.211 325.427 128.211 333.727 128.211C342.216 128.211 350.705 128.211 359.193 128.211C359.193 132.22 359.193 136.23 359.193 140.239C338.255 140.239 317.316 140.239 296.378 140.239C296.378 136.23 296.378 132.22 296.378 128.211Z" fill="#8E68E5"/>
<path fill-rule="evenodd" clip-rule="evenodd" d="M32.667 31.9842C32.667 31.802 32.667 31.6197 32.667 31.4375C41.1555 31.4375 49.6441 31.4375 58.1326 31.4375C58.1326 35.4469 58.1326 39.4564 58.1326 43.4658C62.0939 43.4658 66.0552 43.4658 70.0166 43.4658C70.0166 43.6481 70.0166 43.8303 70.0166 44.0126C65.8668 44.0126 61.7165 44.0126 57.5667 44.0126C57.5667 40.0031 57.5667 35.9937 57.5667 31.9842C49.2666 31.9842 40.9671 31.9842 32.667 31.9842Z" fill="#9F4E64"/>
<path fill-rule="evenodd" clip-rule="evenodd" d="M32.6668 31.9844C32.6668 35.8116 32.6668 39.6388 32.6668 43.466C28.517 43.466 24.3667 43.466 20.2169 43.466C20.2169 47.4754 20.2169 51.4849 20.2169 55.4943C16.0672 55.4943 11.9169 55.4943 7.76709 55.4943C7.76709 51.6671 7.76709 47.8399 7.76709 44.0127C7.76709 40.0033 7.76709 35.9938 7.76709 31.9844C16.0672 31.9844 24.3667 31.9844 32.6668 31.9844Z" fill="#8E68E5"/>
<path fill-rule="evenodd" clip-rule="evenodd" d="M32.6671 31.9844C40.9672 31.9844 49.2668 31.9844 57.5669 31.9844C57.5669 35.9938 57.5669 40.0033 57.5669 44.0127C49.2668 44.0127 40.9672 44.0127 32.6671 44.0127C32.6671 48.0221 32.6671 52.0316 32.6671 56.041C28.5174 56.041 24.367 56.041 20.2173 56.041C20.2173 55.859 20.2173 55.6764 20.2173 55.4943C20.2173 51.4849 20.2173 47.4754 20.2173 43.466C24.367 43.466 28.5174 43.466 32.6671 43.466C32.6671 39.6388 32.6671 35.8116 32.6671 31.9844Z" fill="#FA6BA2"/>
<path fill-rule="evenodd" clip-rule="evenodd" d="M32.6669 31.4375C32.6669 31.6197 32.6669 31.802 32.6669 31.9842C24.3668 31.9842 16.0673 31.9842 7.76722 31.9842C7.76722 35.9937 7.76722 40.0031 7.76722 44.0126C7.57878 44.0126 7.38977 44.0126 7.20132 44.0126C3.24 44.0126 -0.721314 44.0126 -4.68263 44.0126C-4.68263 47.8398 -4.68263 51.667 -4.68263 55.4942C-4.87108 55.4942 -5.06009 55.4942 -5.24854 55.4942C-5.24854 51.4847 -5.24854 47.4753 -5.24854 43.4658C-1.09877 43.4658 3.05156 43.4658 7.20132 43.4658C7.20132 39.4564 7.20132 35.4469 7.20132 31.4375C15.6899 31.4375 24.1784 31.4375 32.6669 31.4375Z" fill="#664C81"/>
<path fill-rule="evenodd" clip-rule="evenodd" d="M7.20134 44.0127C7.20134 47.8399 7.20134 51.6671 7.20134 55.4943C3.24002 55.4943 -0.721299 55.4943 -4.68262 55.4943C-4.68262 51.6671 -4.68262 47.8399 -4.68262 44.0127C-0.721299 44.0127 3.24002 44.0127 7.20134 44.0127Z" fill="#5561D3"/>
<path fill-rule="evenodd" clip-rule="evenodd" d="M57.5665 44.0127C61.7163 44.0127 65.8666 44.0127 70.0164 44.0127C70.0164 48.0221 70.0164 52.0316 70.0164 56.041C74.3551 56.041 78.6934 56.041 83.0321 56.041C83.0321 60.0503 83.0321 64.0601 83.0321 68.0694C87.1819 68.0694 91.3322 68.0694 95.482 68.0694C95.482 72.0786 95.482 76.0884 95.482 80.0977C99.6317 80.0977 103.782 80.0977 107.932 80.0977C107.932 92.126 107.932 104.154 107.932 116.183C95.482 116.183 83.0321 116.183 70.5823 116.183C70.5823 112.173 70.5823 108.164 70.5823 104.154C53.7936 104.154 37.0056 104.154 20.2169 104.154C20.2169 96.1353 20.2169 88.1168 20.2169 80.0977C16.0672 80.0977 11.9169 80.0977 7.76709 80.0977C7.76709 72.0786 7.76709 64.0601 7.76709 56.041C11.9169 56.041 16.0672 56.041 20.2169 56.041C24.3667 56.041 28.517 56.041 32.6668 56.041C32.6668 52.0316 32.6668 48.0221 32.6668 44.0127C40.9669 44.0127 49.2664 44.0127 57.5665 44.0127Z" fill="#FE989A"/>
<path fill-rule="evenodd" clip-rule="evenodd" d="M70.0166 43.4658C74.3554 43.4658 78.6936 43.4658 83.0324 43.4658C83.0324 47.4752 83.0324 51.4847 83.0324 55.4941C87.2874 55.3165 91.4371 55.4985 95.4822 56.0409C91.3325 56.0409 87.1821 56.0409 83.0324 56.0409C78.6936 56.0409 74.3554 56.0409 70.0166 56.0409C70.0166 52.0315 70.0166 48.022 70.0166 44.0126C70.0166 43.8303 70.0166 43.648 70.0166 43.4658Z" fill="#E8B262"/>
<path fill-rule="evenodd" clip-rule="evenodd" d="M70.582 44.0127C74.5433 44.0127 78.5047 44.0127 82.466 44.0127C82.466 47.8399 82.466 51.6671 82.466 55.4943C78.5047 55.4943 74.5433 55.4943 70.582 55.4943C70.582 51.6671 70.582 47.8399 70.582 44.0127Z" fill="#FEE14C"/>
<path fill-rule="evenodd" clip-rule="evenodd" d="M83.0322 56.041C87.182 56.041 91.3323 56.041 95.4821 56.041C95.4821 59.8682 95.4821 63.6954 95.4821 67.5226C95.4821 67.7047 95.4821 67.8873 95.4821 68.0693C91.3323 68.0693 87.182 68.0693 83.0322 68.0693C83.0322 64.0601 83.0322 60.0503 83.0322 56.041Z" fill="#FFDF4E"/>
<path fill-rule="evenodd" clip-rule="evenodd" d="M95.4824 68.0692C95.4824 67.8871 95.4824 67.7045 95.4824 67.5225C99.8212 67.5225 104.159 67.5225 108.498 67.5225C108.498 71.5317 108.498 75.5415 108.498 79.5508C108.31 79.5508 108.121 79.5508 107.932 79.5508C107.932 75.7236 107.932 71.8964 107.932 68.0692C103.783 68.0692 99.6322 68.0692 95.4824 68.0692Z" fill="#674B2D"/>
<path fill-rule="evenodd" clip-rule="evenodd" d="M7.20114 44.0127C7.38958 44.0127 7.57859 44.0127 7.76704 44.0127C7.76704 47.8399 7.76704 51.6671 7.76704 55.4943C11.9168 55.4943 16.0671 55.4943 20.2169 55.4943C20.2169 55.6763 20.2169 55.859 20.2169 56.041C16.0671 56.041 11.9168 56.041 7.76704 56.041C7.76704 64.0601 7.76704 72.0786 7.76704 80.0977C7.76704 88.1167 7.76704 96.1353 7.76704 104.154C7.20227 88.2102 7.01382 72.1727 7.20114 56.041C3.23982 56.041 -0.7215 56.041 -4.68282 56.041C-4.68282 60.0503 -4.68282 64.0601 -4.68282 68.0694C-8.83258 68.0694 -12.9829 68.0694 -17.1327 68.0694C-17.1327 79.9156 -17.1327 91.7613 -17.1327 103.608C-12.9829 103.608 -8.83258 103.608 -4.68282 103.608C-4.68282 107.617 -4.68282 111.627 -4.68282 115.636C3.42826 115.636 11.5399 115.636 19.651 115.636C19.651 111.809 19.651 107.982 19.651 104.154C19.8394 104.154 20.0285 104.154 20.2169 104.154C20.2169 108.164 20.2169 112.173 20.2169 116.183C11.9168 116.183 3.61728 116.183 -4.68282 116.183C-4.68282 120.192 -4.68282 124.202 -4.68282 128.211C-5.24419 124.303 -5.43264 120.294 -5.24872 116.183C-5.24872 112.173 -5.24872 108.164 -5.24872 104.154C-9.21004 104.154 -13.1714 104.154 -17.1327 104.154C-17.1327 108.164 -17.1327 112.173 -17.1327 116.183C-16.9488 120.294 -17.1372 124.303 -17.6986 128.211C-17.6986 124.202 -17.6986 120.192 -17.6986 116.183C-17.6986 112.173 -17.6986 108.164 -17.6986 104.154C-21.8483 104.154 -25.9987 104.154 -30.1484 104.154C-30.1484 100.145 -30.1484 96.1353 -30.1484 92.126C-30.1484 88.1167 -30.1484 84.1069 -30.1484 80.0977C-30.1484 79.9156 -30.1484 79.733 -30.1484 79.5509C-29.5848 87.4732 -29.3964 95.4923 -29.5825 103.608C-25.6212 103.608 -21.6599 103.608 -17.6986 103.608C-17.6986 91.7613 -17.6986 79.9156 -17.6986 68.0694C-21.8483 68.0694 -25.9987 68.0694 -30.1484 68.0694C-26.1034 67.527 -21.9536 67.3449 -17.6986 67.5226C-17.6986 63.5133 -17.6986 59.5035 -17.6986 55.4943C-13.5488 55.4943 -9.39849 55.4943 -5.24872 55.4943C-5.06028 55.4943 -4.87126 55.4943 -4.68282 55.4943C-0.7215 55.4943 3.23982 55.4943 7.20114 55.4943C7.20114 51.6671 7.20114 47.8399 7.20114 44.0127Z" fill="#996FC5"/>
<path fill-rule="evenodd" clip-rule="evenodd" d="M7.7669 104.154C11.7282 104.154 15.6895 104.154 19.6509 104.154C19.6509 107.982 19.6509 111.809 19.6509 115.636C11.5398 115.636 3.42813 115.636 -4.68296 115.636C-4.68296 111.627 -4.68296 107.617 -4.68296 103.608C-8.83272 103.608 -12.983 103.608 -17.1328 103.608C-17.1328 91.7613 -17.1328 79.9156 -17.1328 68.0693C-12.983 68.0693 -8.83272 68.0693 -4.68296 68.0693C-4.68296 64.0601 -4.68296 60.0503 -4.68296 56.041C-0.721638 56.041 3.23968 56.041 7.201 56.041C7.01369 72.1726 7.20213 88.2102 7.7669 104.154Z" fill="#8D68E6"/>
<path fill-rule="evenodd" clip-rule="evenodd" d="M32.667 68.0693C36.8168 68.0693 40.9671 68.0693 45.1168 68.0693C45.1168 76.0884 45.1168 84.1069 45.1168 92.126C40.9671 92.126 36.8168 92.126 32.667 92.126C32.667 84.1069 32.667 76.0884 32.667 68.0693Z" fill="#FB6BA1"/>
<path fill-rule="evenodd" clip-rule="evenodd" d="M95.4824 68.0693C99.6322 68.0693 103.783 68.0693 107.932 68.0693C107.932 71.8965 107.932 75.7237 107.932 79.5509C107.932 79.733 107.932 79.9156 107.932 80.0977C103.783 80.0977 99.6322 80.0977 95.4824 80.0977C95.4824 76.0884 95.4824 72.0786 95.4824 68.0693Z" fill="#FFE04E"/>
<path fill-rule="evenodd" clip-rule="evenodd" d="M333.727 68.0693C333.727 72.0786 333.727 76.0884 333.727 80.0977C329.577 80.0977 325.427 80.0977 321.277 80.0977C321.277 83.9249 321.277 87.7521 321.277 91.5793C317.127 91.5793 312.977 91.5793 308.827 91.5793C308.827 87.7521 308.827 83.9249 308.827 80.0977C308.827 79.9156 308.827 79.733 308.827 79.5509C308.827 75.7237 308.827 71.8965 308.827 68.0693C317.127 68.0693 325.427 68.0693 333.727 68.0693Z" fill="#8E68E5"/>
<path fill-rule="evenodd" clip-rule="evenodd" d="M107.932 80.0975C107.932 79.9155 107.932 79.7328 107.932 79.5508C108.12 79.5508 108.309 79.5508 108.498 79.5508C112.647 79.5508 116.798 79.5508 120.947 79.5508C120.947 87.5698 120.947 95.5884 120.947 103.607C120.947 103.79 120.947 103.972 120.947 104.154C120.759 104.154 120.57 104.154 120.381 104.154C120.381 96.1351 120.381 88.1166 120.381 80.0975C116.232 80.0975 112.081 80.0975 107.932 80.0975Z" fill="#783B4B"/>
<path fill-rule="evenodd" clip-rule="evenodd" d="M308.827 79.5508C308.827 79.7328 308.827 79.9155 308.827 80.0975C300.527 80.0975 292.228 80.0975 283.928 80.0975C283.928 84.1068 283.928 88.1166 283.928 92.1259C279.778 92.1259 275.627 92.1259 271.478 92.1259C271.478 96.1351 271.478 100.145 271.478 104.154C267.139 104.154 262.801 104.154 258.462 104.154C262.507 103.612 266.657 103.43 270.912 103.607C270.912 99.5982 270.912 95.5884 270.912 91.5791C275.062 91.5791 279.212 91.5791 283.362 91.5791C283.362 87.5698 283.362 83.56 283.362 79.5508C291.85 79.5508 300.339 79.5508 308.827 79.5508Z" fill="#4F3D62"/>
<path fill-rule="evenodd" clip-rule="evenodd" d="M371.642 80.0977C363.153 80.0977 354.665 80.0977 346.176 80.0977C342.027 80.0977 337.876 80.0977 333.727 80.0977C333.727 76.0885 333.727 72.0787 333.727 68.0694C346.267 67.5243 358.906 67.3417 371.642 67.5227C371.642 71.7145 371.642 75.9059 371.642 80.0977Z" fill="#D9AD55"/>
<path fill-rule="evenodd" clip-rule="evenodd" d="M334.293 68.0693C346.554 68.0693 358.815 68.0693 371.077 68.0693C371.077 71.8965 371.077 75.7237 371.077 79.5509C358.815 79.5509 346.554 79.5509 334.293 79.5509C334.293 75.7237 334.293 71.8965 334.293 68.0693Z" fill="#FEE14C"/>
<path fill-rule="evenodd" clip-rule="evenodd" d="M384.093 80.0979C388.327 79.5555 392.666 79.3735 397.109 79.5512C397.109 83.743 397.109 87.9344 397.109 92.1262C396.922 92.1262 396.729 92.1262 396.543 92.1262C396.543 88.117 396.543 84.1072 396.543 80.0979C392.395 80.0979 388.243 80.0979 384.093 80.0979Z" fill="#674D2E"/>
<path fill-rule="evenodd" clip-rule="evenodd" d="M7.76709 80.0977C11.9169 80.0977 16.0672 80.0977 20.2169 80.0977C20.2169 88.1167 20.2169 96.1352 20.2169 104.154C20.0285 104.154 19.8395 104.154 19.651 104.154C15.6897 104.154 11.7284 104.154 7.76709 104.154C7.76709 96.1352 7.76709 88.1167 7.76709 80.0977Z" fill="#FA6BA2"/>
<path fill-rule="evenodd" clip-rule="evenodd" d="M57.5669 80.0977C66.0554 80.0977 74.544 80.0977 83.0325 80.0977C83.0325 84.1069 83.0325 88.1167 83.0325 92.126C74.544 92.126 66.0554 92.126 57.5669 92.126C57.5669 88.1167 57.5669 84.1069 57.5669 80.0977Z" fill="#FB6CA1"/>
<path fill-rule="evenodd" clip-rule="evenodd" d="M107.932 80.0977C112.081 80.0977 116.232 80.0977 120.381 80.0977C120.381 88.1167 120.381 96.1352 120.381 104.154C120.381 108.164 120.381 112.173 120.381 116.183C116.232 116.183 112.081 116.183 107.932 116.183C107.932 104.154 107.932 92.126 107.932 80.0977Z" fill="#FA6BA1"/>
<path fill-rule="evenodd" clip-rule="evenodd" d="M308.827 80.0977C308.827 83.9249 308.827 87.752 308.827 91.5792C304.488 91.5792 300.15 91.5792 295.811 91.5792C295.811 95.5885 295.811 99.5983 295.811 103.608C291.662 103.608 287.511 103.608 283.362 103.608C283.175 111.905 283.364 120.106 283.928 128.211C287.889 128.211 291.85 128.211 295.811 128.211C296 128.211 296.189 128.211 296.377 128.211C296.377 132.22 296.377 136.23 296.377 140.239C317.316 140.239 338.254 140.239 359.193 140.239C359.193 136.23 359.193 132.22 359.193 128.211C367.493 128.211 375.792 128.211 384.092 128.211C384.092 124.202 384.092 120.192 384.092 116.183C388.242 116.183 392.394 116.183 396.542 116.183C396.542 112.173 396.542 108.164 396.542 104.154C400.69 104.154 404.844 104.154 408.992 104.154C408.992 108.164 408.992 112.173 408.992 116.183C413.14 116.183 417.294 116.183 421.442 116.183C421.261 120.294 421.448 124.303 422.008 128.211C430.31 128.211 438.606 128.211 446.907 128.211C446.907 132.22 446.907 136.23 446.907 140.239C451.055 140.239 455.209 140.239 459.357 140.239C459.357 136.23 459.357 132.22 459.357 128.211C463.505 128.211 467.659 128.211 471.807 128.211C471.807 132.22 471.807 136.23 471.807 140.239C505.382 140.239 538.963 140.239 572.538 140.239C572.538 144.249 572.538 148.258 572.538 152.268C346.554 152.268 120.57 152.268 -105.413 152.268C-105.413 148.258 -105.413 144.249 -105.413 140.239C-109.563 140.239 -113.714 140.239 -117.863 140.239C-117.863 132.22 -117.863 124.202 -117.863 116.183C-113.714 116.183 -109.563 116.183 -105.413 116.183C-105.413 112.173 -105.413 108.164 -105.413 104.154C-101.264 104.154 -97.1133 104.154 -92.9636 104.154C-92.9636 108.164 -92.9636 112.173 -92.9636 116.183C-88.8138 116.183 -84.6635 116.183 -80.5137 116.183C-80.6976 120.294 -80.5092 124.303 -79.9478 128.211C-67.498 128.211 -55.0481 128.211 -42.5982 128.211C-42.5982 132.22 -42.5982 136.23 -42.5982 140.239C-21.6599 140.239 -0.721458 140.239 20.2169 140.239C20.2169 136.23 20.2169 132.22 20.2169 128.211C36.8166 128.211 53.4167 128.211 70.0164 128.211C70.0164 132.22 70.0164 136.23 70.0164 140.239C74.3551 140.239 78.6933 140.239 83.0321 140.239C83.0321 136.23 83.0321 132.22 83.0321 128.211C87.1819 128.211 91.3322 128.211 95.482 128.211C95.482 132.22 95.482 136.23 95.482 140.239C103.782 140.239 112.082 140.239 120.382 140.239C120.382 136.23 120.382 132.22 120.382 128.211C124.531 128.211 128.682 128.211 132.832 128.211C133.393 124.12 133.581 119.929 133.397 115.636C129.248 115.636 125.097 115.636 120.948 115.636C120.948 111.809 120.948 107.982 120.948 104.154C129.248 104.154 137.547 104.154 145.847 104.154C145.847 112.173 145.847 120.192 145.847 128.211C149.997 128.211 154.147 128.211 158.297 128.211C158.297 132.22 158.297 136.23 158.297 140.239C162.447 140.239 166.597 140.239 170.747 140.239C170.747 136.23 170.747 132.22 170.747 128.211C174.897 128.211 179.047 128.211 183.197 128.211C183.197 132.22 183.197 136.23 183.197 140.239C195.835 140.239 208.474 140.239 221.112 140.239C221.112 136.23 221.112 132.22 221.112 128.211C229.412 128.211 237.712 128.211 246.012 128.211C246.012 124.202 246.012 120.192 246.012 116.183C250.162 116.183 254.312 116.183 258.462 116.183C258.462 112.173 258.462 108.164 258.462 104.154C262.801 104.154 267.139 104.154 271.478 104.154C271.478 100.145 271.478 96.1352 271.478 92.126C275.627 92.126 279.778 92.126 283.928 92.126C283.928 88.1167 283.928 84.1069 283.928 80.0977C292.228 80.0977 300.527 80.0977 308.827 80.0977Z" fill="#5561D2"/>
<path fill-rule="evenodd" clip-rule="evenodd" d="M333.727 80.0977C337.877 80.0977 342.027 80.0977 346.177 80.0977C346.177 84.1069 346.177 88.1167 346.177 92.126C354.665 92.126 363.154 92.126 371.642 92.126C371.642 88.1167 371.642 84.1069 371.642 80.0977C375.792 80.0977 379.942 80.0977 384.092 80.0977C388.242 80.0977 392.394 80.0977 396.542 80.0977C396.542 84.1069 396.542 88.1167 396.542 92.126C396.542 96.1352 396.542 100.145 396.542 104.154C384.092 104.154 371.642 104.154 359.192 104.154C359.192 108.164 359.192 112.173 359.192 116.183C350.704 116.183 342.215 116.183 333.727 116.183C333.727 120.192 333.727 124.202 333.727 128.211C325.427 128.211 317.127 128.211 308.827 128.211C308.827 120.192 308.827 112.173 308.827 104.154C308.827 103.972 308.827 103.79 308.827 103.608C308.827 99.7804 308.827 95.9532 308.827 92.126C313.082 92.3037 317.232 92.1216 321.277 91.5792C321.277 87.752 321.277 83.9249 321.277 80.0977C325.427 80.0977 329.577 80.0977 333.727 80.0977Z" fill="#FE989A"/>
<path fill-rule="evenodd" clip-rule="evenodd" d="M346.177 80.0977C354.665 80.0977 363.154 80.0977 371.642 80.0977C371.642 84.1069 371.642 88.1167 371.642 92.126C363.154 92.126 354.665 92.126 346.177 92.126C346.177 88.1167 346.177 84.1069 346.177 80.0977Z" fill="#FB6CA1"/>
<path fill-rule="evenodd" clip-rule="evenodd" d="M384.093 80.0977C388.243 80.0977 392.395 80.0977 396.543 80.0977C396.543 84.1069 396.543 88.1167 396.543 92.126C392.395 92.126 388.243 92.126 384.093 92.126C384.093 88.1167 384.093 84.1069 384.093 80.0977Z" fill="#FFE04D"/>
<path fill-rule="evenodd" clip-rule="evenodd" d="M459.357 80.0977C459.357 84.1069 459.357 88.1167 459.357 92.126C459.357 95.9532 459.357 99.7804 459.357 103.608C455.209 103.608 451.055 103.608 446.907 103.608C446.907 99.7804 446.907 95.9532 446.907 92.126C446.907 88.1167 446.907 84.1069 446.907 80.0977C451.055 80.0977 455.209 80.0977 459.357 80.0977Z" fill="#8D68E6"/>
<path fill-rule="evenodd" clip-rule="evenodd" d="M459.357 80.0977C463.505 80.0977 467.659 80.0977 471.807 80.0977C471.807 84.1069 471.807 88.1167 471.807 92.126C467.659 92.126 463.505 92.126 459.357 92.126C459.357 88.1167 459.357 84.1069 459.357 80.0977Z" fill="#FB6BA1"/>
<path fill-rule="evenodd" clip-rule="evenodd" d="M471.808 80.0977C475.956 80.0977 480.109 80.0977 484.257 80.0977C484.257 84.1069 484.257 88.1167 484.257 92.126C480.109 92.126 475.956 92.126 471.808 92.126C471.808 88.1167 471.808 84.1069 471.808 80.0977Z" fill="#FFDF4E"/>
<path fill-rule="evenodd" clip-rule="evenodd" d="M471.808 80.0975C471.808 79.9155 471.808 79.7328 471.808 79.5508C476.148 79.5508 480.483 79.5508 484.823 79.5508C484.823 83.7427 484.823 87.934 484.823 92.1259C484.637 92.1259 484.444 92.1259 484.257 92.1259C484.257 88.1166 484.257 84.1068 484.257 80.0975C480.109 80.0975 475.956 80.0975 471.808 80.0975Z" fill="#9F7843"/>
<path fill-rule="evenodd" clip-rule="evenodd" d="M157.732 91.5796C157.732 91.7617 157.732 91.9443 157.732 92.1263C153.771 92.1263 149.809 92.1263 145.848 92.1263C145.848 96.1356 145.848 100.145 145.848 104.155C137.548 104.155 129.248 104.155 120.948 104.155C120.948 103.973 120.948 103.79 120.948 103.608C129.059 103.608 137.171 103.608 145.282 103.608C145.282 99.5987 145.282 95.5889 145.282 91.5796C149.432 91.5796 153.582 91.5796 157.732 91.5796Z" fill="#422A34"/>
<path fill-rule="evenodd" clip-rule="evenodd" d="M157.731 92.1263C157.731 91.9443 157.731 91.7617 157.731 91.5796C166.408 91.5796 175.086 91.5796 183.763 91.5796C183.763 95.5889 183.763 99.5987 183.763 103.608C192.163 103.428 200.463 103.61 208.663 104.155C208.474 104.155 208.285 104.155 208.097 104.155C204.135 104.155 200.174 104.155 196.213 104.155C196.024 104.155 195.835 104.155 195.647 104.155C191.497 104.155 187.347 104.155 183.197 104.155C183.197 100.145 183.197 96.1356 183.197 92.1263C174.897 92.1263 166.597 92.1263 158.297 92.1263C158.109 92.1263 157.92 92.1263 157.731 92.1263Z" fill="#664B2E"/>
<path fill-rule="evenodd" clip-rule="evenodd" d="M157.731 92.1263C157.731 91.9443 157.731 91.7617 157.731 91.5796C166.408 91.5796 175.086 91.5796 183.763 91.5796C183.763 95.5889 183.763 99.5987 183.763 103.608C192.163 103.428 200.463 103.61 208.663 104.155C208.474 104.155 208.285 104.155 208.097 104.155C204.135 104.155 200.174 104.155 196.213 104.155C196.024 104.155 195.835 104.155 195.647 104.155C191.497 104.155 187.347 104.155 183.197 104.155C183.197 100.145 183.197 96.1356 183.197 92.1263C174.897 92.1263 166.597 92.1263 158.297 92.1263C158.109 92.1263 157.92 92.1263 157.731 92.1263Z" fill="#664B2E"/>
<path fill-rule="evenodd" clip-rule="evenodd" d="M308.827 91.5796C312.977 91.5796 317.127 91.5796 321.277 91.5796C317.232 92.122 313.082 92.304 308.827 92.1263C304.678 92.1263 300.527 92.1263 296.377 92.1263C296.377 95.9535 296.377 99.7807 296.377 103.608C296.189 103.608 296 103.608 295.812 103.608C295.812 99.5987 295.812 95.5889 295.812 91.5796C300.15 91.5796 304.489 91.5796 308.827 91.5796Z" fill="#8D6FCE"/>
<path fill-rule="evenodd" clip-rule="evenodd" d="M471.807 79.5508C471.807 79.7328 471.807 79.9155 471.807 80.0975C467.659 80.0975 463.506 80.0975 459.358 80.0975C455.209 80.0975 451.056 80.0975 446.908 80.0975C446.908 84.1068 446.908 88.1166 446.908 92.1259C446.721 92.1259 446.529 92.1259 446.342 92.1259C434.079 92.1259 421.821 92.1259 409.558 92.1259C409.371 92.1259 409.179 92.1259 408.992 92.1259C421.346 91.5807 433.796 91.3981 446.342 91.5791C446.342 87.5698 446.342 83.56 446.342 79.5508C454.83 79.5508 463.319 79.5508 471.807 79.5508Z" fill="#503550"/>
<path fill-rule="evenodd" clip-rule="evenodd" d="M157.732 92.126C157.92 92.126 158.109 92.126 158.298 92.126C158.298 96.1352 158.298 100.145 158.298 104.154C154.148 104.154 149.997 104.154 145.848 104.154C145.848 100.145 145.848 96.1352 145.848 92.126C149.809 92.126 153.77 92.126 157.732 92.126Z" fill="#FE9999"/>
<path fill-rule="evenodd" clip-rule="evenodd" d="M158.297 92.126C166.597 92.126 174.896 92.126 183.197 92.126C183.197 96.1352 183.197 100.145 183.197 104.154C174.896 104.154 166.597 104.154 158.297 104.154C158.297 100.145 158.297 96.1352 158.297 92.126Z" fill="#FFE04D"/>
<path fill-rule="evenodd" clip-rule="evenodd" d="M308.827 92.126C308.827 95.9532 308.827 99.7804 308.827 103.608C304.677 103.608 300.527 103.608 296.377 103.608C296.377 99.7804 296.377 95.9532 296.377 92.126C300.527 92.126 304.677 92.126 308.827 92.126Z" fill="#8E68E5"/>
<path fill-rule="evenodd" clip-rule="evenodd" d="M459.357 92.126C463.505 92.126 467.659 92.126 471.807 92.126C475.955 92.126 480.109 92.126 484.257 92.126C484.444 92.126 484.636 92.126 484.823 92.126C488.784 92.126 492.746 92.126 496.707 92.126C496.707 96.1352 496.707 100.145 496.707 104.154C505.196 104.154 513.684 104.154 522.173 104.154C522.173 108.164 522.173 112.173 522.173 116.183C501.234 116.183 480.296 116.183 459.357 116.183C459.357 112.173 459.357 108.164 459.357 104.154C459.357 103.972 459.357 103.79 459.357 103.608C459.357 99.7804 459.357 95.9532 459.357 92.126Z" fill="#FE989A"/>
<path fill-rule="evenodd" clip-rule="evenodd" d="M497.273 92.126C505.575 92.126 513.871 92.126 522.173 92.126C522.173 95.9532 522.173 99.7804 522.173 103.608C513.871 103.608 505.575 103.608 497.273 103.608C497.273 99.7804 497.273 95.9532 497.273 92.126Z" fill="#FFE04D"/>
<path fill-rule="evenodd" clip-rule="evenodd" d="M396.542 92.126C396.729 92.126 396.921 92.126 397.108 92.126C397.108 95.9532 397.108 99.7804 397.108 103.608C401.069 103.608 405.031 103.608 408.992 103.608C408.992 103.79 408.992 103.972 408.992 104.154C404.844 104.154 400.69 104.154 396.542 104.154C396.542 100.145 396.542 96.1352 396.542 92.126Z" fill="#452F42"/>
<path fill-rule="evenodd" clip-rule="evenodd" d="M408.992 92.126C409.179 92.126 409.371 92.126 409.558 92.126C409.558 95.9532 409.558 99.7804 409.558 103.608C421.821 103.608 434.079 103.608 446.342 103.608C446.342 99.7804 446.342 95.9532 446.342 92.126C446.529 92.126 446.721 92.126 446.908 92.126C446.908 95.9532 446.908 99.7804 446.908 103.608C451.056 103.608 455.209 103.608 459.358 103.608C459.358 103.79 459.358 103.972 459.358 104.154C455.209 104.154 451.056 104.154 446.908 104.154C446.908 108.164 446.908 112.173 446.908 116.183C446.347 112.275 446.161 108.265 446.342 104.154C434.079 104.154 421.821 104.154 409.558 104.154C409.558 107.982 409.558 111.809 409.558 115.636C413.706 115.636 417.86 115.636 422.008 115.636C422.008 119.828 422.008 124.019 422.008 128.211C421.448 124.303 421.261 120.294 421.442 116.183C417.294 116.183 413.14 116.183 408.992 116.183C408.992 112.173 408.992 108.164 408.992 104.154C408.992 103.972 408.992 103.79 408.992 103.608C408.992 99.7804 408.992 95.9532 408.992 92.126Z" fill="#8D6CCE"/>
<path fill-rule="evenodd" clip-rule="evenodd" d="M409.559 92.126C421.822 92.126 434.079 92.126 446.342 92.126C446.342 95.9532 446.342 99.7804 446.342 103.608C434.079 103.608 421.822 103.608 409.559 103.608C409.559 99.7804 409.559 95.9532 409.559 92.126Z" fill="#5561D3"/>
<path fill-rule="evenodd" clip-rule="evenodd" d="M496.707 92.126C496.894 92.126 497.086 92.126 497.273 92.126C497.273 95.9532 497.273 99.7804 497.273 103.608C505.575 103.608 513.871 103.608 522.173 103.608C522.173 103.79 522.173 103.972 522.173 104.154C513.684 104.154 505.196 104.154 496.707 104.154C496.707 100.145 496.707 96.1352 496.707 92.126Z" fill="#FFCC63"/>
<path fill-rule="evenodd" clip-rule="evenodd" d="M20.2173 104.154C37.0059 104.154 53.794 104.154 70.5826 104.154C70.5826 108.164 70.5826 112.173 70.5826 116.183C83.0325 116.183 95.4823 116.183 107.932 116.183C107.932 120.192 107.932 124.202 107.932 128.211C103.782 128.211 99.6321 128.211 95.4823 128.211C91.3326 128.211 87.1822 128.211 83.0325 128.211C78.6937 128.211 74.3555 128.211 70.0167 128.211C70.0167 124.202 70.0167 120.192 70.0167 116.183C53.4171 116.183 36.8169 116.183 20.2173 116.183C20.2173 112.173 20.2173 108.164 20.2173 104.154Z" fill="#FA6BA2"/>
<path fill-rule="evenodd" clip-rule="evenodd" d="M145.848 104.154C149.997 104.154 154.148 104.154 158.298 104.154C158.298 112.173 158.298 120.192 158.298 128.211C154.148 128.211 149.997 128.211 145.848 128.211C145.848 120.192 145.848 112.173 145.848 104.154Z" fill="#FB6BA1"/>
<path fill-rule="evenodd" clip-rule="evenodd" d="M158.297 104.154C166.597 104.154 174.896 104.154 183.197 104.154C187.346 104.154 191.497 104.154 195.646 104.154C195.646 108.164 195.646 112.173 195.646 116.183C199.985 116.183 204.323 116.183 208.662 116.183C212.812 116.183 216.962 116.183 221.112 116.183C221.112 120.192 221.112 124.202 221.112 128.211C208.474 128.211 195.835 128.211 183.197 128.211C179.047 128.211 174.896 128.211 170.747 128.211C166.597 128.211 162.447 128.211 158.297 128.211C158.297 120.192 158.297 112.173 158.297 104.154Z" fill="#FE9899"/>
<path fill-rule="evenodd" clip-rule="evenodd" d="M295.812 103.607C296.001 103.607 296.19 103.607 296.378 103.607C300.528 103.607 304.678 103.607 308.828 103.607C308.828 103.789 308.828 103.972 308.828 104.154C304.678 104.154 300.528 104.154 296.378 104.154C296.378 112.173 296.378 120.192 296.378 128.211C296.19 128.211 296.001 128.211 295.812 128.211C295.812 120.192 295.812 112.173 295.812 104.154C291.851 104.154 287.89 104.154 283.928 104.154C283.928 112.173 283.928 120.192 283.928 128.211C283.365 120.106 283.176 111.905 283.362 103.607C287.512 103.607 291.662 103.607 295.812 103.607Z" fill="#AF71C9"/>
<path fill-rule="evenodd" clip-rule="evenodd" d="M295.812 128.211C291.85 128.211 287.889 128.211 283.928 128.211C283.928 120.192 283.928 112.173 283.928 104.154C287.889 104.154 291.85 104.154 295.812 104.154C295.812 112.173 295.812 120.192 295.812 128.211Z" fill="#8E68E5"/>
<path fill-rule="evenodd" clip-rule="evenodd" d="M308.827 104.154C308.827 112.173 308.827 120.192 308.827 128.211C304.677 128.211 300.527 128.211 296.377 128.211C296.377 120.192 296.377 112.173 296.377 104.154C300.527 104.154 304.677 104.154 308.827 104.154Z" fill="#FA6BA2"/>
<path fill-rule="evenodd" clip-rule="evenodd" d="M396.542 104.154C396.542 108.164 396.542 112.173 396.542 116.183C392.394 116.183 388.242 116.183 384.092 116.183C375.792 116.183 367.492 116.183 359.192 116.183C359.192 112.173 359.192 108.164 359.192 104.154C371.642 104.154 384.092 104.154 396.542 104.154Z" fill="#FA6BA2"/>
<path fill-rule="evenodd" clip-rule="evenodd" d="M446.908 116.183C451.056 116.183 455.21 116.183 459.358 116.183C459.358 120.192 459.358 124.202 459.358 128.211C459.358 132.22 459.358 136.23 459.358 140.239C455.21 140.239 451.056 140.239 446.908 140.239C446.908 136.23 446.908 132.22 446.908 128.211C438.606 128.211 430.31 128.211 422.008 128.211C422.008 124.019 422.008 119.828 422.008 115.636C417.86 115.636 413.707 115.636 409.559 115.636C409.559 111.809 409.559 107.981 409.559 104.154C421.822 104.154 434.079 104.154 446.342 104.154C446.161 108.265 446.348 112.275 446.908 116.183Z" fill="#8D68E6"/>
<path fill-rule="evenodd" clip-rule="evenodd" d="M459.357 104.154C459.357 108.164 459.357 112.173 459.357 116.183C455.209 116.183 451.055 116.183 446.907 116.183C446.907 112.173 446.907 108.164 446.907 104.154C451.055 104.154 455.209 104.154 459.357 104.154Z" fill="#FA6BA2"/>
<path fill-rule="evenodd" clip-rule="evenodd" d="M120.382 104.154C120.57 104.154 120.759 104.154 120.948 104.154C120.948 107.981 120.948 111.809 120.948 115.636C125.098 115.636 129.248 115.636 133.398 115.636C133.582 119.929 133.393 124.12 132.832 128.211C132.832 124.202 132.832 120.192 132.832 116.183C128.682 116.183 124.532 116.183 120.382 116.183C120.382 112.173 120.382 108.164 120.382 104.154Z" fill="#926EC8"/>
<path fill-rule="evenodd" clip-rule="evenodd" d="M195.646 104.154C195.835 104.154 196.024 104.154 196.212 104.154C196.212 107.981 196.212 111.809 196.212 115.636C200.174 115.636 204.135 115.636 208.096 115.636C208.096 111.809 208.096 107.981 208.096 104.154C208.285 104.154 208.474 104.154 208.662 104.154C208.662 108.164 208.662 112.173 208.662 116.183C204.323 116.183 199.985 116.183 195.646 116.183C195.646 112.173 195.646 108.164 195.646 104.154Z" fill="#EFC459"/>
<path fill-rule="evenodd" clip-rule="evenodd" d="M196.213 104.154C200.174 104.154 204.136 104.154 208.097 104.154C208.097 107.981 208.097 111.809 208.097 115.636C204.136 115.636 200.174 115.636 196.213 115.636C196.213 111.809 196.213 107.981 196.213 104.154Z" fill="#FEE14C"/>
<path fill-rule="evenodd" clip-rule="evenodd" d="M-17.1325 116.183C-13.1712 116.183 -9.2099 116.183 -5.24858 116.183C-5.4325 120.294 -5.24405 124.303 -4.68267 128.211C3.61742 128.211 11.9169 128.211 20.217 128.211C20.217 132.22 20.217 136.23 20.217 140.239C-0.721355 140.239 -21.6597 140.239 -42.5981 140.239C-42.5981 136.23 -42.5981 132.22 -42.5981 128.211C-34.2981 128.211 -25.9985 128.211 -17.6984 128.211C-17.1371 124.303 -16.9486 120.294 -17.1325 116.183Z" fill="#8E68E5"/>
<path fill-rule="evenodd" clip-rule="evenodd" d="M20.2171 116.183C20.2171 120.192 20.2171 124.202 20.2171 128.211C11.917 128.211 3.61748 128.211 -4.68262 128.211C-4.68262 124.202 -4.68262 120.192 -4.68262 116.183C3.61748 116.183 11.917 116.183 20.2171 116.183Z" fill="#5661D2"/>
<path fill-rule="evenodd" clip-rule="evenodd" d="M20.2173 116.183C36.8169 116.183 53.4171 116.183 70.0167 116.183C70.0167 120.192 70.0167 124.202 70.0167 128.211C53.4171 128.211 36.8169 128.211 20.2173 128.211C20.2173 124.202 20.2173 120.192 20.2173 116.183Z" fill="#8E68E5"/>
<path fill-rule="evenodd" clip-rule="evenodd" d="M107.932 116.183C112.082 116.183 116.232 116.183 120.382 116.183C124.532 116.183 128.682 116.183 132.832 116.183C132.832 120.192 132.832 124.202 132.832 128.211C128.682 128.211 124.532 128.211 120.382 128.211C120.382 132.22 120.382 136.23 120.382 140.239C112.082 140.239 103.783 140.239 95.4824 140.239C95.4824 136.23 95.4824 132.22 95.4824 128.211C99.6322 128.211 103.783 128.211 107.932 128.211C107.932 124.202 107.932 120.192 107.932 116.183Z" fill="#8E68E5"/>
<path fill-rule="evenodd" clip-rule="evenodd" d="M359.192 116.183C359.192 120.192 359.192 124.202 359.192 128.211C350.704 128.211 342.215 128.211 333.727 128.211C333.727 124.202 333.727 120.192 333.727 116.183C342.215 116.183 350.704 116.183 359.192 116.183Z" fill="#FA6BA2"/>
<path fill-rule="evenodd" clip-rule="evenodd" d="M359.192 116.183C367.492 116.183 375.792 116.183 384.092 116.183C384.092 120.192 384.092 124.202 384.092 128.211C375.792 128.211 367.492 128.211 359.192 128.211C359.192 124.202 359.192 120.192 359.192 116.183Z" fill="#8E68E5"/>
<path fill-rule="evenodd" clip-rule="evenodd" d="M459.357 116.183C480.296 116.183 501.234 116.183 522.173 116.183C530.474 116.183 538.771 116.183 547.072 116.183C547.072 120.192 547.072 124.202 547.072 128.211C521.986 128.211 496.894 128.211 471.807 128.211C467.659 128.211 463.505 128.211 459.357 128.211C459.357 124.202 459.357 120.192 459.357 116.183Z" fill="#FA6BA2"/>
<path fill-rule="evenodd" clip-rule="evenodd" d="M547.073 116.183C551.413 116.183 555.748 116.183 560.088 116.183C560.088 120.192 560.088 124.202 560.088 128.211C568.39 128.211 576.686 128.211 584.988 128.211C584.988 132.22 584.988 136.23 584.988 140.239C580.84 140.239 576.686 140.239 572.538 140.239C538.963 140.239 505.383 140.239 471.808 140.239C471.808 136.23 471.808 132.22 471.808 128.211C496.894 128.211 521.986 128.211 547.073 128.211C547.073 124.202 547.073 120.192 547.073 116.183Z" fill="#8E68E5"/>
<path fill-rule="evenodd" clip-rule="evenodd" d="M70.0166 128.211C74.3554 128.211 78.6936 128.211 83.0324 128.211C83.0324 132.22 83.0324 136.23 83.0324 140.239C78.6936 140.239 74.3554 140.239 70.0166 140.239C70.0166 136.23 70.0166 132.22 70.0166 128.211Z" fill="#8F68E4"/>
<path fill-rule="evenodd" clip-rule="evenodd" d="M158.297 128.211C162.447 128.211 166.597 128.211 170.747 128.211C170.747 132.22 170.747 136.23 170.747 140.239C166.597 140.239 162.447 140.239 158.297 140.239C158.297 136.23 158.297 132.22 158.297 128.211Z" fill="#FB6BA2"/>
<path fill-rule="evenodd" clip-rule="evenodd" d="M183.197 128.211C195.836 128.211 208.474 128.211 221.113 128.211C221.113 132.22 221.113 136.23 221.113 140.239C208.474 140.239 195.836 140.239 183.197 140.239C183.197 136.23 183.197 132.22 183.197 128.211Z" fill="#FA6BA2"/>
<path fill-rule="evenodd" clip-rule="evenodd" d="M296.377 128.211C300.527 128.211 304.677 128.211 308.827 128.211C317.127 128.211 325.426 128.211 333.727 128.211C342.215 128.211 350.704 128.211 359.192 128.211C359.192 132.22 359.192 136.23 359.192 140.239C338.254 140.239 317.315 140.239 296.377 140.239C296.377 136.23 296.377 132.22 296.377 128.211Z" fill="#8E68E5"/>
</svg>
