<svg width="584" height="265" viewBox="0 0 584 265" fill="none" xmlns="http://www.w3.org/2000/svg">
<path fill-rule="evenodd" clip-rule="evenodd" d="M346.311 6.00977C353.468 6.00977 360.625 6.00977 367.782 6.00977C367.782 9.44389 367.782 12.878 367.782 16.3121C364.306 16.3121 360.83 16.3121 357.353 16.3121C357.353 19.7463 357.353 23.1804 357.353 26.6145C353.672 26.6145 349.991 26.6145 346.311 26.6145C346.311 26.4238 346.311 26.2329 346.311 26.0422C346.311 22.7988 346.311 19.5555 346.311 16.3121C346.311 12.878 346.311 9.44389 346.311 6.00977Z" fill="#FB6CA1"/>
<path fill-rule="evenodd" clip-rule="evenodd" d="M367.782 6.00977C375.144 6.00977 382.506 6.00977 389.868 6.00977C389.868 9.44389 389.868 12.878 389.868 16.3121C382.506 16.3121 375.144 16.3121 367.782 16.3121C367.782 12.878 367.782 9.44389 367.782 6.00977Z" fill="#FEDF4E"/>
<path fill-rule="evenodd" clip-rule="evenodd" d="M346.31 6.00977C346.31 9.44389 346.31 12.878 346.31 16.3121C338.948 16.3121 331.586 16.3121 324.225 16.3121C331.272 15.7427 338.43 15.5519 345.696 15.7398C345.499 12.3869 345.703 9.14358 346.31 6.00977Z" fill="#4B3040"/>
<path fill-rule="evenodd" clip-rule="evenodd" d="M324.225 16.312C331.586 16.312 338.948 16.312 346.31 16.312C346.31 19.5554 346.31 22.7987 346.31 26.042C338.948 26.042 331.586 26.042 324.225 26.042C324.225 22.7987 324.225 19.5554 324.225 16.312Z" fill="#5761D1"/>
<path fill-rule="evenodd" clip-rule="evenodd" d="M367.782 16.312C375.144 16.312 382.506 16.312 389.867 16.312C389.867 19.5554 389.867 22.7987 389.867 26.042C382.506 26.042 375.144 26.042 367.782 26.042C367.782 29.6669 367.782 33.2919 367.782 36.9168C375.253 37.1047 382.615 36.914 389.867 36.3444C389.867 33.101 389.867 29.8577 389.867 26.6144C393.548 26.6144 397.229 26.6144 400.91 26.6144C400.91 29.8577 400.91 33.101 400.91 36.3444C404.387 36.3444 407.863 36.3444 411.339 36.3444C411.544 36.3444 411.748 36.3444 411.953 36.3444C411.953 36.5352 411.953 36.726 411.953 36.9168C408.272 36.9168 404.591 36.9168 400.91 36.9168C400.91 40.1601 400.91 43.4034 400.91 46.6468C397.229 46.6468 393.548 46.6468 389.867 46.6468C389.867 50.0809 389.867 53.515 389.867 56.9492C386.187 56.9492 382.506 56.9492 378.825 56.9492C378.825 67.0609 378.825 77.1721 378.825 87.2839C382.506 87.2839 386.187 87.2839 389.867 87.2839C389.867 90.7181 389.867 94.1522 389.867 97.5863C379.029 97.5863 368.191 97.5863 357.353 97.5863C357.353 94.1522 357.353 90.7181 357.353 87.2839C353.672 87.2839 349.991 87.2839 346.31 87.2839C346.31 80.4157 346.31 73.5474 346.31 66.6792C342.629 66.6792 338.948 66.6792 335.268 66.6792C335.268 56.5676 335.268 46.456 335.268 36.3444C338.948 36.3444 342.629 36.3444 346.31 36.3444C346.31 33.101 346.31 29.8577 346.31 26.6144C349.991 26.6144 353.672 26.6144 357.353 26.6144C357.353 23.1803 357.353 19.7461 357.353 16.312C360.83 16.312 364.305 16.312 367.782 16.312Z" fill="#FE989A"/>
<path fill-rule="evenodd" clip-rule="evenodd" d="M389.867 16.312C393.548 16.312 397.229 16.312 400.91 16.312C400.91 19.5554 400.91 22.7987 400.91 26.042C397.229 26.042 393.548 26.042 389.867 26.042C389.867 22.7987 389.867 19.5554 389.867 16.312Z" fill="#FFE04D"/>
<path fill-rule="evenodd" clip-rule="evenodd" d="M280.668 26.6143C280.668 26.4236 280.668 26.2328 280.668 26.042C291.711 26.042 302.753 26.042 313.796 26.042C313.796 26.2328 313.796 26.4236 313.796 26.6143C313.994 30.1572 313.79 33.5913 313.182 36.9167C302.237 37.1057 291.399 36.9148 280.668 36.3444C291.506 36.3444 302.344 36.3444 313.182 36.3444C313.182 33.101 313.182 29.8577 313.182 26.6143C302.344 26.6143 291.506 26.6143 280.668 26.6143Z" fill="#CC9865"/>
<path fill-rule="evenodd" clip-rule="evenodd" d="M389.868 26.042C393.548 26.042 397.229 26.042 400.91 26.042C404.591 26.042 408.272 26.042 411.953 26.042C411.953 29.4761 411.953 32.9102 411.953 36.3444C411.749 36.3444 411.544 36.3444 411.339 36.3444C407.863 36.3444 404.387 36.3444 400.91 36.3444C400.91 33.101 400.91 29.8577 400.91 26.6143C397.229 26.6143 393.548 26.6143 389.868 26.6143C382.71 26.6143 375.553 26.6143 368.396 26.6143C368.396 29.8577 368.396 33.101 368.396 36.3444C375.553 36.3444 382.71 36.3444 389.868 36.3444C382.615 36.9139 375.253 37.1047 367.782 36.9167C367.782 33.2918 367.782 29.6669 367.782 26.042C375.144 26.042 382.506 26.042 389.868 26.042Z" fill="#F4B36F"/>
<path fill-rule="evenodd" clip-rule="evenodd" d="M280.667 26.042C280.667 26.2328 280.667 26.4236 280.667 26.6143C277.191 26.6143 273.715 26.6143 270.238 26.6143C270.238 30.0485 270.238 33.4826 270.238 36.9167C266.557 36.9167 262.876 36.9167 259.196 36.9167C259.393 40.2696 259.189 43.5129 258.582 46.6467C258.582 43.2126 258.582 39.7785 258.582 36.3444C262.263 36.3444 265.944 36.3444 269.625 36.3444C269.625 32.9102 269.625 29.4761 269.625 26.042C273.306 26.042 276.986 26.042 280.667 26.042Z" fill="#B16A6B"/>
<path fill-rule="evenodd" clip-rule="evenodd" d="M280.668 26.6143C280.668 29.8576 280.668 33.1009 280.668 36.3443C291.399 36.9147 302.237 37.1056 313.182 36.9166C313.182 40.16 313.182 43.4033 313.182 46.6467C309.706 46.6467 306.23 46.6467 302.753 46.6467C302.753 56.7583 302.753 66.8696 302.753 76.9814C306.23 76.9814 309.706 76.9814 313.182 76.9814C312.981 83.9516 313.185 90.8198 313.796 97.5862C317.272 97.5862 320.748 97.5862 324.225 97.5862C324.225 100.83 324.225 104.073 324.225 107.316C324.225 110.75 324.225 114.184 324.225 117.619C327.906 117.619 331.587 117.619 335.267 117.619C335.267 121.053 335.267 124.487 335.267 127.921C338.948 127.921 342.629 127.921 346.31 127.921C346.31 131.355 346.31 134.789 346.31 138.223C353.468 138.223 360.624 138.223 367.782 138.223C367.782 141.657 367.782 145.092 367.782 148.526C342.425 148.526 317.067 148.526 291.71 148.526C291.71 145.092 291.71 141.657 291.71 138.223C288.029 138.223 284.348 138.223 280.668 138.223C280.668 131.355 280.668 124.487 280.668 117.619C277.191 117.619 273.715 117.619 270.238 117.619C270.238 104.264 270.238 90.9085 270.238 77.5538C273.832 77.7381 277.309 77.5475 280.668 76.9814C280.668 70.3038 280.668 63.6267 280.668 56.949C276.987 56.949 273.306 56.949 269.625 56.949C269.625 63.6267 269.625 70.3038 269.625 76.9814C262.467 76.9814 255.311 76.9814 248.153 76.9814C247.546 73.8478 247.342 70.6043 247.54 67.2514C251.221 67.2514 254.901 67.2514 258.582 67.2514C258.582 60.3832 258.582 53.5149 258.582 46.6467C259.189 43.5128 259.393 40.2695 259.196 36.9166C262.877 36.9166 266.558 36.9166 270.238 36.9166C270.238 33.4825 270.238 30.0484 270.238 26.6143C273.715 26.6143 277.191 26.6143 280.668 26.6143Z" fill="#FE989A"/>
<path fill-rule="evenodd" clip-rule="evenodd" d="M280.668 26.6143C291.506 26.6143 302.344 26.6143 313.182 26.6143C313.182 29.8576 313.182 33.1009 313.182 36.3443C302.344 36.3443 291.506 36.3443 280.668 36.3443C280.668 33.1009 280.668 29.8576 280.668 26.6143Z" fill="#FEE14C"/>
<path fill-rule="evenodd" clip-rule="evenodd" d="M313.796 26.6143C317.272 26.6143 320.748 26.6143 324.225 26.6143C324.225 36.535 324.225 46.4559 324.225 56.3767C320.544 56.3767 316.863 56.3767 313.182 56.3767C313.182 63.2449 313.182 70.1132 313.182 76.9814C309.706 76.9814 306.23 76.9814 302.753 76.9814C302.753 66.8696 302.753 56.7583 302.753 46.6467C306.23 46.6467 309.706 46.6467 313.182 46.6467C313.182 43.4033 313.182 40.16 313.182 36.9166C313.789 33.5913 313.994 30.1571 313.796 26.6143Z" fill="#5561D2"/>
<path fill-rule="evenodd" clip-rule="evenodd" d="M313.796 26.6143C313.796 26.4236 313.796 26.2328 313.796 26.042C317.272 26.042 320.748 26.042 324.225 26.042C331.587 26.042 338.949 26.042 346.31 26.042C346.31 26.2328 346.31 26.4236 346.31 26.6143C346.31 29.8577 346.31 33.101 346.31 36.3444C342.63 36.3444 338.949 36.3444 335.268 36.3444C335.268 46.456 335.268 56.5675 335.268 66.6791C338.949 66.6791 342.63 66.6791 346.31 66.6791C346.31 73.5474 346.31 80.4156 346.31 87.2839C346.106 87.2839 345.901 87.2839 345.697 87.2839C342.22 87.2839 338.744 87.2839 335.268 87.2839C335.268 84.0404 335.268 80.7974 335.268 77.5539C331.703 76.9872 328.023 76.7966 324.225 76.9815C324.225 70.3039 324.225 63.6268 324.225 56.9491C324.225 56.7584 324.225 56.5675 324.225 56.3768C324.225 46.456 324.225 36.5351 324.225 26.6143C320.748 26.6143 317.272 26.6143 313.796 26.6143Z" fill="#F96BA2"/>
<path fill-rule="evenodd" clip-rule="evenodd" d="M389.867 26.6143C389.867 29.8576 389.867 33.1009 389.867 36.3443C382.71 36.3443 375.553 36.3443 368.396 36.3443C368.396 33.1009 368.396 29.8576 368.396 26.6143C375.553 26.6143 382.71 26.6143 389.867 26.6143Z" fill="#FEE14C"/>
<path fill-rule="evenodd" clip-rule="evenodd" d="M433.425 36.3444C440.896 36.1564 448.257 36.3472 455.51 36.9167C448.353 36.9167 441.196 36.9167 434.038 36.9167C434.038 40.1601 434.038 43.4034 434.038 46.6468C433.431 43.3214 433.227 39.8872 433.425 36.3444Z" fill="#EEBF5C"/>
<path fill-rule="evenodd" clip-rule="evenodd" d="M411.953 36.917C415.429 36.917 418.905 36.917 422.382 36.917C422.382 40.1604 422.382 43.4037 422.382 46.647C415.225 46.647 408.068 46.647 400.91 46.647C400.91 43.4037 400.91 40.1604 400.91 36.917C404.591 36.917 408.272 36.917 411.953 36.917Z" fill="#5561D3"/>
<path fill-rule="evenodd" clip-rule="evenodd" d="M411.953 36.9171C411.953 36.7263 411.953 36.5355 411.953 36.3447C415.634 36.3447 419.315 36.3447 422.996 36.3447C423.194 39.8876 422.99 43.3217 422.382 46.6471C422.382 43.4037 422.382 40.1604 422.382 36.9171C418.906 36.9171 415.43 36.9171 411.953 36.9171Z" fill="#9874B4"/>
<path fill-rule="evenodd" clip-rule="evenodd" d="M422.995 36.3447C426.472 36.3447 429.948 36.3447 433.425 36.3447C433.227 39.8876 433.431 43.3217 434.038 46.6471C441.196 46.6471 448.353 46.6471 455.51 46.6471C455.51 50.0812 455.51 53.5154 455.51 56.9495C459.191 56.9495 462.872 56.9495 466.553 56.9495C470.029 56.9495 473.505 56.9495 476.982 56.9495C476.982 60.193 476.982 63.436 476.982 66.6795C476.982 66.8701 476.982 67.0613 476.982 67.2519C476.982 70.686 476.982 74.1201 476.982 77.5542C480.663 77.5542 484.344 77.5542 488.024 77.5542C488.024 80.7978 488.024 84.0407 488.024 87.2842C488.024 90.7184 488.024 94.1525 488.024 97.5866C484.548 97.5866 481.072 97.5866 477.595 97.5866C476.989 100.72 476.784 103.964 476.982 107.317C469.715 107.129 462.558 107.32 455.51 107.889C455.51 111.133 455.51 114.375 455.51 117.619C448.148 117.619 440.786 117.619 433.425 117.619C433.425 114.375 433.425 111.133 433.425 107.889C426.267 107.889 419.11 107.889 411.953 107.889C411.953 101.021 411.953 94.1525 411.953 87.2842C408.272 87.2842 404.591 87.2842 400.91 87.2842C400.91 77.1725 400.91 67.0613 400.91 56.9495C400.91 53.5154 400.91 50.0812 400.91 46.6471C408.068 46.6471 415.225 46.6471 422.382 46.6471C422.989 43.3217 423.194 39.8876 422.995 36.3447Z" fill="#FE9899"/>
<path fill-rule="evenodd" clip-rule="evenodd" d="M455.51 36.917C455.51 40.1604 455.51 43.4037 455.51 46.647C448.352 46.647 441.196 46.647 434.038 46.647C434.038 43.4037 434.038 40.1604 434.038 36.917C441.196 36.917 448.352 36.917 455.51 36.917Z" fill="#FFE04D"/>
<path fill-rule="evenodd" clip-rule="evenodd" d="M280.668 56.9493C280.668 53.5152 280.668 50.0811 280.668 46.647C284.349 46.647 288.03 46.647 291.711 46.647C291.711 50.0811 291.711 53.5152 291.711 56.9493C288.03 56.9493 284.349 56.9493 280.668 56.9493Z" fill="#FB6CA1"/>
<path fill-rule="evenodd" clip-rule="evenodd" d="M346.311 46.647C349.991 46.647 353.672 46.647 357.353 46.647C357.353 50.0811 357.353 53.5152 357.353 56.9493C353.672 56.9493 349.991 56.9493 346.311 56.9493C346.311 53.5152 346.311 50.0811 346.311 46.647Z" fill="#FB6CA1"/>
<path fill-rule="evenodd" clip-rule="evenodd" d="M258.582 46.647C258.582 53.5152 258.582 60.3835 258.582 67.2517C254.901 67.2517 251.22 67.2517 247.54 67.2517C247.342 70.6046 247.546 73.8481 248.153 76.9817C255.201 77.5512 262.358 77.7418 269.625 77.5541C269.422 91.0079 269.626 104.363 270.238 117.619C273.715 117.619 277.191 117.619 280.668 117.619C280.668 124.487 280.668 131.355 280.668 138.224C284.348 138.224 288.029 138.224 291.71 138.224C291.71 141.658 291.71 145.092 291.71 148.526C291.506 148.526 291.301 148.526 291.097 148.526C283.939 148.526 276.782 148.526 269.625 148.526C269.625 148.335 269.625 148.144 269.625 147.954C269.625 144.71 269.625 141.467 269.625 138.224C265.944 138.224 262.263 138.224 258.582 138.224C258.582 134.79 258.582 131.355 258.582 127.921C254.901 127.921 251.22 127.921 247.54 127.921C247.54 114.375 247.54 100.83 247.54 87.2841C244.063 87.2841 240.587 87.2841 237.11 87.2841C237.11 77.1723 237.11 67.0611 237.11 56.9493C240.704 57.1338 244.181 56.943 247.54 56.377C247.54 53.1336 247.54 49.8903 247.54 46.647C251.22 46.647 254.901 46.647 258.582 46.647Z" fill="#FA6BA2"/>
<path fill-rule="evenodd" clip-rule="evenodd" d="M400.91 46.647C400.91 50.0811 400.91 53.5152 400.91 56.9493C397.229 56.9493 393.548 56.9493 389.867 56.9493C389.867 53.5152 389.867 50.0811 389.867 46.647C393.548 46.647 397.229 46.647 400.91 46.647Z" fill="#5962D1"/>
<path fill-rule="evenodd" clip-rule="evenodd" d="M455.51 46.647C459.191 46.647 462.872 46.647 466.552 46.647C466.552 49.8903 466.552 53.1336 466.552 56.377C466.552 56.5678 466.552 56.7586 466.552 56.9493C462.872 56.9493 459.191 56.9493 455.51 56.9493C455.51 53.5152 455.51 50.0811 455.51 46.647Z" fill="#FEDF4E"/>
<path fill-rule="evenodd" clip-rule="evenodd" d="M280.668 56.9492C280.668 63.6269 280.668 70.304 280.668 76.9816C276.987 76.9816 273.306 76.9816 269.625 76.9816C269.625 70.304 269.625 63.6269 269.625 56.9492C273.306 56.9492 276.987 56.9492 280.668 56.9492Z" fill="#FB6BA1"/>
<path fill-rule="evenodd" clip-rule="evenodd" d="M324.225 56.9492C324.225 63.6269 324.225 70.304 324.225 76.9816C320.748 76.9816 317.272 76.9816 313.796 76.9816C313.796 70.304 313.796 63.6269 313.796 56.9492C317.272 56.9492 320.748 56.9492 324.225 56.9492Z" fill="#8D68E6"/>
<path fill-rule="evenodd" clip-rule="evenodd" d="M389.867 56.9492C389.867 67.061 389.867 77.1722 389.867 87.284C386.186 87.284 382.505 87.284 378.824 87.284C378.824 77.1722 378.824 67.061 378.824 56.9492C382.505 56.9492 386.186 56.9492 389.867 56.9492Z" fill="#5861D2"/>
<path fill-rule="evenodd" clip-rule="evenodd" d="M389.867 56.9492C393.548 56.9492 397.229 56.9492 400.91 56.9492C400.91 67.061 400.91 77.1722 400.91 87.284C397.229 87.284 393.548 87.284 389.867 87.284C389.867 77.1722 389.867 67.061 389.867 56.9492Z" fill="#FB6BA2"/>
<path fill-rule="evenodd" clip-rule="evenodd" d="M422.995 56.9492C430.153 56.9492 437.309 56.9492 444.467 56.9492C444.467 60.1927 444.467 63.4357 444.467 66.6792C437.309 66.6792 430.153 66.6792 422.995 66.6792C422.995 63.4357 422.995 60.1927 422.995 56.9492Z" fill="#FEE14C"/>
<path fill-rule="evenodd" clip-rule="evenodd" d="M466.553 56.9493C466.553 56.7585 466.553 56.5677 466.553 56.377C470.234 56.377 473.915 56.377 477.595 56.377C477.595 59.8111 477.595 63.2452 477.595 66.6793C477.391 66.6793 477.186 66.6793 476.982 66.6793C476.982 63.4358 476.982 60.1928 476.982 56.9493C473.505 56.9493 470.029 56.9493 466.553 56.9493Z" fill="#693E3F"/>
<path fill-rule="evenodd" clip-rule="evenodd" d="M247.54 56.377C244.181 56.943 240.704 57.1337 237.111 56.9493C237.111 67.0611 237.111 77.1723 237.111 87.2841C236.906 87.2841 236.701 87.2841 236.497 87.2841C236.497 76.9817 236.497 66.6793 236.497 56.377C240.178 56.377 243.859 56.377 247.54 56.377Z" fill="#693541"/>
<path fill-rule="evenodd" clip-rule="evenodd" d="M422.382 66.6792C422.382 66.8698 422.382 67.061 422.382 67.2516C418.905 67.2516 415.429 67.2516 411.952 67.2516C411.952 70.4951 411.952 73.738 411.952 76.9816C415.429 76.9816 418.905 76.9816 422.382 76.9816C422.586 76.9816 422.791 76.9816 422.995 76.9816C419.225 77.5482 415.34 77.7388 411.339 77.5539C411.339 73.9292 411.339 70.3039 411.339 66.6792C415.02 66.6792 418.701 66.6792 422.382 66.6792Z" fill="#FFB17F"/>
<path fill-rule="evenodd" clip-rule="evenodd" d="M422.995 56.9492C422.995 60.1928 422.995 63.4357 422.995 66.6792C430.152 66.6792 437.309 66.6792 444.467 66.6792C437.419 67.2487 430.262 67.4393 422.995 67.2516C422.995 70.4951 422.995 73.7381 422.995 76.9816C422.791 76.9816 422.586 76.9816 422.381 76.9816C422.381 73.7381 422.381 70.4951 422.381 67.2516C422.381 67.061 422.381 66.8698 422.381 66.6792C422.184 63.3264 422.388 60.0829 422.995 56.9492Z" fill="#FFC16E"/>
<path fill-rule="evenodd" clip-rule="evenodd" d="M476.981 67.2516C476.981 67.061 476.981 66.8698 476.981 66.6792C477.186 66.6792 477.391 66.6792 477.595 66.6792C481.276 66.6792 484.957 66.6792 488.638 66.6792C488.836 70.4121 488.631 74.0368 488.024 77.5539C488.024 77.3633 488.024 77.1722 488.024 76.9816C488.024 73.738 488.024 70.4951 488.024 67.2516C484.548 67.2516 481.072 67.2516 477.595 67.2516C477.391 67.2516 477.186 67.2516 476.981 67.2516Z" fill="#95743C"/>
<path fill-rule="evenodd" clip-rule="evenodd" d="M422.382 67.2515C422.382 70.495 422.382 73.738 422.382 76.9815C418.906 76.9815 415.43 76.9815 411.953 76.9815C411.953 73.738 411.953 70.495 411.953 67.2515C415.43 67.2515 418.906 67.2515 422.382 67.2515Z" fill="#FEE14C"/>
<path fill-rule="evenodd" clip-rule="evenodd" d="M477.595 67.2515C481.071 67.2515 484.547 67.2515 488.024 67.2515C488.024 70.495 488.024 73.738 488.024 76.9815C484.547 76.9815 481.071 76.9815 477.595 76.9815C477.595 73.738 477.595 70.495 477.595 67.2515Z" fill="#FEE14C"/>
<path fill-rule="evenodd" clip-rule="evenodd" d="M476.981 67.2515C477.186 67.2515 477.391 67.2515 477.595 67.2515C477.595 70.495 477.595 73.738 477.595 76.9815C481.072 76.9815 484.548 76.9815 488.024 76.9815C488.024 77.1721 488.024 77.3632 488.024 77.5538C484.343 77.5538 480.662 77.5538 476.981 77.5538C476.981 74.1197 476.981 70.6856 476.981 67.2515Z" fill="#FFB37C"/>
<path fill-rule="evenodd" clip-rule="evenodd" d="M335.267 77.5542C335.267 80.7977 335.267 84.0407 335.267 87.2842C338.744 87.2842 342.22 87.2842 345.696 87.2842C345.696 90.5278 345.696 93.7707 345.696 97.0142C338.744 97.0142 331.79 97.0142 324.838 97.0142C324.838 90.5278 324.838 84.0407 324.838 77.5542C328.314 77.5542 331.79 77.5542 335.267 77.5542Z" fill="#8D68E6"/>
<path fill-rule="evenodd" clip-rule="evenodd" d="M444.467 76.9814C448.148 76.9814 451.829 76.9814 455.509 76.9814C455.509 80.4156 455.509 83.8497 455.509 87.2838C451.829 87.2838 448.148 87.2838 444.467 87.2838C444.467 83.8497 444.467 80.4156 444.467 76.9814Z" fill="#FFDF4E"/>
<path fill-rule="evenodd" clip-rule="evenodd" d="M248.153 76.9814C255.311 76.9814 262.468 76.9814 269.625 76.9814C273.306 76.9814 276.987 76.9814 280.668 76.9814C277.309 77.5475 273.832 77.7381 270.239 77.5538C270.239 90.9085 270.239 104.264 270.239 117.619C269.626 104.362 269.422 91.0076 269.625 77.5538C262.358 77.7415 255.201 77.5509 248.153 76.9814Z" fill="#FD889D"/>
<path fill-rule="evenodd" clip-rule="evenodd" d="M346.311 87.2842C349.991 87.2842 353.672 87.2842 357.353 87.2842C357.353 90.7183 357.353 94.1524 357.353 97.5866C357.149 97.5866 356.944 97.5866 356.74 97.5866C353.263 97.5866 349.787 97.5866 346.311 97.5866C346.311 94.1524 346.311 90.7183 346.311 87.2842Z" fill="#FA6CA1"/>
<path fill-rule="evenodd" clip-rule="evenodd" d="M400.91 87.2842C404.591 87.2842 408.272 87.2842 411.953 87.2842C411.953 94.1524 411.953 101.021 411.953 107.889C411.749 107.889 411.544 107.889 411.339 107.889C407.863 107.889 404.387 107.889 400.91 107.889C400.91 101.021 400.91 94.1524 400.91 87.2842Z" fill="#FA6CA2"/>
<path fill-rule="evenodd" clip-rule="evenodd" d="M237.11 87.2842C240.587 87.2842 244.063 87.2842 247.539 87.2842C247.539 100.83 247.539 114.375 247.539 127.921C251.22 127.921 254.901 127.921 258.582 127.921C258.582 131.355 258.582 134.79 258.582 138.224C262.263 138.224 265.944 138.224 269.625 138.224C269.625 141.467 269.625 144.71 269.625 147.954C262.467 147.954 255.31 147.954 248.153 147.954C248.153 144.52 248.153 141.085 248.153 137.651C240.791 137.651 233.429 137.651 226.067 137.651C226.067 131.165 226.067 124.678 226.067 118.191C229.748 118.191 233.429 118.191 237.11 118.191C237.11 111.323 237.11 104.455 237.11 97.5866C237.11 94.1524 237.11 90.7183 237.11 87.2842Z" fill="#8E68E5"/>
<path fill-rule="evenodd" clip-rule="evenodd" d="M389.867 87.2842C393.548 87.2842 397.229 87.2842 400.91 87.2842C400.91 94.1524 400.91 101.021 400.91 107.889C397.229 107.889 393.548 107.889 389.867 107.889C389.867 107.698 389.867 107.507 389.867 107.317C389.867 104.073 389.867 100.83 389.867 97.5866C389.867 94.1524 389.867 90.7183 389.867 87.2842Z" fill="#7867CA"/>
<path fill-rule="evenodd" clip-rule="evenodd" d="M390.48 87.8564C393.752 87.8564 397.024 87.8564 400.296 87.8564C400.296 94.3429 400.296 100.83 400.296 107.316C397.024 107.316 393.752 107.316 390.48 107.316C390.48 100.83 390.48 94.3429 390.48 87.8564Z" fill="#5561D3"/>
<path fill-rule="evenodd" clip-rule="evenodd" d="M488.638 87.2842C492.114 87.2842 495.59 87.2842 499.067 87.2842C499.067 93.9618 499.067 100.639 499.067 107.317C495.59 107.317 492.114 107.317 488.638 107.317C488.638 100.639 488.638 93.9618 488.638 87.2842Z" fill="#FFE04D"/>
<path fill-rule="evenodd" clip-rule="evenodd" d="M236.497 87.2842C236.701 87.2842 236.906 87.2842 237.11 87.2842C237.11 90.7183 237.11 94.1524 237.11 97.5866C233.429 97.5866 229.748 97.5866 226.067 97.5866C229.426 97.0205 232.903 96.8299 236.497 97.0142C236.497 93.7707 236.497 90.5277 236.497 87.2842Z" fill="#4A3554"/>
<path fill-rule="evenodd" clip-rule="evenodd" d="M324.225 56.377C324.225 56.5677 324.225 56.7585 324.225 56.9493C320.748 56.9493 317.272 56.9493 313.796 56.9493C313.796 63.627 313.796 70.304 313.796 76.9817C317.272 76.9817 320.748 76.9817 324.225 76.9817C328.022 76.7968 331.703 76.9874 335.268 77.5541C331.791 77.5541 328.315 77.5541 324.838 77.5541C324.838 84.0405 324.838 90.5276 324.838 97.0141C331.791 97.0141 338.744 97.0141 345.697 97.0141C345.697 93.7706 345.697 90.5276 345.697 87.2841C345.901 87.2841 346.106 87.2841 346.31 87.2841C346.31 90.7182 346.31 94.1523 346.31 97.5865C339.153 97.5865 331.996 97.5865 324.838 97.5865C324.838 100.83 324.838 104.073 324.838 107.316C324.634 107.316 324.429 107.316 324.225 107.316C324.225 104.073 324.225 100.83 324.225 97.5865C324.225 90.9088 324.225 84.2317 324.225 77.5541C320.748 77.5541 317.272 77.5541 313.796 77.5541C313.796 84.2317 313.796 90.9088 313.796 97.5865C313.185 90.8201 312.981 83.9518 313.182 76.9817C313.182 70.1135 313.182 63.2452 313.182 56.377C316.863 56.377 320.544 56.377 324.225 56.377Z" fill="#9C70D0"/>
<path fill-rule="evenodd" clip-rule="evenodd" d="M324.225 97.5866C320.748 97.5866 317.272 97.5866 313.796 97.5866C313.796 90.9089 313.796 84.2319 313.796 77.5542C317.272 77.5542 320.748 77.5542 324.225 77.5542C324.225 84.2319 324.225 90.9089 324.225 97.5866Z" fill="#5561D2"/>
<path fill-rule="evenodd" clip-rule="evenodd" d="M226.068 97.5864C229.749 97.5864 233.43 97.5864 237.11 97.5864C237.11 104.455 237.11 111.323 237.11 118.191C233.43 118.191 229.749 118.191 226.068 118.191C226.068 124.678 226.068 131.165 226.068 137.651C233.115 138.221 240.273 138.411 247.54 138.224C247.54 141.658 247.54 145.092 247.54 148.526C254.901 148.526 262.263 148.526 269.625 148.526C269.625 155.204 269.625 161.881 269.625 168.558C276.987 168.558 284.349 168.558 291.71 168.558C291.71 171.992 291.71 175.427 291.71 178.861C317.272 178.861 342.834 178.861 368.395 178.861C368.395 175.427 368.395 171.992 368.395 168.558C368.395 165.124 368.395 161.69 368.395 158.256C375.553 158.256 382.71 158.256 389.867 158.256C389.867 155.012 389.867 151.769 389.867 148.526C386.508 147.96 383.032 147.769 379.438 147.954C379.636 144.601 379.431 141.357 378.825 138.224C375.348 138.224 371.872 138.224 368.395 138.224C368.395 134.789 368.395 131.355 368.395 127.921C382.71 127.921 397.025 127.921 411.339 127.921C411.339 131.165 411.339 134.408 411.339 137.651C407.863 137.651 404.387 137.651 400.91 137.651C400.91 141.276 400.91 144.901 400.91 148.526C404.387 148.526 407.863 148.526 411.339 148.526C411.339 151.769 411.339 155.012 411.339 158.256C422.382 158.256 433.424 158.256 444.467 158.256C444.467 158.447 444.467 158.638 444.467 158.828C444.467 162.072 444.467 165.315 444.467 168.558C455.412 168.369 466.251 168.56 476.982 169.131C476.982 172.374 476.982 175.617 476.982 178.861C495.386 178.861 513.79 178.861 532.195 178.861C532.195 175.617 532.195 172.374 532.195 169.131C546.608 168.559 561.127 168.369 575.752 168.558C575.752 165.124 575.752 161.69 575.752 158.256C579.229 158.256 582.705 158.256 586.181 158.256C589.746 158.823 593.426 159.013 597.224 158.828C597.224 165.506 597.224 172.183 597.224 178.861C600.905 178.861 604.586 178.861 608.267 178.861C608.267 182.295 608.267 185.729 608.267 189.163C615.628 189.163 622.99 189.163 630.352 189.163C630.352 192.407 630.352 195.65 630.352 198.893C637.511 198.893 644.664 198.893 651.824 198.893C651.824 199.084 651.824 199.275 651.824 199.465C651.824 202.709 651.824 205.952 651.824 209.195C659.186 209.195 666.547 209.195 673.909 209.195C674.516 206.062 674.719 202.818 674.523 199.465C681.473 199.465 688.43 199.465 695.381 199.465C695.381 205.952 695.381 212.439 695.381 218.926C691.786 218.741 688.314 218.932 684.952 219.498C684.952 222.741 684.952 225.984 684.952 229.228C466.348 229.228 247.744 229.228 29.1403 229.228C29.1403 225.984 29.1403 222.741 29.1403 219.498C25.4594 219.498 21.7785 219.498 18.0977 219.498C18.0977 212.63 18.0977 205.761 18.0977 198.893C21.7785 198.893 25.4594 198.893 29.1403 198.893C29.747 195.759 29.9515 192.516 29.7538 189.163C33.2302 189.163 36.7066 189.163 40.183 189.163C40.183 195.841 40.183 202.518 40.183 209.195C62.064 209.195 83.9444 209.195 105.825 209.195C105.825 205.952 105.825 202.709 105.825 199.465C109.506 199.465 113.187 199.465 116.868 199.465C116.868 202.709 116.868 205.952 116.868 209.195C120.549 209.195 124.23 209.195 127.911 209.195C127.911 205.761 127.911 202.327 127.911 198.893C124.23 198.893 120.549 198.893 116.868 198.893C116.868 195.65 116.868 192.407 116.868 189.163C120.549 189.163 124.23 189.163 127.911 189.163C127.911 182.295 127.911 175.427 127.911 168.558C131.387 168.558 134.863 168.558 138.34 168.558C138.95 161.983 139.155 155.305 138.953 148.526C142.43 148.526 145.906 148.526 149.383 148.526C149.383 155.204 149.383 161.881 149.383 168.558C153.064 168.558 156.744 168.558 160.425 168.558C160.425 171.802 160.425 175.045 160.425 178.288C163.99 178.855 167.671 179.046 171.468 178.861C171.468 182.295 171.468 185.729 171.468 189.163C174.945 189.163 178.421 189.163 181.897 189.163C181.897 192.407 181.897 195.65 181.897 198.893C189.259 198.893 196.621 198.893 203.982 198.893C203.982 192.215 203.982 185.538 203.982 178.861C207.663 178.861 211.344 178.861 215.025 178.861C215.025 175.427 215.025 171.992 215.025 168.558C222.387 168.558 229.749 168.558 237.11 168.558C237.11 165.124 237.11 161.69 237.11 158.256C233.43 158.256 229.749 158.256 226.068 158.256C226.068 154.822 226.068 151.388 226.068 147.954C222.387 147.954 218.706 147.954 215.025 147.954C215.025 141.276 215.025 134.599 215.025 127.921C215.025 121.053 215.025 114.185 215.025 107.316C218.706 107.316 222.387 107.316 226.068 107.316C226.068 104.073 226.068 100.83 226.068 97.5864Z" fill="#5561D2"/>
<path fill-rule="evenodd" clip-rule="evenodd" d="M346.31 97.5864C346.31 101.021 346.31 104.455 346.31 107.889C349.786 107.889 353.262 107.889 356.739 107.889C356.637 111.137 356.74 114.381 357.046 117.619C360.568 118.177 364.147 118.367 367.782 118.191C367.782 121.435 367.782 124.678 367.782 127.921C360.624 127.921 353.467 127.921 346.31 127.921C342.629 127.921 338.948 127.921 335.267 127.921C335.267 124.487 335.267 121.053 335.267 117.619C335.267 114.185 335.267 110.751 335.267 107.316C331.79 107.316 328.314 107.316 324.838 107.316C324.838 104.073 324.838 100.83 324.838 97.5864C331.995 97.5864 339.152 97.5864 346.31 97.5864Z" fill="#5561D2"/>
<path fill-rule="evenodd" clip-rule="evenodd" d="M346.311 97.5864C349.787 97.5864 353.263 97.5864 356.74 97.5864C356.74 101.021 356.74 104.455 356.74 107.889C353.263 107.889 349.787 107.889 346.311 107.889C346.311 104.455 346.311 101.021 346.311 97.5864Z" fill="#8E68E4"/>
<path fill-rule="evenodd" clip-rule="evenodd" d="M357.353 97.5864C368.191 97.5864 379.029 97.5864 389.867 97.5864C389.867 100.83 389.867 104.073 389.867 107.316C379.029 107.316 368.191 107.316 357.353 107.316C357.353 104.073 357.353 100.83 357.353 97.5864Z" fill="#FA6BA1"/>
<path fill-rule="evenodd" clip-rule="evenodd" d="M477.595 97.5864C481.071 97.5864 484.547 97.5864 488.024 97.5864C488.024 100.83 488.024 104.073 488.024 107.316C484.547 107.316 481.071 107.316 477.595 107.316C477.595 104.073 477.595 100.83 477.595 97.5864Z" fill="#FA6BA1"/>
<path fill-rule="evenodd" clip-rule="evenodd" d="M488.024 87.2842C488.229 87.2842 488.434 87.2842 488.638 87.2842C488.638 93.9618 488.638 100.639 488.638 107.317C492.114 107.317 495.59 107.317 499.067 107.317C499.067 107.507 499.067 107.698 499.067 107.889C495.386 107.889 491.705 107.889 488.024 107.889C488.024 107.698 488.024 107.507 488.024 107.317C488.024 104.073 488.024 100.83 488.024 97.5866C488.024 94.1524 488.024 90.7183 488.024 87.2842Z" fill="#FEC26A"/>
<path fill-rule="evenodd" clip-rule="evenodd" d="M356.739 97.5864C356.944 97.5864 357.148 97.5864 357.353 97.5864C357.353 100.83 357.353 104.073 357.353 107.316C368.191 107.316 379.029 107.316 389.867 107.316C389.867 107.507 389.867 107.698 389.867 107.889C378.825 107.889 367.782 107.889 356.739 107.889C356.739 104.455 356.739 101.021 356.739 97.5864Z" fill="#E173B1"/>
<path fill-rule="evenodd" clip-rule="evenodd" d="M477.595 97.5864C477.595 100.83 477.595 104.073 477.595 107.316C481.072 107.316 484.548 107.316 488.024 107.316C488.024 107.507 488.024 107.698 488.024 107.889C484.548 107.889 481.072 107.889 477.595 107.889C477.595 111.132 477.595 114.375 477.595 117.619C477.391 117.619 477.186 117.619 476.982 117.619C476.982 114.375 476.982 111.132 476.982 107.889C469.824 107.889 462.667 107.889 455.51 107.889C462.557 107.319 469.715 107.129 476.982 107.316C476.784 103.964 476.988 100.72 477.595 97.5864Z" fill="#FC819E"/>
<path fill-rule="evenodd" clip-rule="evenodd" d="M499.067 87.2842C499.678 93.8594 499.882 100.537 499.681 107.317C510.519 107.317 521.357 107.317 532.195 107.317C532.195 107.507 532.195 107.698 532.195 107.889C531.991 107.889 531.786 107.889 531.582 107.889C520.744 107.889 509.906 107.889 499.067 107.889C499.067 107.698 499.067 107.507 499.067 107.317C499.067 100.639 499.067 93.9618 499.067 87.2842Z" fill="#9C7543"/>
<path fill-rule="evenodd" clip-rule="evenodd" d="M532.195 107.889C532.195 107.698 532.195 107.507 532.195 107.316C539.557 107.316 546.919 107.316 554.281 107.316C554.281 110.751 554.281 114.185 554.281 117.619C554.076 117.619 553.871 117.619 553.667 117.619C553.667 114.375 553.667 111.132 553.667 107.889C546.51 107.889 539.353 107.889 532.195 107.889Z" fill="#6F4142"/>
<path fill-rule="evenodd" clip-rule="evenodd" d="M324.225 107.316C324.429 107.316 324.634 107.316 324.838 107.316C328.315 107.316 331.791 107.316 335.267 107.316C335.267 110.751 335.267 114.185 335.267 117.619C331.586 117.619 327.905 117.619 324.225 117.619C324.225 114.185 324.225 110.751 324.225 107.316Z" fill="#F96CA2"/>
<path fill-rule="evenodd" clip-rule="evenodd" d="M400.91 107.889C404.387 107.889 407.863 107.889 411.339 107.889C411.339 111.132 411.339 114.375 411.339 117.619C407.863 117.619 404.387 117.619 400.91 117.619C400.91 114.375 400.91 111.132 400.91 107.889Z" fill="#5561D3"/>
<path fill-rule="evenodd" clip-rule="evenodd" d="M411.953 107.889C419.111 107.889 426.267 107.889 433.425 107.889C433.425 111.132 433.425 114.375 433.425 117.619C426.267 117.619 419.111 117.619 411.953 117.619C411.953 114.375 411.953 111.132 411.953 107.889Z" fill="#FA6BA1"/>
<path fill-rule="evenodd" clip-rule="evenodd" d="M455.51 107.889C462.667 107.889 469.824 107.889 476.982 107.889C476.982 111.132 476.982 114.375 476.982 117.619C469.824 117.619 462.667 117.619 455.51 117.619C455.51 114.375 455.51 111.132 455.51 107.889Z" fill="#FA6BA1"/>
<path fill-rule="evenodd" clip-rule="evenodd" d="M488.024 107.889C491.705 107.889 495.386 107.889 499.067 107.889C499.067 111.132 499.067 114.375 499.067 117.619C495.386 117.619 491.705 117.619 488.024 117.619C487.826 121.162 488.03 124.596 488.638 127.921C492.114 127.921 495.59 127.921 499.067 127.921C499.067 124.678 499.067 121.435 499.067 118.191C510.11 118.191 521.152 118.191 532.195 118.191C532.195 114.757 532.195 111.323 532.195 107.889C539.352 107.889 546.509 107.889 553.667 107.889C553.667 111.132 553.667 114.375 553.667 117.619C549.986 117.619 546.305 117.619 542.624 117.619C542.426 121.162 542.63 124.596 543.238 127.921C546.714 127.921 550.19 127.921 553.667 127.921C553.667 131.355 553.667 134.789 553.667 138.223C539.148 138.223 524.629 138.223 510.11 138.223C510.299 141.615 510.094 144.954 509.496 148.24C491.502 148.526 473.506 148.621 455.51 148.526C455.51 145.092 455.51 141.658 455.51 138.223C455.51 134.789 455.51 131.355 455.51 127.921C462.667 127.921 469.824 127.921 476.982 127.921C477.589 124.596 477.793 121.162 477.595 117.619C477.595 114.375 477.595 111.132 477.595 107.889C481.072 107.889 484.548 107.889 488.024 107.889Z" fill="#FE989A"/>
<path fill-rule="evenodd" clip-rule="evenodd" d="M499.067 107.889C509.906 107.889 520.744 107.889 531.582 107.889C531.582 111.132 531.582 114.375 531.582 117.619C520.744 117.619 509.906 117.619 499.067 117.619C499.067 114.375 499.067 111.132 499.067 107.889Z" fill="#FFE04D"/>
<path fill-rule="evenodd" clip-rule="evenodd" d="M411.339 107.889C411.543 107.889 411.748 107.889 411.952 107.889C411.952 111.132 411.952 114.375 411.952 117.619C419.11 117.619 426.267 117.619 433.424 117.619C433.424 117.809 433.424 118 433.424 118.191C426.267 118.191 419.11 118.191 411.952 118.191C411.543 118.191 411.339 118 411.339 117.619C411.339 114.375 411.339 111.132 411.339 107.889Z" fill="#B16FB5"/>
<path fill-rule="evenodd" clip-rule="evenodd" d="M455.51 118.191C455.51 118 455.51 117.809 455.51 117.619C462.667 117.619 469.824 117.619 476.982 117.619C477.186 117.619 477.391 117.619 477.595 117.619C477.793 121.162 477.589 124.596 476.982 127.921C476.982 124.677 476.982 121.435 476.982 118.191C469.824 118.191 462.667 118.191 455.51 118.191Z" fill="#AE72B6"/>
<path fill-rule="evenodd" clip-rule="evenodd" d="M531.582 107.889C531.786 107.889 531.991 107.889 532.195 107.889C532.195 111.323 532.195 114.757 532.195 118.191C521.152 118.191 510.11 118.191 499.067 118.191C495.59 118.191 492.114 118.191 488.638 118.191C488.638 121.435 488.638 124.678 488.638 127.921C488.03 124.596 487.826 121.162 488.024 117.619C491.705 117.619 495.386 117.619 499.067 117.619C509.905 117.619 520.743 117.619 531.582 117.619C531.582 114.375 531.582 111.132 531.582 107.889Z" fill="#FFB976"/>
<path fill-rule="evenodd" clip-rule="evenodd" d="M553.667 117.619C553.667 117.809 553.667 118 553.667 118.191C550.19 118.191 546.714 118.191 543.237 118.191C543.237 121.435 543.237 124.677 543.237 127.921C542.63 124.596 542.426 121.162 542.624 117.619C546.305 117.619 549.986 117.619 553.667 117.619Z" fill="#FFC66A"/>
<path fill-rule="evenodd" clip-rule="evenodd" d="M193.554 117.619C193.554 121.053 193.554 124.487 193.554 127.921C189.873 127.921 186.192 127.921 182.511 127.921C182.511 131.355 182.511 134.789 182.511 138.223C178.83 138.223 175.149 138.223 171.468 138.223C171.468 144.901 171.468 151.578 171.468 158.256C167.788 158.256 164.107 158.256 160.426 158.256C160.426 151.578 160.426 144.901 160.426 138.223C160.426 134.789 160.426 131.355 160.426 127.921C164.107 127.921 167.788 127.921 171.468 127.921C171.468 124.487 171.468 121.053 171.468 117.619C178.83 117.619 186.192 117.619 193.554 117.619Z" fill="#FA6BA1"/>
<path fill-rule="evenodd" clip-rule="evenodd" d="M193.553 117.619C197.03 117.619 200.506 117.619 203.982 117.619C203.982 121.053 203.982 124.487 203.982 127.921C203.982 134.789 203.982 141.658 203.982 148.526C207.663 148.526 211.344 148.526 215.025 148.526C215.025 155.203 215.025 161.881 215.025 168.558C204.187 168.558 193.349 168.558 182.51 168.558C182.51 165.124 182.51 161.69 182.51 158.256C178.83 158.256 175.149 158.256 171.468 158.256C171.468 151.578 171.468 144.901 171.468 138.223C175.149 138.223 178.83 138.223 182.51 138.223C182.51 134.789 182.51 131.355 182.51 127.921C186.191 127.921 189.872 127.921 193.553 127.921C193.553 124.487 193.553 121.053 193.553 117.619Z" fill="#FE9899"/>
<path fill-rule="evenodd" clip-rule="evenodd" d="M411.953 118.191C419.111 118.191 426.267 118.191 433.425 118.191C433.425 121.434 433.425 124.677 433.425 127.921C429.744 127.921 426.063 127.921 422.382 127.921C418.906 127.921 415.43 127.921 411.953 127.921C411.953 124.677 411.953 121.434 411.953 118.191Z" fill="#5561D2"/>
<path fill-rule="evenodd" clip-rule="evenodd" d="M433.425 117.619C440.787 117.619 448.148 117.619 455.51 117.619C455.51 117.809 455.51 118 455.51 118.191C455.51 121.435 455.51 124.677 455.51 127.921C448.353 127.921 441.196 127.921 434.038 127.921C433.834 127.921 433.629 127.921 433.425 127.921C433.425 124.677 433.425 121.435 433.425 118.191C433.425 118 433.425 117.809 433.425 117.619Z" fill="#FA6CA2"/>
<path fill-rule="evenodd" clip-rule="evenodd" d="M455.51 118.191C462.667 118.191 469.824 118.191 476.982 118.191C476.982 121.434 476.982 124.677 476.982 127.921C469.824 127.921 462.667 127.921 455.51 127.921C455.51 124.677 455.51 121.434 455.51 118.191Z" fill="#5561D3"/>
<path fill-rule="evenodd" clip-rule="evenodd" d="M499.067 118.191C499.067 121.434 499.067 124.677 499.067 127.921C495.59 127.921 492.114 127.921 488.638 127.921C488.638 124.677 488.638 121.434 488.638 118.191C492.114 118.191 495.59 118.191 499.067 118.191Z" fill="#FEE14C"/>
<path fill-rule="evenodd" clip-rule="evenodd" d="M553.666 118.191C553.666 121.434 553.666 124.677 553.666 127.921C550.19 127.921 546.714 127.921 543.237 127.921C543.237 124.677 543.237 121.434 543.237 118.191C546.714 118.191 550.19 118.191 553.666 118.191Z" fill="#FEE14C"/>
<path fill-rule="evenodd" clip-rule="evenodd" d="M553.667 117.619C553.871 117.619 554.076 117.619 554.28 117.619C557.757 117.619 561.233 117.619 564.71 117.619C564.71 121.053 564.71 124.487 564.71 127.921C561.029 127.921 557.348 127.921 553.667 127.921C553.667 124.677 553.667 121.435 553.667 118.191C553.667 118 553.667 117.809 553.667 117.619Z" fill="#FB9797"/>
<path fill-rule="evenodd" clip-rule="evenodd" d="M356.739 107.889C367.782 107.889 378.825 107.889 389.867 107.889C393.548 107.889 397.229 107.889 400.91 107.889C400.91 111.132 400.91 114.375 400.91 117.619C404.387 117.619 407.862 117.619 411.339 117.619C411.339 118 411.543 118.191 411.953 118.191C411.953 121.435 411.953 124.678 411.953 127.921C415.429 127.921 418.905 127.921 422.382 127.921C422.279 134.601 422.382 141.279 422.688 147.953C429.899 148.519 437.158 148.71 444.467 148.526C444.467 151.769 444.467 155.012 444.467 158.256C433.424 158.256 422.382 158.256 411.339 158.256C411.339 155.012 411.339 151.769 411.339 148.526C407.862 148.526 404.387 148.526 400.91 148.526C400.91 144.901 400.91 141.276 400.91 137.651C404.387 137.651 407.862 137.651 411.339 137.651C411.339 134.408 411.339 131.165 411.339 127.921C397.025 127.921 382.71 127.921 368.395 127.921C368.191 127.921 367.986 127.921 367.782 127.921C367.782 124.678 367.782 121.435 367.782 118.191C364.147 118.367 360.568 118.177 357.046 117.619C356.74 114.381 356.637 111.137 356.739 107.889Z" fill="#8E68E5"/>
<path fill-rule="evenodd" clip-rule="evenodd" d="M422.382 127.921C426.063 127.921 429.744 127.921 433.425 127.921C433.629 127.921 433.834 127.921 434.038 127.921C434.038 131.356 434.038 134.79 434.038 138.224C441.196 138.224 448.353 138.224 455.51 138.224C455.51 141.658 455.51 145.092 455.51 148.526C473.507 148.622 491.502 148.526 509.497 148.24C510.095 144.954 510.299 141.615 510.11 138.224C524.629 138.224 539.148 138.224 553.667 138.224C553.667 134.79 553.667 131.356 553.667 127.921C557.348 127.921 561.029 127.921 564.71 127.921C568.391 127.921 572.072 127.921 575.752 127.921C575.752 131.356 575.752 134.79 575.752 138.224C575.752 141.658 575.752 145.092 575.752 148.526C561.233 148.526 546.715 148.526 532.195 148.526C532.384 151.917 532.18 155.256 531.582 158.542C502.545 158.829 473.507 158.924 444.468 158.829C444.468 158.638 444.468 158.447 444.468 158.256C444.468 155.013 444.468 151.77 444.468 148.526C437.158 148.71 429.899 148.519 422.689 147.954C422.382 141.279 422.28 134.601 422.382 127.921Z" fill="#F96BA2"/>
<path fill-rule="evenodd" clip-rule="evenodd" d="M434.038 127.921C441.196 127.921 448.352 127.921 455.51 127.921C455.51 131.356 455.51 134.79 455.51 138.224C448.352 138.224 441.196 138.224 434.038 138.224C434.038 134.79 434.038 131.356 434.038 127.921Z" fill="#5B61D1"/>
<path fill-rule="evenodd" clip-rule="evenodd" d="M160.425 138.224C160.425 144.901 160.425 151.578 160.425 158.256C163.784 158.822 167.261 159.013 170.855 158.828C170.855 165.315 170.855 171.802 170.855 178.288C167.378 178.288 163.902 178.288 160.425 178.288C160.425 175.045 160.425 171.802 160.425 168.558C156.745 168.558 153.064 168.558 149.383 168.558C149.383 161.881 149.383 155.204 149.383 148.526C149.383 148.335 149.383 148.144 149.383 147.954C149.383 144.71 149.383 141.467 149.383 138.224C153.064 138.224 156.745 138.224 160.425 138.224Z" fill="#8E68E5"/>
<path fill-rule="evenodd" clip-rule="evenodd" d="M575.752 138.224C579.228 138.224 582.704 138.224 586.181 138.224C586.181 144.901 586.181 151.578 586.181 158.256C582.704 158.256 579.228 158.256 575.752 158.256C575.752 161.69 575.752 165.124 575.752 168.558C561.127 168.369 546.608 168.56 532.195 169.131C531.588 172.073 531.384 175.126 531.581 178.288C513.586 178.288 495.59 178.288 477.595 178.288C477.792 175.126 477.587 172.073 476.981 169.131C466.25 168.56 455.412 168.37 444.467 168.558C444.467 165.315 444.467 162.072 444.467 158.828C473.506 158.924 502.544 158.828 531.581 158.542C532.179 155.256 532.384 151.917 532.195 148.526C546.714 148.526 561.233 148.526 575.752 148.526C575.752 145.092 575.752 141.658 575.752 138.224Z" fill="#8E68E5"/>
<path fill-rule="evenodd" clip-rule="evenodd" d="M226.067 137.651C233.429 137.651 240.791 137.651 248.153 137.651C248.153 141.085 248.153 144.52 248.153 147.954C255.31 147.954 262.467 147.954 269.625 147.954C269.625 148.144 269.625 148.336 269.625 148.526C262.263 148.526 254.901 148.526 247.539 148.526C247.539 145.092 247.539 141.658 247.539 138.224C240.273 138.411 233.115 138.221 226.067 137.651Z" fill="#9C71D0"/>
<path fill-rule="evenodd" clip-rule="evenodd" d="M378.824 138.224C379.431 141.357 379.635 144.601 379.438 147.954C383.031 147.769 386.508 147.96 389.867 148.526C386.186 148.526 382.505 148.526 378.824 148.526C378.824 145.092 378.824 141.658 378.824 138.224Z" fill="#A072C4"/>
<path fill-rule="evenodd" clip-rule="evenodd" d="M149.383 147.954C149.383 148.144 149.383 148.335 149.383 148.526C145.906 148.526 142.43 148.526 138.953 148.526C139.155 155.306 138.95 161.983 138.34 168.558C138.34 161.69 138.34 154.822 138.34 147.954C142.021 147.954 145.702 147.954 149.383 147.954Z" fill="#685796"/>
<path fill-rule="evenodd" clip-rule="evenodd" d="M203.982 127.921C207.663 127.921 211.344 127.921 215.025 127.921C215.025 134.599 215.025 141.276 215.025 147.954C218.706 147.954 222.387 147.954 226.068 147.954C226.068 151.388 226.068 154.822 226.068 158.256C229.749 158.256 233.43 158.256 237.11 158.256C237.11 161.69 237.11 165.124 237.11 168.559C229.749 168.559 222.387 168.559 215.025 168.559C215.025 161.881 215.025 155.204 215.025 148.526C211.344 148.526 207.663 148.526 203.982 148.526C203.982 141.658 203.982 134.79 203.982 127.921Z" fill="#FA6CA2"/>
<path fill-rule="evenodd" clip-rule="evenodd" d="M269.625 148.526C276.782 148.526 283.939 148.526 291.097 148.526C291.097 151.96 291.097 155.394 291.097 158.828C316.659 158.828 342.22 158.828 367.782 158.828C367.584 162.181 367.789 165.425 368.395 168.558C368.395 171.992 368.395 175.427 368.395 178.861C342.834 178.861 317.272 178.861 291.71 178.861C291.71 175.427 291.71 171.992 291.71 168.558C284.349 168.558 276.987 168.558 269.625 168.558C269.625 161.881 269.625 155.204 269.625 148.526Z" fill="#8D67E5"/>
<path fill-rule="evenodd" clip-rule="evenodd" d="M346.31 127.921C353.467 127.921 360.624 127.921 367.782 127.921C367.986 127.921 368.191 127.921 368.395 127.921C368.395 131.356 368.395 134.79 368.395 138.224C371.872 138.224 375.348 138.224 378.824 138.224C378.824 141.658 378.824 145.092 378.824 148.526C375.348 148.526 371.872 148.526 368.395 148.526C368.395 151.77 368.395 155.013 368.395 158.256C342.833 158.256 317.272 158.256 291.71 158.256C291.71 155.013 291.71 151.77 291.71 148.526C317.067 148.526 342.425 148.526 367.782 148.526C367.782 145.092 367.782 141.658 367.782 138.224C360.624 138.224 353.467 138.224 346.31 138.224C346.31 134.79 346.31 131.356 346.31 127.921Z" fill="#FA6BA2"/>
<path fill-rule="evenodd" clip-rule="evenodd" d="M378.825 148.526C382.506 148.526 386.186 148.526 389.867 148.526C389.867 151.769 389.867 155.012 389.867 158.256C382.71 158.256 375.553 158.256 368.396 158.256C368.396 155.012 368.396 151.769 368.396 148.526C371.872 148.526 375.348 148.526 378.825 148.526Z" fill="#8D68E6"/>
<path fill-rule="evenodd" clip-rule="evenodd" d="M291.097 148.526C291.301 148.526 291.506 148.526 291.71 148.526C291.71 151.769 291.71 155.012 291.71 158.256C317.272 158.256 342.833 158.256 368.395 158.256C368.395 161.69 368.395 165.124 368.395 168.558C367.789 165.425 367.584 162.181 367.782 158.828C342.22 158.828 316.659 158.828 291.097 158.828C291.097 155.394 291.097 151.96 291.097 148.526Z" fill="#BF70C3"/>
<path fill-rule="evenodd" clip-rule="evenodd" d="M160.426 158.256C164.107 158.256 167.788 158.256 171.468 158.256C171.468 165.124 171.468 171.992 171.468 178.861C167.671 179.045 163.99 178.855 160.426 178.288C163.902 178.288 167.378 178.288 170.855 178.288C170.855 171.802 170.855 165.315 170.855 158.828C167.261 159.013 163.785 158.822 160.426 158.256Z" fill="#AB6FD1"/>
<path fill-rule="evenodd" clip-rule="evenodd" d="M171.468 158.256C175.149 158.256 178.83 158.256 182.51 158.256C182.51 161.69 182.51 165.124 182.51 168.558C193.349 168.558 204.187 168.558 215.025 168.558C215.025 171.992 215.025 175.426 215.025 178.861C211.344 178.861 207.663 178.861 203.982 178.861C193.144 178.861 182.306 178.861 171.468 178.861C171.468 171.992 171.468 165.124 171.468 158.256Z" fill="#FA6BA2"/>
<path fill-rule="evenodd" clip-rule="evenodd" d="M116.868 168.558C120.549 168.558 124.23 168.558 127.911 168.558C127.911 175.426 127.911 182.295 127.911 189.163C124.23 189.163 120.549 189.163 116.868 189.163C116.868 188.972 116.868 188.781 116.868 188.591C116.868 185.347 116.868 182.104 116.868 178.86C116.868 175.426 116.868 171.992 116.868 168.558Z" fill="#8F68E4"/>
<path fill-rule="evenodd" clip-rule="evenodd" d="M378.824 168.558C386.186 168.558 393.548 168.558 400.91 168.558C400.91 175.426 400.91 182.295 400.91 189.163C393.548 189.163 386.186 189.163 378.824 189.163C378.824 182.295 378.824 175.426 378.824 168.558Z" fill="#8C67E5"/>
<path fill-rule="evenodd" clip-rule="evenodd" d="M51.2256 178.861C62.1615 178.29 73.2042 178.099 84.3536 178.288C84.3536 181.722 84.3536 185.157 84.3536 188.591C87.8302 188.591 91.3062 188.591 94.7828 188.591C94.7828 188.781 94.7828 188.972 94.7828 189.163C91.1019 189.163 87.421 189.163 83.7401 189.163C83.7401 188.972 83.7401 188.781 83.7401 188.591C83.7401 185.347 83.7401 182.104 83.7401 178.861C76.5826 178.861 69.4257 178.861 62.2682 178.861C58.5874 178.861 54.9065 178.861 51.2256 178.861Z" fill="#593336"/>
<path fill-rule="evenodd" clip-rule="evenodd" d="M116.869 168.558C116.869 171.992 116.869 175.426 116.869 178.86C109.507 178.86 102.145 178.86 94.7832 178.86C101.831 178.291 108.988 178.1 116.255 178.288C116.058 174.935 116.262 171.692 116.869 168.558Z" fill="#44282E"/>
<path fill-rule="evenodd" clip-rule="evenodd" d="M476.981 169.131C477.588 172.073 477.792 175.126 477.595 178.289C495.59 178.289 513.586 178.289 531.581 178.289C531.384 175.126 531.589 172.073 532.195 169.131C532.195 172.374 532.195 175.617 532.195 178.861C513.79 178.861 495.386 178.861 476.981 178.861C476.981 175.617 476.981 172.374 476.981 169.131Z" fill="#9D70D6"/>
<path fill-rule="evenodd" clip-rule="evenodd" d="M51.2256 178.861C54.9065 178.861 58.5874 178.861 62.2682 178.861C62.2682 182.104 62.2682 185.347 62.2682 188.591C69.4257 188.591 76.5826 188.591 83.7401 188.591C83.7401 188.781 83.7401 188.973 83.7401 189.163C83.7401 192.407 83.7401 195.65 83.7401 198.893C72.9017 198.893 62.064 198.893 51.2256 198.893C51.2256 195.65 51.2256 192.407 51.2256 189.163C51.2256 188.973 51.2256 188.781 51.2256 188.591C51.2256 185.347 51.2256 182.104 51.2256 178.861Z" fill="#FB6BA1"/>
<path fill-rule="evenodd" clip-rule="evenodd" d="M62.2686 178.861C69.426 178.861 76.5829 178.861 83.7404 178.861C83.7404 182.104 83.7404 185.347 83.7404 188.591C76.5829 188.591 69.426 188.591 62.2686 188.591C62.2686 185.347 62.2686 182.104 62.2686 178.861Z" fill="#FE9999"/>
<path fill-rule="evenodd" clip-rule="evenodd" d="M94.7832 178.861C102.145 178.861 109.507 178.861 116.869 178.861C116.869 182.104 116.869 185.347 116.869 188.591C109.556 189.151 102.194 189.342 94.7832 189.163C94.7832 188.973 94.7832 188.781 94.7832 188.591C94.7832 185.347 94.7832 182.104 94.7832 178.861Z" fill="#FC9699"/>
<path fill-rule="evenodd" clip-rule="evenodd" d="M138.34 178.861C142.021 178.861 145.702 178.861 149.383 178.861C149.383 182.295 149.383 185.729 149.383 189.163C145.702 189.163 142.021 189.163 138.34 189.163C138.34 185.729 138.34 182.295 138.34 178.861Z" fill="#8B67E5"/>
<path fill-rule="evenodd" clip-rule="evenodd" d="M171.468 178.861C182.306 178.861 193.144 178.861 203.982 178.861C203.982 185.538 203.982 192.216 203.982 198.893C196.621 198.893 189.259 198.893 181.897 198.893C181.897 195.65 181.897 192.407 181.897 189.163C178.42 189.163 174.944 189.163 171.468 189.163C171.468 185.729 171.468 182.295 171.468 178.861Z" fill="#8E68E5"/>
<path fill-rule="evenodd" clip-rule="evenodd" d="M226.067 178.861C233.225 178.861 240.382 178.861 247.539 178.861C247.539 185.538 247.539 192.216 247.539 198.893C240.382 198.893 233.225 198.893 226.067 198.893C226.067 192.216 226.067 185.538 226.067 178.861Z" fill="#8D68E6"/>
<path fill-rule="evenodd" clip-rule="evenodd" d="M269.625 178.861C273.306 178.861 276.987 178.861 280.668 178.861C280.668 182.295 280.668 185.729 280.668 189.163C295.187 189.163 309.706 189.163 324.225 189.163C324.225 192.407 324.225 195.65 324.225 198.893C306.025 198.893 287.825 198.893 269.625 198.893C269.625 192.216 269.625 185.538 269.625 178.861Z" fill="#8D67E5"/>
<path fill-rule="evenodd" clip-rule="evenodd" d="M444.467 178.861C451.829 178.861 459.19 178.861 466.552 178.861C466.552 182.295 466.552 185.729 466.552 189.163C459.19 189.163 451.829 189.163 444.467 189.163C444.467 185.729 444.467 182.295 444.467 178.861Z" fill="#8C67E5"/>
<path fill-rule="evenodd" clip-rule="evenodd" d="M51.226 188.591C51.226 188.781 51.226 188.973 51.226 189.163C47.5451 189.163 43.8642 189.163 40.1833 189.163C36.7069 189.163 33.2305 189.163 29.7541 189.163C29.9518 192.516 29.7473 195.76 29.1406 198.893C29.1406 195.459 29.1406 192.025 29.1406 188.591C36.5024 188.591 43.8642 188.591 51.226 188.591Z" fill="#7C5C9C"/>
<path fill-rule="evenodd" clip-rule="evenodd" d="M40.1826 189.163C43.8635 189.163 47.5444 189.163 51.2253 189.163C51.2253 192.407 51.2253 195.65 51.2253 198.893C62.0637 198.893 72.9014 198.893 83.7398 198.893C87.4207 198.893 91.1016 198.893 94.7824 198.893C102.144 198.893 109.506 198.893 116.868 198.893C116.868 199.084 116.868 199.275 116.868 199.465C113.187 199.465 109.506 199.465 105.825 199.465C105.825 202.709 105.825 205.952 105.825 209.195C83.9441 209.195 62.0637 209.195 40.1826 209.195C40.1826 202.518 40.1826 195.841 40.1826 189.163Z" fill="#9068E4"/>
<path fill-rule="evenodd" clip-rule="evenodd" d="M83.7402 189.163C87.4211 189.163 91.102 189.163 94.7829 189.163C94.7829 192.407 94.7829 195.65 94.7829 198.893C91.102 198.893 87.4211 198.893 83.7402 198.893C83.7402 195.65 83.7402 192.407 83.7402 189.163Z" fill="#FE989A"/>
<path fill-rule="evenodd" clip-rule="evenodd" d="M116.869 188.591C116.869 188.781 116.869 188.973 116.869 189.163C116.869 192.407 116.869 195.65 116.869 198.893C109.507 198.893 102.145 198.893 94.7832 198.893C94.7832 195.65 94.7832 192.407 94.7832 189.163C102.194 189.342 109.556 189.151 116.869 188.591Z" fill="#FA6BA2"/>
<path fill-rule="evenodd" clip-rule="evenodd" d="M335.268 189.163C338.948 189.163 342.629 189.163 346.31 189.163C346.31 192.407 346.31 195.65 346.31 198.893C342.629 198.893 338.948 198.893 335.268 198.893C335.268 195.65 335.268 192.407 335.268 189.163Z" fill="#8D67E5"/>
<path fill-rule="evenodd" clip-rule="evenodd" d="M542.624 178.861C553.667 178.861 564.709 178.861 575.752 178.861C575.752 182.104 575.752 185.347 575.752 188.591C582.912 188.495 590.069 188.591 597.224 188.877C597.822 192.163 598.026 195.502 597.837 198.893C604.995 198.893 612.152 198.893 619.309 198.893C619.309 202.327 619.309 205.761 619.309 209.196C608.471 209.196 597.633 209.196 586.795 209.196C586.795 205.761 586.795 202.327 586.795 198.893C583.114 198.893 579.433 198.893 575.752 198.893C575.752 195.65 575.752 192.407 575.752 189.163C564.709 189.163 553.667 189.163 542.624 189.163C542.624 185.729 542.624 182.295 542.624 178.861Z" fill="#8C67E5"/>
<path fill-rule="evenodd" clip-rule="evenodd" d="M116.868 198.893C120.549 198.893 124.23 198.893 127.911 198.893C127.911 202.327 127.911 205.761 127.911 209.195C124.23 209.195 120.549 209.195 116.868 209.195C116.868 205.952 116.868 202.709 116.868 199.465C116.868 199.275 116.868 199.084 116.868 198.893Z" fill="#8C67E5"/>
<path fill-rule="evenodd" clip-rule="evenodd" d="M138.34 198.893C145.702 198.893 153.063 198.893 160.425 198.893C160.425 205.761 160.425 212.63 160.425 219.498C153.063 219.498 145.702 219.498 138.34 219.498C138.34 212.63 138.34 205.761 138.34 198.893Z" fill="#8C67E5"/>
</svg>
