<svg width="919" height="80" viewBox="0 0 919 80" fill="none" xmlns="http://www.w3.org/2000/svg">
<path fill-rule="evenodd" clip-rule="evenodd" d="M73.736 12.587C73.736 15.5965 73.736 18.6072 73.736 21.6166C71.4187 21.6166 69.1029 21.6166 66.7856 21.6166C62.1524 21.6166 57.5178 21.6166 52.8847 21.6166C52.8847 18.1763 52.8847 14.7374 52.8847 11.2971C45.9342 11.2971 38.9838 11.2971 32.0333 11.2971C34.4493 19.5875 31.2062 23.0278 22.3027 21.6166C21.0628 31.0216 20.5985 40.4807 20.9126 49.9953C24.62 49.9953 28.326 49.9953 32.0333 49.9953C31.2882 54.1205 32.2154 57.5608 34.8135 60.3148C40.8368 60.3148 46.8614 60.3148 52.8847 60.3148C52.8847 56.8745 52.8847 53.4355 52.8847 49.9953C59.8351 49.9953 66.7856 49.9953 73.736 49.9953C73.736 53.4355 73.736 56.8745 73.736 60.3148C70.0287 60.3148 66.3227 60.3148 62.6153 60.3148C62.6153 63.3242 62.6153 66.3349 62.6153 69.3444C48.7144 69.3444 34.8135 69.3444 20.9126 69.3444C20.9126 66.3349 20.9126 63.3242 20.9126 60.3148C17.6695 60.3148 14.4251 60.3148 11.182 60.3148C11.182 56.8745 11.182 53.4355 11.182 49.9953C7.47463 49.9953 3.76865 49.9953 0.0612793 49.9953C0.0612793 42.6852 0.0612793 35.3764 0.0612793 28.0663C0.0612793 25.916 0.0612793 23.7669 0.0612793 21.6166C4.50679 22.308 8.21415 21.4476 11.182 19.0367C11.182 16.4568 11.182 13.877 11.182 11.2971C14.4251 11.2971 17.6695 11.2971 20.9126 11.2971C20.9126 8.28766 20.9126 5.27695 20.9126 2.26752C34.8135 2.26752 48.7144 2.26752 62.6153 2.26752C62.6153 5.27695 62.6153 8.28766 62.6153 11.2971C66.6257 10.9024 70.3331 11.3319 73.736 12.587Z" fill="#FAFAFA"/>
<path fill-rule="evenodd" clip-rule="evenodd" d="M157.141 12.587C157.141 28.4959 157.141 44.406 157.141 60.3148C153.434 60.3148 149.728 60.3148 146.021 60.3148C146.021 63.3242 146.021 66.3349 146.021 69.3444C128.877 69.3444 111.731 69.3444 94.5873 69.3444C95.0071 66.0434 94.5428 63.0327 93.1972 60.3148C91.3442 60.3148 89.4898 60.3148 87.6368 60.3148C86.2467 60.3148 84.8566 60.3148 83.4666 60.3148C83.4666 43.9751 83.4666 27.6368 83.4666 11.2971C86.7096 11.2971 89.9541 11.2971 93.1972 11.2971C93.1972 8.28766 93.1972 5.27695 93.1972 2.26752C110.805 2.26752 128.412 2.26752 146.021 2.26752C146.021 5.27695 146.021 8.28766 146.021 11.2971C150.031 10.9024 153.738 11.3319 157.141 12.587Z" fill="#FCFCFC"/>
<path fill-rule="evenodd" clip-rule="evenodd" d="M166.872 2.26752C184.48 2.26752 202.087 2.26752 219.695 2.26752C219.695 5.27695 219.695 8.28766 219.695 11.2971C223.252 10.9075 226.497 11.3384 229.426 12.587C229.426 15.5965 229.426 18.6072 229.426 21.6166C232.669 21.6166 235.913 21.6166 239.156 21.6166C239.156 31.0757 239.156 40.5361 239.156 49.9953C235.913 49.9953 232.669 49.9953 229.426 49.9953C229.426 53.4355 229.426 56.8745 229.426 60.3148C225.718 60.3148 222.013 60.3148 218.305 60.3148C218.305 63.3242 218.305 66.3349 218.305 69.3444C201.161 69.3444 184.016 69.3444 166.872 69.3444C166.872 46.9858 166.872 24.626 166.872 2.26752Z" fill="#FBFBFB"/>
<path fill-rule="evenodd" clip-rule="evenodd" d="M250.277 2.26752C274.372 2.26752 298.468 2.26752 322.562 2.26752C322.562 5.27695 322.562 8.28766 322.562 11.2971C305.418 11.2971 288.273 11.2971 271.129 11.2971C271.129 17.7468 271.129 24.1965 271.129 30.6462C275.762 30.6462 280.396 30.6462 285.03 30.6462C294.297 30.6462 303.564 30.6462 312.831 30.6462C312.831 34.0864 312.831 37.5254 312.831 40.9657C298.93 40.9657 285.03 40.9657 271.129 40.9657C271.129 47.4154 271.129 53.8651 271.129 60.3148C275.299 60.3148 279.469 60.3148 283.639 60.3148C296.613 60.3148 309.588 60.3148 322.562 60.3148C322.562 63.3242 322.562 66.3349 322.562 69.3444C298.468 69.3444 274.372 69.3444 250.277 69.3444C250.277 46.9858 250.277 24.626 250.277 2.26752Z" fill="#FBFBFB"/>
<path fill-rule="evenodd" clip-rule="evenodd" d="M405.967 11.2971C388.359 11.2971 370.752 11.2971 353.144 11.2971C353.144 17.7468 353.144 24.1965 353.144 30.6462C366.793 31.9284 380.694 32.3579 394.847 31.9361C394.847 34.516 394.847 37.0959 394.847 39.6758C380.946 39.6758 367.045 39.6758 353.144 39.6758C353.144 49.5657 353.144 59.4544 353.144 69.3444C346.193 69.3444 339.243 69.3444 332.292 69.3444C332.292 53.4355 332.292 37.5254 332.292 21.6166C332.292 18.1763 332.292 14.7374 332.292 11.2971C332.292 8.28766 332.292 5.27695 332.292 2.26752C356.851 2.26752 381.409 2.26752 405.967 2.26752C405.967 5.27695 405.967 8.28766 405.967 11.2971Z" fill="#FCFCFC"/>
<path fill-rule="evenodd" clip-rule="evenodd" d="M489.372 11.2971C471.764 11.2971 454.157 11.2971 436.549 11.2971C436.549 17.7468 436.549 24.1965 436.549 30.6462C450.198 31.9284 464.099 32.3579 478.252 31.9361C478.252 34.516 478.252 37.0959 478.252 39.6758C464.099 39.2539 450.198 39.6835 436.549 40.9657C436.549 47.4154 436.549 53.8651 436.549 60.3148C441.182 60.3148 445.817 60.3148 450.45 60.3148C463.424 60.3148 476.399 60.3148 489.372 60.3148C489.372 63.3242 489.372 66.3349 489.372 69.3444C464.814 69.3444 440.256 69.3444 415.698 69.3444C415.698 53.4355 415.698 37.5254 415.698 21.6166C415.698 18.6072 415.698 15.5965 415.698 12.587C415.698 9.14676 415.698 5.70779 415.698 2.26752C440.256 2.26752 464.814 2.26752 489.372 2.26752C489.372 5.27695 489.372 8.28766 489.372 11.2971Z" fill="#FCFCFC"/>
<path fill-rule="evenodd" clip-rule="evenodd" d="M572.778 12.587C572.778 15.5965 572.778 18.6072 572.778 21.6166C570.461 21.6166 568.145 21.6166 565.827 21.6166C561.194 21.6166 556.56 21.6166 551.927 21.6166C551.927 18.1763 551.927 14.7374 551.927 11.2971C541.269 11.2971 530.612 11.2971 519.954 11.2971C519.954 17.7468 519.954 24.1965 519.954 30.6462C524.588 30.6462 529.222 30.6462 533.855 30.6462C543.123 30.6462 552.389 30.6462 561.657 30.6462C561.657 34.0864 561.657 37.5254 561.657 40.9657C565.365 40.9657 569.071 40.9657 572.778 40.9657C572.778 47.4154 572.778 53.8651 572.778 60.3148C569.071 60.3148 565.365 60.3148 561.657 60.3148C561.657 63.3242 561.657 66.3349 561.657 69.3444C544.513 69.3444 527.368 69.3444 510.224 69.3444C508.878 66.6265 508.414 63.6157 508.834 60.3148C505.591 60.3148 502.346 60.3148 499.103 60.3148C499.103 56.8745 499.103 53.4355 499.103 49.9953C506.054 49.9953 513.004 49.9953 519.954 49.9953C519.954 53.4355 519.954 56.8745 519.954 60.3148C530.612 60.3148 541.269 60.3148 551.927 60.3148C551.927 57.3054 551.927 54.2946 551.927 51.2852C551.927 47.8449 551.927 44.406 551.927 40.9657C542.196 40.9657 532.465 40.9657 522.735 40.9657C518.564 40.9657 514.394 40.9657 510.224 40.9657C510.224 37.5254 510.224 34.0864 510.224 30.6462C506.516 30.6462 502.811 30.6462 499.103 30.6462C499.103 27.6368 499.103 24.626 499.103 21.6166C499.103 18.6072 499.103 15.5965 499.103 12.587C502.032 11.3384 505.277 10.9075 508.834 11.2971C508.834 8.28766 508.834 5.27695 508.834 2.26752C526.442 2.26752 544.049 2.26752 561.657 2.26752C561.657 5.27695 561.657 8.28766 561.657 11.2971C565.668 10.9024 569.375 11.3319 572.778 12.587Z" fill="#F9F9F9"/>
<path fill-rule="evenodd" clip-rule="evenodd" d="M592.239 2.26752C613.091 2.26752 633.942 2.26752 654.793 2.26752C654.793 5.27695 654.793 8.28766 654.793 11.2971C648.306 11.2971 641.82 11.2971 635.332 11.2971C633.948 30.4192 633.485 49.7682 633.942 69.3444C627.454 69.3444 620.968 69.3444 614.481 69.3444C614.938 49.7682 614.475 30.4192 613.091 11.2971C606.14 11.2971 599.19 11.2971 592.239 11.2971C592.239 8.28766 592.239 5.27695 592.239 2.26752Z" fill="#FEFEFE"/>
<path fill-rule="evenodd" clip-rule="evenodd" d="M718.737 12.587C717.385 9.42922 716.922 5.98895 717.347 2.26748C710.86 2.26748 704.374 2.26748 697.886 2.26748C697.886 8.71717 697.886 15.1669 697.886 21.6166C694.179 21.6166 690.473 21.6166 686.765 21.6166C689.694 20.3679 692.939 19.9371 696.496 20.3266C696.496 13.8769 696.496 7.42724 696.496 0.977539C703.909 0.977539 711.324 0.977539 718.737 0.977539C718.737 4.84736 718.737 8.71717 718.737 12.587Z" fill="#7C7C7C"/>
<path fill-rule="evenodd" clip-rule="evenodd" d="M718.737 12.587C718.737 15.5965 718.737 18.6072 718.737 21.6166C715.03 21.6166 711.324 21.6166 707.617 21.6166C707.617 24.626 707.617 27.6368 707.617 30.6462C700.666 30.6462 693.716 30.6462 686.765 30.6462C686.765 27.6368 686.765 24.626 686.765 21.6166C690.473 21.6166 694.179 21.6166 697.886 21.6166C697.886 15.1669 697.886 8.71721 697.886 2.26752C704.374 2.26752 710.86 2.26752 717.347 2.26752C716.922 5.98899 717.385 9.42926 718.737 12.587Z" fill="#FBFBFB"/>
<path fill-rule="evenodd" clip-rule="evenodd" d="M821.604 11.2971C821.604 17.7468 821.604 24.1965 821.604 30.6462C818.361 30.6462 815.116 30.6462 811.873 30.6462C811.873 34.0864 811.873 37.5254 811.873 40.9657C808.166 40.9657 804.46 40.9657 800.753 40.9657C800.753 43.9751 800.753 46.9858 800.753 49.9953C793.802 49.9953 786.852 49.9953 779.901 49.9953C779.901 53.4355 779.901 56.8745 779.901 60.3148C791.485 60.3148 803.07 60.3148 814.654 60.3148C816.971 60.3148 819.287 60.3148 821.604 60.3148C821.604 63.3242 821.604 66.3349 821.604 69.3444C797.51 69.3444 773.414 69.3444 749.319 69.3444C749.319 63.3242 749.319 57.3054 749.319 51.2852C752.877 51.6748 756.121 51.2439 759.05 49.9953C759.05 46.9858 759.05 43.9751 759.05 40.9657C762.293 40.9657 765.538 40.9657 768.781 40.9657C770.133 37.8079 770.596 34.3677 770.171 30.6462C777.121 30.6462 784.072 30.6462 791.022 30.6462C791.022 27.6368 791.022 24.626 791.022 21.6166C794.265 21.6166 797.51 21.6166 800.753 21.6166C800.753 18.1763 800.753 14.7374 800.753 11.2971C790.095 11.2971 779.438 11.2971 768.781 11.2971C768.781 14.3065 768.781 17.3172 768.781 20.3267C762.293 20.3267 755.807 20.3267 749.319 20.3267C749.319 17.3172 749.319 14.3065 749.319 11.2971C752.562 11.2971 755.807 11.2971 759.05 11.2971C759.05 8.28766 759.05 5.27695 759.05 2.26752C776.658 2.26752 794.265 2.26752 811.873 2.26752C811.873 5.27695 811.873 8.28766 811.873 11.2971C815.116 11.2971 818.361 11.2971 821.604 11.2971Z" fill="#FDFDFD"/>
<path fill-rule="evenodd" clip-rule="evenodd" d="M832.725 2.26752C853.576 2.26752 874.427 2.26752 895.279 2.26752C895.279 5.27695 895.279 8.28766 895.279 11.2971C880.915 11.2971 866.55 11.2971 852.186 11.2971C852.186 14.7374 852.186 18.1763 852.186 21.6166C866.55 21.6166 880.915 21.6166 895.279 21.6166C895.279 24.626 895.279 27.6368 895.279 30.6462C898.522 30.6462 901.766 30.6462 905.009 30.6462C905.009 40.5361 905.009 50.4248 905.009 60.3148C901.766 60.3148 898.522 60.3148 895.279 60.3148C895.279 63.3242 895.279 66.3349 895.279 69.3444C877.67 69.3444 860.064 69.3444 842.455 69.3444C842.455 66.3349 842.455 63.3242 842.455 60.3148C838.748 60.3148 835.042 60.3148 831.335 60.3148C831.335 56.8745 831.335 53.4355 831.335 49.9953C838.748 49.9953 846.163 49.9953 853.576 49.9953C853.576 53.4355 853.576 56.8745 853.576 60.3148C863.77 60.3148 873.964 60.3148 884.158 60.3148C884.158 53.8651 884.158 47.4154 884.158 40.9657C884.158 37.5254 884.158 34.0864 884.158 30.6462C867.014 30.6462 849.869 30.6462 832.725 30.6462C832.725 21.1871 832.725 11.7266 832.725 2.26752Z" fill="#FAFAFA"/>
<path fill-rule="evenodd" clip-rule="evenodd" d="M52.8846 21.6166C50.5673 21.6166 48.2514 21.6166 45.9341 21.6166C45.9341 25.0568 45.9341 28.4958 45.9341 31.9361C42.2267 31.9361 38.5208 31.9361 34.8134 31.9361C34.8134 41.3952 34.8134 50.8556 34.8134 60.3148C32.2153 57.5607 31.2881 54.1205 32.0332 49.9952C28.3258 49.9952 24.6199 49.9952 20.9125 49.9952C20.5983 40.4806 21.0626 31.0215 22.3026 21.6166C31.2061 23.0278 34.4492 19.5875 32.0332 11.2971C38.9837 11.2971 45.9341 11.2971 52.8846 11.2971C52.8846 14.7373 52.8846 18.1763 52.8846 21.6166Z" fill="#4F4F4F"/>
<path fill-rule="evenodd" clip-rule="evenodd" d="M134.9 60.3148C134.9 47.4154 134.9 34.516 134.9 21.6166C129.339 21.6166 123.779 21.6166 118.219 21.6166C118.219 34.516 118.219 47.4154 118.219 60.3148C113.586 60.3148 108.951 60.3148 104.318 60.3148C104.318 43.9751 104.318 27.6367 104.318 11.2971C114.976 11.2971 125.632 11.2971 136.29 11.2971C136.747 27.865 136.283 44.2047 134.9 60.3148Z" fill="#535353"/>
<path fill-rule="evenodd" clip-rule="evenodd" d="M208.574 21.6166C206.257 21.6166 203.941 21.6166 201.624 21.6166C201.624 34.516 201.624 47.4154 201.624 60.3148C196.991 60.3148 192.356 60.3148 187.723 60.3148C187.723 43.9751 187.723 27.6367 187.723 11.2971C194.674 11.2971 201.624 11.2971 208.574 11.2971C208.574 14.7373 208.574 18.1763 208.574 21.6166Z" fill="#515151"/>
<path fill-rule="evenodd" clip-rule="evenodd" d="M322.562 2.26752C323.908 4.98542 324.372 7.99614 323.952 11.2971C326.732 11.2971 329.512 11.2971 332.293 11.2971C332.293 14.7374 332.293 18.1763 332.293 21.6166C316.539 21.6166 300.783 21.6166 285.03 21.6166C285.03 24.626 285.03 27.6368 285.03 30.6462C280.396 30.6462 275.762 30.6462 271.129 30.6462C271.129 24.1965 271.129 17.7468 271.129 11.2971C288.273 11.2971 305.418 11.2971 322.562 11.2971C322.562 8.28766 322.562 5.27695 322.562 2.26752Z" fill="#515151"/>
<path fill-rule="evenodd" clip-rule="evenodd" d="M405.967 11.2971C408.896 12.5457 412.141 12.9766 415.698 12.587C415.698 15.5964 415.698 18.6071 415.698 21.6166C399.48 21.6166 383.263 21.6166 367.045 21.6166C367.045 24.626 367.045 27.6367 367.045 30.6461C362.412 30.6461 357.777 30.6461 353.144 30.6461C353.144 24.1965 353.144 17.7468 353.144 11.2971C370.752 11.2971 388.359 11.2971 405.967 11.2971Z" fill="#545454"/>
<path fill-rule="evenodd" clip-rule="evenodd" d="M489.372 11.2971C492.301 12.5457 495.546 12.9766 499.103 12.587C499.103 15.5964 499.103 18.6071 499.103 21.6166C482.885 21.6166 466.668 21.6166 450.45 21.6166C450.45 24.626 450.45 27.6367 450.45 30.6461C445.817 30.6461 441.182 30.6461 436.549 30.6461C436.549 24.1965 436.549 17.7468 436.549 11.2971C454.157 11.2971 471.764 11.2971 489.372 11.2971Z" fill="#545454"/>
<path fill-rule="evenodd" clip-rule="evenodd" d="M551.927 21.6166C545.903 21.6166 539.879 21.6166 533.855 21.6166C533.855 24.626 533.855 27.6367 533.855 30.6461C529.222 30.6461 524.588 30.6461 519.955 30.6461C519.955 24.1965 519.955 17.7468 519.955 11.2971C530.612 11.2971 541.269 11.2971 551.927 11.2971C551.927 14.7373 551.927 18.1763 551.927 21.6166Z" fill="#4F4F4F"/>
<path fill-rule="evenodd" clip-rule="evenodd" d="M572.778 12.587C575.341 14.8818 576.267 17.8913 575.558 21.6166C579.265 21.6166 582.971 21.6166 586.679 21.6166C586.679 25.0569 586.679 28.4959 586.679 31.9361C579.728 31.9361 572.778 31.9361 565.827 31.9361C565.827 28.4959 565.827 25.0569 565.827 21.6166C568.145 21.6166 570.461 21.6166 572.778 21.6166C572.778 18.6072 572.778 15.5965 572.778 12.587Z" fill="#505050"/>
<path fill-rule="evenodd" clip-rule="evenodd" d="M592.239 11.2971C599.19 11.2971 606.14 11.2971 613.091 11.2971C613.091 14.7373 613.091 18.1763 613.091 21.6166C610.773 21.6166 608.457 21.6166 606.14 21.6166C606.14 18.6071 606.14 15.5964 606.14 12.587C601.216 12.9907 596.583 12.5599 592.239 11.2971Z" fill="#494949"/>
<path fill-rule="evenodd" clip-rule="evenodd" d="M592.239 2.2675C613.31 0.982466 634.624 0.552529 656.183 0.977564C656.183 4.84738 656.183 8.7172 656.183 12.587C660.354 12.587 664.524 12.587 668.694 12.587C668.694 15.5964 668.694 18.6072 668.694 21.6166C661.744 21.6166 654.793 21.6166 647.843 21.6166C647.843 40.9657 647.843 60.3148 647.843 79.6639C640.892 79.6639 633.942 79.6639 626.991 79.6639C626.991 76.6544 626.991 73.6437 626.991 70.6343C629.772 70.6343 632.552 70.6343 635.332 70.6343C635.332 50.8557 635.332 31.0757 635.332 11.2971C641.82 11.2971 648.306 11.2971 654.793 11.2971C654.793 8.28765 654.793 5.27693 654.793 2.2675C633.942 2.2675 613.091 2.2675 592.239 2.2675Z" fill="#545454"/>
<path fill-rule="evenodd" clip-rule="evenodd" d="M718.737 12.587C723.37 12.587 728.005 12.587 732.638 12.587C732.638 19.0367 732.638 25.4864 732.638 31.9361C728.931 31.9361 725.225 31.9361 721.517 31.9361C721.517 34.9456 721.517 37.9563 721.517 40.9657C714.567 40.9657 707.617 40.9657 700.666 40.9657C700.666 37.9563 700.666 34.9456 700.666 31.9361C695.742 32.3399 691.109 31.909 686.765 30.6462C693.716 30.6462 700.666 30.6462 707.617 30.6462C707.617 27.6368 707.617 24.626 707.617 21.6166C711.324 21.6166 715.03 21.6166 718.737 21.6166C718.737 18.6072 718.737 15.5965 718.737 12.587Z" fill="#4C4C4C"/>
<path fill-rule="evenodd" clip-rule="evenodd" d="M749.319 11.2971C749.319 14.3065 749.319 17.3172 749.319 20.3266C755.807 20.3266 762.293 20.3266 768.781 20.3266C768.781 17.3172 768.781 14.3065 768.781 11.2971C779.439 11.2971 790.095 11.2971 800.753 11.2971C800.753 14.7373 800.753 18.1763 800.753 21.6166C797.51 21.6166 794.265 21.6166 791.022 21.6166C791.022 24.626 791.022 27.6367 791.022 30.6461C784.072 30.6461 777.121 30.6461 770.171 30.6461C770.596 34.3676 770.133 37.8079 768.781 40.9657C768.781 37.9562 768.781 34.9455 768.781 31.9361C766.463 31.9361 764.148 31.9361 761.83 31.9361C761.83 28.4958 761.83 25.0568 761.83 21.6166C757.197 21.6166 752.563 21.6166 747.929 21.6166C747.504 17.8951 747.967 14.4548 749.319 11.2971Z" fill="#4E4E4E"/>
<path fill-rule="evenodd" clip-rule="evenodd" d="M832.725 2.26752C832.725 11.7266 832.725 21.1871 832.725 30.6462C849.869 30.6462 867.014 30.6462 884.158 30.6462C884.158 34.0864 884.158 37.5254 884.158 40.9657C871.184 40.9657 858.209 40.9657 845.235 40.9657C845.235 37.9563 845.235 34.9455 845.235 31.9361C841.992 31.9361 838.748 31.9361 835.505 31.9361C835.505 34.9455 835.505 37.9563 835.505 40.9657C832.262 40.9657 829.017 40.9657 825.774 40.9657C825.774 44.406 825.774 47.8449 825.774 51.2852C822.067 51.2852 818.361 51.2852 814.653 51.2852C814.653 54.2946 814.653 57.3054 814.653 60.3148C803.07 60.3148 791.485 60.3148 779.901 60.3148C779.901 56.8745 779.901 53.4355 779.901 49.9953C786.852 49.9953 793.802 49.9953 800.753 49.9953C800.753 46.9858 800.753 43.9751 800.753 40.9657C804.46 40.9657 808.166 40.9657 811.873 40.9657C811.873 37.5254 811.873 34.0864 811.873 30.6462C815.116 30.6462 818.361 30.6462 821.604 30.6462C821.604 24.1965 821.604 17.7468 821.604 11.2971C825.217 13.7299 826.607 17.1689 825.774 21.6166C827.627 21.6166 829.482 21.6166 831.335 21.6166C830.888 14.9154 831.353 8.46568 832.725 2.26752Z" fill="#585858"/>
<path fill-rule="evenodd" clip-rule="evenodd" d="M895.279 11.2971C899.623 12.5599 904.256 12.9907 909.18 12.587C909.18 15.5964 909.18 18.6071 909.18 21.6166C904.547 21.6166 899.912 21.6166 895.279 21.6166C880.915 21.6166 866.55 21.6166 852.186 21.6166C852.186 18.1763 852.186 14.7373 852.186 11.2971C866.55 11.2971 880.915 11.2971 895.279 11.2971Z" fill="#575757"/>
<path fill-rule="evenodd" clip-rule="evenodd" d="M613.091 11.2971C614.475 30.4191 614.938 49.7682 614.481 69.3443C620.968 69.3443 627.454 69.3443 633.942 69.3443C633.485 49.7682 633.948 30.4191 635.332 11.2971C635.332 31.0757 635.332 50.8556 635.332 70.6343C632.552 70.6343 629.772 70.6343 626.992 70.6343C622.358 70.6343 617.724 70.6343 613.091 70.6343C613.091 54.2946 613.091 37.9562 613.091 21.6166C613.091 18.1763 613.091 14.7373 613.091 11.2971Z" fill="#9B9B9B"/>
<path fill-rule="evenodd" clip-rule="evenodd" d="M52.8846 21.6166C57.5178 21.6166 62.1524 21.6166 66.7855 21.6166C66.7855 25.0568 66.7855 28.4958 66.7855 31.9361C71.883 31.9361 76.9791 31.9361 82.0765 31.9361C82.0765 41.3952 82.0765 50.8556 82.0765 60.3148C79.2963 60.3148 76.5162 60.3148 73.736 60.3148C73.736 56.8745 73.736 53.4355 73.736 49.9952C66.7855 49.9952 59.8351 49.9952 52.8846 49.9952C52.8846 53.4355 52.8846 56.8745 52.8846 60.3148C46.8614 60.3148 40.8367 60.3148 34.8135 60.3148C34.8135 50.8556 34.8135 41.3952 34.8135 31.9361C38.5208 31.9361 42.2268 31.9361 45.9342 31.9361C45.9342 28.4958 45.9342 25.0568 45.9342 21.6166C48.2515 21.6166 50.5674 21.6166 52.8846 21.6166Z" fill="#020202"/>
<path fill-rule="evenodd" clip-rule="evenodd" d="M134.9 60.3148C129.339 60.3148 123.779 60.3148 118.219 60.3148C118.219 47.4154 118.219 34.516 118.219 21.6166C123.779 21.6166 129.339 21.6166 134.9 21.6166C134.9 34.516 134.9 47.4154 134.9 60.3148Z" fill="#010101"/>
<path fill-rule="evenodd" clip-rule="evenodd" d="M229.426 12.587C231.939 14.4162 232.866 16.996 232.206 20.3267C235.313 19.9461 238.093 20.377 240.547 21.6166C240.999 31.3157 240.536 40.7748 239.157 49.9953C239.157 40.5361 239.157 31.0757 239.157 21.6166C235.914 21.6166 232.669 21.6166 229.426 21.6166C229.426 18.6072 229.426 15.5965 229.426 12.587Z" fill="#9B9B9B"/>
<path fill-rule="evenodd" clip-rule="evenodd" d="M166.872 2.26752C166.872 24.626 166.872 46.9858 166.872 69.3444C184.016 69.3444 201.161 69.3444 218.305 69.3444C218.305 66.3349 218.305 63.3242 218.305 60.3148C222.012 60.3148 225.718 60.3148 229.426 60.3148C229.426 56.8745 229.426 53.4355 229.426 49.9953C232.669 49.9953 235.913 49.9953 239.156 49.9953C240.535 40.7748 240.998 31.3157 240.546 21.6166C243.145 24.3706 244.072 27.8109 243.327 31.9361C245.18 31.9361 247.034 31.9361 248.887 31.9361C248.887 41.3952 248.887 50.8557 248.887 60.3148C247.034 60.3148 245.18 60.3148 243.327 60.3148C243.327 63.7551 243.327 67.194 243.327 70.6343C239.619 70.6343 235.913 70.6343 232.206 70.6343C232.206 73.6437 232.206 76.6544 232.206 79.6639C215.062 79.6639 197.917 79.6639 180.773 79.6639C180.773 76.6544 180.773 73.6437 180.773 70.6343C173.822 70.6343 166.872 70.6343 159.921 70.6343C159.921 73.6437 159.921 76.6544 159.921 79.6639C142.777 79.6639 125.632 79.6639 108.488 79.6639C108.488 76.6544 108.488 73.6437 108.488 70.6343C103.391 70.6343 98.2945 70.6343 93.197 70.6343C93.197 67.194 93.197 63.7551 93.197 60.3148C94.5426 63.0327 95.0069 66.0434 94.5871 69.3444C111.731 69.3444 128.876 69.3444 146.02 69.3444C146.02 66.3349 146.02 63.3242 146.02 60.3148C149.728 60.3148 153.434 60.3148 157.141 60.3148C157.141 44.406 157.141 28.4959 157.141 12.587C159.704 14.8818 160.63 17.8913 159.921 21.6166C161.774 21.6166 163.629 21.6166 165.482 21.6166C165.035 14.9154 165.5 8.46568 166.872 2.26752Z" fill="#535353"/>
<path fill-rule="evenodd" clip-rule="evenodd" d="M208.574 21.6166C211.818 21.6166 215.062 21.6166 218.305 21.6166C218.305 31.0757 218.305 40.5361 218.305 49.9952C215.062 49.9952 211.818 49.9952 208.574 49.9952C208.574 53.4355 208.574 56.8745 208.574 60.3148C206.257 60.3148 203.941 60.3148 201.624 60.3148C201.624 47.4154 201.624 34.516 201.624 21.6166C203.941 21.6166 206.257 21.6166 208.574 21.6166Z" fill="#010101"/>
<path fill-rule="evenodd" clip-rule="evenodd" d="M332.293 21.6166C332.293 37.5254 332.293 53.4355 332.293 69.3443C329.839 70.584 327.059 71.0148 323.952 70.6343C324.377 66.9128 323.914 63.4725 322.562 60.3148C309.588 60.3148 296.613 60.3148 283.639 60.3148C283.639 57.3053 283.639 54.2946 283.639 51.2852C298.003 51.2852 312.368 51.2852 326.732 51.2852C326.732 47.8449 326.732 44.4059 326.732 40.9657C322.099 40.9657 317.464 40.9657 312.831 40.9657C312.831 37.5254 312.831 34.0864 312.831 30.6462C303.564 30.6462 294.297 30.6462 285.029 30.6462C285.029 27.6367 285.029 24.626 285.029 21.6166C300.783 21.6166 316.539 21.6166 332.293 21.6166Z" fill="#020202"/>
<path fill-rule="evenodd" clip-rule="evenodd" d="M353.144 30.6461C357.777 30.6461 362.412 30.6461 367.045 30.6461C376.775 30.6461 386.506 30.6461 396.237 30.6461C396.237 34.0864 396.237 37.5254 396.237 40.9656C382.336 40.9656 368.435 40.9656 354.534 40.9656C354.986 50.6647 354.523 60.1238 353.144 69.3443C353.144 59.4543 353.144 49.5657 353.144 39.6757C367.045 39.6757 380.946 39.6757 394.846 39.6757C394.846 37.0958 394.846 34.5159 394.846 31.9361C380.694 32.3579 366.793 31.9283 353.144 30.6461Z" fill="#B6B6B6"/>
<path fill-rule="evenodd" clip-rule="evenodd" d="M436.549 30.6461C441.182 30.6461 445.817 30.6461 450.45 30.6461C460.181 30.6461 469.911 30.6461 479.642 30.6461C479.642 34.0864 479.642 37.5254 479.642 40.9656C465.278 40.9656 450.913 40.9656 436.549 40.9656C450.198 39.6834 464.099 39.2539 478.252 39.6757C478.252 37.0958 478.252 34.5159 478.252 31.9361C464.099 32.3579 450.198 31.9283 436.549 30.6461Z" fill="#C0C0C0"/>
<path fill-rule="evenodd" clip-rule="evenodd" d="M250.277 2.26752C250.277 24.626 250.277 46.9858 250.277 69.3444C274.372 69.3444 298.468 69.3444 322.562 69.3444C303.347 70.6291 283.885 71.0587 264.178 70.6343C259.081 70.6343 253.985 70.6343 248.887 70.6343C248.887 67.194 248.887 63.7551 248.887 60.3148C248.887 50.8557 248.887 41.3952 248.887 31.9361C248.435 21.8075 248.898 11.9188 250.277 2.26752Z" fill="#8E8E8E"/>
<path fill-rule="evenodd" clip-rule="evenodd" d="M905.009 30.6461C908.622 33.0789 910.012 36.5179 909.18 40.9656C912.423 40.9656 915.667 40.9656 918.91 40.9656C918.91 50.8556 918.91 60.7443 918.91 70.6342C915.667 70.6342 912.423 70.6342 909.18 70.6342C909.18 73.6437 909.18 76.6544 909.18 79.6638C891.571 79.6638 873.964 79.6638 856.356 79.6638C856.356 76.6544 856.356 73.6437 856.356 70.6342C851.433 71.038 846.799 70.6071 842.455 69.3443C860.064 69.3443 877.67 69.3443 895.279 69.3443C895.279 66.3349 895.279 63.3242 895.279 60.3147C898.522 60.3147 901.766 60.3147 905.009 60.3147C905.009 50.4248 905.009 40.5361 905.009 30.6461Z" fill="#555555"/>
<path fill-rule="evenodd" clip-rule="evenodd" d="M312.831 40.9657C317.465 40.9657 322.099 40.9657 326.732 40.9657C326.732 44.406 326.732 47.8449 326.732 51.2852C312.368 51.2852 298.003 51.2852 283.639 51.2852C283.639 54.2946 283.639 57.3054 283.639 60.3148C279.469 60.3148 275.299 60.3148 271.129 60.3148C271.129 53.8651 271.129 47.4154 271.129 40.9657C285.03 40.9657 298.93 40.9657 312.831 40.9657Z" fill="#515151"/>
<path fill-rule="evenodd" clip-rule="evenodd" d="M396.237 40.9657C400.87 40.9657 405.504 40.9657 410.137 40.9657C410.137 44.406 410.137 47.8449 410.137 51.2852C395.774 51.2852 381.409 51.2852 367.045 51.2852C367.045 60.7443 367.045 70.2048 367.045 79.6639C360.094 79.6639 353.144 79.6639 346.193 79.6639C346.193 76.6544 346.193 73.6437 346.193 70.6343C342.95 70.6343 339.706 70.6343 336.463 70.6343C336.463 73.6437 336.463 76.6544 336.463 79.6639C312.368 79.6639 288.273 79.6639 264.178 79.6639C264.178 76.6544 264.178 73.6437 264.178 70.6343C283.885 71.0587 303.347 70.6291 322.562 69.3444C322.562 66.3349 322.562 63.3242 322.562 60.3148C323.914 63.4726 324.377 66.9128 323.952 70.6343C327.059 71.0148 329.839 70.584 332.292 69.3444C339.243 69.3444 346.193 69.3444 353.144 69.3444C354.523 60.1239 354.986 50.6648 354.534 40.9657C368.435 40.9657 382.336 40.9657 396.237 40.9657Z" fill="#525252"/>
<path fill-rule="evenodd" clip-rule="evenodd" d="M436.549 40.9657C450.913 40.9657 465.278 40.9657 479.642 40.9657C484.275 40.9657 488.91 40.9657 493.543 40.9657C493.543 44.406 493.543 47.8449 493.543 51.2852C479.179 51.2852 464.814 51.2852 450.45 51.2852C450.45 54.2946 450.45 57.3054 450.45 60.3148C445.817 60.3148 441.182 60.3148 436.549 60.3148C436.549 53.8651 436.549 47.4154 436.549 40.9657Z" fill="#525252"/>
<path fill-rule="evenodd" clip-rule="evenodd" d="M522.735 40.9657C532.465 40.9657 542.196 40.9657 551.927 40.9657C551.927 44.406 551.927 47.8449 551.927 51.2852C542.196 51.2852 532.465 51.2852 522.735 51.2852C522.735 47.8449 522.735 44.406 522.735 40.9657Z" fill="#505050"/>
<path fill-rule="evenodd" clip-rule="evenodd" d="M572.778 40.9657C575.376 43.7197 576.303 47.16 575.558 51.2852C579.266 51.2852 582.972 51.2852 586.679 51.2852C586.679 57.7349 586.679 64.1846 586.679 70.6343C582.972 70.6343 579.266 70.6343 575.558 70.6343C575.558 73.6437 575.558 76.6544 575.558 79.6639C558.414 79.6639 541.269 79.6639 524.125 79.6639C524.125 76.6544 524.125 73.6437 524.125 70.6343C519.201 71.0381 514.568 70.6072 510.224 69.3444C527.368 69.3444 544.513 69.3444 561.657 69.3444C561.657 66.3349 561.657 63.3242 561.657 60.3148C565.365 60.3148 569.071 60.3148 572.778 60.3148C572.778 53.8651 572.778 47.4154 572.778 40.9657Z" fill="#535353"/>
<path fill-rule="evenodd" clip-rule="evenodd" d="M759.05 49.9952C756.121 51.2439 752.877 51.6747 749.319 51.2852C749.319 57.3053 749.319 63.3242 749.319 69.3443C773.414 69.3443 797.51 69.3443 821.604 69.3443C802.389 70.6291 782.928 71.0587 763.22 70.6343C758.123 70.6343 753.027 70.6343 747.929 70.6343C747.929 63.755 747.929 56.8745 747.929 49.9952C751.637 49.9952 755.343 49.9952 759.05 49.9952Z" fill="#868686"/>
<path fill-rule="evenodd" clip-rule="evenodd" d="M83.4666 11.2971C83.4666 27.6367 83.4666 43.9751 83.4666 60.3148C84.8567 60.3148 86.2468 60.3148 87.6369 60.3148C87.6369 63.755 87.6369 67.194 87.6369 70.6343C83.9295 70.6343 80.2235 70.6343 76.5162 70.6343C76.5162 73.6437 76.5162 76.6544 76.5162 79.6638C62.6153 79.6638 48.7144 79.6638 34.8135 79.6638C34.8135 76.6544 34.8135 73.6437 34.8135 70.6343C29.8898 71.038 25.2566 70.6072 20.9126 69.3443C34.8135 69.3443 48.7144 69.3443 62.6153 69.3443C62.6153 66.3349 62.6153 63.3242 62.6153 60.3148C66.3227 60.3148 70.0286 60.3148 73.736 60.3148C76.5162 60.3148 79.2964 60.3148 82.0765 60.3148C82.0765 50.8556 82.0765 41.3952 82.0765 31.9361C76.9791 31.9361 71.883 31.9361 66.7856 31.9361C66.7856 28.4958 66.7856 25.0568 66.7856 21.6166C69.1028 21.6166 71.4187 21.6166 73.736 21.6166C73.736 18.6071 73.736 15.5964 73.736 12.587C76.2993 14.8818 77.2251 17.8912 76.5162 21.6166C78.3692 21.6166 80.2235 21.6166 82.0765 21.6166C81.6512 17.8951 82.1141 14.4548 83.4666 11.2971Z" fill="#545454"/>
<path fill-rule="evenodd" clip-rule="evenodd" d="M415.698 69.3444C440.256 69.3444 464.814 69.3444 489.372 69.3444C493.717 70.6072 498.35 71.0381 503.273 70.6343C503.273 73.6437 503.273 76.6544 503.273 79.6639C478.715 79.6639 454.157 79.6639 429.599 79.6639C429.599 76.6544 429.599 73.6437 429.599 70.6343C424.675 71.0381 420.042 70.6072 415.698 69.3444Z" fill="#585858"/>
<path fill-rule="evenodd" clip-rule="evenodd" d="M821.604 60.3148C822.957 63.4725 823.419 66.9128 822.994 70.6343C827.164 70.6343 831.335 70.6343 835.505 70.6343C835.505 73.6437 835.505 76.6544 835.505 79.6638C811.41 79.6638 787.315 79.6638 763.22 79.6638C763.22 76.6544 763.22 73.6437 763.22 70.6343C782.928 71.0587 802.389 70.6291 821.604 69.3443C821.604 66.3349 821.604 63.3242 821.604 60.3148Z" fill="#545454"/>
</svg>
