<svg width="407" height="75" viewBox="0 0 407 75" fill="none" xmlns="http://www.w3.org/2000/svg">
<g clip-path="url(#clip0_348_2402)">
<path fill-rule="evenodd" clip-rule="evenodd" d="M404.878 -0.0769043C405.398 -0.0769043 405.921 -0.0769043 406.442 -0.0769043C406.48 0.539975 406.442 1.15473 406.33 1.76736C405.883 1.97227 405.436 1.97227 404.99 1.76736C404.878 1.15473 404.84 0.539975 404.878 -0.0769043Z" fill="#9B9CC4"/>
<path fill-rule="evenodd" clip-rule="evenodd" d="M372.934 3.76538C372.934 5.30227 372.934 6.83915 372.934 8.37604C260.277 8.37604 147.617 8.37604 34.9591 8.37604C34.8847 8.37604 34.8101 8.37604 34.7357 8.37604C34.7357 6.83915 34.7357 5.30227 34.7357 3.76538C147.469 3.76538 260.201 3.76538 372.934 3.76538Z" fill="#020049"/>
<path fill-rule="evenodd" clip-rule="evenodd" d="M34.7357 8.37598C34.7357 9.91286 34.7357 11.4497 34.7357 12.9866C30.2293 12.9358 25.7616 12.9871 21.3329 13.1403C21.3329 14.6772 21.3329 16.2141 21.3329 17.751C21.2584 17.751 21.184 17.751 21.1095 17.751C18.8757 17.751 16.6419 17.751 14.4081 17.751C14.4081 16.2141 14.4081 14.6772 14.4081 13.1403C16.6419 13.1403 18.8757 13.1403 21.1095 13.1403C21.1095 11.5522 21.1095 9.96409 21.1095 8.37598C25.6515 8.37598 30.1937 8.37598 34.7357 8.37598Z" fill="#020049"/>
<path fill-rule="evenodd" clip-rule="evenodd" d="M34.9591 8.37598C147.617 8.37598 260.277 8.37598 372.934 8.37598C372.934 9.91286 372.934 11.4497 372.934 12.9866C260.277 12.9866 147.617 12.9866 34.9591 12.9866C34.9591 11.4497 34.9591 9.91286 34.9591 8.37598Z" fill="#76421C"/>
<path fill-rule="evenodd" clip-rule="evenodd" d="M372.934 3.76538C373.156 5.27451 373.232 6.8114 373.158 8.37604C377.625 8.37604 382.093 8.37604 386.561 8.37604C386.561 9.91292 386.561 11.4498 386.561 12.9867C388.835 12.9364 391.069 12.9876 393.262 13.1404C391.028 13.1404 388.794 13.1404 386.561 13.1404C382.035 12.9886 377.494 12.9374 372.934 12.9867C372.934 11.4498 372.934 9.91292 372.934 8.37604C372.934 6.83915 372.934 5.30227 372.934 3.76538Z" fill="#03024A"/>
<path fill-rule="evenodd" clip-rule="evenodd" d="M34.7357 8.37598C34.8101 8.37598 34.8847 8.37598 34.9591 8.37598C34.9591 9.91286 34.9591 11.4497 34.9591 12.9866C34.9591 13.0891 34.8847 13.1403 34.7357 13.1403C30.2681 13.1403 25.8005 13.1403 21.3329 13.1403C25.7616 12.9871 30.2293 12.9358 34.7357 12.9866C34.7357 11.4497 34.7357 9.91286 34.7357 8.37598Z" fill="#44347E"/>
<path fill-rule="evenodd" clip-rule="evenodd" d="M34.9591 12.9866C147.617 12.9866 260.277 12.9866 372.934 12.9866C373.151 14.5621 373.227 16.1503 373.158 17.7509C377.625 17.7509 382.093 17.7509 386.561 17.7509C386.561 20.8759 386.561 24.001 386.561 27.1259C388.721 27.1259 390.879 27.1259 393.039 27.1259C392.965 24.0254 393.039 20.9516 393.262 17.9046C393.262 25.589 393.262 33.2735 393.262 40.9579C390.955 40.9579 388.645 40.9579 386.337 40.9579C386.337 44.1342 386.337 47.3103 386.337 50.4866C381.943 50.4866 377.552 50.4866 373.158 50.4866C373.158 52.0235 373.158 53.5603 373.158 55.0972C260.424 55.0972 147.692 55.0972 34.9591 55.0972C34.8847 55.0972 34.8101 55.0972 34.7357 55.0972C34.7357 53.5603 34.7357 52.0235 34.7357 50.4866C30.2681 50.4866 25.8005 50.4866 21.3329 50.4866C21.3329 50.4354 21.3329 50.3841 21.3329 50.3329C21.3329 47.2591 21.3329 44.1853 21.3329 41.1116C19.0991 41.1116 16.8653 41.1116 14.6315 41.1116C14.6315 44.1853 14.6315 47.2591 14.6315 50.3329C14.557 50.3329 14.4825 50.3329 14.4081 50.3329C14.4081 47.2591 14.4081 44.1853 14.4081 41.1116C14.4081 36.4497 14.4081 31.7878 14.4081 27.1259C14.4081 24.0521 14.4081 20.9784 14.4081 17.9046C14.6308 20.9005 14.7053 23.923 14.6315 26.9722C16.7908 26.9722 18.9502 26.9722 21.1095 26.9722C21.1095 23.8985 21.1095 20.8247 21.1095 17.7509C21.184 17.7509 21.2584 17.7509 21.3329 17.7509C25.8005 17.7509 30.2681 17.7509 34.7357 17.7509C34.7357 16.214 34.7357 14.6771 34.7357 13.1403C34.8847 13.1403 34.9591 13.089 34.9591 12.9866Z" fill="#BFA265"/>
<path d="M48.3884 47.48V25.4H52.0284V21.76H63.3084V25.4H66.9884V36.6H63.3084V40.24H61.5484V43.48H65.1484V47.48H61.1484V43.88H57.4684V40.24H52.4284V47.48H48.3884ZM52.4284 36.2H62.9084V25.8H52.4284V36.2ZM75.4659 47.48V43.88H71.8259V25.4H75.4659V21.76H86.7459V25.4H90.4259V29.4H86.3459V25.8H75.8659V32.64H83.1459V36.6H75.8659V43.48H86.3459V39.84H90.4259V43.88H86.7459V47.48H75.4659ZM98.9034 47.48V43.88H95.2634V25.4H98.9034V21.76H110.183V25.4H113.863V33H109.783V25.8H99.3034V43.48H109.783V40.24H106.183V36.6H102.503V32.64H106.583V36.2H113.863V43.88H110.183V47.48H98.9034ZM118.701 47.48V43.48H122.341V25.8H118.701V21.76H130.021V25.8H126.341V43.48H130.021V47.48H118.701ZM138.513 47.48V43.88H134.873V39.84H138.913V43.48H149.393V36.6H138.513V33H134.873V25.4H138.513V21.76H149.793V25.4H153.473V29.4H149.393V25.8H138.913V32.64H149.793V36.2H153.473V43.88H149.793V47.48H138.513ZM164.769 47.48V25.8H161.569V29.4H157.529V25.4H161.169V21.76H172.449V25.4H176.129V29.4H172.049V25.8H168.849V47.48H164.769ZM183.396 47.48V43.88H179.756V25.4H183.396V21.76H194.676V25.4H198.356V29.4H194.276V25.8H183.796V32.64H191.076V36.6H183.796V43.48H194.276V39.84H198.356V43.88H194.676V47.48H183.396ZM203.193 47.48V25.4H206.833V21.76H218.113V25.4H221.793V36.6H218.113V40.24H216.353V43.48H219.953V47.48H215.953V43.88H212.273V40.24H207.233V47.48H203.193ZM207.233 36.2H217.713V25.8H207.233V36.2ZM226.631 47.48L239.351 21.76H242.911L230.191 47.48H226.631ZM251.442 47.48V43.88H247.802V21.76H251.842V43.48H262.322V39.84H266.402V43.88H262.722V47.48H251.442ZM274.88 47.48V43.88H271.24V25.4H274.88V21.76H286.16V25.4H289.84V43.88H286.16V47.48H274.88ZM275.28 43.48H285.76V25.8H275.28V43.48ZM298.317 47.48V43.88H294.677V25.4H298.317V21.76H309.597V25.4H313.277V33H309.197V25.8H298.717V43.48H309.197V40.24H305.597V36.6H301.917V32.64H305.997V36.2H313.277V43.88H309.597V47.48H298.317ZM318.115 47.48V43.48H321.755V25.8H318.115V21.76H329.435V25.8H325.755V43.48H329.435V47.48H318.115ZM334.287 47.48V21.76H338.327V25.4H341.927V29H345.607V39.84H348.807V21.76H352.887V47.48H348.807V43.88H345.207V40.24H341.527V29.4H338.327V47.48H334.287Z" fill="#E7D4D4"/>
<path fill-rule="evenodd" clip-rule="evenodd" d="M372.934 12.9866C377.494 12.9373 382.035 12.9886 386.561 13.1403C386.561 14.6772 386.561 16.2141 386.561 17.751C382.093 17.751 377.625 17.751 373.158 17.751C373.227 16.1503 373.151 14.5622 372.934 12.9866Z" fill="#76421C"/>
<path fill-rule="evenodd" clip-rule="evenodd" d="M386.561 13.1404C388.794 13.1404 391.028 13.1404 393.262 13.1404C393.262 14.6773 393.262 16.2142 393.262 17.751C391.028 17.751 388.794 17.751 386.561 17.751C386.561 16.2142 386.561 14.6773 386.561 13.1404Z" fill="#020049"/>
<path fill-rule="evenodd" clip-rule="evenodd" d="M21.3329 13.1404C25.8005 13.1404 30.2681 13.1404 34.7357 13.1404C34.7357 14.6773 34.7357 16.2142 34.7357 17.751C30.2681 17.751 25.8005 17.751 21.3329 17.751C21.3329 16.2142 21.3329 14.6773 21.3329 13.1404Z" fill="#76421C"/>
<path fill-rule="evenodd" clip-rule="evenodd" d="M14.4081 17.751C14.4081 17.8022 14.4081 17.8535 14.4081 17.9047C14.4081 20.9784 14.4081 24.0522 14.4081 27.126C12.1743 27.126 9.94049 27.126 7.70668 27.126C5.47287 27.126 3.23906 27.126 1.00525 27.126C3.19872 26.9732 5.43252 26.922 7.70668 26.9723C7.70668 23.8985 7.70668 20.8247 7.70668 17.751C9.94049 17.751 12.1743 17.751 14.4081 17.751Z" fill="#020149"/>
<path fill-rule="evenodd" clip-rule="evenodd" d="M14.4081 17.9047C14.4081 17.8535 14.4081 17.8022 14.4081 17.751C16.6419 17.751 18.8757 17.751 21.1095 17.751C21.1095 20.8247 21.1095 23.8985 21.1095 26.9723C18.9502 26.9723 16.7908 26.9723 14.6315 26.9723C14.7053 23.9231 14.6308 20.9005 14.4081 17.9047Z" fill="#76421C"/>
<path fill-rule="evenodd" clip-rule="evenodd" d="M386.561 17.751C388.794 17.751 391.028 17.751 393.262 17.751C393.262 17.8022 393.262 17.8535 393.262 17.9047C393.039 20.9517 392.965 24.0255 393.039 27.126C390.879 27.126 388.721 27.126 386.561 27.126C386.561 24.001 386.561 20.8759 386.561 17.751Z" fill="#76421C"/>
<path fill-rule="evenodd" clip-rule="evenodd" d="M393.262 17.9047C393.262 17.8535 393.262 17.8022 393.262 17.751C395.496 17.751 397.73 17.751 399.964 17.751C399.964 20.8247 399.964 23.8985 399.964 26.9723C402.271 26.9723 404.581 26.9723 406.888 26.9723C406.888 31.6855 406.888 36.3985 406.888 41.1116C404.655 41.1116 402.421 41.1116 400.187 41.1116C400.113 41.1116 400.037 41.1116 399.964 41.1116C399.964 36.4498 399.964 31.7878 399.964 27.126C397.803 27.126 395.646 27.126 393.485 27.126C393.559 24.0255 393.485 20.9517 393.262 17.9047Z" fill="#03024A"/>
<path fill-rule="evenodd" clip-rule="evenodd" d="M1.00525 27.126C3.23906 27.126 5.47287 27.126 7.70668 27.126C7.70668 31.7878 7.70668 36.4498 7.70668 41.1116C5.47287 41.1116 3.23906 41.1116 1.00525 41.1116C1.00525 36.4498 1.00525 31.7878 1.00525 27.126Z" fill="#020049"/>
<path fill-rule="evenodd" clip-rule="evenodd" d="M7.70667 27.126C9.94047 27.126 12.1743 27.126 14.4081 27.126C14.4081 31.7878 14.4081 36.4498 14.4081 41.1116C12.1743 41.1116 9.94047 41.1116 7.70667 41.1116C7.70667 36.4498 7.70667 31.7878 7.70667 27.126Z" fill="#76421C"/>
<path fill-rule="evenodd" clip-rule="evenodd" d="M393.262 17.9048C393.485 20.9518 393.559 24.0256 393.485 27.1261C395.646 27.1261 397.803 27.1261 399.964 27.1261C399.964 31.7879 399.964 36.4499 399.964 41.1117C397.73 41.1117 395.496 41.1117 393.262 41.1117C393.262 41.0606 393.262 41.0092 393.262 40.9581C393.262 33.2736 393.262 25.5892 393.262 17.9048Z" fill="#754527"/>
<path fill-rule="evenodd" clip-rule="evenodd" d="M7.70667 41.1116C9.94047 41.1116 12.1743 41.1116 14.4081 41.1116C14.4081 44.1853 14.4081 47.2591 14.4081 50.3329C14.4081 50.3841 14.4081 50.4354 14.4081 50.4866C12.1743 50.4866 9.94047 50.4866 7.70667 50.4866C7.70667 47.3616 7.70667 44.2365 7.70667 41.1116Z" fill="#020049"/>
<path fill-rule="evenodd" clip-rule="evenodd" d="M21.3329 50.3329C19.0991 50.3329 16.8653 50.3329 14.6315 50.3329C14.6315 47.2591 14.6315 44.1853 14.6315 41.1116C16.8653 41.1116 19.0991 41.1116 21.3329 41.1116C21.3329 44.1853 21.3329 47.2591 21.3329 50.3329Z" fill="#76421C"/>
<path fill-rule="evenodd" clip-rule="evenodd" d="M393.262 40.958C393.262 41.0092 393.262 41.0605 393.262 41.1117C393.262 44.1855 393.262 47.2592 393.262 50.333C393.262 50.3842 393.262 50.4355 393.262 50.4867C390.955 50.4867 388.645 50.4867 386.337 50.4867C386.337 47.3104 386.337 44.1343 386.337 40.958C388.645 40.958 390.955 40.958 393.262 40.958Z" fill="#CA98E5"/>
<path fill-rule="evenodd" clip-rule="evenodd" d="M386.561 41.1116C388.721 41.1116 390.879 41.1116 393.039 41.1116C393.039 44.1853 393.039 47.2591 393.039 50.3329C390.879 50.3329 388.721 50.3329 386.561 50.3329C386.561 47.2591 386.561 44.1853 386.561 41.1116Z" fill="#505050"/>
<path fill-rule="evenodd" clip-rule="evenodd" d="M393.262 41.1116C395.496 41.1116 397.73 41.1116 399.964 41.1116C399.964 44.1853 399.964 47.2591 399.964 50.3329C397.73 50.3329 395.496 50.3329 393.262 50.3329C393.262 47.2591 393.262 44.1853 393.262 41.1116Z" fill="#020049"/>
<path fill-rule="evenodd" clip-rule="evenodd" d="M399.964 41.1116C400.037 41.1116 400.113 41.1116 400.187 41.1116C400.187 44.2365 400.187 47.3616 400.187 50.4866C397.953 50.4866 395.719 50.4866 393.485 50.4866C393.559 52.0513 393.483 53.5882 393.262 55.0972C393.262 53.5603 393.262 52.0235 393.262 50.4866C393.262 50.4354 393.262 50.3841 393.262 50.3329C395.496 50.3329 397.73 50.3329 399.964 50.3329C399.964 47.2591 399.964 44.1853 399.964 41.1116Z" fill="#4D498A"/>
<path fill-rule="evenodd" clip-rule="evenodd" d="M21.1095 55.0972C18.9097 55.1475 16.7504 55.0963 14.6315 54.9435C14.6315 53.4578 14.6315 51.9723 14.6315 50.4866C16.7908 50.4866 18.9502 50.4866 21.1095 50.4866C21.1095 52.0235 21.1095 53.5603 21.1095 55.0972Z" fill="#020049"/>
<path fill-rule="evenodd" clip-rule="evenodd" d="M14.4081 50.333C14.4826 50.333 14.5571 50.333 14.6315 50.333C16.8653 50.333 19.0991 50.333 21.3329 50.333C21.3329 50.3842 21.3329 50.4355 21.3329 50.4867C21.3329 52.0236 21.3329 53.5605 21.3329 55.0974C21.2585 55.0974 21.184 55.0974 21.1096 55.0974C21.1096 53.5605 21.1096 52.0236 21.1096 50.4867C18.9502 50.4867 16.7909 50.4867 14.6315 50.4867C14.6315 51.9724 14.6315 53.458 14.6315 54.9437C14.4095 53.4858 14.3351 52.0002 14.4081 50.4867C14.4081 50.4355 14.4081 50.3842 14.4081 50.333Z" fill="#6D57A0"/>
<path fill-rule="evenodd" clip-rule="evenodd" d="M21.3329 50.4866C25.8005 50.4866 30.2681 50.4866 34.7357 50.4866C34.7357 52.0235 34.7357 53.5603 34.7357 55.0972C30.2681 55.0972 25.8005 55.0972 21.3329 55.0972C21.3329 53.5603 21.3329 52.0235 21.3329 50.4866Z" fill="#76421C"/>
<path fill-rule="evenodd" clip-rule="evenodd" d="M386.337 50.4866C386.337 52.0235 386.337 53.5603 386.337 55.0972C381.943 55.0972 377.552 55.0972 373.158 55.0972C373.158 53.5603 373.158 52.0235 373.158 50.4866C377.552 50.4866 381.943 50.4866 386.337 50.4866Z" fill="#76421C"/>
<path fill-rule="evenodd" clip-rule="evenodd" d="M386.337 50.4866C388.645 50.4866 390.955 50.4866 393.262 50.4866C393.262 52.0235 393.262 53.5603 393.262 55.0972C391.102 55.0972 388.944 55.0972 386.784 55.0972C386.71 55.0972 386.634 55.0972 386.561 55.0972C386.487 55.0972 386.411 55.0972 386.337 55.0972C386.337 53.5603 386.337 52.0235 386.337 50.4866Z" fill="#662E26"/>
<path fill-rule="evenodd" clip-rule="evenodd" d="M21.3329 55.0974C25.8005 55.0974 30.2681 55.0974 34.7357 55.0974C34.7357 56.6343 34.7357 58.1712 34.7357 59.7081C30.2681 59.7081 25.8005 59.7081 21.3329 59.7081C21.3329 58.1712 21.3329 56.6343 21.3329 55.0974Z" fill="#020049"/>
<path fill-rule="evenodd" clip-rule="evenodd" d="M34.9591 55.0974C147.692 55.0974 260.424 55.0974 373.158 55.0974C373.158 56.6343 373.158 58.1712 373.158 59.7081C260.424 59.7081 147.692 59.7081 34.9591 59.7081C34.9591 58.1712 34.9591 56.6343 34.9591 55.0974Z" fill="#78421C"/>
<path fill-rule="evenodd" clip-rule="evenodd" d="M373.158 55.0974C377.552 55.0974 381.943 55.0974 386.337 55.0974C386.411 55.0974 386.487 55.0974 386.561 55.0974C386.561 56.6343 386.561 58.1712 386.561 59.7081C382.093 59.7081 377.625 59.7081 373.158 59.7081C373.158 58.1712 373.158 56.6343 373.158 55.0974Z" fill="#020049"/>
<path fill-rule="evenodd" clip-rule="evenodd" d="M34.7357 55.0974C34.8101 55.0974 34.8847 55.0974 34.9591 55.0974C34.9591 56.6343 34.9591 58.1712 34.9591 59.7081C147.692 59.7081 260.424 59.7081 373.158 59.7081C373.158 59.7592 373.158 59.8106 373.158 59.8618C260.35 59.8618 147.543 59.8618 34.7357 59.8618C34.7357 59.8106 34.7357 59.7592 34.7357 59.7081C34.7357 58.1712 34.7357 56.6343 34.7357 55.0974Z" fill="#2D1925"/>
<path fill-rule="evenodd" clip-rule="evenodd" d="M386.561 55.0974C386.634 55.0974 386.71 55.0974 386.784 55.0974C386.784 56.6855 386.784 58.2737 386.784 59.8618C382.243 59.8618 377.699 59.8618 373.158 59.8618C373.158 59.8106 373.158 59.7592 373.158 59.7081C377.625 59.7081 382.093 59.7081 386.561 59.7081C386.561 58.1712 386.561 56.6343 386.561 55.0974Z" fill="#6F6BA8"/>
<path fill-rule="evenodd" clip-rule="evenodd" d="M34.7357 59.8616C147.543 59.8616 260.35 59.8616 373.158 59.8616C373.158 61.3473 373.158 62.8328 373.158 64.3185C260.35 64.3185 147.543 64.3185 34.7357 64.3185C34.7357 62.8328 34.7357 61.3473 34.7357 59.8616Z" fill="#020049"/>
<path d="M45.7469 44.7288V22.6488H49.3869V19.0088H60.6669V22.6488H64.3469V33.8488H60.6669V37.4888H58.9069V40.7288H62.5069V44.7288H58.5069V41.1288H54.8269V37.4888H49.7869V44.7288H45.7469ZM49.7869 33.4488H60.2669V23.0488H49.7869V33.4488ZM72.8244 44.7288V41.1288H69.1844V22.6488H72.8244V19.0088H84.1044V22.6488H87.7844V26.6488H83.7044V23.0488H73.2244V29.8888H80.5044V33.8488H73.2244V40.7288H83.7044V37.0888H87.7844V41.1288H84.1044V44.7288H72.8244ZM96.2619 44.7288V41.1288H92.6219V22.6488H96.2619V19.0088H107.542V22.6488H111.222V30.2488H107.142V23.0488H96.6619V40.7288H107.142V37.4888H103.542V33.8488H99.8619V29.8888H103.942V33.4488H111.222V41.1288H107.542V44.7288H96.2619ZM116.059 44.7288V40.7288H119.699V23.0488H116.059V19.0088H127.379V23.0488H123.699V40.7288H127.379V44.7288H116.059ZM135.871 44.7288V41.1288H132.231V37.0888H136.271V40.7288H146.751V33.8488H135.871V30.2488H132.231V22.6488H135.871V19.0088H147.151V22.6488H150.831V26.6488H146.751V23.0488H136.271V29.8888H147.151V33.4488H150.831V41.1288H147.151V44.7288H135.871ZM162.128 44.7288V23.0488H158.928V26.6488H154.888V22.6488H158.528V19.0088H169.808V22.6488H173.488V26.6488H169.408V23.0488H166.208V44.7288H162.128ZM180.754 44.7288V41.1288H177.114V22.6488H180.754V19.0088H192.034V22.6488H195.714V26.6488H191.634V23.0488H181.154V29.8888H188.434V33.8488H181.154V40.7288H191.634V37.0888H195.714V41.1288H192.034V44.7288H180.754ZM200.552 44.7288V22.6488H204.192V19.0088H215.472V22.6488H219.152V33.8488H215.472V37.4888H213.712V40.7288H217.312V44.7288H213.312V41.1288H209.632V37.4888H204.592V44.7288H200.552ZM204.592 33.4488H215.072V23.0488H204.592V33.4488ZM223.989 44.7288L236.709 19.0088H240.269L227.549 44.7288H223.989ZM248.801 44.7288V41.1288H245.161V19.0088H249.201V40.7288H259.681V37.0888H263.761V41.1288H260.081V44.7288H248.801ZM272.238 44.7288V41.1288H268.598V22.6488H272.238V19.0088H283.518V22.6488H287.198V41.1288H283.518V44.7288H272.238ZM272.638 40.7288H283.118V23.0488H272.638V40.7288ZM295.676 44.7288V41.1288H292.036V22.6488H295.676V19.0088H306.956V22.6488H310.636V30.2488H306.556V23.0488H296.076V40.7288H306.556V37.4888H302.956V33.8488H299.276V29.8888H303.356V33.4488H310.636V41.1288H306.956V44.7288H295.676ZM315.473 44.7288V40.7288H319.113V23.0488H315.473V19.0088H326.793V23.0488H323.113V40.7288H326.793V44.7288H315.473ZM331.645 44.7288V19.0088H335.685V22.6488H339.285V26.2488H342.965V37.0888H346.165V19.0088H350.245V44.7288H346.165V41.1288H342.565V37.4888H338.885V26.6488H335.685V44.7288H331.645Z" fill="black"/>
</g>
<defs>
<clipPath id="clip0_348_2402">
<rect width="407" height="75" fill="white"/>
</clipPath>
</defs>
</svg>
