<svg width="248" height="121" viewBox="0 0 248 121" fill="none" xmlns="http://www.w3.org/2000/svg">
<path d="M9.45935 5.26717C6.84838 4.13182 3.80011 5.26893 2.63487 7.81293C1.46963 10.3569 2.63667 13.327 5.24765 14.4624C7.85862 15.5977 10.9069 14.4606 12.0721 11.9166C13.2374 9.37261 12.0703 6.40252 9.45935 5.26717Z" fill="white"/>
<path d="M34.9398 16.3473C32.3288 15.2119 29.2806 16.349 28.1153 18.893C26.9501 21.437 28.1171 24.4071 30.7281 25.5425C33.3391 26.6778 36.3874 25.5407 37.5526 22.9967C38.7178 20.4527 37.5508 17.4826 34.9398 16.3473Z" fill="white"/>
<path d="M55.7018 25.3756C53.0908 24.2402 50.0425 25.3773 48.8773 27.9213C47.7121 30.4653 48.8791 33.4354 51.4901 34.5708C54.1011 35.7061 57.1493 34.569 58.3146 32.025C59.4798 29.481 58.3128 26.5109 55.7018 25.3756Z" fill="white"/>
<path d="M76.4635 34.4039C73.8525 33.2685 70.8043 34.4056 69.639 36.9497C68.4738 39.4937 69.6408 42.4637 72.2518 43.5991C74.8628 44.7344 77.911 43.5973 79.0763 41.0533C80.2415 38.5093 79.0745 35.5392 76.4635 34.4039Z" fill="white"/>
<path d="M97.2255 43.4322C94.6145 42.2969 91.5662 43.434 90.401 45.978C89.2357 48.522 90.4028 51.4921 93.0138 52.6274C95.6247 53.7628 98.673 52.6257 99.8382 50.0817C101.003 47.5376 99.8364 44.5676 97.2255 43.4322Z" fill="white"/>
<path d="M117.987 52.46C115.376 51.3247 112.328 52.4618 111.163 55.0058C109.997 57.5498 111.165 60.5199 113.775 61.6552C116.386 62.7906 119.435 61.6535 120.6 59.1095C121.765 56.5655 120.598 53.5954 117.987 52.46Z" fill="white"/>
<path d="M138.749 61.4889C136.138 60.3535 133.09 61.4906 131.925 64.0346C130.759 66.5786 131.926 69.5487 134.537 70.6841C137.148 71.8194 140.197 70.6823 141.362 68.1383C142.527 65.5943 141.36 62.6242 138.749 61.4889Z" fill="white"/>
<path d="M159.511 70.5167C156.9 69.3813 153.852 70.5184 152.686 73.0624C151.521 75.6065 152.688 78.5765 155.299 79.7119C157.91 80.8472 160.958 79.7101 162.124 77.1661C163.289 74.6221 162.122 71.652 159.511 70.5167Z" fill="white"/>
<path d="M180.273 79.545C177.662 78.4097 174.614 79.5468 173.448 82.0908C172.283 84.6348 173.45 87.6049 176.061 88.7402C178.672 89.8756 181.72 88.7385 182.886 86.1944C184.051 83.6504 182.884 80.6804 180.273 79.545Z" fill="white"/>
<path d="M201.035 88.5733C198.424 87.438 195.375 88.5751 194.21 91.1191C193.045 93.6631 194.212 96.6332 196.823 97.7685C199.434 98.9039 202.482 97.7668 203.647 95.2228C204.813 92.6788 203.646 89.7087 201.035 88.5733Z" fill="white"/>
<path d="M221.797 97.6016C219.186 96.4663 216.138 97.6034 214.972 100.147C213.807 102.691 214.974 105.661 217.585 106.797C220.196 107.932 223.244 106.795 224.41 104.251C225.575 101.707 224.408 98.737 221.797 97.6016Z" fill="white"/>
<path d="M242.558 106.63C239.947 105.495 236.899 106.632 235.734 109.176C234.569 111.72 235.736 114.69 238.347 115.825C240.958 116.961 244.006 115.823 245.171 113.279C246.336 110.735 245.169 107.765 242.558 106.63Z" fill="white"/>
</svg>
