<svg width="248" height="121" viewBox="0 0 248 121" fill="none" xmlns="http://www.w3.org/2000/svg">
<path d="M5.2477 106.412C2.63671 107.547 1.46965 110.517 2.63486 113.061C3.80008 115.606 6.84834 116.743 9.45932 115.607C12.0703 114.472 13.2374 111.502 12.0722 108.958C10.9069 106.414 7.85868 105.277 5.2477 106.412Z" fill="white"/>
<path d="M30.7279 95.3322C28.1169 96.4676 26.9499 99.4376 28.1151 101.982C29.2803 104.526 32.3286 105.663 34.9395 104.527C37.5505 103.392 38.7176 100.422 37.5524 97.878C36.3872 95.334 33.3389 94.1969 30.7279 95.3322Z" fill="white"/>
<path d="M51.4904 86.3046C48.8794 87.44 47.7123 90.41 48.8775 92.9541C50.0428 95.4981 53.091 96.6352 55.702 95.4999C58.313 94.3646 59.48 91.3945 58.3148 88.8505C57.1496 86.3064 54.1014 85.1693 51.4904 86.3046Z" fill="white"/>
<path d="M72.2523 77.2766C69.6414 78.4119 68.4743 81.382 69.6395 83.926C70.8047 86.47 73.853 87.6071 76.464 86.4718C79.0749 85.3365 80.242 82.3664 79.0768 79.8224C77.9116 77.2784 74.8633 76.1412 72.2523 77.2766Z" fill="white"/>
<path d="M93.0143 68.2485C90.4033 69.3838 89.2362 72.3539 90.4015 74.8979C91.5667 77.4419 94.6149 78.5791 97.2259 77.4437C99.8369 76.3084 101.004 73.3383 99.8388 70.7943C98.6735 68.2503 95.6253 67.1132 93.0143 68.2485Z" fill="white"/>
<path d="M113.776 59.2207C111.165 60.356 109.998 63.3261 111.163 65.8701C112.329 68.4141 115.377 69.5512 117.988 68.4159C120.599 67.2806 121.766 64.3105 120.601 61.7665C119.435 59.2225 116.387 58.0853 113.776 59.2207Z" fill="white"/>
<path d="M134.538 50.1928C131.927 51.3282 130.76 54.2982 131.926 56.8422C133.091 59.3863 136.139 60.5234 138.75 59.3881C141.361 58.2527 142.528 55.2827 141.363 52.7386C140.198 50.1946 137.149 49.0575 134.538 50.1928Z" fill="white"/>
<path d="M155.3 41.165C152.689 42.3003 151.522 45.2704 152.688 47.8144C153.853 50.3584 156.901 51.4956 159.512 50.3602C162.123 49.2249 163.29 46.2548 162.125 43.7108C160.96 41.1668 157.911 40.0297 155.3 41.165Z" fill="white"/>
<path d="M176.062 32.1372C173.451 33.2725 172.284 36.2426 173.45 38.7866C174.615 41.3306 177.663 42.4677 180.274 41.3324C182.885 40.1971 184.052 37.227 182.887 34.683C181.722 32.139 178.673 31.0018 176.062 32.1372Z" fill="white"/>
<path d="M196.824 23.1088C194.213 24.2442 193.046 27.2142 194.212 29.7583C195.377 32.3023 198.425 33.4394 201.036 32.3041C203.647 31.1688 204.814 28.1987 203.649 25.6547C202.484 23.1106 199.435 21.9735 196.824 23.1088Z" fill="white"/>
<path d="M217.587 14.0815C214.976 15.2168 213.809 18.1869 214.974 20.7309C216.139 23.2749 219.187 24.4121 221.798 23.2767C224.409 22.1414 225.576 19.1713 224.411 16.6273C223.246 14.0833 220.198 12.9462 217.587 14.0815Z" fill="white"/>
<path d="M238.349 5.05318C235.738 6.18851 234.57 9.15858 235.736 11.7026C236.901 14.2466 239.949 15.3837 242.56 14.2484C245.171 13.1131 246.338 10.143 245.173 7.599C244.008 5.05498 240.96 3.91785 238.349 5.05318Z" fill="white"/>
</svg>
