<svg width="667" height="624" viewBox="0 0 667 624" fill="none" xmlns="http://www.w3.org/2000/svg">
<path fill-rule="evenodd" clip-rule="evenodd" d="M45.9529 1.36841C237.651 1.36841 429.349 1.36841 621.047 1.36841C621.047 7.04603 621.047 12.7235 621.047 18.4011C619.638 13.3711 619.162 8.09914 619.616 2.58503C428.873 2.58503 238.127 2.58503 47.3835 2.58503C47.3835 8.26265 47.3835 13.9402 47.3835 19.6178C46.9067 19.6178 46.4297 19.6178 45.9529 19.6178C45.9529 13.5346 45.9529 7.45153 45.9529 1.36841Z" fill="#57260F"/>
<path fill-rule="evenodd" clip-rule="evenodd" d="M621.047 18.4011C626.961 19.5993 633.161 20.0048 639.645 19.6177C639.951 21.6177 639.473 23.4426 638.214 25.0925C631.84 26.1477 625.641 25.7421 619.617 23.8759C620.093 23.4704 620.571 23.0648 621.047 22.6593C618.99 22.3929 617.083 21.7846 615.325 20.8343C617.966 15.8684 618.92 10.5964 618.186 5.01821C520.434 3.46945 422.678 3.46945 324.917 5.01821C320.201 6.10259 316.386 7.72483 313.472 9.88471C314.037 13.562 312.607 14.7786 309.18 13.5346C307.913 14.5383 307.436 15.7549 307.75 17.1845C305.843 17.1845 303.934 17.1845 302.027 17.1845C302.056 15.1855 301.102 13.5634 299.166 12.318C303.71 11.0781 307.047 8.64485 309.18 5.01821C271.52 3.80183 233.849 3.39633 196.164 3.80159C196.164 6.64033 196.164 9.47921 196.164 12.318C193.183 13.2284 190.322 13.2284 187.581 12.318C184.898 13.4245 182.991 15.0466 181.858 17.1845C178.521 17.1845 175.182 17.1845 171.844 17.1845C137.267 16.3733 102.457 15.5623 67.4118 14.7512C103.166 13.7375 138.931 13.1292 174.705 12.9263C179.934 11.9354 183.272 9.29951 184.72 5.01821C141.829 3.841 99.1493 3.4355 56.6825 3.80159C53.7734 3.7191 51.6275 4.73291 50.2448 6.84315C53.1419 10.6787 53.3802 14.5312 50.9601 18.4011C50.0005 19.3165 48.8084 19.7221 47.3837 19.6177C47.3837 13.9401 47.3837 8.26258 47.3837 2.58496C238.128 2.58496 428.873 2.58496 619.617 2.58496C619.162 8.09907 619.638 13.3711 621.047 18.4011Z" fill="#774622"/>
<path fill-rule="evenodd" clip-rule="evenodd" d="M44.5223 1.36841C44.9991 1.36841 45.4761 1.36841 45.9529 1.36841C45.9529 7.45153 45.9529 13.5346 45.9529 19.6178C38.3232 19.6178 30.6933 19.6178 23.0636 19.6178C29.9381 18.4167 37.091 18.0112 44.5223 18.4011C44.5223 12.7235 44.5223 7.04603 44.5223 1.36841Z" fill="#CAB7AB"/>
<path fill-rule="evenodd" clip-rule="evenodd" d="M45.9529 1.36841C237.888 0.152274 430.063 -0.253227 622.478 0.151787C622.478 6.23491 622.478 12.318 622.478 18.4011C629.909 18.0112 637.062 18.4167 643.936 19.6178C642.506 19.6178 641.075 19.6178 639.645 19.6178C633.161 20.0049 626.961 19.5994 621.047 18.4011C621.047 12.7235 621.047 7.04603 621.047 1.36841C429.349 1.36841 237.651 1.36841 45.9529 1.36841Z" fill="#BA9A8D"/>
<path fill-rule="evenodd" clip-rule="evenodd" d="M622.478 39.0837C622.478 51.25 622.478 63.4162 622.478 75.5825C629.631 75.5825 636.784 75.5825 643.937 75.5825C643.937 75.988 643.937 76.3936 643.937 76.7991C636.307 76.7991 628.677 76.7991 621.047 76.7991C620.578 64.0081 621.056 51.4364 622.478 39.0837Z" fill="#AC7137"/>
<path fill-rule="evenodd" clip-rule="evenodd" d="M642.506 37.8673C642.506 38.6784 642.982 39.0839 643.936 39.0839C643.936 51.2501 643.936 63.4164 643.936 75.5826C636.783 75.5826 629.631 75.5826 622.478 75.5826C622.478 63.4164 622.478 51.2501 622.478 39.0839C628.872 37.8842 635.549 37.4786 642.506 37.8673Z" fill="#E9A754"/>
<path fill-rule="evenodd" clip-rule="evenodd" d="M643.936 39.0837C644.413 39.0837 644.89 39.0837 645.367 39.0837C651.281 40.282 657.481 40.6875 663.964 40.3004C663.497 51.8765 663.973 63.2317 665.395 74.3658C665.395 74.7713 665.395 75.177 665.395 75.5825C658.242 75.5825 651.089 75.5825 643.936 75.5825C643.936 63.4162 643.936 51.25 643.936 39.0837Z" fill="#77411F"/>
<path fill-rule="evenodd" clip-rule="evenodd" d="M645.367 39.0837C652.043 39.0837 658.719 39.0837 665.395 39.0837C665.395 50.8445 665.395 62.6051 665.395 74.3658C663.973 63.2317 663.497 51.8765 663.965 40.3004C657.481 40.6875 651.281 40.282 645.367 39.0837Z" fill="#59230E"/>
<path fill-rule="evenodd" clip-rule="evenodd" d="M21.6331 39.0841C21.6331 38.6786 21.6331 38.2729 21.6331 37.8674C22.1099 37.8674 22.5868 37.8674 23.0636 37.8674C30.6934 37.8674 38.3232 37.8674 45.953 37.8674C46.4216 50.6584 45.9447 63.2302 44.5224 75.5828C44.5224 63.4165 44.5224 51.2503 44.5224 39.0841C37.8463 39.0841 31.1703 39.0841 24.4942 39.0841C24.0545 51.3505 24.5313 63.5168 25.9248 75.5828C24.971 75.5828 24.0174 75.5828 23.0636 75.5828C23.532 63.1968 23.0551 51.0306 21.6331 39.0841Z" fill="#CF935A"/>
<path fill-rule="evenodd" clip-rule="evenodd" d="M21.633 39.0837C23.055 51.0303 23.532 63.1965 23.0636 75.5825C15.9107 75.5825 8.75777 75.5825 1.60486 75.5825C1.60486 63.4162 1.60486 51.25 1.60486 39.0837C8.28096 39.0837 14.9569 39.0837 21.633 39.0837Z" fill="#784321"/>
<path fill-rule="evenodd" clip-rule="evenodd" d="M21.6329 37.8674C21.6329 38.2729 21.6329 38.6786 21.6329 39.0841C14.9568 39.0841 8.28089 39.0841 1.60479 39.0841C1.60479 51.2503 1.60479 63.4165 1.60479 75.5828C0.182507 63.2302 -0.29445 50.6584 0.174209 37.8674C7.32712 37.8674 14.48 37.8674 21.6329 37.8674Z" fill="#B59F8E"/>
<path fill-rule="evenodd" clip-rule="evenodd" d="M44.5223 75.5825C38.3232 75.5825 32.1239 75.5825 25.9248 75.5825C24.5312 63.5165 24.0544 51.3502 24.4942 39.0837C31.1703 39.0837 37.8462 39.0837 44.5223 39.0837C44.5223 51.25 44.5223 63.4162 44.5223 75.5825Z" fill="#E7A856"/>
<path fill-rule="evenodd" clip-rule="evenodd" d="M643.936 93.8318C643.936 94.2373 643.936 94.6429 643.936 95.0484C636.784 95.0484 629.631 95.0484 622.478 95.0484C622.95 113.917 622.472 132.572 621.047 151.013C621.047 131.952 621.047 112.893 621.047 93.8318C628.676 93.8318 636.307 93.8318 643.936 93.8318Z" fill="#B49989"/>
<path fill-rule="evenodd" clip-rule="evenodd" d="M171.844 17.1848C136.523 16.3854 101.713 17.1966 67.4117 19.618C65.5043 19.618 63.5967 19.618 61.6893 19.618C64.708 42.2857 65.1848 64.996 63.1199 87.749C64.6166 91.2165 65.5702 94.4608 65.9811 97.482C242.309 95.883 418.747 95.883 595.297 97.482C596.759 97.0495 597.713 96.2383 598.158 95.0487C599.357 94.633 599.834 93.8219 599.588 92.6155C601.754 68.0637 603.185 43.3258 603.88 18.4014C603.129 17.559 602.175 16.9507 601.019 16.5765C503.31 17.1642 405.554 17.3669 307.75 17.1848C307.436 15.7552 307.913 14.5386 309.18 13.5349C312.606 14.7789 314.037 13.5623 313.472 9.88502C316.386 7.72514 320.201 6.1029 324.917 5.01852C422.678 3.46976 520.434 3.46976 618.186 5.01852C618.92 10.5967 617.966 15.8687 615.325 20.8346C617.083 21.7849 618.99 22.3933 621.047 22.6596C620.571 23.0651 620.093 23.4707 619.617 23.8762C625.641 25.7424 631.839 26.148 638.214 25.0928C639.473 23.443 639.951 21.618 639.645 19.618C641.075 19.618 642.506 19.618 643.936 19.618C643.936 25.7011 643.936 31.7843 643.936 37.8674C643.46 37.8674 642.982 37.8674 642.506 37.8674C635.549 37.4787 628.872 37.8843 622.478 39.084C621.056 51.4366 620.578 64.0084 621.047 76.7994C628.676 76.7994 636.307 76.7994 643.936 76.7994C643.936 82.477 643.936 88.1545 643.936 93.8321C636.307 93.8321 628.676 93.8321 621.047 93.8321C621.047 112.893 621.047 131.953 621.047 151.013C613.894 151.013 606.741 151.013 599.588 151.013C599.588 138.442 599.588 125.869 599.588 113.298C547.123 112.445 494.431 111.634 441.509 110.865C316.582 111.658 191.882 112.47 67.4117 113.298C67.4117 119.786 67.4117 126.276 67.4117 132.764C67.4117 138.847 67.4117 144.93 67.4117 151.013C60.2587 151.013 53.1058 151.013 45.9529 151.013C45.9529 132.359 45.9529 113.703 45.9529 95.0487C37.6972 95.7943 30.0674 94.9831 23.0636 92.6155C23.0636 86.9378 23.0636 81.2603 23.0636 75.5827C24.0174 75.5827 24.971 75.5827 25.9248 75.5827C32.1239 75.5827 38.3232 75.5827 44.5223 75.5827C45.9446 63.2301 46.4216 50.6584 45.9529 37.8674C38.3232 37.8674 30.6933 37.8674 23.0636 37.8674C23.0636 31.7843 23.0636 25.7011 23.0636 19.618C30.6933 19.618 38.3232 19.618 45.9529 19.618C46.4297 19.618 46.9067 19.618 47.3835 19.618C48.8082 19.7224 50.0003 19.3168 50.96 18.4014C53.3801 14.5315 53.1417 10.679 50.2447 6.84346C51.6273 4.73322 53.7732 3.71941 56.6823 3.8019C99.1491 3.43581 141.829 3.84132 184.719 5.01852C183.272 9.29982 179.934 11.9358 174.705 12.9266C138.931 13.1295 103.166 13.7378 67.4117 14.7515C102.457 15.5626 137.267 16.3736 171.844 17.1848Z" fill="#76421C"/>
<path fill-rule="evenodd" clip-rule="evenodd" d="M67.4117 19.6177C67.4117 25.7008 67.4117 31.7839 67.4117 37.867C67.4117 50.4388 67.4117 63.0106 67.4117 75.5824C67.4117 81.6655 67.4117 87.7486 67.4117 93.8318C244.087 95.0478 421.003 95.4534 598.158 95.0484C597.713 96.238 596.759 97.0491 595.297 97.4816C418.747 95.8826 242.309 95.8826 65.9811 97.4816C65.5702 94.4605 64.6166 91.2161 63.1199 87.7486C65.1848 64.9957 64.708 42.2853 61.6893 19.6177C63.5967 19.6177 65.5043 19.6177 67.4117 19.6177Z" fill="#7B4515"/>
<path fill-rule="evenodd" clip-rule="evenodd" d="M598.158 78.0159C598.634 78.0159 599.112 78.0159 599.588 78.0159C599.588 82.8824 599.588 87.7489 599.588 92.6154C599.834 93.8218 599.357 94.6329 598.158 95.0486C421.003 95.4536 244.087 95.048 67.4116 93.832C75.0575 93.6051 82.6872 93.1995 90.3009 92.6154C258.157 92.8182 426.011 92.6154 593.866 92.007C595.973 91.1437 596.927 89.7244 596.727 87.7489C596.834 84.4564 597.311 81.2122 598.158 78.0159Z" fill="#D89F57"/>
<path fill-rule="evenodd" clip-rule="evenodd" d="M596.727 87.7487C596.927 89.7243 595.973 91.1436 593.866 92.0069C426.011 92.6152 258.157 92.818 90.3009 92.6152C92.2299 91.7807 93.8988 90.5641 95.3079 88.9653C139.52 90.3799 183.629 90.3799 227.637 88.9653C227.209 86.4055 227.685 83.9723 229.067 81.6656C231.534 83.0784 233.917 82.8758 236.22 81.0573C317.299 80.3589 398.365 80.9672 479.419 82.8822C471.834 83.8914 464.204 84.4997 456.53 84.7071C393.584 85.1126 330.639 85.5183 267.693 85.9238C269.124 86.3293 270.554 86.7349 271.985 87.1404C356.391 87.6449 440.795 88.2532 525.198 88.9653C548.64 88.9561 571.768 88.1451 594.581 86.5321C595.129 87.2085 595.844 87.614 596.727 87.7487Z" fill="#E8A853"/>
<path fill-rule="evenodd" clip-rule="evenodd" d="M67.4116 75.5828C67.8884 75.5828 68.3654 75.5828 68.8422 75.5828C91.0085 76.5943 113.421 77.2026 136.08 77.4077C290.105 78.016 444.131 78.2188 598.158 78.016C597.311 81.2123 596.834 84.4566 596.727 87.749C595.844 87.6143 595.129 87.2088 594.581 86.5324C571.768 88.1454 548.64 88.9564 525.198 88.9656C440.795 88.2535 356.391 87.6452 271.985 87.1407C270.554 86.7352 269.124 86.3296 267.693 85.9241C330.639 85.5186 393.584 85.1129 456.53 84.7074C464.204 84.5 471.834 83.8917 479.419 82.8825C398.365 80.9675 317.299 80.3592 236.22 81.0576C233.917 82.8761 231.534 83.0788 229.067 81.6659C227.685 83.9726 227.209 86.4059 227.637 88.9656C183.629 90.3802 139.52 90.3802 95.308 88.9656C93.8989 90.5644 92.2299 91.781 90.3009 92.6155C82.6872 93.1996 75.0575 93.6052 67.4116 93.8321C67.4116 87.749 67.4116 81.6659 67.4116 75.5828Z" fill="#E9A757"/>
<path fill-rule="evenodd" clip-rule="evenodd" d="M598.158 19.6177C599.583 38.8703 600.061 58.3363 599.589 78.0156C599.112 78.0156 598.634 78.0156 598.158 78.0156C444.131 78.2184 290.105 78.0156 136.08 77.4073C113.421 77.2022 91.0087 76.5939 68.8424 75.5824C245.28 75.5824 421.72 75.5824 598.158 75.5824C598.158 63.4161 598.158 51.2499 598.158 39.0837C598.158 32.595 598.158 26.1063 598.158 19.6177Z" fill="#E7AE56"/>
<path fill-rule="evenodd" clip-rule="evenodd" d="M67.4116 37.8674C67.8884 37.8674 68.3654 37.8674 68.8422 37.8674C245.216 38.6036 421.654 39.0092 598.158 39.0841C598.158 51.2503 598.158 63.4165 598.158 75.5828C421.72 75.5828 245.28 75.5828 68.8422 75.5828C68.3654 75.5828 67.8884 75.5828 67.4116 75.5828C67.4116 63.011 67.4116 50.4392 67.4116 37.8674Z" fill="#FECF6D"/>
<path fill-rule="evenodd" clip-rule="evenodd" d="M593.866 19.6177C595.297 19.6177 596.727 19.6177 598.158 19.6177C598.158 26.1063 598.158 32.595 598.158 39.0837C421.654 39.0088 245.216 38.6032 68.8424 37.867C71.4155 36.9307 73.3228 35.3085 74.5647 33.0005C70.5993 29.0663 70.8378 25.4165 75.28 22.0509C102.606 22.8796 130.502 23.4879 158.969 23.8759C168.605 26.3601 178.143 26.1574 187.581 23.2675C191.396 24.0787 195.21 24.8897 199.025 25.7008C231.381 24.1298 263.806 23.3186 296.305 23.2675C375.255 24.7488 454.174 24.7488 533.066 23.2675C537.015 23.6564 540.83 24.4674 544.511 25.7008C560.808 23.4027 577.26 22.5916 593.866 23.2675C593.866 22.0509 593.866 20.8343 593.866 19.6177Z" fill="#FDBF5B"/>
<path fill-rule="evenodd" clip-rule="evenodd" d="M67.4116 19.6177C242.897 19.6177 418.381 19.6177 593.866 19.6177C593.866 20.8343 593.866 22.0509 593.866 23.2675C577.26 22.5916 560.808 23.4027 544.511 25.7008C540.83 24.4674 537.015 23.6564 533.066 23.2675C454.174 24.7488 375.254 24.7488 296.305 23.2675C263.806 23.3186 231.381 24.1298 199.025 25.7008C195.21 24.8897 191.396 24.0787 187.581 23.2675C178.143 26.1574 168.605 26.3601 158.969 23.8759C130.502 23.4879 102.605 22.8796 75.2798 22.0509C70.8376 25.4165 70.5991 29.0663 74.5645 33.0005C73.3226 35.3085 71.4152 36.9307 68.8422 37.867C68.3654 37.867 67.8884 37.867 67.4116 37.867C67.4116 31.7839 67.4116 25.7008 67.4116 19.6177Z" fill="#FBBE60"/>
<path fill-rule="evenodd" clip-rule="evenodd" d="M599.588 92.6154C599.588 87.7489 599.588 82.8824 599.588 78.0159C600.06 58.3366 599.583 38.8706 598.158 19.618C596.727 19.618 595.297 19.618 593.866 19.618C418.381 19.618 242.897 19.618 67.4116 19.618C101.713 17.1965 136.523 16.3854 171.844 17.1847C175.182 17.1847 178.521 17.1847 181.858 17.1847C221.915 17.1847 261.971 17.1847 302.027 17.1847C303.934 17.1847 305.842 17.1847 307.749 17.1847C405.554 17.3669 503.31 17.1642 601.019 16.5764C602.175 16.9506 603.129 17.559 603.88 18.4014C603.185 43.3257 601.754 68.0637 599.588 92.6154Z" fill="#855017"/>
<path fill-rule="evenodd" clip-rule="evenodd" d="M302.027 17.1844C261.971 17.1844 221.915 17.1844 181.858 17.1844C182.991 15.0466 184.898 13.4245 187.581 12.318C190.322 13.2284 193.183 13.2284 196.164 12.318C196.164 9.4792 196.164 6.64033 196.164 3.80158C233.848 3.39632 271.52 3.80183 309.18 5.01821C307.047 8.64484 303.71 11.0781 299.166 12.318C301.102 13.5634 302.056 15.1855 302.027 17.1844Z" fill="#75411B"/>
<path fill-rule="evenodd" clip-rule="evenodd" d="M599.588 113.298C422.196 113.298 244.804 113.298 67.4116 113.298C191.882 112.469 316.582 111.658 441.509 110.865C494.43 111.634 547.123 112.445 599.588 113.298Z" fill="#81481A"/>
<path fill-rule="evenodd" clip-rule="evenodd" d="M67.4116 113.298C244.804 113.298 422.196 113.298 599.588 113.298C599.588 125.869 599.588 138.442 599.588 151.013C592.435 151.013 585.282 151.013 578.13 151.013C578.13 150.608 578.13 150.202 578.13 149.797C584.401 150.193 590.6 149.787 596.727 148.58C598.076 142.983 598.554 137.305 598.158 131.547C595.315 127.014 594.839 122.35 596.727 117.556C592.132 116.243 587.364 115.635 582.421 115.731C489.356 116.651 396.607 116.651 304.173 115.731C300.671 115.973 298.049 117.19 296.305 119.381C294.508 118.889 292.839 118.078 291.298 116.948C289.867 117.759 288.437 118.569 287.006 119.381C251.636 117.776 216.111 116.965 180.428 116.948C145.617 117.151 110.805 117.353 75.9951 117.556C72.5378 122.157 70.6303 127.227 70.2728 132.764C69.319 132.764 68.3654 132.764 67.4116 132.764C67.4116 126.276 67.4116 119.786 67.4116 113.298Z" fill="#CB8E52"/>
<path fill-rule="evenodd" clip-rule="evenodd" d="M296.305 119.381C296.818 122.137 295.864 124.367 293.444 126.072C286.717 126.281 280.042 126.89 273.416 127.897C277.145 128.892 280.96 129.5 284.86 129.722C375.227 129.925 465.354 130.533 555.24 131.547C400.021 131.142 245.04 131.548 90.301 132.763C83.6249 132.763 76.9489 132.763 70.2728 132.763C70.6303 127.227 72.5379 122.157 75.9952 117.556C110.806 117.352 145.617 117.15 180.428 116.947C216.111 116.964 251.636 117.776 287.006 119.381C288.437 118.569 289.867 117.759 291.298 116.947C292.839 118.078 294.508 118.889 296.305 119.381Z" fill="#D3964D"/>
<path fill-rule="evenodd" clip-rule="evenodd" d="M598.158 131.547C583.852 131.547 569.546 131.547 555.24 131.547C465.354 130.534 375.227 129.925 284.86 129.722C280.961 129.501 277.145 128.892 273.416 127.897C280.042 126.89 286.717 126.282 293.444 126.072C295.864 124.368 296.819 122.138 296.305 119.381C298.049 117.19 300.671 115.973 304.173 115.731C396.607 116.651 489.356 116.651 582.422 115.731C587.364 115.635 592.132 116.243 596.727 117.556C594.839 122.349 595.315 127.014 598.158 131.547Z" fill="#D39651"/>
<path fill-rule="evenodd" clip-rule="evenodd" d="M90.3009 132.764C97.9302 132.764 105.561 132.764 113.19 132.764C111.838 138.732 111.361 144.815 111.76 151.014C104.471 150.674 97.3179 151.08 90.3009 152.23C90.3009 151.825 90.3009 151.419 90.3009 151.014C90.3009 144.93 90.3009 138.847 90.3009 132.764Z" fill="#FCB958"/>
<path fill-rule="evenodd" clip-rule="evenodd" d="M113.19 132.764C261.017 132.764 408.845 132.764 556.671 132.764C556.864 139.104 556.864 145.187 556.671 151.014C556.195 151.014 555.717 151.014 555.24 151.014C547.611 151.014 539.98 151.014 532.351 151.014C532.351 163.585 532.351 176.157 532.351 188.729C539.98 188.729 547.611 188.729 555.24 188.729C556.013 207.82 556.013 226.881 555.24 245.91C553.371 246.705 551.464 247.516 549.518 248.343C543.704 246.189 538.697 246.999 534.497 250.777C534.647 258.288 535.362 265.791 536.643 273.284C534.169 275.461 533.215 278.097 533.782 281.192C536.852 281.652 539.952 282.059 543.08 282.409C545.535 282.107 547.681 281.296 549.518 279.976C551.464 280.803 553.371 281.614 555.24 282.409C555.24 282.814 555.24 283.22 555.24 283.626C555.029 302.298 555.506 320.953 556.671 339.59C549.12 340.234 541.73 341.451 534.497 343.24C534.059 354.383 533.822 365.739 533.782 377.306C540.935 377.306 548.087 377.306 555.24 377.306C555.24 395.96 555.24 414.616 555.24 433.27C555.24 433.675 555.24 434.082 555.24 434.487C548.087 434.487 540.935 434.487 533.782 434.487C533.544 445.849 533.782 457.205 534.497 468.552C535.789 470.014 537.457 471.028 539.504 471.594C544.728 472.201 549.973 472.403 555.24 472.202C555.24 483.557 555.24 494.913 555.24 506.268C453.669 506.268 352.098 506.268 250.526 506.268C250.064 500.5 247.679 500.093 243.373 505.051C238.192 506.055 232.946 506.663 227.637 506.876C336.838 507.484 446.038 507.688 555.24 507.484C555.24 507.89 555.24 508.296 555.24 508.701C407.89 508.701 260.54 508.701 113.19 508.701C113.19 496.94 113.19 485.18 113.19 473.419C119.934 473.817 126.609 473.41 133.219 472.202C134.852 459.688 135.091 447.116 133.934 434.487C127.14 433.508 120.226 432.899 113.19 432.662C114.145 432.257 115.097 431.851 116.052 431.445C113.229 414.101 112.275 396.46 113.19 378.522C120.209 378.61 126.884 379.015 133.219 379.739C134.887 366.781 135.124 353.803 133.934 340.807C126.678 339.626 119.288 339.219 111.76 339.59C111.76 323.774 111.76 307.958 111.76 292.142C106.324 291.754 106.086 290.537 111.044 288.492C111.745 286.919 111.984 285.296 111.76 283.626C112.236 283.626 112.714 283.626 113.19 283.626C117.93 284.289 122.698 284.897 127.496 285.451C125.785 286.246 125.785 286.854 127.496 287.275C129.259 286.491 131.166 286.289 133.219 286.667C132.742 286.262 132.264 285.856 131.788 285.451C133.098 284.995 134.291 284.387 135.364 283.626C135.024 270.672 134.786 257.694 134.649 244.694C127.549 243.776 120.396 243.371 113.19 243.477C113.19 225.633 113.19 207.79 113.19 189.945C120.343 189.945 127.496 189.945 134.649 189.945C134.649 176.968 134.649 163.991 134.649 151.014C127.496 151.014 120.343 151.014 113.19 151.014C112.714 151.014 112.236 151.014 111.76 151.014C111.361 144.815 111.838 138.732 113.19 132.764Z" fill="#FED06E"/>
<path fill-rule="evenodd" clip-rule="evenodd" d="M90.3009 132.764C245.04 131.548 400.021 131.142 555.24 131.547C569.546 131.547 583.852 131.547 598.158 131.547C598.554 137.306 598.076 142.984 596.727 148.58C590.6 149.787 584.401 150.193 578.13 149.797C578.13 144.119 578.13 138.442 578.13 132.764C570.977 132.764 563.824 132.764 556.671 132.764C408.844 132.764 261.017 132.764 113.19 132.764C105.561 132.764 97.9302 132.764 90.3009 132.764Z" fill="#E6A956"/>
<path fill-rule="evenodd" clip-rule="evenodd" d="M67.4116 132.764C68.3654 132.764 69.319 132.764 70.2728 132.764C76.9489 132.764 83.6248 132.764 90.3009 132.764C90.3009 138.847 90.3009 144.93 90.3009 151.014C82.6712 151.014 75.0413 151.014 67.4116 151.014C67.4116 144.93 67.4116 138.847 67.4116 132.764Z" fill="#E8A755"/>
<path fill-rule="evenodd" clip-rule="evenodd" d="M556.671 132.764C563.824 132.764 570.977 132.764 578.13 132.764C578.13 138.442 578.13 144.119 578.13 149.797C578.13 150.202 578.13 150.608 578.13 151.014C570.977 151.014 563.824 151.014 556.671 151.014C556.864 145.187 556.864 139.104 556.671 132.764Z" fill="#FCB759"/>
<path fill-rule="evenodd" clip-rule="evenodd" d="M555.24 151.013C555.24 163.585 555.24 176.157 555.24 188.729C547.611 188.729 539.98 188.729 532.351 188.729C532.351 176.157 532.351 163.585 532.351 151.013C539.98 151.013 547.611 151.013 555.24 151.013Z" fill="#FDB85A"/>
<path fill-rule="evenodd" clip-rule="evenodd" d="M555.24 151.013C555.717 151.013 556.194 151.013 556.671 151.013C563.824 151.013 570.977 151.013 578.13 151.013C578.13 163.585 578.13 176.157 578.13 188.729C584.044 189.927 590.244 190.332 596.727 189.945C596.727 207.789 596.727 225.632 596.727 243.477C589.869 242.75 583.67 243.562 578.13 245.91C577.653 245.91 577.175 245.91 576.699 245.91C577.183 242.677 576.228 239.839 573.838 237.394C574.553 236.177 575.268 234.96 575.984 233.744C576.938 219.549 576.938 205.356 575.984 191.162C569.52 188.842 562.605 188.03 555.24 188.729C555.24 176.157 555.24 163.585 555.24 151.013Z" fill="#E8A755"/>
<path fill-rule="evenodd" clip-rule="evenodd" d="M578.13 151.013C585.283 151.013 592.435 151.013 599.588 151.013C599.588 163.585 599.588 176.157 599.588 188.729C592.435 188.729 585.283 188.729 578.13 188.729C578.13 176.157 578.13 163.585 578.13 151.013Z" fill="#75421C"/>
<path fill-rule="evenodd" clip-rule="evenodd" d="M67.4116 151.013C75.0413 151.013 82.6712 151.013 90.3009 151.013C90.3009 151.418 90.3009 151.825 90.3009 152.23C90.3009 164.396 90.3009 176.562 90.3009 188.729C82.6712 188.729 75.0413 188.729 67.4116 188.729C67.4116 176.157 67.4116 163.585 67.4116 151.013Z" fill="#7A441E"/>
<path fill-rule="evenodd" clip-rule="evenodd" d="M111.76 151.013C112.236 151.013 112.714 151.013 113.19 151.013C113.362 152.334 114.316 153.146 116.051 153.446C120.82 151.986 125.589 151.986 130.357 153.446C130.701 157.192 130.224 160.842 128.927 164.396C131.196 167.344 132.626 170.589 133.218 174.129C132.243 177.727 132.005 181.376 132.503 185.079C126.21 188.306 119.296 189.523 111.76 188.729C111.76 176.157 111.76 163.585 111.76 151.013Z" fill="#FDB959"/>
<path fill-rule="evenodd" clip-rule="evenodd" d="M111.76 188.729C111.76 207.789 111.76 226.849 111.76 245.91C104.607 245.91 97.4538 245.91 90.3009 245.91C90.3009 228.877 90.3009 211.844 90.3009 194.812C91.7315 194.812 93.1621 194.812 94.5927 194.812C94.2872 192.812 94.764 190.987 96.0232 189.337C101.248 188.73 106.492 188.528 111.76 188.729Z" fill="#FDB959"/>
<path fill-rule="evenodd" clip-rule="evenodd" d="M67.4118 189.945C67.4118 190.35 67.4118 190.757 67.4118 191.162C60.7357 191.162 54.0597 191.162 47.3836 191.162C47.3836 209.006 47.3836 226.849 47.3836 244.693C45.9586 226.658 45.4818 208.409 45.953 189.945C53.1059 189.945 60.2588 189.945 67.4118 189.945Z" fill="#4F1F0B"/>
<path fill-rule="evenodd" clip-rule="evenodd" d="M111.76 151.013C111.76 163.584 111.76 176.157 111.76 188.728C106.492 188.528 101.248 188.73 96.0233 189.337C94.7641 190.987 94.2873 192.811 94.5927 194.812C93.1621 194.812 91.7315 194.812 90.3009 194.812C90.3009 211.844 90.3009 228.877 90.3009 245.91C82.6712 245.91 75.0413 245.91 67.4116 245.91C67.4116 245.505 67.4116 245.098 67.4116 244.693C67.4116 226.849 67.4116 209.006 67.4116 191.162C67.4116 190.757 67.4116 190.35 67.4116 189.945C67.4116 189.54 67.4116 189.134 67.4116 188.728C75.0413 188.728 82.6712 188.728 90.3009 188.728C90.3009 176.562 90.3009 164.396 90.3009 152.23C97.3179 151.08 104.471 150.674 111.76 151.013Z" fill="#E8A855"/>
<path fill-rule="evenodd" clip-rule="evenodd" d="M113.19 151.013C120.343 151.013 127.496 151.013 134.649 151.013C134.649 163.991 134.649 176.967 134.649 189.945C127.496 189.945 120.343 189.945 113.19 189.945C113.19 207.789 113.19 225.632 113.19 243.477C120.396 243.371 127.549 243.776 134.649 244.693C134.786 257.694 135.024 270.672 135.364 283.625C134.291 284.387 133.098 284.995 131.788 285.45C132.264 285.855 132.742 286.262 133.218 286.667C131.165 286.288 129.259 286.49 127.496 287.275C125.785 286.854 125.785 286.246 127.496 285.45C122.698 284.897 117.93 284.288 113.19 283.625C120.064 282.424 127.217 282.018 134.649 282.409C133.459 270.272 132.981 258.105 133.218 245.91C126.065 245.91 118.913 245.91 111.76 245.91C111.76 226.849 111.76 207.789 111.76 188.729C119.296 189.523 126.21 188.306 132.503 185.079C132.005 181.376 132.243 177.727 133.218 174.129C132.626 170.589 131.196 167.344 128.927 164.396C130.224 160.842 130.701 157.192 130.357 153.446C125.589 151.986 120.82 151.986 116.051 153.446C114.316 153.146 113.362 152.334 113.19 151.013Z" fill="#FDC663"/>
<path fill-rule="evenodd" clip-rule="evenodd" d="M599.588 189.945C606.741 189.945 613.894 189.945 621.047 189.945C621.047 208.195 621.047 226.444 621.047 244.693C613.894 244.693 606.741 244.693 599.588 244.693C599.588 226.444 599.588 208.195 599.588 189.945Z" fill="#743F1A"/>
<path fill-rule="evenodd" clip-rule="evenodd" d="M599.588 189.945C599.588 189.54 599.588 189.134 599.588 188.729C607.218 188.729 614.848 188.729 622.478 188.729C622.478 207.789 622.478 226.849 622.478 245.91C615.325 245.91 608.172 245.91 601.019 245.91C600.543 245.91 600.065 245.91 599.588 245.91C599.588 245.505 599.588 245.098 599.588 244.693C606.741 244.693 613.894 244.693 621.047 244.693C621.047 226.444 621.047 208.195 621.047 189.945C613.894 189.945 606.741 189.945 599.588 189.945Z" fill="#B19483"/>
<path fill-rule="evenodd" clip-rule="evenodd" d="M578.13 188.729C585.283 188.729 592.435 188.729 599.588 188.729C599.588 189.134 599.588 189.54 599.588 189.945C599.588 208.195 599.588 226.444 599.588 244.693C599.588 245.098 599.588 245.505 599.588 245.91C592.435 245.91 585.283 245.91 578.13 245.91C583.67 243.562 589.869 242.75 596.727 243.477C596.727 225.632 596.727 207.789 596.727 189.945C590.244 190.332 584.044 189.927 578.13 188.729Z" fill="#DEA35D"/>
<path fill-rule="evenodd" clip-rule="evenodd" d="M555.24 188.729C562.605 188.03 569.52 188.842 575.984 191.162C576.938 205.356 576.938 219.55 575.984 233.744C575.268 234.961 574.553 236.177 573.838 237.394C576.228 239.839 577.183 242.678 576.699 245.91C569.546 245.91 562.393 245.91 555.24 245.91C556.013 226.881 556.013 207.82 555.24 188.729Z" fill="#FDBA59"/>
<path fill-rule="evenodd" clip-rule="evenodd" d="M67.4118 188.729C67.4118 189.134 67.4118 189.54 67.4118 189.945C60.2589 189.945 53.106 189.945 45.953 189.945C45.4818 208.409 45.9586 226.658 47.3836 244.693C54.0597 244.693 60.7357 244.693 67.4118 244.693C67.4118 245.098 67.4118 245.505 67.4118 245.91C59.7821 245.91 52.1522 245.91 44.5225 245.91C44.5225 226.849 44.5225 207.789 44.5225 188.729C52.1522 188.729 59.7821 188.729 67.4118 188.729Z" fill="#BF9686"/>
<path fill-rule="evenodd" clip-rule="evenodd" d="M67.4118 191.162C67.4118 209.006 67.4118 226.849 67.4118 244.694C60.7357 244.694 54.0598 244.694 47.3837 244.694C47.3837 226.849 47.3837 209.006 47.3837 191.162C54.0598 191.162 60.7357 191.162 67.4118 191.162Z" fill="#79441E"/>
<path fill-rule="evenodd" clip-rule="evenodd" d="M111.76 245.91C118.913 245.91 126.065 245.91 133.218 245.91C132.981 258.105 133.459 270.271 134.649 282.408C127.217 282.018 120.064 282.424 113.19 283.625C112.714 283.625 112.236 283.625 111.76 283.625C111.76 271.054 111.76 258.481 111.76 245.91Z" fill="#FDB95A"/>
<path fill-rule="evenodd" clip-rule="evenodd" d="M90.3009 245.91C97.4538 245.91 104.607 245.91 111.76 245.91C111.76 258.481 111.76 271.054 111.76 283.625C104.607 283.625 97.4538 283.625 90.3009 283.625C90.3009 271.054 90.3009 258.481 90.3009 245.91Z" fill="#EAA853"/>
<path fill-rule="evenodd" clip-rule="evenodd" d="M555.241 245.91C555.241 258.076 555.241 270.242 555.241 282.408C553.371 281.614 551.464 280.802 549.518 279.975C547.681 281.295 545.535 282.107 543.081 282.408C539.952 282.058 536.852 281.652 533.782 281.192C533.215 278.097 534.17 275.46 536.643 273.284C535.363 265.791 534.647 258.288 534.497 250.776C538.697 246.999 543.704 246.188 549.518 248.343C551.464 247.516 553.371 246.704 555.241 245.91Z" fill="#FDB75A"/>
<path fill-rule="evenodd" clip-rule="evenodd" d="M67.4116 245.91C75.0413 245.91 82.6712 245.91 90.3009 245.91C90.3009 258.481 90.3009 271.054 90.3009 283.625C82.6712 283.625 75.0413 283.625 67.4116 283.625C67.4116 271.054 67.4116 258.481 67.4116 245.91Z" fill="#7B461E"/>
<path fill-rule="evenodd" clip-rule="evenodd" d="M578.13 245.91C585.283 245.91 592.435 245.91 599.588 245.91C599.588 258.481 599.588 271.054 599.588 283.625C592.435 283.625 585.283 283.625 578.13 283.625C578.13 271.054 578.13 258.481 578.13 245.91Z" fill="#77411D"/>
<path fill-rule="evenodd" clip-rule="evenodd" d="M555.24 245.91C562.393 245.91 569.546 245.91 576.699 245.91C576.699 258.481 576.699 271.054 576.699 283.625C569.546 283.625 562.393 283.625 555.24 283.625C555.24 283.22 555.24 282.814 555.24 282.408C555.24 270.242 555.24 258.076 555.24 245.91Z" fill="#E9A852"/>
<path fill-rule="evenodd" clip-rule="evenodd" d="M90.3008 283.625C97.4537 283.625 104.607 283.625 111.76 283.625C111.984 285.295 111.745 286.918 111.044 288.491C106.086 290.537 106.323 291.753 111.76 292.141C111.76 307.957 111.76 323.774 111.76 339.59C104.554 339.696 97.4008 339.29 90.3008 338.373C90.1961 319.921 90.1961 301.671 90.3008 283.625Z" fill="#FDB959"/>
<path fill-rule="evenodd" clip-rule="evenodd" d="M599.588 284.842C605.607 285.534 611.567 286.346 617.471 287.275C618.425 303.903 618.425 320.529 617.471 337.157C611.654 338.329 605.693 338.735 599.588 338.373C599.588 320.529 599.588 302.686 599.588 284.842Z" fill="#78411A"/>
<path fill-rule="evenodd" clip-rule="evenodd" d="M555.24 283.625C562.393 283.625 569.546 283.625 576.699 283.625C576.699 302.279 576.699 320.935 576.699 339.59C570.022 339.59 563.347 339.59 556.671 339.59C555.506 320.952 555.028 302.298 555.24 283.625Z" fill="#FDB958"/>
<path fill-rule="evenodd" clip-rule="evenodd" d="M67.4118 286.058C67.4118 303.091 67.4118 320.124 67.4118 337.156C61.2126 337.156 55.0134 337.156 48.8142 337.156C48.8142 320.124 48.8142 303.091 48.8142 286.058C55.0134 286.058 61.2126 286.058 67.4118 286.058Z" fill="#77401B"/>
<path fill-rule="evenodd" clip-rule="evenodd" d="M67.4116 283.625C75.0413 283.625 82.6712 283.625 90.3009 283.625C90.1962 301.671 90.1962 319.921 90.3009 338.373C97.4009 339.29 104.554 339.696 111.76 339.59C111.76 352.161 111.76 364.734 111.76 377.305C104.607 377.305 97.4539 377.305 90.3009 377.305C90.3009 364.734 90.3009 352.161 90.3009 339.59C82.6712 339.59 75.0413 339.59 67.4116 339.59C67.4116 338.778 67.4116 337.968 67.4116 337.156C67.4116 320.124 67.4116 303.091 67.4116 286.058C67.4116 285.247 67.4116 284.436 67.4116 283.625Z" fill="#E8A855"/>
<path fill-rule="evenodd" clip-rule="evenodd" d="M576.699 245.91C577.175 245.91 577.653 245.91 578.13 245.91C578.13 258.481 578.13 271.054 578.13 283.625C585.282 283.625 592.435 283.625 599.588 283.625C599.588 284.03 599.588 284.437 599.588 284.842C599.588 302.686 599.588 320.529 599.588 338.373C599.588 338.778 599.588 339.185 599.588 339.59C599.112 339.59 598.634 339.59 598.158 339.59C591.005 339.59 583.852 339.59 576.699 339.59C576.699 320.935 576.699 302.28 576.699 283.625C576.699 271.054 576.699 258.481 576.699 245.91Z" fill="#E6A554"/>
<path fill-rule="evenodd" clip-rule="evenodd" d="M599.588 284.842C599.588 284.436 599.588 284.03 599.588 283.625C606.741 283.625 613.894 283.625 621.047 283.625C621.047 302.279 621.047 320.935 621.047 339.59C613.894 339.59 606.741 339.59 599.588 339.59C599.588 339.185 599.588 338.778 599.588 338.373C605.693 338.734 611.654 338.329 617.471 337.156C618.425 320.529 618.425 303.902 617.471 287.275C611.567 286.345 605.607 285.534 599.588 284.842Z" fill="#683D22"/>
<path fill-rule="evenodd" clip-rule="evenodd" d="M621.047 283.625C622.472 302.472 622.95 321.533 622.478 340.806C614.848 340.806 607.218 340.806 599.588 340.806C599.588 340.401 599.588 339.995 599.588 339.59C606.741 339.59 613.894 339.59 621.047 339.59C621.047 320.935 621.047 302.279 621.047 283.625Z" fill="#C1A798"/>
<path fill-rule="evenodd" clip-rule="evenodd" d="M67.4116 283.625C67.4116 284.436 67.4116 285.247 67.4116 286.058C61.2125 286.058 55.0132 286.058 48.814 286.058C48.814 303.091 48.814 320.124 48.814 337.156C55.0132 337.156 61.2125 337.156 67.4116 337.156C67.4116 337.968 67.4116 338.778 67.4116 339.59C60.2587 339.59 53.1058 339.59 45.9529 339.59C45.9529 320.935 45.9529 302.279 45.9529 283.625C53.1058 283.625 60.2587 283.625 67.4116 283.625Z" fill="#693F24"/>
<path fill-rule="evenodd" clip-rule="evenodd" d="M67.4116 340.806C74.5645 340.806 81.7174 340.806 88.8704 340.806C88.8704 352.973 88.8704 365.139 88.8704 377.305C81.7174 377.305 74.5645 377.305 67.4116 377.305C67.4116 365.139 67.4116 352.973 67.4116 340.806Z" fill="#774119"/>
<path fill-rule="evenodd" clip-rule="evenodd" d="M556.671 339.59C563.347 339.59 570.023 339.59 576.699 339.59C576.699 352.162 576.699 364.734 576.699 377.306C569.546 377.306 562.393 377.306 555.24 377.306C554.8 364.635 555.276 352.062 556.671 339.59Z" fill="#E9A754"/>
<path fill-rule="evenodd" clip-rule="evenodd" d="M556.671 339.59C555.276 352.062 554.8 364.635 555.24 377.306C548.087 377.306 540.934 377.306 533.781 377.306C533.822 365.739 534.059 354.383 534.497 343.24C541.73 341.451 549.12 340.234 556.671 339.59Z" fill="#FDB95A"/>
<path fill-rule="evenodd" clip-rule="evenodd" d="M67.4116 340.807C67.4116 340.402 67.4116 339.995 67.4116 339.59C75.0413 339.59 82.6712 339.59 90.3009 339.59C90.3009 352.162 90.3009 364.734 90.3009 377.306C89.8241 377.306 89.3472 377.306 88.8704 377.306C88.8704 365.139 88.8704 352.973 88.8704 340.807C81.7174 340.807 74.5645 340.807 67.4116 340.807Z" fill="#AC6F41"/>
<path fill-rule="evenodd" clip-rule="evenodd" d="M576.699 339.59C583.852 339.59 591.005 339.59 598.158 339.59C591.763 340.79 585.086 341.195 578.13 340.807C578.13 352.973 578.13 365.139 578.13 377.306C577.653 377.306 577.175 377.306 576.699 377.306C576.699 364.734 576.699 352.162 576.699 339.59Z" fill="#B87A40"/>
<path fill-rule="evenodd" clip-rule="evenodd" d="M598.158 339.59C598.634 339.59 599.112 339.59 599.588 339.59C599.588 339.995 599.588 340.402 599.588 340.807C599.588 352.973 599.588 365.139 599.588 377.306C592.435 377.306 585.283 377.306 578.13 377.306C578.13 365.139 578.13 352.973 578.13 340.807C585.087 341.195 591.763 340.79 598.158 339.59Z" fill="#77421A"/>
<path fill-rule="evenodd" clip-rule="evenodd" d="M555.24 377.305C562.393 377.305 569.546 377.305 576.699 377.305C576.938 395.153 576.699 412.998 575.984 430.837C575.268 431.445 574.553 432.054 573.838 432.662C567.656 433.269 561.458 433.472 555.24 433.27C555.24 414.616 555.24 395.96 555.24 377.305Z" fill="#FDB957"/>
<path fill-rule="evenodd" clip-rule="evenodd" d="M67.4119 379.739C67.4119 397.176 67.4119 414.615 67.4119 432.053C61.4756 431.93 55.9916 430.714 50.9602 428.403C50.4215 412.086 50.183 395.864 50.2449 379.739C55.9673 379.739 61.6896 379.739 67.4119 379.739Z" fill="#78411B"/>
<path fill-rule="evenodd" clip-rule="evenodd" d="M599.588 378.522C606.741 378.522 613.894 378.522 621.047 378.522C621.047 396.771 621.047 415.02 621.047 433.27C613.894 433.27 606.741 433.27 599.588 433.27C599.588 415.02 599.588 396.771 599.588 378.522Z" fill="#74411C"/>
<path fill-rule="evenodd" clip-rule="evenodd" d="M67.4116 378.522C67.4116 378.927 67.4116 379.333 67.4116 379.738C61.6893 379.738 55.967 379.738 50.2446 379.738C50.1827 395.863 50.4212 412.086 50.9599 428.403C55.9913 430.714 61.4753 431.93 67.4116 432.053C67.4116 432.458 67.4116 432.865 67.4116 433.27C60.2587 433.27 53.1058 433.27 45.9529 433.27C45.9529 415.02 45.9529 396.771 45.9529 378.522C53.1058 378.522 60.2587 378.522 67.4116 378.522Z" fill="#69391E"/>
<path fill-rule="evenodd" clip-rule="evenodd" d="M599.588 378.522C599.588 378.117 599.588 377.711 599.588 377.305C607.218 377.305 614.848 377.305 622.478 377.305C622.95 396.579 622.472 415.64 621.047 434.487C621.047 434.082 621.047 433.675 621.047 433.27C621.047 415.021 621.047 396.771 621.047 378.522C613.894 378.522 606.741 378.522 599.588 378.522Z" fill="#B49E8C"/>
<path fill-rule="evenodd" clip-rule="evenodd" d="M67.4116 377.305C74.5645 377.305 81.7174 377.305 88.8704 377.305C89.3472 377.305 89.8241 377.305 90.3009 377.305C91.177 395.114 90.2233 412.755 87.4398 430.229C88.7695 431.539 89.7233 432.959 90.3009 434.487C89.8241 434.487 89.3472 434.487 88.8704 434.487C81.7174 434.487 74.5645 434.487 67.4116 434.487C67.4116 434.082 67.4116 433.675 67.4116 433.27C67.4116 432.865 67.4116 432.459 67.4116 432.054C67.4116 414.616 67.4116 397.177 67.4116 379.739C67.4116 379.334 67.4116 378.927 67.4116 378.522C67.4116 378.117 67.4116 377.711 67.4116 377.305Z" fill="#E8A758"/>
<path fill-rule="evenodd" clip-rule="evenodd" d="M578.13 377.305C585.283 377.305 592.435 377.305 599.588 377.305C599.588 377.711 599.588 378.117 599.588 378.522C599.588 396.771 599.588 415.021 599.588 433.27C598.634 433.27 598.158 433.675 598.158 434.487C591.481 434.487 584.806 434.487 578.13 434.487C584.044 433.288 590.244 432.883 596.727 433.27C596.727 415.021 596.727 396.771 596.727 378.522C590.244 378.909 584.044 378.504 578.13 377.305Z" fill="#DEA15C"/>
<path fill-rule="evenodd" clip-rule="evenodd" d="M555.24 434.487C555.24 447.058 555.24 459.631 555.24 472.202C549.973 472.403 544.728 472.201 539.504 471.594C537.457 471.028 535.788 470.013 534.497 468.552C533.781 457.205 533.544 445.849 533.781 434.487C540.934 434.487 548.087 434.487 555.24 434.487Z" fill="#FDB958"/>
<path fill-rule="evenodd" clip-rule="evenodd" d="M599.588 433.27C606.741 433.27 613.894 433.27 621.047 433.27C621.047 433.675 621.047 434.081 621.047 434.486C614.371 434.486 607.696 434.486 601.019 434.486C599.597 446.839 599.119 459.41 599.588 472.202C599.112 472.202 598.634 472.202 598.158 472.202C598.158 459.63 598.158 447.058 598.158 434.486C598.158 433.675 598.634 433.27 599.588 433.27Z" fill="#836348"/>
<path fill-rule="evenodd" clip-rule="evenodd" d="M67.4116 434.487C74.5645 434.487 81.7174 434.487 88.8704 434.487C88.8704 446.653 88.8704 458.819 88.8704 470.986C81.7174 470.986 74.5645 470.986 67.4116 470.986C67.4116 458.819 67.4116 446.653 67.4116 434.487Z" fill="#77401A"/>
<path fill-rule="evenodd" clip-rule="evenodd" d="M88.8704 434.487C89.3472 434.487 89.8241 434.487 90.3009 434.487C90.3009 447.058 90.3009 459.631 90.3009 472.202C82.6712 472.202 75.0413 472.202 67.4116 472.202C67.4116 471.797 67.4116 471.391 67.4116 470.986C74.5645 470.986 81.7174 470.986 88.8704 470.986C88.8704 458.819 88.8704 446.653 88.8704 434.487Z" fill="#AC713B"/>
<path fill-rule="evenodd" clip-rule="evenodd" d="M90.3009 434.487C97.4538 434.487 104.607 434.487 111.76 434.487C111.76 447.058 111.76 459.631 111.76 472.202C104.607 472.202 97.4538 472.202 90.3009 472.202C90.3009 459.631 90.3009 447.058 90.3009 434.487Z" fill="#E9A853"/>
<path fill-rule="evenodd" clip-rule="evenodd" d="M578.13 434.487C584.806 434.487 591.481 434.487 598.158 434.487C598.158 447.058 598.158 459.631 598.158 472.202C591.481 472.202 584.806 472.202 578.13 472.202C578.13 459.631 578.13 447.058 578.13 434.487Z" fill="#764118"/>
<path fill-rule="evenodd" clip-rule="evenodd" d="M576.699 377.305C577.175 377.305 577.653 377.305 578.13 377.305C584.044 378.504 590.244 378.909 596.727 378.522C596.727 396.771 596.727 415.021 596.727 433.27C590.244 432.883 584.044 433.288 578.13 434.487C578.13 447.058 578.13 459.631 578.13 472.202C570.5 472.202 562.87 472.202 555.24 472.202C555.24 459.631 555.24 447.058 555.24 434.487C555.24 434.082 555.24 433.675 555.24 433.27C561.458 433.472 567.656 433.269 573.838 432.662C574.553 432.054 575.268 431.445 575.984 430.837C576.699 412.998 576.938 395.153 576.699 377.305Z" fill="#E9A853"/>
<path fill-rule="evenodd" clip-rule="evenodd" d="M111.76 339.59C119.287 339.219 126.678 339.625 133.934 340.807C135.124 353.803 134.886 366.78 133.218 379.739C126.884 379.015 120.209 378.61 113.19 378.522C112.275 396.46 113.229 414.101 116.051 431.445C115.097 431.85 114.144 432.257 113.19 432.662C120.226 432.899 127.14 433.507 133.934 434.487C135.091 447.115 134.852 459.688 133.218 472.202C126.609 473.41 119.934 473.817 113.19 473.419C113.19 485.18 113.19 496.94 113.19 508.701C105.561 508.701 97.9302 508.701 90.3009 508.701C90.3009 496.535 90.3009 484.368 90.3009 472.202C97.4538 472.202 104.607 472.202 111.76 472.202C111.76 459.631 111.76 447.058 111.76 434.487C104.607 434.487 97.4538 434.487 90.3009 434.487C89.7232 432.959 88.7694 431.539 87.4397 430.229C90.2232 412.756 91.177 395.114 90.3009 377.305C97.4538 377.305 104.607 377.305 111.76 377.305C111.76 364.734 111.76 352.162 111.76 339.59Z" fill="#FCBA59"/>
<path fill-rule="evenodd" clip-rule="evenodd" d="M64.5505 472.202C63.4336 483.501 62.7183 494.856 62.4046 506.268C62.0058 497.727 61.2905 489.211 60.2587 480.719C63.263 476.549 61.8324 474.927 55.967 475.852C56.68 479.722 55.4879 482.966 52.3905 485.585C51.9137 484.774 51.4368 483.963 50.96 483.152C51.1007 497.773 50.8624 512.373 50.2447 526.95C48.1893 530.042 46.5203 533.286 45.2376 536.683C44.5366 535.11 44.2982 533.487 44.5223 531.817C40.7074 531.817 36.8926 531.817 33.0777 531.817C32.7722 533.817 33.2491 535.642 34.5083 537.292C32.575 539.499 31.1444 539.093 30.2165 536.075C32.593 532.243 31.1624 530.418 25.9248 530.6C26.7787 536.433 25.8249 541.704 23.0636 546.416C23.0636 540.738 23.0636 535.061 23.0636 529.383C30.4175 528.181 38.0472 527.776 45.9529 528.167C45.9529 509.512 45.9529 490.857 45.9529 472.202C52.1521 472.202 58.3513 472.202 64.5505 472.202Z" fill="#704023"/>
<path fill-rule="evenodd" clip-rule="evenodd" d="M64.4954 473C65.4494 473 66.4032 473 67.3571 473C67.3571 485.4 67.3571 497.8 67.3571 510.2C82.6199 510.2 97.882 510.2 113.145 510.2C275.311 510.2 437.477 510.2 599.643 510.2C599.643 497.8 599.643 485.4 599.643 473C606.797 473 613.952 473 621.106 473C621.106 491.8 621.106 510.6 621.106 529.4C628.737 529.4 636.369 529.4 644 529.4C644 535 644 540.6 644 546.2C636.369 546.2 628.737 546.2 621.106 546.2C620.637 559.215 621.115 572.016 622.537 584.6C629.691 584.6 636.846 584.6 644 584.6C644 590.6 644 596.6 644 602.6C636.369 602.6 628.737 602.6 621.106 602.6C620.63 602.6 620.152 602.6 619.675 602.6C618.276 602.973 617.321 603.774 616.813 605C595.589 605.4 574.364 605.8 553.139 606.2C493.956 605.935 434.574 605.734 374.995 605.6C369.791 604.74 364.544 604.14 359.256 603.8C275.843 605.752 192.376 606.952 108.853 607.4C102.827 609.082 96.6264 610.083 90.2512 610.4C96.0183 610.486 101.504 611.487 106.706 613.4C111.856 611.173 117.34 610.972 123.161 612.8C188.505 613.2 253.847 613.6 319.191 614C247.171 614.4 175.149 614.8 103.129 615.2C108.853 615.6 114.576 616 120.3 616.4C110.76 616.6 101.222 616.8 91.682 617C78.6706 616.657 65.7928 616.456 53.0484 616.4C49.9055 614.757 49.4286 612.558 51.6175 609.8C50.9006 606.997 49.4698 604.597 47.3249 602.6C46.848 602.6 46.3709 602.6 45.894 602.6C38.2627 602.6 30.6313 602.6 23 602.6C23 596.6 23 590.6 23 584.6C23.4769 584.6 23.954 584.6 24.4309 584.6C31.4851 584.964 38.4009 584.563 45.1786 583.4C45.8937 571.407 46.1322 559.407 45.894 547.4C38.2627 547.4 30.6313 547.4 23 547.4C23 547 23 546.6 23 546.2C25.7619 541.552 26.7158 536.353 25.8618 530.6C31.1005 530.42 32.5313 532.22 30.1544 536C31.0824 538.977 32.5133 539.377 34.447 537.2C33.1875 535.573 32.7106 533.773 33.0161 531.8C36.8318 531.8 40.6474 531.8 44.4631 531.8C44.2389 533.448 44.4774 535.048 45.1786 536.6C46.4615 533.25 48.1309 530.049 50.1866 527C50.8045 512.622 51.0429 498.222 50.9021 483.8C51.379 484.6 51.856 485.4 52.3329 486.2C55.4309 483.616 56.6233 480.417 55.9101 476.6C61.7767 475.688 63.2076 477.288 60.2028 481.4C61.2347 489.776 61.9501 498.176 62.3491 506.6C62.6629 495.344 63.3783 484.144 64.4954 473Z" fill="#78421C"/>
<path fill-rule="evenodd" clip-rule="evenodd" d="M578.13 473.419C578.13 473.014 578.13 472.607 578.13 472.202C584.806 472.202 591.481 472.202 598.158 472.202C598.634 472.202 599.112 472.202 599.588 472.202C599.588 484.774 599.588 497.346 599.588 509.917C437.456 509.917 275.323 509.917 113.19 509.917C113.19 509.512 113.19 509.106 113.19 508.701C260.54 508.701 407.89 508.701 555.24 508.701C562.87 508.701 570.5 508.701 578.13 508.701C584.222 509.306 589.945 508.495 595.297 506.268C596.724 495.348 597.202 484.399 596.727 473.419C590.528 473.419 584.328 473.419 578.13 473.419Z" fill="#D9A762"/>
<path fill-rule="evenodd" clip-rule="evenodd" d="M555.24 506.267C555.24 506.672 555.24 507.079 555.24 507.484C446.038 507.687 336.838 507.484 227.637 506.876C232.946 506.663 238.192 506.054 243.373 505.051C247.679 500.093 250.064 500.499 250.526 506.267C352.098 506.267 453.669 506.267 555.24 506.267Z" fill="#FCD265"/>
<path fill-rule="evenodd" clip-rule="evenodd" d="M67.4116 472.202C75.0413 472.202 82.6712 472.202 90.3009 472.202C90.3009 484.368 90.3009 496.535 90.3009 508.701C97.9302 508.701 105.561 508.701 113.19 508.701C113.19 509.106 113.19 509.512 113.19 509.917C97.9302 509.917 82.6712 509.917 67.4116 509.917C67.4116 497.346 67.4116 484.774 67.4116 472.202Z" fill="#E7A854"/>
<path fill-rule="evenodd" clip-rule="evenodd" d="M578.13 473.418C584.328 473.418 590.528 473.418 596.727 473.418C597.202 484.398 596.724 495.348 595.297 506.267C589.945 508.495 584.222 509.305 578.13 508.701C578.13 496.939 578.13 485.18 578.13 473.418Z" fill="#E9A753"/>
<path fill-rule="evenodd" clip-rule="evenodd" d="M555.24 472.202C562.87 472.202 570.5 472.202 578.13 472.202C578.13 472.607 578.13 473.014 578.13 473.419C578.13 485.18 578.13 496.94 578.13 508.701C570.5 508.701 562.87 508.701 555.24 508.701C555.24 508.296 555.24 507.889 555.24 507.484C555.24 507.079 555.24 506.673 555.24 506.268C555.24 494.913 555.24 483.557 555.24 472.202Z" fill="#FCB957"/>
<path fill-rule="evenodd" clip-rule="evenodd" d="M598.158 528.167C421.72 528.167 245.28 528.167 68.8424 528.167C69.0008 527.416 69.4776 526.808 70.273 526.342C243.84 527.344 417.417 527.141 591.005 525.734C594.066 525.802 596.45 526.613 598.158 528.167Z" fill="#7D420C"/>
<path fill-rule="evenodd" clip-rule="evenodd" d="M68.8421 528.167C245.28 528.167 421.72 528.167 598.158 528.167C598.634 528.167 599.112 528.167 599.588 528.167C599.588 533.844 599.588 539.521 599.588 545.199C598.634 545.199 597.681 545.199 596.727 545.199C596.727 540.333 596.727 535.466 596.727 530.6C588.079 530.512 579.496 531.12 570.977 532.425C574.014 533.416 576.875 534.633 579.56 536.075C578.23 537.28 576.561 537.889 574.553 537.899C568.122 537.593 562.163 536.173 556.671 533.641C559.839 533.434 562.701 532.623 565.254 531.208C401.214 530.397 237.174 530.397 73.1338 531.208C71.9277 533.382 71.6892 535.612 72.4185 537.899C70.426 541.093 68.757 541.093 67.4115 537.899C66.9732 534.39 67.45 531.145 68.8421 528.167Z" fill="#EFB45E"/>
<path fill-rule="evenodd" clip-rule="evenodd" d="M596.727 545.199C595.773 545.199 594.82 545.199 593.866 545.199C543.316 545.402 492.77 545.199 442.224 544.591C440.555 543.171 438.887 541.753 437.217 540.333C434.777 541.316 433.585 542.938 433.641 545.199C313.453 545.439 193.523 545.439 73.8492 545.199C72.3759 545.608 71.6606 546.42 71.7034 547.633C70.7496 547.633 69.796 547.633 68.8422 547.633C69.0877 546.426 68.6107 545.615 67.4116 545.199C67.4116 542.766 67.4116 540.333 67.4116 537.9C68.7571 541.093 70.4261 541.093 72.4187 537.9C71.6893 535.612 71.9278 533.382 73.134 531.208C237.175 530.397 401.214 530.397 565.254 531.208C562.701 532.623 559.84 533.435 556.671 533.641C562.163 536.173 568.123 537.593 574.553 537.9C576.562 537.889 578.23 537.28 579.56 536.075C576.875 534.633 574.014 533.416 570.977 532.425C579.496 531.121 588.079 530.512 596.727 530.6C596.727 535.466 596.727 540.333 596.727 545.199Z" fill="#FEBF59"/>
<path fill-rule="evenodd" clip-rule="evenodd" d="M599.588 528.167C602.142 528.685 603.573 530.103 603.88 532.425C603.452 556.563 602.022 580.287 599.588 603.597C599.588 597.109 599.588 590.619 599.588 584.131C599.588 571.153 599.588 558.177 599.588 545.199C599.588 539.521 599.588 533.844 599.588 528.167Z" fill="#7D4813"/>
<path fill-rule="evenodd" clip-rule="evenodd" d="M593.866 545.2C504.683 547.242 415.033 548.864 324.916 550.066C315.967 549.969 306.907 548.752 297.735 546.416C226.678 547.222 155.626 548.033 84.5786 548.849C80.2662 547.125 76.213 547.531 72.4186 550.066C71.7544 549.343 71.5159 548.532 71.7033 547.633C71.6606 546.42 72.3758 545.608 73.8492 545.2C193.523 545.439 313.453 545.439 433.641 545.2C433.585 542.938 434.777 541.316 437.217 540.333C438.887 541.753 440.555 543.171 442.224 544.591C492.77 545.2 543.316 545.403 593.866 545.2Z" fill="#FAC360"/>
<path fill-rule="evenodd" clip-rule="evenodd" d="M665.395 548.849C665.395 560.61 665.395 572.37 665.395 584.131C658.719 584.131 652.044 584.131 645.367 584.131C646.381 583.032 647.812 582.627 649.659 582.915C649.427 580.449 649.666 578.015 650.374 575.615C652.265 572.004 653.935 568.354 655.381 564.665C657.766 564.665 660.149 564.665 662.534 564.665C664.304 553.996 661.919 552.779 655.381 561.016C652.669 562.191 649.808 562.596 646.798 562.232C645.025 561.27 644.547 556.809 645.367 548.849C652.044 548.849 658.719 548.849 665.395 548.849Z" fill="#773E1D"/>
<path fill-rule="evenodd" clip-rule="evenodd" d="M23.0636 547.633C30.6933 547.633 38.3232 547.633 45.9529 547.633C46.1911 559.806 45.9526 571.972 45.2376 584.131C38.4614 585.31 31.547 585.717 24.4942 585.348C24.4942 584.536 24.0174 584.131 23.0636 584.131C23.0636 571.965 23.0636 559.799 23.0636 547.633Z" fill="#E4A456"/>
<path fill-rule="evenodd" clip-rule="evenodd" d="M643.936 547.633C643.469 560.019 643.945 572.185 645.367 584.131C645.367 584.536 645.367 584.943 645.367 585.348C644.891 585.348 644.413 585.348 643.936 585.348C636.783 585.348 629.631 585.348 622.478 585.348C622.478 572.777 622.478 560.204 622.478 547.633C629.631 547.633 636.783 547.633 643.936 547.633Z" fill="#E4A45C"/>
<path fill-rule="evenodd" clip-rule="evenodd" d="M626.769 550.066C631.928 549.714 636.935 550.119 641.791 551.282C642.506 562.225 642.743 573.174 642.506 584.131C636.784 584.131 631.061 584.131 625.339 584.131C624.938 572.712 625.415 561.356 626.769 550.066Z" fill="#EBA853"/>
<path fill-rule="evenodd" clip-rule="evenodd" d="M1.60479 547.633C1.60479 559.799 1.60479 571.965 1.60479 584.131C8.7577 584.131 15.9106 584.131 23.0635 584.131C24.0173 584.131 24.4941 584.536 24.4941 585.348C24.0173 585.348 23.5403 585.348 23.0635 585.348C15.4338 585.348 7.80393 585.348 0.174209 585.348C-0.29445 572.556 0.182507 559.985 1.60479 547.633Z" fill="#AD9489"/>
<path fill-rule="evenodd" clip-rule="evenodd" d="M1.60486 547.633C8.75777 547.633 15.9107 547.633 23.0636 547.633C23.0636 559.799 23.0636 571.965 23.0636 584.131C15.9107 584.131 8.75777 584.131 1.60486 584.131C1.60486 571.965 1.60486 559.799 1.60486 547.633Z" fill="#783E1D"/>
<path fill-rule="evenodd" clip-rule="evenodd" d="M643.937 546.416C643.937 546.821 643.937 547.228 643.937 547.633C636.784 547.633 629.631 547.633 622.478 547.633C622.478 560.204 622.478 572.777 622.478 585.348C621.056 572.589 620.578 559.612 621.047 546.416C628.677 546.416 636.307 546.416 643.937 546.416Z" fill="#AC7137"/>
<path fill-rule="evenodd" clip-rule="evenodd" d="M665.395 547.633C666.817 559.985 667.295 572.556 666.826 585.348C659.673 585.348 652.52 585.348 645.367 585.348C645.367 584.943 645.367 584.536 645.367 584.131C652.043 584.131 658.719 584.131 665.395 584.131C665.395 572.37 665.395 560.61 665.395 548.849C665.395 548.444 665.395 548.038 665.395 547.633Z" fill="#AB9286"/>
<path fill-rule="evenodd" clip-rule="evenodd" d="M643.936 547.633C651.089 547.633 658.242 547.633 665.395 547.633C665.395 548.038 665.395 548.444 665.395 548.849C658.718 548.849 652.043 548.849 645.367 548.849C644.547 556.808 645.025 561.27 646.797 562.232C649.807 562.596 652.668 562.191 655.381 561.015C661.919 552.779 664.303 553.996 662.534 564.665C660.149 564.665 657.766 564.665 655.381 564.665C653.934 568.354 652.265 572.004 650.374 575.615C649.666 578.015 649.427 580.449 649.658 582.915C647.812 582.626 646.381 583.031 645.367 584.131C643.945 572.185 643.468 560.019 643.936 547.633Z" fill="#814D29"/>
<path fill-rule="evenodd" clip-rule="evenodd" d="M67.4116 545.199C68.6107 545.615 69.0877 546.426 68.8422 547.632C68.8422 559.799 68.8422 571.965 68.8422 584.131C244.804 584.131 420.765 584.131 596.727 584.131C596.727 571.153 596.727 558.177 596.727 545.199C597.681 545.199 598.634 545.199 599.588 545.199C599.588 558.177 599.588 571.153 599.588 584.131C598.634 584.131 598.158 584.536 598.158 585.348C421.72 585.348 245.28 585.348 68.8422 585.348C68.3654 585.348 67.8884 585.348 67.4116 585.348C67.4116 571.965 67.4116 558.582 67.4116 545.199Z" fill="#F1BD6C"/>
<path fill-rule="evenodd" clip-rule="evenodd" d="M593.866 545.199C594.82 545.199 595.773 545.199 596.727 545.199C596.727 558.177 596.727 571.153 596.727 584.131C420.766 584.131 244.804 584.131 68.8424 584.131C68.8424 571.965 68.8424 559.799 68.8424 547.632C69.7962 547.632 70.7498 547.632 71.7036 547.632C71.5162 548.532 71.7546 549.343 72.4189 550.066C76.2132 547.53 80.2665 547.125 84.5788 548.849C155.626 548.033 226.679 547.221 297.736 546.416C306.907 548.752 315.967 549.968 324.917 550.066C415.033 548.864 504.684 547.242 593.866 545.199Z" fill="#FECF6D"/>
<path fill-rule="evenodd" clip-rule="evenodd" d="M599.588 584.131C599.588 590.62 599.588 597.109 599.588 603.597C422.196 603.597 244.804 603.597 67.4116 603.597C67.4116 597.514 67.4116 591.431 67.4116 585.348C67.8884 585.348 68.3654 585.348 68.8422 585.348C70.9729 588.152 73.1188 590.991 75.2798 593.864C75.5129 591.217 76.7051 588.987 78.8563 587.173C100.817 586.389 122.754 586.795 144.663 588.39C146.421 589.34 148.328 589.948 150.385 590.214C298.092 590.57 445.918 590.165 593.866 588.998C593.866 591.431 593.866 593.864 593.866 596.298C471.793 596.501 471.793 597.109 593.866 598.123C562.87 598.528 531.875 598.934 500.878 599.339C532.44 599.155 563.673 600.17 594.581 602.381C597.136 600.815 597.375 598.99 595.297 596.906C596.822 593.142 597.774 589.29 598.158 585.348C598.158 584.536 598.634 584.131 599.588 584.131Z" fill="#D49552"/>
<path fill-rule="evenodd" clip-rule="evenodd" d="M140.371 592.647C150.351 593.685 160.365 594.497 170.413 595.081C235.237 594.554 300.09 594.148 364.973 593.864C405.962 594.121 446.494 594.729 486.572 595.689C485.346 596.527 484.393 597.541 483.711 598.731C463.444 599.136 443.178 599.542 422.911 599.947C333.411 599.863 243.523 599.66 153.246 599.339C145.677 597.223 138.285 597.426 131.072 599.947C125.51 599.901 124.795 598.482 128.927 595.689C133.157 595.35 136.971 594.335 140.371 592.647Z" fill="#D2974F"/>
<path fill-rule="evenodd" clip-rule="evenodd" d="M68.8424 585.348C245.28 585.348 421.72 585.348 598.158 585.348C597.774 589.29 596.822 593.142 595.297 596.906C597.375 598.99 597.136 600.815 594.581 602.381C563.674 600.17 532.44 599.155 500.878 599.339C531.875 598.934 562.87 598.528 593.866 598.122C471.793 597.109 471.793 596.501 593.866 596.298C593.866 593.864 593.866 591.431 593.866 588.998C445.918 590.165 298.092 590.57 150.386 590.214C148.328 589.948 146.421 589.34 144.663 588.389C122.754 586.794 100.817 586.389 78.8565 587.173C76.7053 588.987 75.5131 591.217 75.28 593.864C73.119 590.991 70.9731 588.152 68.8424 585.348Z" fill="#D2994F"/>
<path fill-rule="evenodd" clip-rule="evenodd" d="M621.047 603.597C628.676 603.597 636.307 603.597 643.936 603.597C637.062 604.798 629.909 605.205 622.478 604.814C622.937 611.134 622.459 617.218 621.047 623.063C429.349 623.063 237.651 623.063 45.9529 623.063C45.9529 622.658 45.9529 622.252 45.9529 621.847C237.651 621.847 429.349 621.847 621.047 621.847C621.047 615.764 621.047 609.681 621.047 603.597Z" fill="#B39080"/>
<path fill-rule="evenodd" clip-rule="evenodd" d="M45.9529 603.597C46.4297 603.597 46.9067 603.597 47.3835 603.597C47.3835 609.275 47.3835 614.952 47.3835 620.63C50.7214 620.63 54.0596 620.63 57.3975 620.63C244.804 620.63 432.21 620.63 619.616 620.63C619.616 616.169 619.616 611.709 619.616 607.247C619.616 606.031 619.616 604.814 619.616 603.597C620.093 603.597 620.571 603.597 621.047 603.597C621.047 609.681 621.047 615.764 621.047 621.847C429.349 621.847 237.651 621.847 45.9529 621.847C45.9529 615.764 45.9529 609.681 45.9529 603.597Z" fill="#592A13"/>
<path fill-rule="evenodd" clip-rule="evenodd" d="M619.616 607.247C619.616 611.709 619.616 616.169 619.616 620.63C432.21 620.63 244.804 620.63 57.3975 620.63C196.878 619.412 336.599 618.601 476.558 618.197C523.63 618.199 570.6 618.605 617.47 619.414C617.727 615.125 618.442 611.069 619.616 607.247Z" fill="#754527"/>
<path fill-rule="evenodd" clip-rule="evenodd" d="M47.3837 603.597C49.5281 605.622 50.9587 608.055 51.6754 610.897C49.4869 613.693 49.9637 615.923 53.106 617.589C65.8478 617.646 78.723 617.849 91.7317 618.197C101.269 617.994 110.806 617.792 120.343 617.589C114.621 617.183 108.899 616.777 103.176 616.372C175.182 615.967 247.189 615.56 319.194 615.155C253.864 614.75 188.535 614.344 123.205 613.939C117.385 612.086 111.902 612.289 106.753 614.547C101.551 612.608 96.0671 611.593 90.3011 611.505C96.6751 611.184 102.875 610.17 108.899 608.464C192.405 608.01 275.855 606.793 359.251 604.814C364.538 605.158 369.784 605.767 374.987 606.639C434.554 606.775 493.923 606.978 553.095 607.247C574.314 606.842 595.536 606.436 616.755 606.031C617.263 604.787 618.218 603.976 619.617 603.597C619.617 604.814 619.617 606.031 619.617 607.247C618.442 611.069 617.727 615.125 617.471 619.414C570.601 618.604 523.63 618.199 476.558 618.197C336.599 618.601 196.878 619.412 57.3977 620.63C54.0598 620.63 50.7216 620.63 47.3837 620.63C47.3837 614.952 47.3837 609.275 47.3837 603.597Z" fill="#76421C"/>
</svg>
