<svg width="442" height="565" viewBox="0 0 442 565" fill="none" xmlns="http://www.w3.org/2000/svg">
<path d="M182.055 2.75129C182.907 2.75184 183.759 2.75238 184.637 2.75294C185.615 2.74875 186.592 2.74456 187.599 2.74023C188.675 2.74585 189.751 2.75147 190.86 2.75726C191.99 2.75536 193.12 2.75347 194.284 2.75151C198.034 2.74779 201.785 2.75852 205.535 2.76971C208.131 2.77091 210.726 2.77136 213.322 2.7711C218.767 2.77267 224.211 2.78073 229.656 2.79437C235.959 2.81011 242.262 2.81537 248.565 2.81464C254.62 2.81403 260.675 2.81923 266.73 2.82743C269.311 2.83062 271.892 2.83258 274.473 2.83332C278.072 2.83548 281.671 2.84421 285.27 2.85492C286.348 2.85447 287.426 2.85401 288.536 2.85355C289.998 2.85994 289.998 2.85994 291.489 2.86647C292.767 2.86898 292.767 2.86898 294.071 2.87155C296 3.00018 296 3.00018 297 4.00018C297.072 5.68627 297.084 7.37519 297.062 9.06268C297.053 9.98178 297.044 10.9009 297.035 11.8478C297.018 12.9132 297.018 12.9132 297 14.0002C297.601 13.9949 298.201 13.9897 298.82 13.9843C301.526 13.9636 304.232 13.9505 306.937 13.9377C308.356 13.9251 308.356 13.9251 309.803 13.9123C311.151 13.9075 311.151 13.9075 312.527 13.9025C313.776 13.8947 313.776 13.8947 315.05 13.8867C317 14.0002 317 14.0002 318 15.0002C318.072 16.5195 318.084 18.0419 318.062 19.5627C318.053 20.389 318.044 21.2153 318.035 22.0666C318.018 23.0237 318.018 23.0237 318 24.0002C318.565 23.9949 319.13 23.9897 319.712 23.9843C322.267 23.9636 324.821 23.9505 327.375 23.9377C328.709 23.9251 328.709 23.9251 330.07 23.9123C330.921 23.9091 331.772 23.9058 332.648 23.9025C333.434 23.8973 334.219 23.8921 335.029 23.8867C337 24.0002 337 24.0002 339 25.0002C339 28.3002 339 31.6002 339 35.0002C341.166 34.9692 341.166 34.9692 343.375 34.9377C347.75 34.8752 347.75 34.8752 350 36.0002C350 39.3002 350 42.6002 350 46.0002C353.3 46.0002 356.6 46.0002 360 46.0002C360 49.6302 360 53.2602 360 57.0002C363.63 57.0002 367.26 57.0002 371 57.0002C371 60.3002 371 63.6002 371 67.0002C373.196 66.9692 373.196 66.9692 375.437 66.9377C376.958 66.9163 378.481 66.9284 380 67.0002C381 68.0002 381 68.0002 381.113 70.0414C381.108 70.916 381.103 71.7905 381.098 72.6916C381.094 73.6358 381.091 74.5801 381.088 75.5529C381.079 76.5461 381.071 77.5394 381.062 78.5627C381.058 79.5598 381.053 80.5569 381.049 81.5842C381.037 84.0562 381.019 86.5282 381 89.0002C384.63 89.0002 388.26 89.0002 392 89.0002C392 92.3002 392 95.6002 392 99.0002C395.3 99.0002 398.6 99.0002 402 99.0002C402 102.63 402 106.26 402 110C405.63 110 409.26 110 413 110C413 116.93 413 123.86 413 131C416.3 131 419.6 131 423 131C423 137.93 423 144.86 423 152C426.63 152 430.26 152 434 152C434 162.89 434 173.78 434 185C430.37 185 426.74 185 423 185C423 191.93 423 198.86 423 206C419.7 206 416.4 206 413 206C413 262.1 413 318.2 413 376C409.37 376 405.74 376 402 376C402 396.79 402 417.58 402 439C398.7 439 395.4 439 392 439C392 456.49 392 473.98 392 492C388.37 492 384.74 492 381 492C381.012 493.505 381.023 495.009 381.035 496.559C381.044 498.518 381.054 500.478 381.062 502.438C381.071 503.431 381.079 504.424 381.088 505.447C381.093 506.864 381.093 506.864 381.098 508.309C381.105 509.621 381.105 509.621 381.113 510.959C381 513 381 513 380 514C378.481 514.072 376.958 514.084 375.437 514.063C374.611 514.054 373.785 514.045 372.934 514.035C372.295 514.024 371.657 514.012 371 514C371.012 514.638 371.023 515.276 371.035 515.934C371.049 517.173 371.049 517.173 371.062 518.438C371.074 519.261 371.086 520.085 371.098 520.934C371 523 371 523 370 524C368.314 524.072 366.625 524.084 364.937 524.063C364.018 524.054 363.099 524.045 362.152 524.035C361.442 524.024 360.732 524.012 360 524C360.012 524.71 360.023 525.421 360.035 526.153C360.044 527.072 360.053 527.991 360.062 528.938C360.074 529.854 360.086 530.771 360.098 531.715C360 534 360 534 359 535C357.006 535.094 355.008 535.118 353.011 535.114C351.73 535.114 350.449 535.114 349.129 535.113C347.72 535.108 346.311 535.103 344.902 535.098C343.469 535.096 342.035 535.095 340.602 535.094C336.822 535.09 333.043 535.08 329.263 535.069C325.409 535.059 321.555 535.054 317.701 535.049C310.134 535.038 302.567 535.021 295 535C295 531.37 295 527.74 295 524C291.7 524 288.4 524 285 524C285 520.7 285 517.4 285 514C283.371 514.021 281.741 514.041 280.062 514.063C278.375 514.084 276.686 514.072 275 514C274 513 274 513 273.88 510.488C273.882 509.371 273.884 508.254 273.886 507.103C273.886 505.842 273.887 504.581 273.887 503.282C273.892 501.895 273.897 500.508 273.902 499.121C273.904 497.71 273.906 496.299 273.907 494.888C273.91 491.168 273.92 487.447 273.931 483.727C273.941 479.933 273.946 476.14 273.951 472.346C273.962 464.897 273.979 457.449 274 450C267.73 450 261.46 450 255 450C255.01 451.868 255.021 453.736 255.032 455.66C255.064 461.823 255.087 467.985 255.104 474.148C255.114 477.885 255.128 481.623 255.151 485.36C255.172 488.965 255.184 492.57 255.19 496.175C255.193 497.552 255.201 498.929 255.211 500.307C255.226 502.232 255.227 504.157 255.227 506.082C255.231 507.179 255.236 508.276 255.24 509.406C255 512 255 512 253 514C250.836 514.195 250.836 514.195 248.375 514.125C247.558 514.107 246.74 514.089 245.898 514.07C245.272 514.047 244.645 514.024 244 514C244.012 515.181 244.023 516.362 244.035 517.578C244.044 519.136 244.054 520.693 244.062 522.25C244.071 523.027 244.079 523.805 244.088 524.606C244.091 525.36 244.094 526.114 244.098 526.891C244.103 527.582 244.108 528.273 244.113 528.986C244 531 244 531 243 535C240.03 535 237.06 535 234 535C233.67 538.3 233.34 541.6 233 545C226.07 545 219.14 545 212 545C212 548.63 212 552.26 212 556C203.673 556.023 195.345 556.041 187.018 556.052C183.152 556.057 179.285 556.064 175.419 556.076C171.691 556.086 167.963 556.092 164.234 556.095C162.809 556.097 161.384 556.101 159.958 556.106C157.968 556.113 155.978 556.114 153.988 556.114C152.854 556.116 151.719 556.118 150.55 556.12C148 556 148 556 147 555C146.928 553.314 146.916 551.625 146.937 549.938C146.946 549.019 146.955 548.099 146.965 547.153C146.976 546.442 146.988 545.732 147 545C146.399 545.005 145.799 545.011 145.18 545.016C142.474 545.037 139.768 545.05 137.062 545.063C136.117 545.071 135.171 545.079 134.197 545.088C133.298 545.091 132.399 545.095 131.473 545.098C130.64 545.103 129.807 545.108 128.949 545.114C127 545 127 545 126 544C125.928 542.481 125.916 540.958 125.937 539.438C125.946 538.611 125.955 537.785 125.965 536.934C125.976 536.296 125.988 535.658 126 535C125.399 535.005 124.799 535.011 124.18 535.016C121.474 535.037 118.768 535.05 116.062 535.063C115.117 535.071 114.171 535.079 113.197 535.088C112.298 535.091 111.399 535.095 110.473 535.098C109.64 535.103 108.807 535.108 107.949 535.114C106 535 106 535 105 534C104.911 530.898 104.885 527.818 104.902 524.715C104.904 523.784 104.905 522.853 104.907 521.894C104.912 518.909 104.925 515.923 104.937 512.938C104.942 510.919 104.947 508.9 104.951 506.881C104.962 501.921 104.979 496.96 105 492C101.37 492 97.7399 492 93.9999 492C93.9999 474.51 93.9999 457.02 93.9999 439C76.8399 439 59.6799 439 41.9999 439C41.9999 435.7 41.9999 432.4 41.9999 429C38.3699 429 34.7399 429 30.9999 429C30.9999 425.37 30.9999 421.74 30.9999 418C27.6999 418 24.3999 418 20.9999 418C20.9999 407.44 20.9999 396.88 20.9999 386C17.3699 386 13.7399 386 9.99991 386C9.18073 381.904 8.8743 378.679 8.87292 374.559C8.8701 373.258 8.86728 371.957 8.86438 370.616C8.86632 369.181 8.86837 367.747 8.87051 366.312C8.86916 364.795 8.86738 363.279 8.8652 361.763C8.86065 357.651 8.86241 353.54 8.86558 349.429C8.86812 345.129 8.86577 340.83 8.8642 336.53C8.86238 329.314 8.86477 322.098 8.86954 314.882C8.87499 306.529 8.8732 298.176 8.86771 289.823C8.86317 282.656 8.86252 275.489 8.86514 268.322C8.8667 264.039 8.86691 259.756 8.86362 255.473C8.86074 251.451 8.8627 247.43 8.8685 243.408C8.86983 241.928 8.86944 240.448 8.86725 238.968C8.86454 236.956 8.86853 234.945 8.87292 232.933C8.8733 231.805 8.87368 230.677 8.87407 229.514C8.99991 227 8.99991 227 9.99991 226C11.8528 225.928 13.7082 225.916 15.5624 225.938C16.5743 225.947 17.5862 225.956 18.6288 225.965C19.8025 225.982 19.8025 225.982 20.9999 226C20.8375 224.819 20.6751 223.639 20.5077 222.422C19.7639 215.71 19.8546 208.996 19.8749 202.25C19.871 200.95 19.8672 199.649 19.8632 198.309C19.8645 197.057 19.8658 195.805 19.8671 194.516C19.8682 193.384 19.8694 192.253 19.8705 191.087C19.9885 188.273 20.3569 185.737 20.9999 183C24.2999 183 27.5999 183 30.9999 183C30.9999 179.7 30.9999 176.4 30.9999 173C34.6299 173 38.2599 173 41.9999 173C41.9999 169.37 41.9999 165.74 41.9999 162C55.8599 162 69.7199 162 83.9999 162C83.9999 158.7 83.9999 155.4 83.9999 152C87.2999 152 90.5999 152 93.9999 152C93.9999 141.44 93.9999 130.88 93.9999 120C97.6299 120 101.26 120 105 120C105 109.77 105 99.5402 105 89.0002C108.3 89.0002 111.6 89.0002 115 89.0002C115 82.0702 115 75.1402 115 68.0002C117 67.0002 117 67.0002 126 67.0002C126 60.0702 126 53.1402 126 46.0002C129.3 46.0002 132.6 46.0002 136 46.0002C136 42.7002 136 39.4002 136 36.0002C138.405 34.7975 139.95 34.8995 142.625 34.9377C143.851 34.9512 143.851 34.9512 145.101 34.965C145.728 34.9766 146.354 34.9882 147 35.0002C146.988 34.2899 146.977 33.5796 146.965 32.8478C146.956 31.9287 146.947 31.0096 146.937 30.0627C146.926 29.1462 146.914 28.2296 146.902 27.2853C147 25.0002 147 25.0002 148 24.0002C149.519 23.9284 151.042 23.9163 152.562 23.9377C153.389 23.9467 154.215 23.9557 155.066 23.965C156.023 23.9824 156.023 23.9824 157 24.0002C156.988 23.3621 156.977 22.724 156.965 22.0666C156.956 21.2403 156.947 20.414 156.937 19.5627C156.926 18.739 156.914 17.9153 156.902 17.0666C157 15.0002 157 15.0002 158 14.0002C159.489 13.9135 160.981 13.8931 162.473 13.9025C163.372 13.9057 164.271 13.909 165.197 13.9123C166.143 13.9207 167.088 13.9291 168.062 13.9377C169.486 13.9445 169.486 13.9445 170.939 13.9514C173.293 13.9632 175.646 13.9797 178 14.0002C177.977 13.3737 177.954 12.7472 177.93 12.1017C177.912 11.2845 177.894 10.4672 177.875 9.62518C177.852 8.81307 177.829 8.00096 177.805 7.16425C178.077 4.15045 179.036 3.11688 182.055 2.75129Z" fill="#040504"/>
<path d="M201 26C225.42 26 249.84 26 275 26C275 29.3 275 32.6 275 36C281.93 36 288.86 36 296 36C296 39.63 296 43.26 296 47C302.93 47 309.86 47 317 47C317 50.3 317 53.6 317 57C320.63 57 324.26 57 328 57C328 60.63 328 64.26 328 68C331.3 68 334.6 68 338 68C338 71.63 338 75.26 338 79C303.02 79 268.04 79 232 79C232 82.3 232 85.6 232 89C221.77 89 211.54 89 201 89C201 92.63 201 96.26 201 100C197.37 100 193.74 100 190 100C190 106.93 190 113.86 190 121C186.7 121 183.4 121 180 121C180 138.49 180 155.98 180 174C183.3 174 186.6 174 190 174C190 184.56 190 195.12 190 206C193.63 206 197.26 206 201 206C201 212.93 201 219.86 201 227C204.3 227 207.6 227 211 227C211 230.3 211 233.6 211 237C218.26 237 225.52 237 233 237C233 240.63 233 244.26 233 248C239.6 248 246.2 248 253 248C253 251.63 253 255.26 253 259C270.82 259 288.64 259 307 259C307 255.37 307 251.74 307 248C324.16 248 341.32 248 359 248C359 244.37 359 240.74 359 237C366.26 237 373.52 237 381 237C381 289.47 381 341.94 381 396C377.37 396 373.74 396 370 396C370 409.86 370 423.72 370 438C366.37 438 362.74 438 359 438C359 459.12 359 480.24 359 502C338.21 502 317.42 502 296 502C296 484.51 296 467.02 296 449C299.63 449 303.26 449 307 449C307 445.7 307 442.4 307 439C313.93 439 320.86 439 328 439C328 435.37 328 431.74 328 428C331.3 428 334.6 428 338 428C338 424.37 338 420.74 338 417C299.72 417 261.44 417 222 417C222 448.35 222 479.7 222 512C218.37 512 214.74 512 211 512C211 515.63 211 519.26 211 523C182.95 523 154.9 523 126 523C126 495.28 126 467.56 126 439C122.7 439 119.4 439 116 439C116 334.06 116 229.12 116 121C119.63 121 123.26 121 127 121C127 114.07 127 107.14 127 100C130.3 100 133.6 100 137 100C137 93.07 137 86.14 137 79C140.63 79 144.26 79 148 79C148 75.37 148 71.74 148 68C151.63 68 155.26 68 159 68C159 61.07 159 54.14 159 47C162.3 47 165.6 47 169 47C169 43.37 169 39.74 169 36C179.56 36 190.12 36 201 36C201 32.7 201 29.4 201 26Z" fill="#EDCE05"/>
<path d="M201 26C225.42 26 249.84 26 275 26C275 29.3 275 32.6 275 36C281.93 36 288.86 36 296 36C296 39.63 296 43.26 296 47C302.93 47 309.86 47 317 47C317 50.3 317 53.6 317 57C320.63 57 324.26 57 328 57C328 60.63 328 64.26 328 68C331.3 68 334.6 68 338 68C338 71.63 338 75.26 338 79C303.02 79 268.04 79 232 79C232 82.3 232 85.6 232 89C221.77 89 211.54 89 201 89C201 92.63 201 96.26 201 100C197.37 100 193.74 100 190 100C190 106.93 190 113.86 190 121C186.7 121 183.4 121 180 121C180 138.49 180 155.98 180 174C183.3 174 186.6 174 190 174C190 184.56 190 195.12 190 206C193.63 206 197.26 206 201 206C201 212.93 201 219.86 201 227C204.3 227 207.6 227 211 227C211 230.3 211 233.6 211 237C218.26 237 225.52 237 233 237C233 240.63 233 244.26 233 248C239.6 248 246.2 248 253 248C253 251.63 253 255.26 253 259C270.82 259 288.64 259 307 259C307 255.37 307 251.74 307 248C324.49 248 341.98 248 360 248C360 244.7 360 241.4 360 238C366.6 238 373.2 238 380 238C380 244.93 380 251.86 380 259C376.7 259 373.4 259 370 259C370 276.49 370 293.98 370 312C366.37 312 362.74 312 359 312C359 322.23 359 332.46 359 343C355.37 343 351.74 343 348 343C348 346.3 348 349.6 348 353C341.07 353 334.14 353 327 353C327 356.63 327 360.26 327 364C292.35 364 257.7 364 222 364C222 360.7 222 357.4 222 354C211.44 354 200.88 354 190 354C190 350.37 190 346.74 190 343C186.37 343 182.74 343 179 343C179 339.7 179 336.4 179 333C175.7 333 172.4 333 169 333C169 326.07 169 319.14 169 312C165.7 312 162.4 312 159 312C158 311 158 311 157.886 307.031C157.887 305.259 157.892 303.487 157.902 301.715C157.904 300.784 157.905 299.853 157.907 298.894C157.912 295.909 157.925 292.923 157.938 289.938C157.943 287.919 157.947 285.9 157.951 283.881C157.962 278.921 157.979 273.96 158 269C154.7 269 151.4 269 148 269C148 248.21 148 227.42 148 206C144.37 206 140.74 206 137 206C137 174.32 137 142.64 137 110C140.63 110 144.26 110 148 110C148 96.14 148 82.28 148 68C151.63 68 155.26 68 159 68C159 61.07 159 54.14 159 47C162.3 47 165.6 47 169 47C169 43.37 169 39.74 169 36C179.56 36 190.12 36 201 36C201 32.7 201 29.4 201 26Z" fill="#FFE712"/>
<path d="M53 184C66.86 184 80.72 184 95 184C95 260.89 95 337.78 95 417C88.07 417 81.14 417 74 417C74 413.7 74 410.4 74 407C67.07 407 60.14 407 53 407C53 403.37 53 399.74 53 396C49.37 396 45.74 396 42 396C42 333.3 42 270.6 42 206C45.63 206 49.26 206 53 206C53 198.74 53 191.48 53 184Z" fill="#EDCE05"/>
<path d="M276 101C296.13 101 316.26 101 337 101C337.495 105.455 337.495 105.455 338 110C348.23 110.33 358.46 110.66 369 111C369 114.3 369 117.6 369 121C372.63 121 376.26 121 380 121C380 124.3 380 127.6 380 131C383.63 131 387.26 131 391 131C391 134.96 391 138.92 391 143C394.3 143 397.6 143 401 143C401 149.6 401 156.2 401 163C397.7 163 394.4 163 391 163C391 166.63 391 170.26 391 174C376.81 174 362.62 174 348 174C348 177.3 348 180.6 348 184C323.91 184 299.82 184 275 184C275 180.7 275 177.4 275 174C267.74 174 260.48 174 253 174C253 170.7 253 167.4 253 164C249.7 164 246.4 164 243 164C243 160.04 243 156.08 243 152C239.7 152 236.4 152 233 152C233 138.47 233 124.94 233 111C246.86 110.67 260.72 110.34 275 110C275.33 107.03 275.66 104.06 276 101Z" fill="#C3C3C3"/>
<path d="M274 100C295.45 100 316.9 100 339 100C339 103.3 339 106.6 339 110C349.23 110 359.46 110 370 110C370 113.63 370 117.26 370 121C369.67 121 369.34 121 369 121C369 117.7 369 114.4 369 111C368.066 111.005 367.132 111.01 366.17 111.016C362.717 111.033 359.264 111.045 355.81 111.055C354.314 111.06 352.817 111.067 351.32 111.075C349.173 111.088 347.026 111.093 344.879 111.098C342.939 111.106 342.939 111.106 340.959 111.114C338 111 338 111 337 110C337 107.03 337 104.06 337 101C316.87 101 296.74 101 276 101C276 103.97 276 106.94 276 110C275 111 275 111 271.031 111.114C269.259 111.113 267.487 111.108 265.715 111.098C264.784 111.096 263.853 111.095 262.894 111.093C259.909 111.088 256.923 111.075 253.938 111.062C251.919 111.057 249.9 111.053 247.881 111.049C242.921 111.039 237.96 111.019 233 111C233 124.53 233 138.06 233 152C236.3 152 239.6 152 243 152C243 155.96 243 159.92 243 164C246.3 164 249.6 164 253 164C253 167.3 253 170.6 253 174C260.26 174 267.52 174 275 174C275 177.3 275 180.6 275 184C299.09 184 323.18 184 348 184C348 180.7 348 177.4 348 174C362.19 174 376.38 174 391 174C391 170.37 391 166.74 391 163C394.3 163 397.6 163 401 163C401 156.4 401 149.8 401 143C397.7 143 394.4 143 391 143C391 142.67 391 142.34 391 142C394.63 142 398.26 142 402 142C402 156.19 402 170.38 402 185C398.37 185 394.74 185 391 185C391 188.3 391 191.6 391 195C387.7 195 384.4 195 381 195C381 198.63 381 202.26 381 206C374.07 206 367.14 206 360 206C360 209.63 360 213.26 360 217C349.44 217 338.88 217 328 217C328 220.3 328 223.6 328 227C306.88 227 285.76 227 264 227C264 223.37 264 219.74 264 216C257.07 216 250.14 216 243 216C243 212.7 243 209.4 243 206C239.37 206 235.74 206 232 206C232 202.37 232 198.74 232 195C228.7 195 225.4 195 222 195C222 191.7 222 188.4 222 185C218.37 185 214.74 185 211 185C211 167.18 211 149.36 211 131C214.63 131 218.26 131 222 131C222 127.7 222 124.4 222 121C225.3 121 228.6 121 232 121C232 117.37 232 113.74 232 110C245.86 110 259.72 110 274 110C274 106.7 274 103.4 274 100Z" fill="#545454"/>
<path d="M285 110C341.878 109.794 341.878 109.794 369 111C369 114.3 369 117.6 369 121C372.63 121 376.26 121 380 121C380.495 131.395 380.495 131.395 381 142C377.37 142 373.74 142 370 142C370 145.63 370 149.26 370 153C345.58 153 321.16 153 296 153C296 149.37 296 145.74 296 142C292.7 142 289.4 142 286 142C286 138.7 286 135.4 286 132C282.37 132 278.74 132 275 132C275 128.37 275 124.74 275 121C278.3 121 281.6 121 285 121C285 117.37 285 113.74 285 110Z" fill="#FDFDFD"/>
<path d="M53 185C66.53 185 80.06 185 94 185C94 198.53 94 212.06 94 226C80.47 226.33 66.94 226.66 53 227C52.67 230.3 52.34 233.6 52 237C49.03 237 46.06 237 43 237C43 226.77 43 216.54 43 206C46.3 206 49.6 206 53 206C53 199.07 53 192.14 53 185Z" fill="#FFE712"/>
<path d="M296 47C302.93 47 309.86 47 317 47C317 50.3 317 53.6 317 57C320.63 57 324.26 57 328 57C328 60.63 328 64.26 328 68C331.3 68 334.6 68 338 68C338 71.63 338 75.26 338 79C303.02 79 268.04 79 232 79C232 82.3 232 85.6 232 89C222.1 89 212.2 89 202 89C202 88.67 202 88.34 202 88C202.813 87.9749 203.625 87.9499 204.463 87.9241C208.121 87.8085 211.779 87.6856 215.438 87.5625C216.717 87.5232 217.996 87.4839 219.314 87.4434C220.529 87.4015 221.744 87.3596 222.996 87.3164C224.685 87.2614 224.685 87.2614 226.408 87.2053C228.929 87.2878 228.929 87.2878 230 86C230.071 84.6476 230.084 83.2917 230.062 81.9375C230.042 80.6381 230.021 79.3387 230 78C232.312 76.844 233.617 76.8766 236.189 76.8797C237.505 76.8777 237.505 76.8777 238.849 76.8756C239.814 76.8792 240.779 76.8828 241.774 76.8865C243.296 76.8863 243.296 76.8863 244.849 76.886C248.214 76.8867 251.58 76.8945 254.945 76.9023C257.274 76.9042 259.603 76.9056 261.932 76.9066C268.071 76.9105 274.209 76.9203 280.348 76.9313C286.608 76.9416 292.869 76.9461 299.129 76.9512C311.419 76.9619 323.71 76.979 336 77C336.33 74.36 336.66 71.72 337 69C333.7 69 330.4 69 327 69C327 65.7 327 62.4 327 59C323.37 59 319.74 59 316 59C316 55.37 316 51.74 316 48C309.4 48 302.8 48 296 48C296 47.67 296 47.34 296 47Z" fill="#33580B"/>
<path d="M338 111C348.23 111 358.46 111 369 111C369 114.3 369 117.6 369 121C358.77 121 348.54 121 338 121C338 117.7 338 114.4 338 111Z" fill="#C5C5C5"/>
<path d="M200 206C200.33 206 200.66 206 201 206C201 212.93 201 219.86 201 227C204.3 227 207.6 227 211 227C211 230.3 211 233.6 211 237C218.26 237 225.52 237 233 237C233 240.63 233 244.26 233 248C239.6 248 246.2 248 253 248C253 251.63 253 255.26 253 259C270.82 259 288.64 259 307 259C307 255.37 307 251.74 307 248C324.16 248 341.32 248 359 248C359 248.33 359 248.66 359 249C342.17 249 325.34 249 308 249C308.495 253.95 308.495 253.95 309 259C305.428 260.621 302.665 261.246 298.751 261.227C297.73 261.227 296.709 261.227 295.658 261.227C294.568 261.216 293.478 261.206 292.355 261.195C291.231 261.192 290.106 261.19 288.947 261.187C285.36 261.176 281.774 261.15 278.188 261.125C275.753 261.115 273.319 261.106 270.885 261.098C264.923 261.076 258.962 261.042 253 261C250.981 256.538 251.053 253.828 252 249C251.399 249.005 250.799 249.01 250.18 249.016C247.474 249.037 244.768 249.05 242.062 249.062C241.117 249.071 240.171 249.079 239.197 249.088C237.849 249.093 237.849 249.093 236.473 249.098C235.224 249.106 235.224 249.106 233.949 249.114C232 249 232 249 231 248C230.67 245.36 230.34 242.72 230 240C223.4 239.67 216.8 239.34 210 239C210 235.37 210 231.74 210 228C206.7 228 203.4 228 200 228C200 220.74 200 213.48 200 206Z" fill="#3A660D"/>
<path d="M127 438C127.33 438 127.66 438 128 438C128.33 465.39 128.66 492.78 129 521C155.07 521 181.14 521 208 521C208.66 518.36 209.32 515.72 210 513C210.33 513 210.66 513 211 513C211 516.3 211 519.6 211 523C183.28 523 155.56 523 127 523C127 494.95 127 466.9 127 438Z" fill="#213609"/>
<path d="M53 185C66.53 185 80.06 185 94 185C94 198.53 94 212.06 94 226C93.67 226 93.34 226 93 226C92.67 213.13 92.34 200.26 92 187C79.79 187 67.58 187 55 187C55 191.29 55 195.58 55 200C54.67 201.98 54.34 203.96 54 206C53.67 206 53.34 206 53 206C53 199.07 53 192.14 53 185Z" fill="#3D6B0E"/>
<path d="M201 26C225.42 26 249.84 26 275 26C275 29.3 275 32.6 275 36C274.34 36 273.68 36 273 36C272.505 32.04 272.505 32.04 272 28C249.89 28 227.78 28 205 28C204.01 30.64 203.02 33.28 202 36C201.67 36 201.34 36 201 36C201 32.7 201 29.4 201 26Z" fill="#3B660F"/>
<path d="M200 206C200.33 206 200.66 206 201 206C201 212.93 201 219.86 201 227C204.3 227 207.6 227 211 227C211 230.3 211 233.6 211 237C218.26 237 225.52 237 233 237C233 240.63 233 244.26 233 248C232.34 248 231.68 248 231 248C230.67 245.36 230.34 242.72 230 240C223.4 239.67 216.8 239.34 210 239C210 235.37 210 231.74 210 228C206.7 228 203.4 228 200 228C200 220.74 200 213.48 200 206Z" fill="#30540C"/>
<path d="M370 121C373.3 121 376.6 121 380 121C380 124.3 380 127.6 380 131C376.7 131 373.4 131 370 131C370 127.7 370 124.4 370 121Z" fill="#BEBEBE"/>
<path d="M360 238C366.6 238 373.2 238 380 238C380 244.6 380 251.2 380 258C379.67 258 379.34 258 379 258C379 251.73 379 245.46 379 239C376.381 239.144 373.761 239.289 371.062 239.438C369.823 239.502 369.823 239.502 368.559 239.568C364.98 239.462 364.98 239.462 362 241C361.632 243.328 361.298 245.662 361 248C360.67 248 360.34 248 360 248C360 244.7 360 241.4 360 238Z" fill="#3D690F"/>
<path d="M358 313C358.33 313 358.66 313 359 313C359 322.9 359 332.8 359 343C357.35 343 355.7 343 354 343C354.727 342.449 354.727 342.449 355.468 341.887C357.64 339.212 357.432 337.217 357.512 333.801C357.547 332.592 357.583 331.384 357.619 330.139C357.642 328.876 357.664 327.613 357.688 326.312C357.722 325.038 357.756 323.764 357.791 322.451C357.874 319.301 357.943 316.151 358 313Z" fill="#386A07"/>
<path d="M43 206C46.3 206 49.6 206 53 206C53 206.33 53 206.66 53 207C51.2984 207.217 51.2984 207.217 49.5625 207.438C46.1922 207.612 46.1922 207.612 45 209C44.8442 210.34 44.7496 211.688 44.6836 213.035C44.6417 213.844 44.5998 214.653 44.5566 215.486C44.5173 216.336 44.478 217.187 44.4375 218.062C44.3943 218.917 44.3511 219.771 44.3066 220.65C44.2002 222.767 44.0996 224.883 44 227C43.67 227 43.34 227 43 227C43 220.07 43 213.14 43 206Z" fill="#3D6D0C"/>
<path d="M142.625 34.9374C143.851 34.9509 143.851 34.9509 145.102 34.9647C146.041 34.9821 146.041 34.9821 147 34.9999C147 35.3299 147 35.6599 147 35.9999C144.36 36.3299 141.72 36.6599 139 36.9999C138.34 40.2999 137.68 43.5999 137 46.9999C136.67 46.9999 136.34 46.9999 136 46.9999C136 43.3699 136 39.7399 136 35.9999C138.405 34.7972 139.95 34.8992 142.625 34.9374Z" fill="#7E7D7E"/>
<path d="M180 162C180.33 162 180.66 162 181 162C181 164.64 181 167.28 181 170C181.66 170 182.32 170 183 170C183 170.99 183 171.98 183 173C185.31 173 187.62 173 190 173C190 173.33 190 173.66 190 174C186.7 174 183.4 174 180 174C180 170.04 180 166.08 180 162Z" fill="#041200"/>
</svg>
