<svg width="602" height="41" viewBox="0 0 602 41" fill="none" xmlns="http://www.w3.org/2000/svg">
<path d="M14.9208 40.934C10.3037 40.934 6.66262 38.9633 3.9975 35.022C1.33238 31.0806 -0.000186761 26.2195 -0.000186761 20.4388C-0.000186761 14.6582 1.48252 9.85342 4.44794 6.02466C7.41336 2.15835 11.4486 0.225193 16.5536 0.225193C19.5941 0.225193 22.2592 0.844554 24.549 2.08328C24.6991 2.15835 24.8493 2.19588 24.9994 2.19588C25.1496 2.19588 25.2434 1.98943 25.281 1.57653L25.3936 0.225193C25.5437 0.0750472 25.8815 -2.57744e-05 26.4071 -2.57744e-05C26.9326 -2.57744e-05 27.308 0.0750472 27.5332 0.225193L28.3214 11.993C28.1713 12.1432 27.7959 12.2183 27.1953 12.2183C26.6323 12.2183 26.2945 12.1432 26.1818 11.993C25.844 9.40298 24.7179 7.35722 22.8035 5.85574C20.8891 4.31672 18.6744 3.54721 16.1595 3.54721C12.3682 3.54721 9.55297 4.91731 7.71366 7.65751C5.91188 10.3977 5.011 14.0763 5.011 18.6934C5.011 25.4876 6.7377 30.6489 10.1911 34.1774C12.0304 36.0918 14.0386 37.049 16.2158 37.049C18.4305 37.049 20.7014 36.636 23.0287 35.8102C25.356 34.9844 27.2141 33.9897 28.603 32.826C28.7531 32.9762 28.9408 33.2953 29.166 33.7832C29.4288 34.2337 29.5602 34.534 29.5602 34.6841C29.5602 34.8343 29.5039 34.9656 29.3913 35.0783C25.4874 38.9821 20.6639 40.934 14.9208 40.934ZM37.9105 39.9768L31.3228 40.371C31.2477 40.3334 31.2102 40.0331 31.2102 39.4701C31.2102 38.907 31.3416 38.4941 31.6043 38.2314C32.9932 38.2314 33.9691 37.7997 34.5322 36.9363C34.9826 36.3357 35.5645 35.1346 36.2777 33.3328L49.059 0.78825C49.4344 0.337806 49.9599 0.112584 50.6356 0.112584C50.7482 0.112584 50.9546 0.15012 51.2549 0.225193L64.543 33.3328C65.2187 35.0595 65.9694 36.317 66.7952 37.1053C67.6586 37.856 68.8973 38.2314 70.5114 38.2314C70.7741 38.5692 70.9055 39.0009 70.9055 39.5264C70.9055 40.0144 70.868 40.2959 70.7929 40.371L63.0791 39.9768L54.8585 40.371C54.7834 40.3334 54.7459 40.0331 54.7459 39.4701C54.7459 38.907 54.8772 38.4941 55.14 38.2314C57.9928 38.2314 59.4192 37.3492 59.4192 35.585C59.4192 35.097 59.2503 34.3463 58.9125 33.3328L56.7165 27.4207H42.4713L40.2754 33.3328C39.8624 34.3838 39.656 35.2284 39.656 35.8665C39.656 37.4431 41.2701 38.2314 44.4983 38.2314C44.761 38.5692 44.8924 39.0009 44.8924 39.5264C44.8924 40.0144 44.8549 40.2959 44.7798 40.371L37.9105 39.9768ZM49.7347 6.75663L43.6537 24.2676H55.5341L49.7347 6.75663ZM110.539 40.0331L103.838 40.371C103.726 40.2584 103.67 39.9393 103.67 39.4138C103.67 38.8507 103.782 38.4566 104.007 38.2314C105.134 38.2314 106.053 38.0249 106.766 37.612C107.48 37.1991 107.817 36.4296 107.78 35.3035L106.597 10.5291L94.6044 40.371C94.4542 40.5211 94.0413 40.5962 93.3657 40.5962C92.69 40.5962 92.2959 40.5211 92.1832 40.371L80.4154 10.5291C79.4019 27.1955 78.8952 35.5662 78.8952 35.6413C78.8952 37.368 80.1527 38.2314 82.6676 38.2314C82.9304 38.5692 83.0618 39.0009 83.0618 39.5264C83.0618 40.0144 83.0242 40.2959 82.9492 40.371L76.5303 40.0331L70.8998 40.371C70.7872 40.2584 70.7309 39.9393 70.7309 39.4138C70.7309 38.8507 70.8435 38.4566 71.0687 38.2314C72.3825 38.2314 73.3022 38.0061 73.8277 37.5557C74.3907 37.1053 74.7098 36.3545 74.7849 35.3035L77.2623 5.85574C77.2623 4.57948 77.0746 3.79121 76.6993 3.49091C76.3239 3.15308 75.3855 2.96539 73.884 2.92786C73.6588 2.74017 73.5462 2.3648 73.5462 1.80175C73.5462 1.20115 73.5837 0.863323 73.6588 0.78825C75.2353 1.01347 76.5679 1.12608 77.6564 1.12608C78.745 1.12608 80.1902 1.01347 81.992 0.78825L93.8724 33.1639L106.541 0.78825C108.343 1.01347 109.657 1.12608 110.483 1.12608C111.346 1.12608 112.566 1.01347 114.142 0.78825C114.255 0.90086 114.311 1.23869 114.311 1.80175C114.311 2.3648 114.217 2.74017 114.03 2.92786C112.603 2.92786 111.627 3.15308 111.102 3.60352C110.576 4.05396 110.314 4.69209 110.314 5.51791C110.314 5.63052 111.177 15.559 112.904 35.3035C112.979 36.3545 113.279 37.1053 113.805 37.5557C114.368 38.0061 115.306 38.2314 116.62 38.2314C116.807 38.419 116.901 38.8132 116.901 39.4138C116.901 39.9768 116.864 40.2959 116.789 40.371L110.539 40.0331ZM126.534 1.12608L134.923 0.78825C138.489 0.78825 141.473 1.74544 143.876 3.65983C146.278 5.53667 147.479 8.12672 147.479 11.43C147.479 15.2963 146.015 18.3555 143.087 20.6078C140.197 22.86 136.631 24.0236 132.389 24.0987C132.239 23.9486 132.033 23.6483 131.77 23.1978C131.507 22.7098 131.376 22.3908 131.376 22.2406C131.376 22.0905 131.395 21.9966 131.432 21.9591C138.752 21.9591 142.412 18.7121 142.412 12.2183C142.412 9.2153 141.586 7.03815 139.934 5.68682C138.32 4.33549 135.918 3.65983 132.727 3.65983C131.188 3.65983 129.78 3.79121 128.504 4.05396L129.968 35.3035C130.043 36.3545 130.344 37.1053 130.869 37.5557C131.395 38.0061 132.333 38.2314 133.684 38.2314C133.872 38.419 133.966 38.8132 133.966 39.4138C133.966 39.9768 133.928 40.2959 133.853 40.371L127.66 40.0331L120.903 40.371C120.79 40.2584 120.734 39.9393 120.734 39.4138C120.734 38.8507 120.847 38.4566 121.072 38.2314C123.587 38.2314 124.844 37.2554 124.844 35.3035L125.07 5.79943C125.07 4.78594 124.788 4.05396 124.225 3.60352C123.662 3.15308 122.686 2.92786 121.297 2.92786C121.072 2.74017 120.959 2.3648 120.959 1.80175C120.959 1.20115 120.997 0.863323 121.072 0.78825L126.534 1.12608ZM181.31 1.12608L188.574 0.78825C188.649 0.938396 188.686 1.27623 188.686 1.80175C188.686 2.32726 188.574 2.70263 188.349 2.92786C186.697 2.92786 185.514 3.17185 184.801 3.65983C184.088 4.11027 183.731 4.84224 183.731 5.85574L183.619 26.4072C183.581 30.9492 182.211 34.5152 179.509 37.1053C176.806 39.6578 173.202 40.934 168.698 40.934C164.193 40.934 160.759 39.6578 158.394 37.1053C156.067 34.5527 154.922 30.9867 154.959 26.4072L155.016 5.85574C155.016 4.8047 154.678 4.05396 154.002 3.60352C153.364 3.15308 152.107 2.92786 150.23 2.92786C150.005 2.70263 149.892 2.32726 149.892 1.80175C149.892 1.23869 149.948 0.90086 150.061 0.78825L157.775 1.12608L165.094 0.78825C165.169 0.863323 165.207 1.20115 165.207 1.80175C165.207 2.3648 165.113 2.74017 164.925 2.92786C163.086 2.92786 161.791 3.17185 161.04 3.65983C160.327 4.11027 159.989 4.84224 160.027 5.85574L160.534 25.7879C160.646 29.6542 161.322 32.6008 162.561 34.6278C163.837 36.6173 166.164 37.612 169.543 37.612C172.921 37.612 175.473 36.561 177.2 34.4589C178.964 32.3568 179.828 29.4665 179.79 25.7879L179.565 5.85574C179.565 4.91731 179.077 4.20411 178.101 3.71613C177.163 3.19061 175.943 2.92786 174.441 2.92786C174.216 2.70263 174.103 2.32726 174.103 1.80175C174.103 1.23869 174.16 0.90086 174.272 0.78825L181.31 1.12608ZM211.655 0.450415C211.806 0.300267 212.143 0.225193 212.669 0.225193C213.194 0.225193 213.57 0.300267 213.795 0.450415L214.583 11.993C214.433 12.1432 214.058 12.2183 213.457 12.2183C212.894 12.2183 212.556 12.1432 212.444 11.993C212.143 9.51559 211.58 7.5449 210.755 6.08096C209.741 4.3918 207.864 3.54721 205.124 3.54721C203.059 3.54721 201.389 4.20411 200.113 5.51791C198.874 6.79416 198.255 8.23933 198.255 9.85342C198.255 11.4675 198.893 12.8939 200.169 14.1326C201.445 15.3714 202.984 16.4975 204.786 17.511C206.626 18.4869 208.446 19.5192 210.248 20.6078C212.087 21.6963 213.645 23.0852 214.921 24.7744C216.197 26.4635 216.836 28.4155 216.836 30.6301C216.836 32.8448 216.122 34.778 214.696 36.4296C212.106 39.4325 208.653 40.934 204.336 40.934C201.22 40.934 198.442 40.3147 196.003 39.0759C195.852 39.0009 195.702 38.9633 195.552 38.9633C195.439 38.9633 195.364 39.1323 195.327 39.4701L195.158 40.7088C195.008 40.859 194.632 40.934 194.032 40.934C193.469 40.934 193.131 40.859 193.018 40.7088L192.23 29.1662C192.38 29.016 192.718 28.941 193.244 28.941C193.769 28.941 194.144 29.016 194.37 29.1662C194.708 31.7562 195.89 33.8208 197.917 35.3598C199.944 36.8613 202.29 37.612 204.955 37.612C206.719 37.612 208.296 37.049 209.685 35.9228C211.111 34.7592 211.824 33.1639 211.824 31.1369C211.824 29.8231 211.186 28.6219 209.91 27.5333C208.634 26.4072 207.095 25.3937 205.293 24.4928C203.491 23.5544 201.689 22.5597 199.888 21.5087C198.086 20.4576 196.547 19.05 195.271 17.2857C193.994 15.5215 193.356 13.4945 193.356 11.2048C193.356 7.86396 194.407 5.19884 196.509 3.20938C198.649 1.18239 201.089 0.168888 203.829 0.168888C206.569 0.168888 208.878 0.788248 210.755 2.02697C210.905 2.13958 211.055 2.19588 211.205 2.19588C211.355 2.19588 211.449 2.02697 211.487 1.68914L211.655 0.450415ZM239.048 39.9768L232.461 40.371C232.386 40.3334 232.348 40.0331 232.348 39.4701C232.348 38.907 232.48 38.4941 232.742 38.2314C234.131 38.2314 235.107 37.7997 235.67 36.9363C236.121 36.3357 236.702 35.1346 237.416 33.3328L250.197 0.78825C250.572 0.337806 251.098 0.112584 251.774 0.112584C251.886 0.112584 252.093 0.15012 252.393 0.225193L265.681 33.3328C266.357 35.0595 267.107 36.317 267.933 37.1053C268.797 37.856 270.035 38.2314 271.649 38.2314C271.912 38.5692 272.043 39.0009 272.043 39.5264C272.043 40.0144 272.006 40.2959 271.931 40.371L264.217 39.9768L255.996 40.371C255.921 40.3334 255.884 40.0331 255.884 39.4701C255.884 38.907 256.015 38.4941 256.278 38.2314C259.131 38.2314 260.557 37.3492 260.557 35.585C260.557 35.097 260.388 34.3463 260.05 33.3328L257.855 27.4207H243.609L241.413 33.3328C241 34.3838 240.794 35.2284 240.794 35.8665C240.794 37.4431 242.408 38.2314 245.636 38.2314C245.899 38.5692 246.03 39.0009 246.03 39.5264C246.03 40.0144 245.993 40.2959 245.918 40.371L239.048 39.9768ZM250.873 6.75663L244.792 24.2676H256.672L250.873 6.75663ZM311.677 40.0331L304.976 40.371C304.864 40.2584 304.808 39.9393 304.808 39.4138C304.808 38.8507 304.92 38.4566 305.145 38.2314C306.271 38.2314 307.191 38.0249 307.904 37.612C308.618 37.1991 308.955 36.4296 308.918 35.3035L307.735 10.5291L295.742 40.371C295.592 40.5211 295.179 40.5962 294.504 40.5962C293.828 40.5962 293.434 40.5211 293.321 40.371L281.553 10.5291C280.54 27.1955 280.033 35.5662 280.033 35.6413C280.033 37.368 281.291 38.2314 283.806 38.2314C284.068 38.5692 284.2 39.0009 284.2 39.5264C284.2 40.0144 284.162 40.2959 284.087 40.371L277.668 40.0331L272.038 40.371C271.925 40.2584 271.869 39.9393 271.869 39.4138C271.869 38.8507 271.981 38.4566 272.207 38.2314C273.52 38.2314 274.44 38.0061 274.966 37.5557C275.529 37.1053 275.848 36.3545 275.923 35.3035L278.4 5.85574C278.4 4.57948 278.213 3.79121 277.837 3.49091C277.462 3.15308 276.523 2.96539 275.022 2.92786C274.797 2.74017 274.684 2.3648 274.684 1.80175C274.684 1.20115 274.722 0.863323 274.797 0.78825C276.373 1.01347 277.706 1.12608 278.794 1.12608C279.883 1.12608 281.328 1.01347 283.13 0.78825L295.01 33.1639L307.679 0.78825C309.481 1.01347 310.795 1.12608 311.62 1.12608C312.484 1.12608 313.704 1.01347 315.28 0.78825C315.393 0.90086 315.449 1.23869 315.449 1.80175C315.449 2.3648 315.355 2.74017 315.168 2.92786C313.741 2.92786 312.765 3.15308 312.24 3.60352C311.714 4.05396 311.452 4.69209 311.452 5.51791C311.452 5.63052 312.315 15.559 314.042 35.3035C314.117 36.3545 314.417 37.1053 314.943 37.5557C315.506 38.0061 316.444 38.2314 317.758 38.2314C317.945 38.419 318.039 38.8132 318.039 39.4138C318.039 39.9768 318.002 40.2959 317.927 40.371L311.677 40.0331ZM327.728 1.12608L335.611 0.78825C339.101 0.78825 341.936 1.61406 344.113 3.26569C346.327 4.91731 347.435 7.1883 347.435 10.0786C347.435 14.3579 344.676 17.342 339.158 19.0312C342.236 19.0312 344.807 19.9884 346.872 21.9028C348.974 23.8172 350.025 26.2758 350.025 29.2788C350.025 36.6736 345.22 40.371 335.611 40.371L328.798 40.0331L322.041 40.371C321.928 40.2584 321.872 39.9393 321.872 39.4138C321.872 38.8507 321.985 38.4566 322.21 38.2314C323.561 38.2314 324.518 38.0061 325.081 37.5557C325.682 37.0677 325.982 36.317 325.982 35.3035L326.264 5.79943C326.264 4.78594 325.982 4.05396 325.419 3.60352C324.856 3.15308 323.88 2.92786 322.491 2.92786C322.266 2.74017 322.154 2.3648 322.154 1.80175C322.154 1.20115 322.191 0.863323 322.266 0.78825L327.728 1.12608ZM332.908 18.4682C335.836 18.4682 338.201 17.8113 340.002 16.4975C341.842 15.1461 342.761 13.2693 342.761 10.8669C342.761 6.06219 339.683 3.65983 333.527 3.65983C332.326 3.65983 331.05 3.77244 329.698 3.99766L330.374 18.4682H332.908ZM335.779 37.2179C338.52 37.2179 340.734 36.5422 342.424 35.1909C344.113 33.8395 344.957 31.8876 344.957 29.3351C344.957 26.7826 343.925 24.8494 341.86 23.5356C339.796 22.1843 337.281 21.5087 334.316 21.5087C333.152 21.5087 331.894 21.6213 330.543 21.8465L331.05 32.995C331.125 34.6466 331.5 35.7727 332.176 36.3733C332.852 36.9363 334.053 37.2179 335.779 37.2179ZM358.533 39.9768L351.945 40.371C351.87 40.3334 351.832 40.0331 351.832 39.4701C351.832 38.907 351.964 38.4941 352.226 38.2314C353.615 38.2314 354.591 37.7997 355.154 36.9363C355.605 36.3357 356.187 35.1346 356.9 33.3328L369.681 0.78825C370.056 0.337806 370.582 0.112584 371.258 0.112584C371.37 0.112584 371.577 0.15012 371.877 0.225193L385.165 33.3328C385.841 35.0595 386.591 36.317 387.417 37.1053C388.281 37.856 389.519 38.2314 391.133 38.2314C391.396 38.5692 391.528 39.0009 391.528 39.5264C391.528 40.0144 391.49 40.2959 391.415 40.371L383.701 39.9768L375.481 40.371C375.405 40.3334 375.368 40.0331 375.368 39.4701C375.368 38.907 375.499 38.4941 375.762 38.2314C378.615 38.2314 380.041 37.3492 380.041 35.585C380.041 35.097 379.872 34.3463 379.535 33.3328L377.339 27.4207H363.093L360.897 33.3328C360.485 34.3838 360.278 35.2284 360.278 35.8665C360.278 37.4431 361.892 38.2314 365.12 38.2314C365.383 38.5692 365.514 39.0009 365.514 39.5264C365.514 40.0144 365.477 40.2959 365.402 40.371L358.533 39.9768ZM370.357 6.75663L364.276 24.2676H376.156L370.357 6.75663ZM412.299 0.450415C412.449 0.300267 412.787 0.225193 413.312 0.225193C413.838 0.225193 414.213 0.300267 414.438 0.450415L415.226 11.993C415.076 12.1432 414.701 12.2183 414.1 12.2183C413.537 12.2183 413.199 12.1432 413.087 11.993C412.787 9.51559 412.223 7.5449 411.398 6.08096C410.384 4.3918 408.507 3.54721 405.767 3.54721C403.703 3.54721 402.032 4.20411 400.756 5.51791C399.517 6.79416 398.898 8.23933 398.898 9.85342C398.898 11.4675 399.536 12.8939 400.812 14.1326C402.089 15.3714 403.628 16.4975 405.429 17.511C407.269 18.4869 409.089 19.5192 410.891 20.6078C412.73 21.6963 414.288 23.0852 415.564 24.7744C416.841 26.4635 417.479 28.4155 417.479 30.6301C417.479 32.8448 416.765 34.778 415.339 36.4296C412.749 39.4325 409.296 40.934 404.979 40.934C401.863 40.934 399.086 40.3147 396.646 39.0759C396.496 39.0009 396.345 38.9633 396.195 38.9633C396.083 38.9633 396.008 39.1323 395.97 39.4701L395.801 40.7088C395.651 40.859 395.276 40.934 394.675 40.934C394.112 40.934 393.774 40.859 393.661 40.7088L392.873 29.1662C393.023 29.016 393.361 28.941 393.887 28.941C394.412 28.941 394.788 29.016 395.013 29.1662C395.351 31.7562 396.533 33.8208 398.56 35.3598C400.587 36.8613 402.933 37.612 405.598 37.612C407.362 37.612 408.939 37.049 410.328 35.9228C411.754 34.7592 412.467 33.1639 412.467 31.1369C412.467 29.8231 411.829 28.6219 410.553 27.5333C409.277 26.4072 407.738 25.3937 405.936 24.4928C404.134 23.5544 402.333 22.5597 400.531 21.5087C398.729 20.4576 397.19 19.05 395.914 17.2857C394.637 15.5215 393.999 13.4945 393.999 11.2048C393.999 7.86396 395.05 5.19884 397.152 3.20938C399.292 1.18239 401.732 0.168888 404.472 0.168888C407.212 0.168888 409.521 0.788248 411.398 2.02697C411.548 2.13958 411.698 2.19588 411.848 2.19588C411.998 2.19588 412.092 2.02697 412.13 1.68914L412.299 0.450415ZM442.376 0.450415C442.526 0.300267 442.864 0.225193 443.389 0.225193C443.915 0.225193 444.29 0.300267 444.515 0.450415L445.304 11.993C445.154 12.1432 444.778 12.2183 444.178 12.2183C443.615 12.2183 443.277 12.1432 443.164 11.993C442.864 9.51559 442.301 7.5449 441.475 6.08096C440.461 4.3918 438.585 3.54721 435.844 3.54721C433.78 3.54721 432.109 4.20411 430.833 5.51791C429.594 6.79416 428.975 8.23933 428.975 9.85342C428.975 11.4675 429.613 12.8939 430.889 14.1326C432.166 15.3714 433.705 16.4975 435.507 17.511C437.346 18.4869 439.166 19.5192 440.968 20.6078C442.807 21.6963 444.365 23.0852 445.641 24.7744C446.918 26.4635 447.556 28.4155 447.556 30.6301C447.556 32.8448 446.843 34.778 445.416 36.4296C442.826 39.4325 439.373 40.934 435.056 40.934C431.941 40.934 429.163 40.3147 426.723 39.0759C426.573 39.0009 426.423 38.9633 426.272 38.9633C426.16 38.9633 426.085 39.1323 426.047 39.4701L425.878 40.7088C425.728 40.859 425.353 40.934 424.752 40.934C424.189 40.934 423.851 40.859 423.739 40.7088L422.95 29.1662C423.101 29.016 423.438 28.941 423.964 28.941C424.489 28.941 424.865 29.016 425.09 29.1662C425.428 31.7562 426.61 33.8208 428.637 35.3598C430.664 36.8613 433.01 37.612 435.675 37.612C437.44 37.612 439.016 37.049 440.405 35.9228C441.831 34.7592 442.545 33.1639 442.545 31.1369C442.545 29.8231 441.907 28.6219 440.63 27.5333C439.354 26.4072 437.815 25.3937 436.013 24.4928C434.211 23.5544 432.41 22.5597 430.608 21.5087C428.806 20.4576 427.267 19.05 425.991 17.2857C424.715 15.5215 424.077 13.4945 424.077 11.2048C424.077 7.86396 425.128 5.19884 427.23 3.20938C429.369 1.18239 431.809 0.168888 434.549 0.168888C437.29 0.168888 439.598 0.788248 441.475 2.02697C441.625 2.13958 441.775 2.19588 441.925 2.19588C442.075 2.19588 442.169 2.02697 442.207 1.68914L442.376 0.450415ZM456.022 39.9768L449.435 40.371C449.36 40.3334 449.322 40.0331 449.322 39.4701C449.322 38.907 449.453 38.4941 449.716 38.2314C451.105 38.2314 452.081 37.7997 452.644 36.9363C453.094 36.3357 453.676 35.1346 454.39 33.3328L467.171 0.78825C467.546 0.337806 468.072 0.112584 468.747 0.112584C468.86 0.112584 469.066 0.15012 469.367 0.225193L482.655 33.3328C483.331 35.0595 484.081 36.317 484.907 37.1053C485.77 37.856 487.009 38.2314 488.623 38.2314C488.886 38.5692 489.017 39.0009 489.017 39.5264C489.017 40.0144 488.98 40.2959 488.905 40.371L481.191 39.9768L472.97 40.371C472.895 40.3334 472.858 40.0331 472.858 39.4701C472.858 38.907 472.989 38.4941 473.252 38.2314C476.105 38.2314 477.531 37.3492 477.531 35.585C477.531 35.097 477.362 34.3463 477.024 33.3328L474.828 27.4207H460.583L458.387 33.3328C457.974 34.3838 457.768 35.2284 457.768 35.8665C457.768 37.4431 459.382 38.2314 462.61 38.2314C462.873 38.5692 463.004 39.0009 463.004 39.5264C463.004 40.0144 462.967 40.2959 462.892 40.371L456.022 39.9768ZM467.847 6.75663L461.766 24.2676H473.646L467.847 6.75663ZM496.669 1.12608L503.482 0.78825C509.188 0.78825 513.617 2.59002 516.77 6.19357C519.961 9.79712 521.556 14.5268 521.556 20.3825C521.556 26.2383 519.923 31.043 516.658 34.7967C513.392 38.5129 509 40.371 503.482 40.371L496.669 40.0331L489.913 40.371C489.8 40.2584 489.744 39.9393 489.744 39.4138C489.744 38.8507 489.856 38.4566 490.081 38.2314C492.596 38.2314 493.854 37.2554 493.854 35.3035L494.135 5.79943C494.135 4.78594 493.854 4.05396 493.291 3.60352C492.728 3.15308 491.752 2.92786 490.363 2.92786C490.138 2.74017 490.025 2.3648 490.025 1.80175C490.025 1.20115 490.063 0.863323 490.138 0.78825C490.138 0.78825 492.315 0.900861 496.669 1.12608ZM503.651 37.2179C507.405 37.2179 510.502 35.6976 512.941 32.6571C515.381 29.6166 516.601 26.1069 516.601 22.128C516.601 16.6101 515.325 12.1619 512.773 8.78362C510.22 5.36776 506.429 3.65983 501.399 3.65983C500.235 3.65983 498.978 3.77244 497.626 3.99766L498.921 32.995C498.996 34.609 499.391 35.7164 500.104 36.317C500.817 36.9176 501.999 37.2179 503.651 37.2179ZM527.478 20.5515C527.478 12.4435 529.899 6.60648 534.742 3.04047C537.257 1.16362 540.297 0.225193 543.863 0.225193C549.344 0.225193 553.585 2.15835 556.588 6.02466C559.629 9.85342 561.149 14.6957 561.149 20.5515C561.149 26.3697 559.629 31.2307 556.588 35.1346C553.585 39.0009 549.381 40.934 543.976 40.934C538.608 40.934 534.517 39.0009 531.701 35.1346C528.886 31.2683 527.478 26.4072 527.478 20.5515ZM544.82 37.612C552.44 37.612 556.25 32.507 556.25 22.2969C556.25 17.1544 555.368 12.8564 553.604 9.40298C552.666 7.56367 551.333 6.13726 549.606 5.12377C547.917 4.07273 545.89 3.54721 543.525 3.54721C539.622 3.54721 536.787 4.93608 535.023 7.71382C533.259 10.4916 532.377 14.0951 532.377 18.5245C532.377 25.0184 533.728 30.0483 536.431 33.6143C537.332 34.8155 538.495 35.7915 539.922 36.5422C541.386 37.2554 543.019 37.612 544.82 37.612ZM578.442 3.65983C576.903 3.65983 575.495 3.79121 574.219 4.05396L574.782 19.8195H577.822C580.638 19.8195 582.946 19.1063 584.748 17.6799C586.55 16.2535 587.451 14.264 587.451 11.7115C587.451 9.12145 586.662 7.132 585.086 5.74313C583.509 4.35426 581.295 3.65983 578.442 3.65983ZM572.248 1.12608L580.638 0.78825C583.828 0.78825 586.587 1.78298 588.915 3.77244C591.279 5.72436 592.462 8.10796 592.462 10.9232C592.462 13.701 591.655 16.1033 590.041 18.1303C588.464 20.1573 586.268 21.5462 583.453 22.2969L589.14 28.8847C592.368 32.6384 594.714 35.1346 596.178 36.3733C597.642 37.612 599.143 38.2314 600.682 38.2314C600.908 38.5317 601.02 38.9446 601.02 39.4701C601.02 39.9956 600.983 40.2959 600.908 40.371C600.345 40.371 599.35 40.2959 597.923 40.1457C596.535 39.9581 595.333 39.8642 594.32 39.8642C593.306 39.8642 591.899 39.9581 590.097 40.1457C588.295 40.2959 587.057 40.371 586.381 40.371C586.306 40.3334 586.268 40.0331 586.268 39.4701C586.268 38.907 586.4 38.4941 586.662 38.2314C588.427 38.2314 589.309 37.856 589.309 37.1053C589.309 36.2044 587.807 33.9709 584.804 30.4049C581.839 26.8014 579.887 24.643 578.949 23.9298C578.048 23.2166 576.771 22.86 575.12 22.86L575.683 35.3035C575.72 36.317 576.002 37.0677 576.527 37.5557C577.09 38.0061 578.048 38.2314 579.399 38.2314C579.587 38.419 579.681 38.8132 579.681 39.4138C579.681 39.9768 579.643 40.2959 579.568 40.371L573.374 40.0331L566.618 40.371C566.505 40.2584 566.449 39.9393 566.449 39.4138C566.449 38.8507 566.561 38.4566 566.787 38.2314C569.302 38.2314 570.559 37.2554 570.559 35.3035L570.784 5.79943C570.784 4.78594 570.503 4.05396 569.94 3.60352C569.377 3.15308 568.401 2.92786 567.012 2.92786C566.787 2.74017 566.674 2.3648 566.674 1.80175C566.674 1.20115 566.712 0.863323 566.787 0.78825L572.248 1.12608Z" fill="#DAA126"/>
</svg>
