<svg width="533" height="84" viewBox="0 0 533 84" fill="none" xmlns="http://www.w3.org/2000/svg">
<path d="M47.0625 16.5469C47.0625 18.2344 46.8438 19.9062 46.4062 21.5625C46 23.2188 45.3438 24.8438 44.4375 26.4375C43.5938 27.9375 42.5781 29.2344 41.3906 30.3281C40.2344 31.4219 39.0312 32.3438 37.7812 33.0938C36.5312 33.8125 35.2969 34.3594 34.0781 34.7344C32.8906 35.0781 31.8438 35.25 30.9375 35.25C30.0938 35.25 29.4375 35.125 28.9688 34.875C28.5312 34.625 28.3125 34.3125 28.3125 33.9375C28.3125 33.5 28.7031 33.125 29.4844 32.8125C29.9844 32.5938 30.7188 32.1562 31.6875 31.5C32.6875 30.8438 33.6719 29.9219 34.6406 28.7344C35.6406 27.5156 36.5156 26.0156 37.2656 24.2344C38.0156 22.4219 38.3906 20.2812 38.3906 17.8125C38.3906 15.625 38.0625 13.7656 37.4062 12.2344C36.75 10.7031 35.8906 9.46875 34.8281 8.53125C33.7656 7.5625 32.5625 6.85937 31.2188 6.42188C29.9062 5.98438 28.5781 5.76562 27.2344 5.76562C24.3594 5.76562 21.7812 6.625 19.5 8.34375C17.2188 10.0625 15.2812 12.4219 13.6875 15.4219C12.0938 18.3906 10.875 21.8906 10.0312 25.9219C9.1875 29.9219 8.76562 34.2344 8.76562 38.8594C8.76562 42.2656 9.01562 45.3438 9.51562 48.0938C10.0469 50.8125 10.75 53.2188 11.625 55.3125C12.5 57.375 13.5312 59.1562 14.7188 60.6562C15.9062 62.125 17.1562 63.3281 18.4688 64.2656C19.7812 65.2031 21.125 65.8906 22.5 66.3281C23.9062 66.7656 25.2656 66.9844 26.5781 66.9844C28.9531 66.9844 31.0781 66.5625 32.9531 65.7188C34.8594 64.8438 36.5469 63.6875 38.0156 62.25C39.5156 60.7812 40.8281 59.0938 41.9531 57.1875C43.0781 55.25 44.0625 53.2031 44.9062 51.0469C45.0625 50.6406 45.2656 50.3438 45.5156 50.1562C45.7969 49.9688 46.0625 49.875 46.3125 49.875C46.75 49.875 46.9688 50.125 46.9688 50.625C46.9688 50.8438 46.8281 51.3594 46.5469 52.1719C46.2969 52.9844 45.9219 53.9531 45.4219 55.0781C44.9531 56.2031 44.3906 57.4219 43.7344 58.7344C43.0781 60.0156 42.3594 61.25 41.5781 62.4375C39.2344 66.0312 36.5312 68.7344 33.4688 70.5469C30.4375 72.3906 26.8594 73.3125 22.7344 73.3125C19.0156 73.3125 15.7344 72.5 12.8906 70.875C10.0781 69.25 7.70312 67.0469 5.76562 64.2656C3.85938 61.4844 2.42188 58.25 1.45312 54.5625C0.484375 50.875 0 46.9844 0 42.8906C0 37.9844 0.5 33.5312 1.5 29.5312C2.5 25.5312 3.75 22 5.25 18.9375C6.78125 15.875 8.42188 13.2812 10.1719 11.1562C11.9531 9 13.625 7.3125 15.1875 6.09375C16 5.4375 16.9688 4.76563 18.0938 4.07812C19.2188 3.39062 20.4531 2.78125 21.7969 2.25C23.1406 1.6875 24.5625 1.23437 26.0625 0.890625C27.5938 0.515625 29.1562 0.328125 30.75 0.328125C33.25 0.328125 35.5 0.765625 37.5 1.64062C39.5312 2.48438 41.25 3.64063 42.6562 5.10938C44.0625 6.57812 45.1406 8.29688 45.8906 10.2656C46.6719 12.2344 47.0625 14.3281 47.0625 16.5469ZM105.141 36.9375C105.141 40.7188 104.766 44.25 104.016 47.5312C103.297 50.7812 102.297 53.7656 101.016 56.4844C99.7656 59.2031 98.2656 61.625 96.5156 63.75C94.7656 65.8438 92.875 67.6094 90.8438 69.0469C88.8438 70.5156 86.7188 71.625 84.4688 72.375C82.25 73.1562 80.0156 73.5469 77.7656 73.5469C76.1094 73.5469 74.3438 73.2812 72.4688 72.75C70.625 72.2188 68.7812 71.3906 66.9375 70.2656C65.125 69.1719 63.3906 67.7656 61.7344 66.0469C60.0781 64.2969 58.6094 62.2188 57.3281 59.8125C56.0469 57.4062 55.0312 54.6406 54.2812 51.5156C53.5312 48.3906 53.1562 44.875 53.1562 40.9688C53.1562 37.0938 53.5 33.2344 54.1875 29.3906C54.9062 25.5469 56.0156 21.875 57.5156 18.375C59.0156 14.875 60.9375 11.6406 63.2812 8.67188C65.6562 5.67188 68.5 3.09375 71.8125 0.9375C72.125 0.75 72.4375 0.65625 72.75 0.65625C73.25 0.65625 73.5 0.875 73.5 1.3125C73.5 1.59375 73.3906 1.84375 73.1719 2.0625C72.9844 2.25 72.5781 2.67188 71.9531 3.32812C71.3594 3.95312 70.6562 4.875 69.8438 6.09375C69.0312 7.28125 68.1719 8.78125 67.2656 10.5938C66.3594 12.375 65.5156 14.5469 64.7344 17.1094C63.9844 19.6406 63.3594 22.5625 62.8594 25.875C62.3594 29.1875 62.1094 32.9375 62.1094 37.125C62.1094 42.2812 62.5312 46.7344 63.375 50.4844C64.25 54.2031 65.4375 57.2812 66.9375 59.7188C68.4375 62.1562 70.1875 63.9688 72.1875 65.1562C74.2188 66.3125 76.3906 66.8906 78.7031 66.8906C79.7344 66.8906 80.8594 66.6719 82.0781 66.2344C83.3281 65.7969 84.5625 65.0781 85.7812 64.0781C87.0312 63.0781 88.2344 61.7656 89.3906 60.1406C90.5469 58.4844 91.5625 56.4531 92.4375 54.0469C93.3438 51.6094 94.0625 48.7656 94.5938 45.5156C95.1562 42.2656 95.4375 38.5156 95.4375 34.2656C95.4375 30.7344 95.2344 27.6094 94.8281 24.8906C94.4531 22.1406 93.9531 19.7656 93.3281 17.7656C92.7031 15.7344 91.9844 14.0312 91.1719 12.6562C90.3906 11.2813 89.5781 10.1719 88.7344 9.32812C87.9219 8.48438 87.1094 7.89062 86.2969 7.54688C85.5156 7.17188 84.8281 6.98438 84.2344 6.98438C82.6406 6.98438 81.3594 7.8125 80.3906 9.46875C79.4531 11.0938 78.9844 13.6094 78.9844 17.0156C78.9844 19.4219 79.2031 22.0938 79.6406 25.0312C80.1094 27.9688 80.7656 30.9219 81.6094 33.8906C82.4531 36.8281 83.4844 39.6406 84.7031 42.3281C85.9531 44.9844 87.3594 47.2188 88.9219 49.0312C89.1719 49.3438 89.2969 49.5938 89.2969 49.7812C89.2969 50.2812 88.7812 50.5312 87.75 50.5312C86.9062 50.5312 85.875 50.25 84.6562 49.6875C83.4688 49.0938 82.2188 48.25 80.9062 47.1562C79.625 46.0625 78.3438 44.7188 77.0625 43.125C75.8125 41.5 74.6719 39.6562 73.6406 37.5938C72.6406 35.5312 71.8281 33.25 71.2031 30.75C70.5781 28.25 70.2656 25.5469 70.2656 22.6406C70.2656 19.4219 70.7031 16.5469 71.5781 14.0156C72.4844 11.4531 73.6562 9.29687 75.0938 7.54688C76.5312 5.76562 78.1562 4.42187 79.9688 3.51562C81.8125 2.57812 83.6562 2.10938 85.5 2.10938C86.8125 2.10938 88.2188 2.39062 89.7188 2.95312C91.2188 3.48437 92.6875 4.32812 94.125 5.48438C95.5938 6.64063 96.9844 8.14063 98.2969 9.98438C99.6406 11.7969 100.812 14 101.812 16.5938C102.844 19.1562 103.656 22.125 104.25 25.5C104.844 28.875 105.141 32.6875 105.141 36.9375ZM166.359 36.1406C166.359 40.4531 165.984 44.375 165.234 47.9062C164.484 51.4375 163.469 54.5938 162.188 57.375C160.906 60.125 159.422 62.5156 157.734 64.5469C156.078 66.5781 154.328 68.25 152.484 69.5625C150.672 70.9062 148.828 71.8906 146.953 72.5156C145.078 73.1719 143.297 73.5 141.609 73.5C140.328 73.5 139.094 73.2656 137.906 72.7969C136.75 72.3594 135.734 71.7188 134.859 70.875C133.984 70.0312 133.281 69 132.75 67.7812C132.25 66.5938 132 65.2344 132 63.7031C132 63.0781 132.062 62.6406 132.188 62.3906C132.344 62.1406 132.547 62.0156 132.797 62.0156C133.141 62.0156 133.422 62.3281 133.641 62.9531C134.266 64.7969 135.188 66.2031 136.406 67.1719C137.656 68.1406 139.188 68.625 141 68.625C143.375 68.625 145.516 67.8438 147.422 66.2812C149.359 64.6875 151 62.3906 152.344 59.3906C153.719 56.3906 154.781 52.7031 155.531 48.3281C156.281 43.9531 156.656 38.9531 156.656 33.3281C156.656 29.6719 156.25 26.3125 155.438 23.25C154.656 20.1562 153.422 17.5 151.734 15.2812C150.078 13.0312 147.953 11.2813 145.359 10.0312C142.797 8.78125 139.719 8.15625 136.125 8.15625C133.906 8.15625 131.656 8.4375 129.375 9C127.125 9.5625 125.078 10.4219 123.234 11.5781C121.422 12.7344 119.938 14.2188 118.781 16.0312C117.625 17.8438 117.047 19.9844 117.047 22.4531C117.047 23.8281 117.234 25.1562 117.609 26.4375C117.984 27.7188 118.422 28.8906 118.922 29.9531C119.422 31.0156 119.906 31.9219 120.375 32.6719C120.875 33.4219 121.234 33.9375 121.453 34.2188C121.766 34.625 121.922 35.0156 121.922 35.3906C121.922 35.6406 121.812 35.8594 121.594 36.0469C121.406 36.2344 121.047 36.3281 120.516 36.3281C120.359 36.3281 120.203 36.3281 120.047 36.3281C119.891 36.3281 119.719 36.2969 119.531 36.2344C118.906 36.1406 118.031 35.8125 116.906 35.25C115.812 34.6875 114.719 33.875 113.625 32.8125C112.562 31.75 111.625 30.4375 110.812 28.875C110.031 27.2812 109.641 25.4062 109.641 23.25C109.641 21.8125 109.891 20.25 110.391 18.5625C110.922 16.8438 111.688 15.1406 112.688 13.4531C113.719 11.7656 115 10.1406 116.531 8.57812C118.062 7.01563 119.828 5.64062 121.828 4.45312C123.859 3.23438 126.125 2.26562 128.625 1.54688C131.156 0.828125 133.922 0.46875 136.922 0.46875C141.297 0.46875 145.047 1.10938 148.172 2.39062C151.328 3.64063 154 5.29688 156.188 7.35938C158.375 9.39062 160.125 11.7031 161.438 14.2969C162.781 16.8906 163.812 19.5156 164.531 22.1719C165.281 24.7969 165.766 27.3438 165.984 29.8125C166.234 32.25 166.359 34.3594 166.359 36.1406ZM130.969 15.7969C131.281 15.1094 131.719 14.5625 132.281 14.1562C132.844 13.7188 133.484 13.5 134.203 13.5C134.453 13.5 134.781 13.5781 135.188 13.7344C135.594 13.8906 135.797 14.1406 135.797 14.4844C135.797 14.7344 135.766 14.9688 135.703 15.1875C135.672 15.375 135.625 15.6406 135.562 15.9844C135 18.6406 134.5 21.3438 134.062 24.0938C133.656 26.8438 133.297 29.5469 132.984 32.2031C132.672 34.8594 132.406 37.4219 132.188 39.8906C132 42.3281 131.844 44.5938 131.719 46.6875C131.625 48.7812 131.547 50.6406 131.484 52.2656C131.453 53.8594 131.438 55.1406 131.438 56.1094C131.438 59.2344 131.422 61.7188 131.391 63.5625C131.359 65.375 131.344 66.7656 131.344 67.7344C131.344 67.8594 131.344 68.0312 131.344 68.25C131.344 68.4688 131.312 68.6719 131.25 68.8594C131.188 69.0781 131.078 69.2656 130.922 69.4219C130.797 69.5781 130.609 69.6562 130.359 69.6562C129.953 69.6562 129.578 69.5781 129.234 69.4219C128.891 69.2656 128.562 69.0781 128.25 68.8594C127.938 68.6719 127.625 68.5 127.312 68.3438C127.031 68.1875 126.75 68.1094 126.469 68.1094C126.125 68.1094 125.844 68.2188 125.625 68.4375C125.406 68.6562 125.141 68.7656 124.828 68.7656C124.453 68.7656 124.156 68.6719 123.938 68.4844C123.719 68.2969 123.562 68.0625 123.469 67.7812C123.375 67.5 123.312 67.2031 123.281 66.8906C123.281 66.5781 123.281 66.2969 123.281 66.0469C123.281 64.8594 123.312 63.125 123.375 60.8438C123.469 58.5312 123.594 55.8125 123.75 52.6875C123.844 50.875 123.953 48.9375 124.078 46.875C124.234 44.7812 124.406 42.7031 124.594 40.6406C124.781 38.5781 124.969 36.5781 125.156 34.6406C125.375 32.6719 125.562 30.8906 125.719 29.2969C125.906 27.6719 126.062 26.2969 126.188 25.1719C126.344 24.0469 126.453 23.2656 126.516 22.8281C126.734 21.4531 126.953 20.2812 127.172 19.3125C127.422 18.3438 127.688 17.6875 127.969 17.3438C128.188 17.0625 128.453 16.8125 128.766 16.5938C129.016 16.4062 129.328 16.2344 129.703 16.0781C130.078 15.8906 130.5 15.7969 130.969 15.7969ZM199.172 0.84375C202.266 0.84375 204.922 1.23437 207.141 2.01562C209.391 2.76562 211.266 3.65625 212.766 4.6875C214.266 5.6875 215.422 6.70312 216.234 7.73438C217.047 8.76562 217.562 9.5625 217.781 10.125C217.906 10.4062 217.969 10.6562 217.969 10.875C218 11.0625 218.016 11.2344 218.016 11.3906C218.016 11.7656 217.922 12.0313 217.734 12.1875C217.578 12.3437 217.375 12.625 217.125 13.0312C216.938 13.3438 216.719 13.5625 216.469 13.6875C216.25 13.8125 216 13.9219 215.719 14.0156C215.469 14.1094 215.219 14.2344 214.969 14.3906C214.75 14.5156 214.562 14.7344 214.406 15.0469C213.906 15.9844 213.203 16.4531 212.297 16.4531C211.766 16.4531 211.25 16.2969 210.75 15.9844C210.25 15.6406 209.688 15.2188 209.062 14.7188C208.438 14.2188 207.703 13.6719 206.859 13.0781C206.047 12.4844 205.031 11.9375 203.812 11.4375C202.625 10.9375 201.203 10.5313 199.547 10.2188C197.891 9.875 195.922 9.70312 193.641 9.70312C191.141 9.70312 188.938 10.0937 187.031 10.875C185.156 11.625 183.406 12.75 181.781 14.25C180.375 15.5625 179.312 16.9531 178.594 18.4219C177.906 19.8906 177.562 21.3125 177.562 22.6875C177.562 24.2812 178.078 25.7344 179.109 27.0469C179.859 27.9844 180.969 28.9062 182.438 29.8125C183.938 30.7188 185.531 31.5781 187.219 32.3906C188.938 33.2031 190.609 33.9531 192.234 34.6406C193.891 35.2969 195.234 35.8594 196.266 36.3281C197.172 36.7344 197.766 37.1406 198.047 37.5469C198.359 37.9531 198.516 38.375 198.516 38.8125C198.516 39.2812 198.422 39.7812 198.234 40.3125C198.078 40.8125 198 41.3281 198 41.8594C198 42.1094 198.031 42.3438 198.094 42.5625C198.156 42.7812 198.188 43 198.188 43.2188C198.188 43.7188 198.031 44.1562 197.719 44.5312C197.438 44.875 197.047 45.1875 196.547 45.4688C196.078 45.75 195.531 46 194.906 46.2188C194.281 46.4375 193.656 46.6406 193.031 46.8281C192.125 47.1094 190.969 47.5156 189.562 48.0469C188.156 48.5781 186.797 49.2969 185.484 50.2031C184.172 51.0781 183.047 52.1719 182.109 53.4844C181.172 54.7969 180.703 56.3906 180.703 58.2656C180.703 59.5156 180.969 60.6875 181.5 61.7812C182.031 62.875 182.781 63.8438 183.75 64.6875C184.75 65.5 185.938 66.1406 187.312 66.6094C188.688 67.0781 190.203 67.3125 191.859 67.3125C195.641 67.3125 199.062 66.4844 202.125 64.8281C205.188 63.1719 207.703 60.9062 209.672 58.0312C210.109 57.4062 210.625 56.5156 211.219 55.3594C211.844 54.1719 212.5 52.7344 213.188 51.0469C213.344 50.6719 213.547 50.3906 213.797 50.2031C214.047 49.9844 214.297 49.875 214.547 49.875C214.734 49.875 214.891 49.9531 215.016 50.1094C215.172 50.2344 215.25 50.4219 215.25 50.6719C215.25 50.9219 215.109 51.4531 214.828 52.2656C214.547 53.0469 214.156 53.9844 213.656 55.0781C213.156 56.1406 212.547 57.2969 211.828 58.5469C211.141 59.7969 210.391 61 209.578 62.1562C208.453 63.75 207.141 65.25 205.641 66.6562C204.172 68.0312 202.562 69.2344 200.812 70.2656C199.094 71.2969 197.25 72.0938 195.281 72.6562C193.312 73.25 191.25 73.5469 189.094 73.5469C187.156 73.5469 185.203 73.2656 183.234 72.7031C181.266 72.1719 179.469 71.3594 177.844 70.2656C176.25 69.1719 174.938 67.7812 173.906 66.0938C172.906 64.4062 172.406 62.4219 172.406 60.1406C172.406 57.8594 172.844 55.9062 173.719 54.2812C174.594 52.625 175.672 51.2344 176.953 50.1094C178.266 48.9844 179.672 48.0625 181.172 47.3438C182.703 46.625 184.109 46.0469 185.391 45.6094C186.703 45.1406 187.797 44.7656 188.672 44.4844C189.547 44.2031 189.984 43.9219 189.984 43.6406C189.984 43.4219 189.75 43.2031 189.281 42.9844C188.844 42.7344 188.25 42.4688 187.5 42.1875C186.781 41.875 185.953 41.5312 185.016 41.1562C184.078 40.7812 183.125 40.3281 182.156 39.7969C180.594 38.9531 179.188 38.0625 177.938 37.125C176.688 36.1875 175.609 35.1719 174.703 34.0781C173.828 32.9531 173.156 31.7344 172.688 30.4219C172.219 29.0781 171.984 27.5938 171.984 25.9688C171.984 23.8125 172.312 21.6875 172.969 19.5938C173.656 17.5 174.609 15.5312 175.828 13.6875C177.047 11.8125 178.484 10.0937 180.141 8.53125C181.828 6.96875 183.672 5.625 185.672 4.5C187.703 3.34375 189.859 2.45312 192.141 1.82812C194.422 1.17188 196.766 0.84375 199.172 0.84375ZM247.172 13.5938C247.172 13.75 247.156 14.25 247.125 15.0938C247.094 15.9062 247.047 16.9844 246.984 18.3281C246.922 19.6406 246.844 21.1719 246.75 22.9219C246.688 24.6406 246.594 26.5 246.469 28.5C246.375 30.4688 246.266 32.5312 246.141 34.6875C246.047 36.8438 245.953 39 245.859 41.1562C247.641 41.1875 249.281 41.2969 250.781 41.4844C252.312 41.6406 253.672 41.8125 254.859 42C255.891 42.1875 256.719 42.3594 257.344 42.5156C258 42.6719 258.516 42.8281 258.891 42.9844C259.297 43.1094 259.594 43.2656 259.781 43.4531C260 43.6094 260.188 43.7969 260.344 44.0156C260.469 44.2031 260.641 44.375 260.859 44.5312C261.109 44.6562 261.344 44.7969 261.562 44.9531C261.781 45.0781 261.969 45.2188 262.125 45.375C262.281 45.5312 262.359 45.7188 262.359 45.9375C262.359 46.1875 262.266 46.4219 262.078 46.6406C261.922 46.8281 261.719 46.9531 261.469 47.0156C261.188 47.1094 260.531 47.1875 259.5 47.25C258.469 47.3125 256.891 47.3906 254.766 47.4844C253.609 47.5469 252.219 47.5938 250.594 47.625C248.969 47.6562 247.281 47.7031 245.531 47.7656C245.438 49.6719 245.328 51.4844 245.203 53.2031C245.109 54.9219 245.016 56.4844 244.922 57.8906C244.859 59.2656 244.797 60.4375 244.734 61.4062C244.672 62.375 244.625 63.0781 244.594 63.5156C244.5 64.7344 244.219 66.1875 243.75 67.875C243.312 69.5938 242.594 71.3594 241.594 73.1719C240.625 75.0156 239.344 76.8281 237.75 78.6094C236.156 80.3906 234.141 81.9688 231.703 83.3438C231.266 83.5625 230.938 83.6719 230.719 83.6719C230.25 83.6719 230.016 83.4844 230.016 83.1094C230.016 82.8594 230.188 82.5312 230.531 82.125C231.625 80.9688 232.531 79.8281 233.25 78.7031C233.969 77.6094 234.547 76.3594 234.984 74.9531C235.453 73.5469 235.797 71.9062 236.016 70.0312C236.266 68.1875 236.469 65.9531 236.625 63.3281C236.656 62.5781 236.703 61.5156 236.766 60.1406C236.828 58.9531 236.906 57.3906 237 55.4531C237.094 53.4844 237.219 50.9844 237.375 47.9531C235.219 48.0156 233.625 48.125 232.594 48.2812C231.594 48.4062 230.984 48.5156 230.766 48.6094C230.578 48.6719 230.469 48.7812 230.438 48.9375C230.438 49.0625 230.422 49.2031 230.391 49.3594C230.359 49.4844 230.297 49.6094 230.203 49.7344C230.109 49.8281 229.906 49.875 229.594 49.875C229.375 49.875 229.094 49.8281 228.75 49.7344C228.438 49.6406 228.125 49.5156 227.812 49.3594C227.531 49.1719 227.281 48.9688 227.062 48.75C226.844 48.5 226.734 48.2344 226.734 47.9531C226.734 47.4219 227.062 46.7969 227.719 46.0781C227.875 45.9219 228.156 45.6562 228.562 45.2812C229 44.9062 229.609 44.5156 230.391 44.1094C231.172 43.6719 232.156 43.25 233.344 42.8438C234.531 42.4062 235.984 42.0469 237.703 41.7656L238.922 19.1719C238.953 18.7656 239 18.2969 239.062 17.7656C239.125 17.2031 239.25 16.6719 239.438 16.1719C239.656 15.6406 239.969 15.1719 240.375 14.7656C240.812 14.3281 241.406 14.0312 242.156 13.875C242.719 13.75 243.219 13.5469 243.656 13.2656C244.094 12.9531 244.484 12.6406 244.828 12.3281C245.203 12.0156 245.531 11.7344 245.812 11.4844C246.125 11.2344 246.406 11.1094 246.656 11.1094C246.781 11.1094 246.875 11.1875 246.938 11.3438C247.031 11.5 247.094 11.7031 247.125 11.9531C247.156 12.2031 247.172 12.4844 247.172 12.7969C247.172 13.0781 247.172 13.3438 247.172 13.5938ZM274.734 3.79688C274.672 4.14062 274.531 4.42187 274.312 4.64062C274.125 4.85938 273.922 5.07812 273.703 5.29688C273.484 5.51563 273.266 5.73437 273.047 5.95312C272.859 6.17188 272.75 6.45313 272.719 6.79688C272.625 7.51562 272.25 8.10938 271.594 8.57812C270.938 9.01562 270.172 9.23438 269.297 9.23438C268.547 9.23438 267.297 9.1875 265.547 9.09375C263.797 9 261.797 8.95312 259.547 8.95312C257.047 8.95312 254.469 9.04688 251.812 9.23438C249.188 9.42188 246.625 9.71875 244.125 10.125C241.625 10.5313 239.266 11.0625 237.047 11.7188C234.859 12.375 232.938 13.1875 231.281 14.1562C229.625 15.0938 228.312 16.1875 227.344 17.4375C226.375 18.6875 225.891 20.1094 225.891 21.7031C225.891 23.9531 226.266 25.9375 227.016 27.6562C227.766 29.375 228.594 30.8438 229.5 32.0625C230.438 33.2812 231.281 34.25 232.031 34.9688C232.781 35.6875 233.156 36.1719 233.156 36.4219C233.156 36.7031 232.953 36.9531 232.547 37.1719C232.141 37.3906 231.547 37.5 230.766 37.5C229.016 37.5 227.438 37.125 226.031 36.375C224.625 35.5938 223.406 34.5781 222.375 33.3281C221.375 32.0469 220.594 30.5938 220.031 28.9688C219.5 27.3438 219.234 25.6562 219.234 23.9062C219.234 21.2188 219.859 18.6875 221.109 16.3125C222.391 13.9062 224.141 11.75 226.359 9.84375C228.609 7.9375 231.234 6.29687 234.234 4.92188C237.234 3.54688 240.469 2.53125 243.938 1.875C248.031 1.09375 251.797 0.59375 255.234 0.375C258.672 0.125 261.75 0 264.469 0C266.969 0 268.938 0.09375 270.375 0.28125C271.812 0.4375 272.875 0.640625 273.562 0.890625C274.281 1.14062 274.719 1.42187 274.875 1.73438C275.062 2.01562 275.156 2.28125 275.156 2.53125C275.156 2.71875 275.094 2.90625 274.969 3.09375C274.875 3.28125 274.797 3.51562 274.734 3.79688ZM298.172 0.84375C301.266 0.84375 303.922 1.23437 306.141 2.01562C308.391 2.76562 310.266 3.65625 311.766 4.6875C313.266 5.6875 314.422 6.70312 315.234 7.73438C316.047 8.76562 316.562 9.5625 316.781 10.125C316.906 10.4062 316.969 10.6562 316.969 10.875C317 11.0625 317.016 11.2344 317.016 11.3906C317.016 11.7656 316.922 12.0313 316.734 12.1875C316.578 12.3437 316.375 12.625 316.125 13.0312C315.938 13.3438 315.719 13.5625 315.469 13.6875C315.25 13.8125 315 13.9219 314.719 14.0156C314.469 14.1094 314.219 14.2344 313.969 14.3906C313.75 14.5156 313.562 14.7344 313.406 15.0469C312.906 15.9844 312.203 16.4531 311.297 16.4531C310.766 16.4531 310.25 16.2969 309.75 15.9844C309.25 15.6406 308.688 15.2188 308.062 14.7188C307.438 14.2188 306.703 13.6719 305.859 13.0781C305.047 12.4844 304.031 11.9375 302.812 11.4375C301.625 10.9375 300.203 10.5313 298.547 10.2188C296.891 9.875 294.922 9.70312 292.641 9.70312C290.141 9.70312 287.938 10.0937 286.031 10.875C284.156 11.625 282.406 12.75 280.781 14.25C279.375 15.5625 278.312 16.9531 277.594 18.4219C276.906 19.8906 276.562 21.3125 276.562 22.6875C276.562 24.2812 277.078 25.7344 278.109 27.0469C278.859 27.9844 279.969 28.9062 281.438 29.8125C282.938 30.7188 284.531 31.5781 286.219 32.3906C287.938 33.2031 289.609 33.9531 291.234 34.6406C292.891 35.2969 294.234 35.8594 295.266 36.3281C296.172 36.7344 296.766 37.1406 297.047 37.5469C297.359 37.9531 297.516 38.375 297.516 38.8125C297.516 39.2812 297.422 39.7812 297.234 40.3125C297.078 40.8125 297 41.3281 297 41.8594C297 42.1094 297.031 42.3438 297.094 42.5625C297.156 42.7812 297.188 43 297.188 43.2188C297.188 43.7188 297.031 44.1562 296.719 44.5312C296.438 44.875 296.047 45.1875 295.547 45.4688C295.078 45.75 294.531 46 293.906 46.2188C293.281 46.4375 292.656 46.6406 292.031 46.8281C291.125 47.1094 289.969 47.5156 288.562 48.0469C287.156 48.5781 285.797 49.2969 284.484 50.2031C283.172 51.0781 282.047 52.1719 281.109 53.4844C280.172 54.7969 279.703 56.3906 279.703 58.2656C279.703 59.5156 279.969 60.6875 280.5 61.7812C281.031 62.875 281.781 63.8438 282.75 64.6875C283.75 65.5 284.938 66.1406 286.312 66.6094C287.688 67.0781 289.203 67.3125 290.859 67.3125C294.641 67.3125 298.062 66.4844 301.125 64.8281C304.188 63.1719 306.703 60.9062 308.672 58.0312C309.109 57.4062 309.625 56.5156 310.219 55.3594C310.844 54.1719 311.5 52.7344 312.188 51.0469C312.344 50.6719 312.547 50.3906 312.797 50.2031C313.047 49.9844 313.297 49.875 313.547 49.875C313.734 49.875 313.891 49.9531 314.016 50.1094C314.172 50.2344 314.25 50.4219 314.25 50.6719C314.25 50.9219 314.109 51.4531 313.828 52.2656C313.547 53.0469 313.156 53.9844 312.656 55.0781C312.156 56.1406 311.547 57.2969 310.828 58.5469C310.141 59.7969 309.391 61 308.578 62.1562C307.453 63.75 306.141 65.25 304.641 66.6562C303.172 68.0312 301.562 69.2344 299.812 70.2656C298.094 71.2969 296.25 72.0938 294.281 72.6562C292.312 73.25 290.25 73.5469 288.094 73.5469C286.156 73.5469 284.203 73.2656 282.234 72.7031C280.266 72.1719 278.469 71.3594 276.844 70.2656C275.25 69.1719 273.938 67.7812 272.906 66.0938C271.906 64.4062 271.406 62.4219 271.406 60.1406C271.406 57.8594 271.844 55.9062 272.719 54.2812C273.594 52.625 274.672 51.2344 275.953 50.1094C277.266 48.9844 278.672 48.0625 280.172 47.3438C281.703 46.625 283.109 46.0469 284.391 45.6094C285.703 45.1406 286.797 44.7656 287.672 44.4844C288.547 44.2031 288.984 43.9219 288.984 43.6406C288.984 43.4219 288.75 43.2031 288.281 42.9844C287.844 42.7344 287.25 42.4688 286.5 42.1875C285.781 41.875 284.953 41.5312 284.016 41.1562C283.078 40.7812 282.125 40.3281 281.156 39.7969C279.594 38.9531 278.188 38.0625 276.938 37.125C275.688 36.1875 274.609 35.1719 273.703 34.0781C272.828 32.9531 272.156 31.7344 271.688 30.4219C271.219 29.0781 270.984 27.5938 270.984 25.9688C270.984 23.8125 271.312 21.6875 271.969 19.5938C272.656 17.5 273.609 15.5312 274.828 13.6875C276.047 11.8125 277.484 10.0937 279.141 8.53125C280.828 6.96875 282.672 5.625 284.672 4.5C286.703 3.34375 288.859 2.45312 291.141 1.82812C293.422 1.17188 295.766 0.84375 298.172 0.84375ZM365.438 8.71875C365.656 9.34375 365.766 9.79688 365.766 10.0781C365.766 10.4219 365.672 10.6719 365.484 10.8281C365.328 10.9844 365.156 11.2656 364.969 11.6719C364.812 12.0156 364.609 12.2656 364.359 12.4219C364.141 12.5469 363.906 12.6719 363.656 12.7969C363.438 12.9219 363.219 13.0625 363 13.2188C362.781 13.3438 362.609 13.5625 362.484 13.875C362.266 14.4062 361.938 14.7969 361.5 15.0469C361.094 15.2969 360.641 15.4219 360.141 15.4219C359.641 15.4219 359.141 15.2969 358.641 15.0469C358.172 14.7656 357.641 14.4219 357.047 14.0156C356.484 13.6094 355.828 13.1719 355.078 12.7031C354.359 12.2031 353.469 11.75 352.406 11.3438C351.344 10.9375 350.094 10.6094 348.656 10.3594C347.219 10.0781 345.531 9.9375 343.594 9.9375C340.781 9.9375 338.25 10.3438 336 11.1562C333.781 11.9375 331.734 13.3281 329.859 15.3281C328.609 16.6719 327.688 18.0625 327.094 19.5C326.5 20.9062 326.203 22.2656 326.203 23.5781C326.203 24.7656 326.469 25.8281 327 26.7656C327.562 27.7031 328.312 28.5625 329.25 29.3438C330.188 30.0938 331.281 30.7969 332.531 31.4531C333.812 32.0781 335.172 32.7031 336.609 33.3281C338.078 33.9219 339.594 34.5156 341.156 35.1094C342.75 35.7031 344.328 36.3438 345.891 37.0312C348.203 38.0625 350.281 39.2031 352.125 40.4531C353.969 41.6719 355.531 43.0312 356.812 44.5312C358.094 46.0312 359.078 47.6562 359.766 49.4062C360.453 51.1562 360.797 53.0469 360.797 55.0781C360.797 57.6719 360.344 60.125 359.438 62.4375C358.531 64.7188 357.141 66.7188 355.266 68.4375C353.391 70.1562 351.031 71.5156 348.188 72.5156C345.375 73.5469 342.047 74.0625 338.203 74.0625C335.516 74.0625 333.156 73.7344 331.125 73.0781C329.094 72.4219 327.375 71.6406 325.969 70.7344C324.594 69.8594 323.5 68.9688 322.688 68.0625C321.906 67.1875 321.406 66.5 321.188 66C321.031 65.6562 320.922 65.375 320.859 65.1562C320.828 64.9062 320.812 64.7031 320.812 64.5469C320.812 64.2031 320.875 63.9531 321 63.7969C321.156 63.6406 321.406 63.2969 321.75 62.7656C321.875 62.5469 322.047 62.3906 322.266 62.2969C322.484 62.1719 322.703 62.0625 322.922 61.9688C323.172 61.8438 323.406 61.7031 323.625 61.5469C323.844 61.3906 324.031 61.1562 324.188 60.8438C324.688 59.8125 325.422 59.2969 326.391 59.2969C326.922 59.2969 327.438 59.4844 327.938 59.8594C328.469 60.2031 329.047 60.6406 329.672 61.1719C330.297 61.7031 331 62.2969 331.781 62.9531C332.594 63.5781 333.547 64.1562 334.641 64.6875C335.734 65.2188 336.984 65.6719 338.391 66.0469C339.828 66.3906 341.5 66.5625 343.406 66.5625C345.781 66.5625 347.781 66.3281 349.406 65.8594C351.031 65.3906 352.328 64.75 353.297 63.9375C354.297 63.0938 355.016 62.1094 355.453 60.9844C355.891 59.8594 356.109 58.6406 356.109 57.3281C356.109 55.7031 355.797 54.2969 355.172 53.1094C354.578 51.9219 353.734 50.875 352.641 49.9688C351.578 49.0625 350.297 48.2656 348.797 47.5781C347.297 46.8594 345.641 46.1562 343.828 45.4688C342.047 44.7812 340.141 44.0781 338.109 43.3594C336.109 42.6094 334.062 41.75 331.969 40.7812C330.312 40.0312 328.797 39.2031 327.422 38.2969C326.047 37.3594 324.859 36.3125 323.859 35.1562C322.891 34 322.141 32.7031 321.609 31.2656C321.078 29.7969 320.812 28.1406 320.812 26.2969C320.812 24.0781 321.141 21.9062 321.797 19.7812C322.484 17.625 323.438 15.6094 324.656 13.7344C325.875 11.8281 327.328 10.0781 329.016 8.48438C330.734 6.89062 332.609 5.51563 334.641 4.35938C336.672 3.17188 338.844 2.26562 341.156 1.64062C343.469 0.984375 345.859 0.65625 348.328 0.65625C351.047 0.65625 353.438 1 355.5 1.6875C357.562 2.34375 359.297 3.125 360.703 4.03125C362.109 4.90625 363.203 5.79688 363.984 6.70312C364.766 7.57813 365.25 8.25 365.438 8.71875ZM423.375 3.79688C423.312 4.14062 423.172 4.42187 422.953 4.64062C422.766 4.85938 422.562 5.07812 422.344 5.29688C422.125 5.51563 421.906 5.73437 421.688 5.95312C421.5 6.17188 421.391 6.45313 421.359 6.79688C421.266 7.51562 420.891 8.10938 420.234 8.57812C419.578 9.01562 418.812 9.23438 417.938 9.23438C417.188 9.23438 415.938 9.1875 414.188 9.09375C412.438 9 410.438 8.95312 408.188 8.95312C405.688 8.95312 403.125 9.04688 400.5 9.23438C397.875 9.39062 395.312 9.67187 392.812 10.0781C390.312 10.4844 387.953 11.0156 385.734 11.6719C383.516 12.3281 381.578 13.1406 379.922 14.1094C378.266 15.0781 376.953 16.2188 375.984 17.5312C375.016 18.8125 374.531 20.2969 374.531 21.9844C374.531 23.5156 374.797 25.0156 375.328 26.4844C375.891 27.9219 376.531 29.25 377.25 30.4688C378 31.6562 378.75 32.7031 379.5 33.6094C380.281 34.5156 380.891 35.1719 381.328 35.5781C381.641 35.8594 381.797 36.1562 381.797 36.4688C381.797 37.0938 381 37.4062 379.406 37.4062C379 37.4062 378.422 37.3281 377.672 37.1719C376.953 37.0156 376.172 36.75 375.328 36.375C374.484 36 373.609 35.4844 372.703 34.8281C371.828 34.1719 371.031 33.3438 370.312 32.3438C369.594 31.3438 369 30.1562 368.531 28.7812C368.094 27.4062 367.875 25.7812 367.875 23.9062C367.875 21.2188 368.547 18.625 369.891 16.125C371.266 13.5938 373.109 11.3281 375.422 9.32812C377.766 7.29688 380.5 5.60938 383.625 4.26562C386.75 2.89063 390.078 1.98437 393.609 1.54688C395.266 1.26562 396.953 1.03125 398.672 0.84375C400.422 0.65625 402.141 0.5 403.828 0.375C405.516 0.25 407.141 0.15625 408.703 0.09375C410.297 0.03125 411.766 0 413.109 0C415.609 0 417.578 0.09375 419.016 0.28125C420.453 0.4375 421.516 0.640625 422.203 0.890625C422.922 1.14062 423.359 1.42187 423.516 1.73438C423.703 2.01562 423.797 2.28125 423.797 2.53125C423.797 2.71875 423.734 2.90625 423.609 3.09375C423.516 3.28125 423.438 3.51562 423.375 3.79688ZM402.703 11.9531C402.703 12.1719 402.672 13.0781 402.609 14.6719C402.547 16.2656 402.453 18.2969 402.328 20.7656C402.234 23.2344 402.109 26.0312 401.953 29.1562C401.828 32.2812 401.688 35.5 401.531 38.8125C401.406 42.0938 401.266 45.3438 401.109 48.5625C400.984 51.7812 400.859 54.7344 400.734 57.4219C400.641 60.1094 400.562 62.4062 400.5 64.3125C400.438 66.1875 400.406 67.4375 400.406 68.0625C400.406 68.4062 400.359 68.75 400.266 69.0938C400.203 69.4688 400.062 69.8125 399.844 70.125C399.625 70.4688 399.312 70.7656 398.906 71.0156C398.531 71.2656 398.016 71.4531 397.359 71.5781C396.797 71.6719 396.281 71.8281 395.812 72.0469C395.375 72.2969 394.969 72.5469 394.594 72.7969C394.25 73.0469 393.938 73.2656 393.656 73.4531C393.375 73.6406 393.109 73.7344 392.859 73.7344C392.703 73.7344 392.594 73.6562 392.531 73.5C392.469 73.375 392.422 73.2031 392.391 72.9844C392.359 72.7969 392.344 72.5938 392.344 72.375C392.344 72.1875 392.344 72.0156 392.344 71.8594C392.375 69.9219 392.469 66.6719 392.625 62.1094C392.688 60.1719 392.766 57.8594 392.859 55.1719C392.984 52.4531 393.125 49.2812 393.281 45.6562C393.469 42 393.672 37.8594 393.891 33.2344C394.109 28.5781 394.359 23.3438 394.641 17.5312C394.703 16.125 394.953 14.9531 395.391 14.0156C395.828 13.0781 396.609 12.4844 397.734 12.2344C398.297 12.1094 398.797 11.9062 399.234 11.625C399.703 11.3125 400.125 11 400.5 10.6875C400.875 10.375 401.203 10.0937 401.484 9.84375C401.766 9.59375 402 9.46875 402.188 9.46875C402.469 9.46875 402.625 9.71875 402.656 10.2188C402.688 10.6875 402.703 11.2656 402.703 11.9531ZM436.5 7.17188C436.625 7.42187 436.688 7.65625 436.688 7.875C436.688 8.21875 436.625 8.57812 436.5 8.95312C436.375 9.32812 436.234 9.73438 436.078 10.1719C435.734 11.0469 435.297 11.9687 434.766 12.9375C434.266 13.9062 433.719 14.8594 433.125 15.7969C432.562 16.7031 431.969 17.5469 431.344 18.3281C430.75 19.1094 430.188 19.7344 429.656 20.2031C429.375 20.4844 429.141 20.625 428.953 20.625C428.672 20.625 428.531 20.4375 428.531 20.0625C428.531 19.875 428.594 19.6406 428.719 19.3594C429.094 18.4844 429.359 17.6562 429.516 16.875C429.672 16.0938 429.75 15.3594 429.75 14.6719C429.75 13.7031 429.625 12.8125 429.375 12C429.156 11.1562 428.891 10.4375 428.578 9.84375C428.266 9.21875 427.969 8.73437 427.688 8.39062C427.406 8.01562 427.234 7.79687 427.172 7.73438C426.891 7.35938 426.75 7.03125 426.75 6.75C426.75 6.40625 426.891 6.09375 427.172 5.8125C427.297 5.6875 427.578 5.42188 428.016 5.01562C428.484 4.57813 428.969 4.125 429.469 3.65625C429.969 3.1875 430.422 2.76562 430.828 2.39062C431.266 1.98437 431.547 1.71875 431.672 1.59375C431.828 1.4375 431.953 1.32812 432.047 1.26562C432.172 1.17188 432.344 1.125 432.562 1.125C432.812 1.125 433.031 1.28125 433.219 1.59375C433.312 1.75 433.516 2.10938 433.828 2.67188C434.172 3.20312 434.531 3.78125 434.906 4.40625C435.281 5.03125 435.625 5.60938 435.938 6.14062C436.25 6.67187 436.438 7.01563 436.5 7.17188ZM484.172 21.8438C484.203 24.9062 483.891 27.6094 483.234 29.9531C482.578 32.2969 481.594 34.4531 480.281 36.4219C479 38.3906 477.438 40.2344 475.594 41.9531C473.75 43.6406 471.656 45.375 469.312 47.1562C467 48.9375 464.453 50.8281 461.672 52.8281C458.891 54.8281 455.953 57.0938 452.859 59.625C454.547 59.3125 456.234 59.0938 457.922 58.9688C459.641 58.8438 461.328 58.7812 462.984 58.7812C464.391 58.7812 465.734 58.8281 467.016 58.9219C468.297 58.9844 469.531 59.0156 470.719 59.0156C473.25 59.0156 475.453 58.7812 477.328 58.3125C479.203 57.8125 480.656 57.1094 481.688 56.2031C482.469 55.5156 482.984 55.1719 483.234 55.1719C483.484 55.1719 483.609 55.3906 483.609 55.8281C483.609 56.0781 483.578 56.3281 483.516 56.5781C483.453 56.7969 483.391 57.0312 483.328 57.2812C483.203 57.5938 482.984 58.0781 482.672 58.7344C482.391 59.3594 481.984 60.0625 481.453 60.8438C480.922 61.625 480.25 62.4375 479.438 63.2812C478.656 64.125 477.719 64.8906 476.625 65.5781C475.562 66.2656 474.328 66.8281 472.922 67.2656C471.516 67.7031 469.938 67.9219 468.188 67.9219C466.906 67.9219 465.547 67.7969 464.109 67.5469C462.703 67.2656 461.266 66.9688 459.797 66.6562C458.359 66.3438 456.922 66.0625 455.484 65.8125C454.047 65.5312 452.672 65.3906 451.359 65.3906C450.172 65.3906 449.062 65.4688 448.031 65.625C447.031 65.75 446.141 65.9062 445.359 66.0938C444.672 66.6875 444.031 67.125 443.438 67.4062C442.875 67.6875 442.391 67.8281 441.984 67.8281C441.328 67.8281 441 67.4531 441 66.7031C441 66.1719 441.219 65.5938 441.656 64.9688C442.094 64.3438 442.625 63.7344 443.25 63.1406C443.875 62.5469 444.516 62 445.172 61.5C445.859 60.9688 446.422 60.5469 446.859 60.2344C447.859 59.5781 449 58.7812 450.281 57.8438C451.594 56.9062 452.969 55.875 454.406 54.75C455.875 53.5938 457.359 52.375 458.859 51.0938C460.391 49.7812 461.859 48.4375 463.266 47.0625C464.672 45.6562 465.984 44.2344 467.203 42.7969C468.422 41.3594 469.453 39.9375 470.297 38.5312C471.703 36.1562 472.75 33.7344 473.438 31.2656C474.125 28.7969 474.469 26.3125 474.469 23.8125C474.469 21.7812 474.234 19.6562 473.766 17.4375C473.297 15.2188 472.547 13.1875 471.516 11.3438C470.484 9.46875 469.141 7.9375 467.484 6.75C465.859 5.53125 463.859 4.92188 461.484 4.92188C460.078 4.92188 458.703 5.21875 457.359 5.8125C456.016 6.40625 454.812 7.34375 453.75 8.625C452.719 9.875 451.891 11.4688 451.266 13.4062C450.641 15.3438 450.328 17.6406 450.328 20.2969C450.328 22.7031 450.766 25.2031 451.641 27.7969C452.547 30.3906 454.125 32.9219 456.375 35.3906C456.688 35.7656 456.844 36.0938 456.844 36.375C456.844 36.9062 456.516 37.1719 455.859 37.1719C455.797 37.1719 455.703 37.1719 455.578 37.1719C455.484 37.1719 455.391 37.1562 455.297 37.125C455.016 37.0938 454.484 36.9844 453.703 36.7969C452.953 36.5781 452.094 36.25 451.125 35.8125C450.156 35.375 449.141 34.7969 448.078 34.0781C447.016 33.3281 446.047 32.375 445.172 31.2188C444.297 30.0625 443.562 28.6875 442.969 27.0938C442.406 25.5 442.125 23.6094 442.125 21.4219C442.125 18.8906 442.438 16.625 443.062 14.625C443.719 12.625 444.594 10.8594 445.688 9.32812C446.781 7.79687 448.031 6.48437 449.438 5.39062C450.875 4.29688 452.375 3.40625 453.938 2.71875C455.5 2.03125 457.078 1.53125 458.672 1.21875C460.266 0.90625 461.766 0.75 463.172 0.75C464.484 0.75 465.906 0.875 467.438 1.125C469 1.34375 470.547 1.75 472.078 2.34375C473.641 2.9375 475.125 3.75 476.531 4.78125C477.969 5.78125 479.25 7.0625 480.375 8.625C481.5 10.1875 482.406 12.0625 483.094 14.25C483.781 16.4062 484.141 18.9375 484.172 21.8438ZM532.125 45.7969C532.125 49.0469 531.625 52.0625 530.625 54.8438C529.625 57.5938 528.219 59.9844 526.406 62.0156C524.625 64.0469 522.484 65.6406 519.984 66.7969C517.516 67.9531 514.812 68.5312 511.875 68.5312C508.875 68.5312 506.047 68.0156 503.391 66.9844C500.734 65.9531 498.406 64.3438 496.406 62.1562C494.438 59.9375 492.875 57.0938 491.719 53.625C490.562 50.125 489.984 45.9062 489.984 40.9688C490.016 37.375 490.5 33.9844 491.438 30.7969C492.375 27.5781 493.641 24.5938 495.234 21.8438C496.828 19.0938 498.672 16.5938 500.766 14.3438C502.859 12.0625 505.062 10.0625 507.375 8.34375C509.688 6.59375 512.047 5.14063 514.453 3.98438C516.891 2.79688 519.234 1.90625 521.484 1.3125C521.641 1.28125 521.781 1.26562 521.906 1.26562C522.031 1.23437 522.172 1.21875 522.328 1.21875C522.672 1.21875 522.922 1.3125 523.078 1.5C523.266 1.65625 523.359 1.85938 523.359 2.10938C523.359 2.29688 523.312 2.5 523.219 2.71875C523.125 2.90625 522.922 3.07813 522.609 3.23438C522.359 3.35938 521.828 3.64063 521.016 4.07812C520.203 4.51562 519.219 5.125 518.062 5.90625C516.938 6.6875 515.672 7.67188 514.266 8.85938C512.891 10.0156 511.5 11.3906 510.094 12.9844C508.688 14.5469 507.328 16.3438 506.016 18.375C504.703 20.375 503.531 22.625 502.5 25.125C501.5 27.5938 500.688 30.3281 500.062 33.3281C499.438 36.3281 499.125 39.5938 499.125 43.125C499.125 47.2188 499.547 50.6562 500.391 53.4375C501.266 56.2188 502.359 58.4531 503.672 60.1406C504.984 61.8281 506.438 63.0469 508.031 63.7969C509.625 64.5156 511.172 64.875 512.672 64.875C513.922 64.875 515.188 64.5938 516.469 64.0312C517.75 63.4375 518.891 62.5156 519.891 61.2656C520.922 60.0156 521.75 58.4062 522.375 56.4375C523.031 54.4688 523.359 52.0938 523.359 49.3125C523.359 45.9062 523.047 43.125 522.422 40.9688C521.797 38.7812 521 37.0781 520.031 35.8594C519.062 34.6406 517.984 33.8125 516.797 33.375C515.641 32.9062 514.516 32.6719 513.422 32.6719C511.922 32.6719 510.703 32.9844 509.766 33.6094C508.828 34.2344 508.062 34.9219 507.469 35.6719C506.875 36.3906 506.406 37.0625 506.062 37.6875C505.719 38.3125 505.391 38.625 505.078 38.625C504.891 38.625 504.719 38.5312 504.562 38.3438C504.438 38.125 504.375 37.7812 504.375 37.3125C504.375 37 504.453 36.5156 504.609 35.8594C504.797 35.2031 505.078 34.4844 505.453 33.7031C505.859 32.8906 506.375 32.0625 507 31.2188C507.656 30.3438 508.453 29.5625 509.391 28.875C510.359 28.1562 511.469 27.5781 512.719 27.1406C513.969 26.6719 515.422 26.4375 517.078 26.4375C519.172 26.4375 521.125 26.9062 522.938 27.8438C524.781 28.7812 526.375 30.1094 527.719 31.8281C529.094 33.5469 530.172 35.5938 530.953 37.9688C531.734 40.3438 532.125 42.9531 532.125 45.7969Z" fill="#FFF200"/>
</svg>
