<svg width="437" height="125" viewBox="0 0 437 125" fill="none" xmlns="http://www.w3.org/2000/svg">
<path d="M42.5625 124.688C37.3125 124.688 32.1875 124.25 27.1875 123.375C22.1875 122.5 17.625 121 13.5 118.875C9.375 116.875 6.0625 114.063 3.5625 110.437C1.1875 106.687 3.91155e-08 101.937 3.91155e-08 96.1875C3.91155e-08 89.9375 1.5 84.6875 4.5 80.4375C7.5 76.0625 11.4375 72.5625 16.3125 69.9375C21.1875 67.1875 26.4375 65.0625 32.0625 63.5625C37.8125 62.0625 43.375 61 48.75 60.375C54.25 59.625 59.0625 59.1875 63.1875 59.0625C59.4375 54.6875 56.0625 49.1875 53.0625 42.5625C50.0625 35.9375 48.5625 29.5 48.5625 23.25C48.5625 21 48.8125 18.8125 49.3125 16.6875C49.8125 14.5625 50.625 12.5625 51.75 10.6875C53 8.4375 55 6.5625 57.75 5.06249C60.5 3.43749 63.5 2.18749 66.75 1.3125C70 0.437493 73 -8.40425e-06 75.75 -8.40425e-06C80.375 -8.40425e-06 84.1875 1.24999 87.1875 3.75C90.1875 6.125 93 8.5625 95.625 11.0625C96.25 11.6875 97 12.4375 97.875 13.3125C98.875 14.0625 99.9375 14.625 101.063 15C101.563 15.125 102.125 15.25 102.75 15.375C103.5 15.375 104.125 15.5625 104.625 15.9375C105.625 16.8125 106.5 18.125 107.25 19.875C108.125 21.625 108.813 23.1875 109.313 24.5625C110.063 26.5625 110.438 29.1875 110.438 32.4375C110.438 34.9375 110.125 37.25 109.5 39.375C109 41.5 108.188 42.5625 107.063 42.5625C106.438 42.5625 105.625 42 104.625 40.875C103.125 39.125 102.063 36.8125 101.437 33.9375C100.813 30.9375 99.875 28.25 98.625 25.875C97.125 22.625 95.5 19.625 93.75 16.875C92 14.125 89.875 11.75 87.375 9.75C86.375 8.625 84.875 7.5 82.875 6.375C81 5.25 78.8125 4.6875 76.3125 4.6875C74.4375 4.6875 72.875 5 71.625 5.625C67.25 7.375 64.125 10.25 62.25 14.25C60.5 18.25 59.625 22.625 59.625 27.375C59.625 33.125 60.5625 38.875 62.4375 44.625C64.3125 50.25 66.4375 54.5625 68.8125 57.5625C69.4375 58.3125 70.9375 58.8125 73.3125 59.0625C75.8125 59.1875 77.5625 59.375 78.5625 59.625C80.5625 59.75 82 60.1875 82.875 60.9375C83.75 61.6875 84.1875 62.5 84.1875 63.375C84.1875 64.75 83.375 65.9375 81.75 66.9375C81.125 67.5625 80.0625 67.875 78.5625 67.875C76.4375 67.875 74.0625 67.5 71.4375 66.75C68.8125 65.875 66.625 65.25 64.875 64.875C61.125 65 56.8125 65.625 51.9375 66.75C47.0625 67.875 42.0625 69.5 36.9375 71.625C31.9375 73.625 27.25 76.125 22.875 79.125C18.625 82.125 15.125 85.5625 12.375 89.4375C9.75 93.1875 8.375 97.3125 8.25 101.812C8.125 106.812 10.0625 111.125 14.0625 114.75C18.0625 118.375 25.375 120.188 36 120.188C41 120.188 46.375 119.75 52.125 118.875C57.875 118 63.5 116.813 69 115.313C74.625 113.938 79.8125 112.437 84.5625 110.812C89.3125 109.187 93.1875 107.562 96.1875 105.937C98.5625 104.812 101.438 103.125 104.813 100.875C108.188 98.5 111.5 95.8125 114.75 92.8125C118.125 89.8125 120.875 86.75 123 83.625C125.25 80.375 126.375 77.25 126.375 74.25C126.375 74 126.375 73.6875 126.375 73.3125C126.375 72.9375 126.313 72.625 126.188 72.375C126.063 71.875 126.313 71.625 126.938 71.625C127.563 71.625 128 71.75 128.25 72C130 74.5 130.875 77.25 130.875 80.25C130.875 84.25 129.438 88.1875 126.563 92.0625C123.813 95.9375 120.5 99.4375 116.625 102.562C112.75 105.687 109.188 108.125 105.938 109.875C102.063 112.125 97.375 114.125 91.875 115.875C86.5 117.75 80.8125 119.313 74.8125 120.563C68.9375 121.938 63.1875 122.938 57.5625 123.563C51.9375 124.313 46.9375 124.688 42.5625 124.688ZM143.216 119.063C140.841 119.063 139.216 118.063 138.341 116.063C137.466 114.063 137.091 112.062 137.216 110.062C137.841 106.437 138.716 102.75 139.841 99C141.091 95.125 142.279 91.3125 143.404 87.5625C143.654 86.6875 143.966 85.5625 144.341 84.1875C144.716 82.8125 145.091 81.3125 145.466 79.6875C144.591 80.9375 143.591 82.3125 142.466 83.8125C141.466 85.3125 140.404 86.875 139.279 88.5C138.779 89.125 138.216 89.4375 137.591 89.4375C137.091 89.4375 136.716 89.1875 136.466 88.6875C136.216 88.0625 136.341 87.4375 136.841 86.8125C139.716 82.8125 141.966 79.3125 143.591 76.3125C145.216 73.1875 146.341 70.6875 146.966 68.8125C147.216 66.3125 146.904 64.25 146.029 62.625C145.279 60.875 143.841 60 141.716 60C141.341 60 140.966 60.0625 140.591 60.1875C140.216 60.1875 139.779 60.25 139.279 60.375C139.154 60.375 139.029 60.4375 138.904 60.5625C138.904 60.5625 138.841 60.5625 138.716 60.5625C138.341 60.5625 138.154 60.375 138.154 60C138.154 59.625 138.529 58.9375 139.279 57.9375C139.779 57.5625 140.716 57.3125 142.091 57.1875C143.466 56.9375 144.779 56.75 146.029 56.625C147.279 56.5 148.029 56.4375 148.279 56.4375C150.029 56.4375 151.654 56.5625 153.154 56.8125C154.654 57.0625 155.904 57.8125 156.904 59.0625C157.529 59.6875 158.029 60.5 158.404 61.5C158.779 62.5 158.841 63.5 158.591 64.5C158.591 65.25 158.216 66.5625 157.466 68.4375C156.841 70.1875 156.091 72.125 155.216 74.25C154.466 76.375 153.716 78.3125 152.966 80.0625C152.341 81.6875 151.966 82.8125 151.841 83.4375C150.591 86.9375 149.341 90.8125 148.091 95.0625C146.841 99.3125 146.341 102.562 146.591 104.812C152.466 97.0625 158.466 89.3125 164.591 81.5625C170.716 73.8125 177.341 66.625 184.466 60C187.341 57.125 190.279 54.5 193.279 52.125C196.279 49.625 199.654 47.625 203.404 46.125C205.029 45.5 206.529 45.1875 207.904 45.1875C209.904 45.1875 211.654 45.5625 213.154 46.3125C214.654 47.0625 215.654 47.9375 216.154 48.9375C216.654 49.3125 216.904 50 216.904 51C216.904 52.5 216.404 53.25 215.404 53.25C215.154 53.25 214.654 53 213.904 52.5C213.279 51.875 212.341 51.5625 211.091 51.5625C209.841 51.5625 208.654 51.5625 207.529 51.5625C204.904 51.5625 201.591 52.875 197.591 55.5C193.716 58.125 189.466 61.5625 184.841 65.8125C180.341 70.0625 175.841 74.6875 171.341 79.6875C166.841 84.6875 162.654 89.6875 158.779 94.6875C155.029 99.6875 151.904 104.187 149.404 108.187C147.029 112.187 145.716 115.25 145.466 117.375C145.466 118 145.154 118.438 144.529 118.688C143.904 118.938 143.466 119.063 143.216 119.063ZM213.239 115.875C207.614 115.875 202.739 114.563 198.614 111.937C194.489 109.312 192.426 105.312 192.426 99.9375C192.426 97.0625 193.301 93.5625 195.051 89.4375C196.301 86.5625 198.614 83.25 201.989 79.5C205.364 75.75 209.301 72.125 213.801 68.625C218.301 65 222.864 62.0625 227.489 59.8125C232.114 57.4375 236.301 56.25 240.051 56.25C241.426 56.25 242.676 56.4375 243.801 56.8125C245.926 57.5625 247.364 58.75 248.114 60.375C248.989 62 249.426 63.6875 249.426 65.4375C249.426 67.0625 249.176 68.625 248.676 70.125C248.176 71.625 247.551 72.9375 246.801 74.0625C244.551 77.4375 241.301 80.4375 237.051 83.0625C232.926 85.6875 228.676 87.75 224.301 89.25C220.051 90.75 216.551 91.625 213.801 91.875H213.426C211.801 91.875 210.989 91.375 210.989 90.375C210.989 89.75 211.489 89.4375 212.489 89.4375C215.489 89.1875 219.239 87.8125 223.739 85.3125C228.364 82.6875 232.426 80 235.926 77.25C237.426 76 239.176 74.25 241.176 72C243.301 69.75 244.364 67.5625 244.364 65.4375C244.364 63.1875 243.301 62.0625 241.176 62.0625C240.051 62.0625 238.864 62.3125 237.614 62.8125C236.489 63.3125 235.551 63.6875 234.801 63.9375C231.176 65.6875 227.176 68.4375 222.801 72.1875C218.426 75.8125 214.426 79.9375 210.801 84.5625C207.301 89.0625 204.864 93.625 203.489 98.25C203.114 99.25 202.864 100.25 202.739 101.25C202.614 102.125 202.551 103 202.551 103.875C202.551 106.875 203.489 109 205.364 110.25C207.364 111.5 209.739 112.125 212.489 112.125C216.614 112.125 220.864 111.25 225.239 109.5C229.614 107.625 233.864 105.25 237.989 102.375C242.114 99.5 245.864 96.4375 249.239 93.1875C252.739 89.8125 255.676 86.5625 258.051 83.4375C258.426 82.9375 258.864 82.6875 259.364 82.6875C259.864 82.5625 260.176 82.625 260.301 82.875C260.801 83 261.051 83.375 261.051 84C261.051 84.5 260.926 85 260.676 85.5C257.176 90.375 252.926 95.125 247.926 99.75C243.051 104.375 237.614 108.25 231.614 111.375C225.739 114.375 219.614 115.875 213.239 115.875ZM248.177 115.5C247.302 115.5 247.052 115.063 247.427 114.188C247.802 113.438 248.489 111.75 249.489 109.125C250.489 106.375 251.614 103.125 252.864 99.375C254.239 95.625 255.614 91.75 256.989 87.75C258.364 83.75 259.614 80 260.739 76.5C261.989 73 262.989 70.25 263.739 68.25C263.989 67.5 264.239 66.4375 264.489 65.0625C264.739 63.5625 265.239 62.25 265.989 61.125C266.864 59.875 268.302 59.25 270.302 59.25C274.052 59.25 275.927 60.125 275.927 61.875C275.927 62.5 275.614 63.5625 274.989 65.0625C273.489 68.4375 271.864 72.3125 270.114 76.6875C268.364 81.0625 266.802 85.1875 265.427 89.0625C264.052 92.9375 262.989 95.9375 262.239 98.0625C263.489 96.3125 265.489 93.8125 268.239 90.5625C271.114 87.3125 274.302 83.8125 277.802 80.0625C281.302 76.3125 284.927 72.6875 288.677 69.1875C292.552 65.6875 296.114 62.875 299.364 60.75C302.739 58.5 305.614 57.375 307.989 57.375C310.989 57.375 312.489 59 312.489 62.25C312.489 63.375 312.177 65.0625 311.552 67.3125C310.427 70.4375 308.989 73.5 307.239 76.5C305.489 79.375 303.927 82.4375 302.552 85.6875C300.177 91.5625 298.802 96.3125 298.427 99.9375C298.302 100.438 298.239 100.937 298.239 101.437C298.239 101.812 298.239 102.25 298.239 102.75C298.239 107.75 299.927 110.25 303.302 110.25C305.177 110.25 307.677 109.125 310.802 106.875C313.927 104.625 317.114 101.937 320.364 98.8125C323.739 95.6875 326.739 92.6875 329.364 89.8125C331.989 86.8125 333.802 84.5625 334.802 83.0625C335.177 82.6875 335.552 82.5 335.927 82.5C336.427 82.5 336.802 82.6875 337.052 83.0625C337.427 83.4375 337.489 83.9375 337.239 84.5625C336.114 86.6875 334.177 89.375 331.427 92.625C328.802 95.75 325.864 98.9375 322.614 102.187C319.364 105.312 316.177 108 313.052 110.25C311.177 111.5 308.864 112.625 306.114 113.625C303.364 114.625 300.614 115.063 297.864 114.938C294.364 114.563 291.864 113.375 290.364 111.375C288.864 109.25 288.114 106.75 288.114 103.875C288.114 100.5 288.739 96.9375 289.989 93.1875C291.364 89.3125 292.864 85.6875 294.489 82.3125C296.114 78.9375 297.427 76.375 298.427 74.625C299.427 72.625 299.927 71.0625 299.927 69.9375C299.927 68.9375 299.489 68.4375 298.614 68.4375C297.739 68.4375 296.427 69 294.677 70.125C292.927 71.25 290.552 73.1875 287.552 75.9375C284.802 78.3125 281.864 81.4375 278.739 85.3125C275.614 89.0625 272.552 92.9375 269.552 96.9375C266.677 100.937 264.114 104.375 261.864 107.25C259.739 110.125 258.239 111.812 257.364 112.312C256.739 112.687 255.302 113.312 253.052 114.188C250.927 115.063 249.302 115.5 248.177 115.5ZM341.045 114.938C338.795 114.938 336.732 114.438 334.857 113.438C333.107 112.437 331.795 110.562 330.92 107.812C330.795 107.437 330.67 107.062 330.545 106.687C330.545 106.312 330.545 105.875 330.545 105.375C330.545 102.875 331.107 99.75 332.232 96C333.357 92.25 334.732 88.625 336.357 85.125C335.607 86.125 334.732 87.375 333.732 88.875C332.732 90.25 331.295 92.0625 329.42 94.3125C328.92 94.8125 328.357 95.0625 327.732 95.0625C326.857 95.0625 326.42 94.5625 326.42 93.5625C326.42 92.8125 326.67 92.1875 327.17 91.6875C330.42 87.5625 333.295 83.875 335.795 80.625C338.42 77.375 340.357 74.625 341.607 72.375C341.607 72.125 341.982 71.375 342.732 70.125C343.482 68.75 344.482 66.875 345.732 64.5C344.732 64.625 343.857 64.75 343.107 64.875C342.482 64.875 341.92 64.875 341.42 64.875C340.545 64.875 339.795 64.5 339.17 63.75C338.545 63 338.482 62.0625 338.982 60.9375C339.607 59.1875 340.982 58.1875 343.107 57.9375C345.232 57.6875 347.107 57.5 348.732 57.375C348.857 57.125 349.107 57 349.482 57C350.982 54.25 352.42 51.5625 353.795 48.9375C355.17 46.3125 356.295 44.125 357.17 42.375C358.17 40.625 358.67 39.6875 358.67 39.5625C361.17 35.5625 362.795 32.9375 363.545 31.6875C364.295 30.3125 365.295 29.5 366.545 29.25C367.92 29.125 369.357 29.1875 370.857 29.4375C372.482 29.6875 373.545 30.25 374.045 31.125C374.42 31.625 374.607 32.25 374.607 33C374.607 34.125 374.357 35.25 373.857 36.375C373.357 37.375 372.857 38.1875 372.357 38.8125C371.857 39.6875 371.17 40.3125 370.295 40.6875C369.545 40.9375 368.857 41.6875 368.232 42.9375C366.982 45.3125 365.607 47.875 364.107 50.625C362.607 53.375 361.045 56 359.42 58.5L361.67 58.3125C364.67 58.0625 367.482 57.75 370.107 57.375C372.857 57 375.982 56.875 379.482 57C380.107 57 380.732 57.125 381.357 57.375C382.107 57.5 382.482 57.75 382.482 58.125C382.482 58.625 380.857 59.3125 377.607 60.1875C376.357 60.6875 373.607 61.25 369.357 61.875C365.232 62.375 360.982 62.875 356.607 63.375C355.357 65.75 354.232 67.75 353.232 69.375C352.232 70.875 351.545 72 351.17 72.75C348.42 78.5 345.92 83.75 343.67 88.5C341.545 93.125 340.357 96.9375 340.107 99.9375C339.982 100.438 339.92 100.937 339.92 101.437C339.92 101.812 339.92 102.25 339.92 102.75C339.92 107.75 341.545 110.25 344.795 110.25C346.795 110.25 349.357 109.187 352.482 107.062C355.607 104.812 358.795 102.125 362.045 99C365.295 95.75 368.232 92.6875 370.857 89.8125C373.607 86.8125 375.482 84.5625 376.482 83.0625C376.857 82.6875 377.232 82.5 377.607 82.5C378.107 82.5 378.482 82.6875 378.732 83.0625C379.107 83.4375 379.17 83.9375 378.92 84.5625C377.795 86.6875 375.857 89.375 373.107 92.625C370.482 95.75 367.482 98.9375 364.107 102.187C360.857 105.312 357.67 108 354.545 110.25C352.92 111.5 350.857 112.562 348.357 113.438C345.982 114.438 343.545 114.938 341.045 114.938ZM376.217 122.438C371.217 122.438 368.717 121.063 368.717 118.313C368.717 116.313 369.78 114.25 371.905 112.125C373.53 110.5 375.342 109.187 377.342 108.187C379.342 107.187 380.592 106.687 381.092 106.687C381.717 106.687 382.03 106.937 382.03 107.437C382.155 107.937 381.905 108.312 381.28 108.562C380.03 109.312 378.592 110.375 376.967 111.75C375.467 113 374.717 114.375 374.717 115.875C374.717 117.875 375.905 118.875 378.28 118.875C381.155 118.875 384.155 118 387.28 116.25C390.405 114.625 393.28 112.5 395.905 109.875C398.655 107.25 400.842 104.625 402.467 102C404.217 99.25 405.092 96.875 405.092 94.875C405.092 93.25 404.53 91.75 403.405 90.375C402.28 89 399.967 87.375 396.467 85.5C394.092 84.125 391.78 82.6875 389.53 81.1875C387.405 79.6875 385.78 77.875 384.655 75.75C383.655 77.5 382.342 79.625 380.717 82.125C379.217 84.5 377.405 87 375.28 89.625C374.53 90.375 373.78 90.75 373.03 90.75C372.28 90.75 371.905 90.4375 371.905 89.8125C371.905 89.4375 372.217 88.8125 372.842 87.9375C376.217 83.9375 378.717 80.25 380.342 76.875C381.967 73.5 383.092 70.9375 383.717 69.1875C384.217 65.5625 385.905 62.125 388.78 58.875C391.655 55.625 395.155 52.8125 399.28 50.4375C403.405 47.9375 407.592 46 411.842 44.625C416.217 43.25 420.092 42.5625 423.467 42.5625C426.842 42.5625 429.842 43.1875 432.467 44.4375C435.092 45.6875 436.405 47.6875 436.405 50.4375C436.405 51.9375 435.967 53.5625 435.092 55.3125C433.967 57.6875 432.092 59.8125 429.467 61.6875C429.342 61.8125 429.155 61.875 428.905 61.875C427.905 61.875 427.405 61.4375 427.405 60.5625C427.405 59.9375 427.717 59.3125 428.342 58.6875C429.342 57.8125 430.155 56.75 430.78 55.5C431.405 54.25 431.717 53.0625 431.717 51.9375C431.717 49.6875 430.405 48.5625 427.78 48.5625C425.03 48.5625 421.405 49.3125 416.905 50.8125C412.53 52.3125 408.467 54.25 404.717 56.625C400.467 59.375 396.905 62.375 394.03 65.625C391.155 68.875 389.717 71.75 389.717 74.25C389.717 75.5 390.092 76.6875 390.842 77.8125C391.717 78.8125 393.342 80 395.717 81.375C396.967 82.125 398.717 83.125 400.967 84.375C403.217 85.5 405.155 86.5625 406.78 87.5625C411.905 90.6875 414.467 94 414.467 97.5C414.467 100.375 413.217 103.312 410.717 106.312C408.217 109.187 404.967 111.812 400.967 114.188C397.092 116.688 392.967 118.688 388.592 120.188C384.217 121.688 380.092 122.438 376.217 122.438Z" fill="#ECDDAE"/>
</svg>
