<svg width="350" height="73" viewBox="0 0 350 73" fill="none" xmlns="http://www.w3.org/2000/svg">
<g filter="url(#filter0_d_2_119405)">
<path d="M13.6913 64.934V56.334H4.79135V9.03398H13.6913V0.233981H43.2913V9.03398H52.2913V21.434H40.3913V12.734H16.5913V26.434H34.4913V38.734H16.5913V52.534H40.3913V43.834H52.2913V56.334H43.2913V64.934H13.6913ZM82.1593 64.934V56.334H73.3593V38.734H64.4593V0.233981H76.2593V35.034H85.1593V52.534H91.1593V35.034H100.059V0.233981H111.959V38.734H102.959V56.334H94.1593V64.934H82.1593ZM133.027 64.934V56.334H124.127V9.03398H133.027V0.233981H162.627V9.03398H171.627V21.434H159.727V12.734H135.927V26.434H153.827V38.734H135.927V52.534H159.727V43.834H171.627V56.334H162.627V64.934H133.027ZM183.795 64.934V0.233981H195.595V9.03398H204.395V17.734H213.495V43.834H219.395V0.233981H231.295V64.934H219.395V56.334H210.595V47.534H201.495V21.434H195.595V64.934H183.795ZM258.136 64.934V12.734H252.236V21.434H240.436V9.03398H249.336V0.233981H278.936V9.03398H287.936V21.434H276.036V12.734H270.136V64.934H258.136ZM307.051 64.934V56.334H298.151V43.834H309.951V52.534H333.751V38.734H307.051V30.134H298.151V9.03398H307.051V0.233981H336.651V9.03398H345.651V21.434H333.751V12.734H309.951V26.434H336.651V35.034H345.651V56.334H336.651V64.934H307.051Z" fill="white"/>
</g>
<defs>
<filter id="filter0_d_2_119405" x="0.791351" y="0.234009" width="348.859" height="72.7" filterUnits="userSpaceOnUse" color-interpolation-filters="sRGB">
<feFlood flood-opacity="0" result="BackgroundImageFix"/>
<feColorMatrix in="SourceAlpha" type="matrix" values="0 0 0 0 0 0 0 0 0 0 0 0 0 0 0 0 0 0 127 0" result="hardAlpha"/>
<feOffset dy="4"/>
<feGaussianBlur stdDeviation="2"/>
<feComposite in2="hardAlpha" operator="out"/>
<feColorMatrix type="matrix" values="0 0 0 0 0.980392 0 0 0 0 0.419608 0 0 0 0 0.635294 0 0 0 1 0"/>
<feBlend mode="normal" in2="BackgroundImageFix" result="effect1_dropShadow_2_119405"/>
<feBlend mode="normal" in="SourceGraphic" in2="effect1_dropShadow_2_119405" result="shape"/>
</filter>
</defs>
</svg>
