<svg width="242" height="41" viewBox="0 0 242 41" fill="none" xmlns="http://www.w3.org/2000/svg">
<path d="M15.1464 18.5808C16.7605 18.5808 17.7928 17.8488 18.2432 16.3849C18.3934 15.8218 18.5811 14.8646 18.8063 13.5133C18.9564 13.3631 19.2943 13.2881 19.8198 13.2881C20.3453 13.2881 20.7207 13.3631 20.9459 13.5133C20.6456 15.803 20.4954 17.9989 20.4954 20.101C20.4954 22.1655 20.6456 24.3427 20.9459 26.6324C20.7957 26.7826 20.4204 26.8577 19.8198 26.8577C19.2567 26.8577 18.9189 26.7826 18.8063 26.6324C18.5811 25.3562 18.3746 24.4553 18.1869 23.9298C18.0368 23.3667 17.7177 22.8788 17.2297 22.4658C16.7417 22.0154 16.0473 21.7902 15.1464 21.7902H8.89652L9.23436 32.7697C9.30943 34.3463 9.59096 35.4536 10.0789 36.0918C10.6045 36.6924 11.5616 36.9926 12.9505 36.9926H20.5517C22.2785 36.9926 23.7236 36.4108 24.8873 35.2472C26.0884 34.046 27.2521 32.1879 28.3782 29.6729C28.4533 29.5979 28.7348 29.5603 29.2228 29.5603C29.7483 29.5603 30.18 29.7292 30.5178 30.0671L27.5899 40.7088C22.8227 40.2208 17.8303 39.9768 12.6127 39.9768C7.43258 39.9768 3.28475 40.0331 0.169181 40.1458C0.0565699 40.0331 0.000264442 39.7141 0.000264442 39.1886C0.000264442 38.6255 0.112875 38.2314 0.338097 38.0061C1.68943 38.0061 2.64662 37.7809 3.20967 37.3305C3.77273 36.8425 4.07302 36.0918 4.11056 35.0783L4.61731 5.63052C4.61731 4.61702 4.31701 3.88505 3.71642 3.43461C3.15337 2.94663 2.19618 2.70264 0.844846 2.70264C0.582087 2.51495 0.450708 2.13958 0.450708 1.57653C0.450708 0.975935 0.488245 0.638103 0.563319 0.563031C3.71642 0.67564 7.62027 0.731945 12.2749 0.731945C16.9294 0.731945 21.6966 0.487954 26.5764 -2.66599e-05L27.3647 9.90973C27.2146 10.0599 26.8392 10.135 26.2386 10.135C25.638 10.135 25.2814 10.0599 25.1688 9.90973C24.831 7.5449 24.2116 5.96835 23.3107 5.18007C22.4098 4.35426 20.9647 3.94136 18.9752 3.94136H8.38977L8.84022 18.5808H15.1464ZM40.1645 1.06978L48.1599 0.563031C48.235 0.713176 48.2725 1.05101 48.2725 1.57653C48.2725 2.06451 48.1411 2.43988 47.8784 2.70264C45.8889 2.70264 44.8942 3.19062 44.8942 4.16658C44.8942 5.02993 45.6824 6.56894 47.259 8.78362L52.7206 16.4412L60.4908 6.13727C60.9788 5.49914 61.2228 4.93608 61.2228 4.44811C61.2228 3.28446 59.9277 2.70264 57.3377 2.70264C57.1125 2.55249 56.9998 2.17712 56.9998 1.57653C56.9998 0.975935 57.0374 0.638103 57.1125 0.563031C57.7506 0.563031 58.8955 0.656873 60.5471 0.844557C62.2362 0.994706 63.5876 1.06978 64.6011 1.06978C65.6521 1.06978 67.0034 0.994706 68.6551 0.844557C70.3067 0.656873 71.4516 0.563031 72.0897 0.563031C72.1648 0.638103 72.2023 0.938399 72.2023 1.46392C72.2023 1.98943 72.0522 2.40234 71.7519 2.70264C69.9501 2.70264 68.7301 2.87155 68.092 3.20939C67.4539 3.54722 66.4592 4.61702 65.1078 6.41879L55.0855 19.8195C61.5043 28.9034 64.8826 33.6519 65.2204 34.0648C65.5958 34.4401 65.9899 34.8718 66.4029 35.3598C66.8533 35.8478 67.2099 36.1856 67.4727 36.3733C67.7729 36.561 68.1108 36.805 68.4862 37.1053C68.8991 37.368 69.2932 37.5557 69.6686 37.6683C70.5695 37.8935 71.3953 38.0061 72.146 38.0061C72.4088 38.344 72.5401 38.7757 72.5401 39.3012C72.5401 39.7892 72.5026 40.0707 72.4275 40.1458C71.7894 40.1458 70.7384 40.0707 69.2744 39.9205C67.8105 39.7704 66.5342 39.6953 65.4457 39.6953L56.7183 40.1458C56.6432 40.1082 56.6057 39.8079 56.6057 39.2449C56.6057 38.6818 56.7371 38.2689 56.9998 38.0061C58.8767 38.0061 59.8151 37.5369 59.8151 36.5985C59.8151 35.7727 58.9893 34.1586 57.3377 31.7562L51.9887 24.0424L44.1622 34.6841C43.449 35.6601 43.0924 36.3921 43.0924 36.88C43.0924 37.6308 44.2185 38.0061 46.4707 38.0061C46.7335 38.2689 46.8649 38.6818 46.8649 39.2449C46.8649 39.7704 46.8273 40.0707 46.7523 40.1458C46.1141 40.1458 45.0819 40.0707 43.6555 39.9205C42.229 39.7704 40.9903 39.6953 39.9393 39.6953L32.507 40.1458C32.4319 40.0707 32.3944 39.7704 32.3944 39.2449C32.3944 38.7193 32.5445 38.3064 32.8448 38.0061C34.2712 38.0061 35.4536 37.7809 36.3921 37.3305C37.3305 36.88 38.3815 35.8665 39.5452 34.29L49.6801 20.6078C46.4144 16.0283 44.256 13.0065 43.205 11.5426C42.1915 10.0786 41.5158 9.12145 41.178 8.67101C40.8777 8.22057 40.4273 7.61998 39.8267 6.86924C39.2636 6.1185 38.832 5.59298 38.5317 5.29269C38.2314 4.99239 37.8185 4.63579 37.2929 4.22288C36.805 3.77244 36.3733 3.47214 35.9979 3.32199C34.9093 2.90909 33.8771 2.70264 32.9011 2.70264C32.6759 2.51495 32.5633 2.13958 32.5633 1.57653C32.5633 0.975935 32.6008 0.638103 32.6759 0.563031C33.2765 0.563031 34.4026 0.656873 36.0542 0.844557C37.7434 0.994706 39.1135 1.06978 40.1645 1.06978ZM80.858 0.900862L89.2475 0.563031C92.8135 0.563031 95.7977 1.52022 98.2 3.43461C100.602 5.31145 101.804 7.9015 101.804 11.2048C101.804 15.0711 100.34 18.1303 97.4118 20.3825C94.5214 22.6348 90.9554 23.7984 86.7137 23.8735C86.5636 23.7233 86.3571 23.423 86.0944 22.9726C85.8316 22.4846 85.7002 22.1655 85.7002 22.0154C85.7002 21.8653 85.719 21.7714 85.7565 21.7339C93.0762 21.7339 96.7361 18.4869 96.7361 11.993C96.7361 8.99008 95.9103 6.81293 94.2586 5.4616C92.6446 4.11027 90.2422 3.43461 87.0516 3.43461C85.5125 3.43461 84.1049 3.56599 82.8286 3.82874L84.2926 35.0783C84.3677 36.1293 84.668 36.88 85.1935 37.3305C85.719 37.7809 86.6574 38.0061 88.0087 38.0061C88.1964 38.1938 88.2903 38.588 88.2903 39.1886C88.2903 39.7516 88.2527 40.0707 88.1777 40.1458L81.9841 39.8079L75.2274 40.1458C75.1148 40.0331 75.0585 39.7141 75.0585 39.1886C75.0585 38.6255 75.1711 38.2314 75.3963 38.0061C77.9113 38.0061 79.1688 37.0302 79.1688 35.0783L79.394 5.57421C79.394 4.56072 79.1125 3.82874 78.5494 3.3783C77.9864 2.92786 77.0104 2.70264 75.6215 2.70264C75.3963 2.51495 75.2837 2.13958 75.2837 1.57653C75.2837 0.975935 75.3213 0.638103 75.3963 0.563031L80.858 0.900862ZM112.493 0.900862L118.124 0.563031C118.199 0.638103 118.236 0.975935 118.236 1.57653C118.236 2.13958 118.143 2.51495 117.955 2.70264C116.604 2.70264 115.646 2.94663 115.083 3.43461C114.52 3.88505 114.239 4.61702 114.239 5.63052L115.14 32.7697C115.215 34.3463 115.496 35.4536 115.984 36.0918C116.51 36.6924 117.467 36.9926 118.856 36.9926H123.473C125.237 36.9926 126.701 36.4108 127.865 35.2472C129.066 34.0835 130.229 32.2255 131.356 29.6729C131.431 29.5979 131.712 29.5603 132.2 29.5603C132.726 29.5603 133.157 29.7292 133.495 30.0671L130.567 40.7088C125.875 40.2208 121.371 39.9768 117.054 39.9768C112.775 39.9768 109.115 40.0331 106.074 40.1458C105.962 40.0331 105.906 39.7141 105.906 39.1886C105.906 38.6255 106.018 38.2314 106.243 38.0061C108.758 38.0061 110.016 37.0302 110.016 35.0783L110.354 5.63052C110.354 4.61702 110.053 3.88505 109.453 3.43461C108.89 2.94663 107.933 2.70264 106.581 2.70264C106.318 2.51495 106.187 2.13958 106.187 1.57653C106.187 0.975935 106.225 0.638103 106.3 0.563031L112.493 0.900862ZM136.877 20.3262C136.877 12.2183 139.298 6.38126 144.14 2.81525C146.655 0.938397 149.696 -2.66599e-05 153.262 -2.66599e-05C158.742 -2.66599e-05 162.984 1.93313 165.987 5.79944C169.027 9.62821 170.548 14.4705 170.548 20.3262C170.548 26.1445 169.027 31.0055 165.987 34.9093C162.984 38.7757 158.78 40.7088 153.375 40.7088C148.007 40.7088 143.915 38.7757 141.1 34.9093C138.285 31.043 136.877 26.182 136.877 20.3262ZM154.219 37.3868C161.839 37.3868 165.649 32.2818 165.649 22.0717C165.649 16.9291 164.767 12.6312 163.003 9.17776C162.064 7.33845 160.732 5.91205 159.005 4.89855C157.316 3.84751 155.289 3.32199 152.924 3.32199C149.02 3.32199 146.186 4.71086 144.422 7.4886C142.658 10.2663 141.776 13.8699 141.776 18.2992C141.776 24.7931 143.127 29.8231 145.83 33.3891C146.73 34.5903 147.894 35.5662 149.321 36.317C150.784 37.0302 152.417 37.3868 154.219 37.3868ZM187.84 3.43461C186.301 3.43461 184.894 3.56599 183.618 3.82874L184.181 19.5943H187.221C190.036 19.5943 192.345 18.8811 194.147 17.4547C195.948 16.0283 196.849 14.0388 196.849 11.4863C196.849 8.89624 196.061 6.90678 194.485 5.51791C192.908 4.12904 190.693 3.43461 187.84 3.43461ZM181.647 0.900862L190.036 0.563031C193.227 0.563031 195.986 1.55776 198.313 3.54722C200.678 5.49914 201.861 7.88274 201.861 10.698C201.861 13.4757 201.053 15.8781 199.439 17.9051C197.863 19.9321 195.667 21.321 192.852 22.0717L198.539 28.6594C201.767 32.4131 204.113 34.9093 205.577 36.1481C207.041 37.3868 208.542 38.0061 210.081 38.0061C210.306 38.3064 210.419 38.7193 210.419 39.2449C210.419 39.7704 210.381 40.0707 210.306 40.1458C209.743 40.1458 208.749 40.0707 207.322 39.9205C205.933 39.7328 204.732 39.639 203.719 39.639C202.705 39.639 201.297 39.7328 199.496 39.9205C197.694 40.0707 196.455 40.1458 195.78 40.1458C195.704 40.1082 195.667 39.8079 195.667 39.2449C195.667 38.6818 195.798 38.2689 196.061 38.0061C197.825 38.0061 198.707 37.6308 198.707 36.88C198.707 35.9791 197.206 33.7457 194.203 30.1797C191.238 26.5761 189.286 24.4178 188.347 23.7046C187.446 22.9914 186.17 22.6348 184.518 22.6348L185.082 35.0783C185.119 36.0918 185.401 36.8425 185.926 37.3305C186.489 37.7809 187.446 38.0061 188.798 38.0061C188.985 38.1938 189.079 38.588 189.079 39.1886C189.079 39.7516 189.042 40.0707 188.967 40.1458L182.773 39.8079L176.016 40.1458C175.904 40.0331 175.847 39.7141 175.847 39.1886C175.847 38.6255 175.96 38.2314 176.185 38.0061C178.7 38.0061 179.958 37.0302 179.958 35.0783L180.183 5.57421C180.183 4.56072 179.901 3.82874 179.338 3.3783C178.775 2.92786 177.799 2.70264 176.41 2.70264C176.185 2.51495 176.073 2.13958 176.073 1.57653C176.073 0.975935 176.11 0.638103 176.185 0.563031L181.647 0.900862ZM226.182 18.5808C227.796 18.5808 228.828 17.8488 229.279 16.3849C229.429 15.8218 229.616 14.8646 229.842 13.5133C229.992 13.3631 230.33 13.2881 230.855 13.2881C231.381 13.2881 231.756 13.3631 231.981 13.5133C231.681 15.803 231.531 17.9989 231.531 20.101C231.531 22.1655 231.681 24.3427 231.981 26.6324C231.831 26.7826 231.456 26.8577 230.855 26.8577C230.292 26.8577 229.954 26.7826 229.842 26.6324C229.616 25.3562 229.41 24.4553 229.222 23.9298C229.072 23.3667 228.753 22.8788 228.265 22.4658C227.777 22.0154 227.083 21.7902 226.182 21.7902H219.932L220.27 32.7697C220.345 34.3463 220.626 35.4536 221.114 36.0918C221.64 36.6924 222.597 36.9926 223.986 36.9926H231.587C233.314 36.9926 234.759 36.4108 235.923 35.2472C237.124 34.046 238.288 32.1879 239.414 29.6729C239.489 29.5979 239.77 29.5603 240.258 29.5603C240.784 29.5603 241.215 29.7292 241.553 30.0671L238.625 40.7088C233.858 40.2208 228.866 39.9768 223.648 39.9768C218.468 39.9768 214.32 40.0331 211.205 40.1458C211.092 40.0331 211.036 39.7141 211.036 39.1886C211.036 38.6255 211.148 38.2314 211.374 38.0061C212.725 38.0061 213.682 37.7809 214.245 37.3305C214.808 36.8425 215.108 36.0918 215.146 35.0783L215.653 5.63052C215.653 4.61702 215.352 3.88505 214.752 3.43461C214.189 2.94663 213.232 2.70264 211.88 2.70264C211.618 2.51495 211.486 2.13958 211.486 1.57653C211.486 0.975935 211.524 0.638103 211.599 0.563031C214.752 0.67564 218.656 0.731945 223.31 0.731945C227.965 0.731945 232.732 0.487954 237.612 -2.66599e-05L238.4 9.90973C238.25 10.0599 237.875 10.135 237.274 10.135C236.673 10.135 236.317 10.0599 236.204 9.90973C235.866 7.5449 235.247 5.96835 234.346 5.18007C233.445 4.35426 232 3.94136 230.011 3.94136H219.425L219.876 18.5808H226.182Z" fill="#DAA126"/>
</svg>
