<svg width="448" height="46" viewBox="0 0 448 46" fill="none" xmlns="http://www.w3.org/2000/svg">
<path d="M11.9931 7.82645C10.4541 7.82645 9.04649 7.95783 7.77023 8.22059L8.33329 23.9861H11.3738C14.1891 23.9861 16.4976 23.2729 18.2993 21.8465C20.1011 20.4201 21.002 18.4306 21.002 15.8781C21.002 13.2881 20.2137 11.2986 18.6372 9.90975C17.0606 8.52089 14.846 7.82645 11.9931 7.82645ZM5.79954 5.29271L14.1891 4.95488C17.3797 4.95488 20.1387 5.94961 22.466 7.93906C24.8308 9.89098 26.0132 12.2746 26.0132 15.0899C26.0132 17.8676 25.2061 20.27 23.5921 22.297C22.0155 24.3239 19.8196 25.7128 17.0043 26.4636L22.6912 33.0513C25.9194 36.805 28.2654 39.3012 29.7294 40.5399C31.1933 41.7786 32.6948 42.398 34.2338 42.398C34.459 42.6983 34.5716 43.1112 34.5716 43.6367C34.5716 44.1622 34.5341 44.4625 34.459 44.5376C33.896 44.5376 32.9012 44.4625 31.4748 44.3124C30.086 44.1247 28.8848 44.0308 27.8713 44.0308C26.8578 44.0308 25.4501 44.1247 23.6484 44.3124C21.8466 44.4625 20.6079 44.5376 19.9322 44.5376C19.8571 44.5001 19.8196 44.1998 19.8196 43.6367C19.8196 43.0737 19.951 42.6607 20.2137 42.398C21.978 42.398 22.8601 42.0226 22.8601 41.2719C22.8601 40.371 21.3586 38.1375 18.3557 34.5715C15.3902 30.968 13.4383 28.8096 12.4999 28.0964C11.599 27.3832 10.3227 27.0266 8.67112 27.0266L9.23417 39.4701C9.27171 40.4836 9.55324 41.2343 10.0788 41.7223C10.6418 42.1728 11.599 42.398 12.9503 42.398C13.138 42.5857 13.2319 42.9798 13.2319 43.5804C13.2319 44.1435 13.1943 44.4625 13.1192 44.5376L6.92565 44.1998L0.168999 44.5376C0.0563878 44.425 8.23617e-05 44.1059 8.23617e-05 43.5804C8.23617e-05 43.0174 0.112693 42.6232 0.337915 42.398C2.85289 42.398 4.11038 41.422 4.11038 39.4701L4.3356 9.96606C4.3356 8.95256 4.05407 8.22059 3.49102 7.77015C2.92796 7.3197 1.952 7.09448 0.563137 7.09448C0.337915 6.9068 0.225304 6.53143 0.225304 5.96837C0.225304 5.36778 0.262841 5.02995 0.337915 4.95488L5.79954 5.29271ZM50.3345 22.9726C51.9486 22.9726 52.9809 22.2406 53.4313 20.7767C53.5815 20.2136 53.7691 19.2565 53.9944 17.9051C54.1445 17.755 54.4823 17.6799 55.0079 17.6799C55.5334 17.6799 55.9087 17.755 56.134 17.9051C55.8337 20.1949 55.6835 22.3908 55.6835 24.4929C55.6835 26.5574 55.8337 28.7345 56.134 31.0243C55.9838 31.1744 55.6084 31.2495 55.0079 31.2495C54.4448 31.2495 54.107 31.1744 53.9944 31.0243C53.7691 29.748 53.5627 28.8471 53.375 28.3216C53.2248 27.7586 52.9058 27.2706 52.4178 26.8577C51.9298 26.4072 51.2354 26.182 50.3345 26.182H44.0846L44.4224 37.1616C44.4975 38.7381 44.779 39.8455 45.267 40.4836C45.7925 41.0842 46.7497 41.3845 48.1386 41.3845H55.7398C57.4665 41.3845 58.9117 40.8027 60.0753 39.639C61.2765 38.4378 62.4402 36.5798 63.5663 34.0648C63.6414 33.9897 63.9229 33.9522 64.4109 33.9522C64.9364 33.9522 65.3681 34.1211 65.7059 34.4589L62.778 45.1007C58.0108 44.6127 53.0184 44.3687 47.8008 44.3687C42.6207 44.3687 38.4728 44.425 35.3573 44.5376C35.2446 44.425 35.1883 44.1059 35.1883 43.5804C35.1883 43.0174 35.301 42.6232 35.5262 42.398C36.8775 42.398 37.8347 42.1728 38.3978 41.7223C38.9608 41.2343 39.2611 40.4836 39.2986 39.4701L39.8054 10.0224C39.8054 9.00887 39.5051 8.2769 38.9045 7.82645C38.3414 7.33847 37.3843 7.09448 36.0329 7.09448C35.7702 6.9068 35.6388 6.53143 35.6388 5.96837C35.6388 5.36778 35.6763 5.02995 35.7514 4.95488C38.9045 5.06749 42.8083 5.12379 47.4629 5.12379C52.1175 5.12379 56.8847 4.8798 61.7645 4.39182L62.5528 14.3016C62.4026 14.4517 62.0273 14.5268 61.4267 14.5268C60.8261 14.5268 60.4695 14.4517 60.3569 14.3016C60.019 11.9367 59.3997 10.3602 58.4988 9.57192C57.5979 8.74611 56.1527 8.3332 54.1633 8.3332H43.5779L44.0283 22.9726H50.3345ZM95.7915 37.7809L95.8478 33.4454C95.8478 31.5686 95.4161 30.3486 94.5527 29.7856C93.7269 29.185 91.6249 28.7533 88.2465 28.4905C88.0964 28.3779 88.0213 28.0213 88.0213 27.4207C88.0213 26.8202 88.0964 26.4448 88.2465 26.2946C90.3486 26.4448 93.1639 26.5199 96.6924 26.5199C100.221 26.5199 103.055 26.4448 105.194 26.2946C105.345 26.5199 105.42 26.914 105.42 27.4771C105.42 28.0026 105.345 28.3404 105.194 28.4905C103.167 28.7158 101.929 29.0911 101.478 29.6167C101.028 30.1422 100.803 31.1557 100.803 32.6572V40.7088C98.5504 42.2103 96.4296 43.3176 94.4401 44.0308C92.4882 44.7441 90.0108 45.1007 87.0078 45.1007C81.6025 45.1007 77.4547 43.1863 74.5643 39.3575C71.7115 35.4912 70.2851 30.6489 70.2851 24.8307C70.2851 19.0125 71.9367 14.1514 75.24 10.2476C78.5432 6.34374 83.0101 4.39182 88.6407 4.39182C91.9064 4.39182 94.7404 5.01118 97.1428 6.2499C97.2929 6.32497 97.4243 6.36251 97.5369 6.36251C97.6871 6.36251 97.7809 6.19359 97.8185 5.85576L97.9874 4.61704C98.1375 4.46689 98.4754 4.39182 99.0009 4.39182C99.5264 4.39182 99.9018 4.46689 100.127 4.61704L100.915 15.6529C100.765 15.8031 100.39 15.8781 99.7892 15.8781C99.2261 15.8781 98.8883 15.8031 98.7757 15.6529C98.4378 13.0629 97.3305 11.0922 95.4536 9.74084C93.5768 8.38951 91.3433 7.71384 88.7533 7.71384C79.8195 7.71384 75.3526 12.7626 75.3526 22.86C75.3526 25.7128 75.8218 28.5093 76.7602 31.2495C77.7362 33.9897 79.2189 36.3358 81.2084 38.2877C83.2354 40.2396 85.5626 41.2156 88.1902 41.2156C90.8178 41.2156 93.3328 40.7276 95.7352 39.7516C95.7727 39.6766 95.7915 39.0197 95.7915 37.7809ZM115.847 5.29271L121.309 4.95488C121.384 5.02995 121.421 5.36778 121.421 5.96837C121.421 6.53143 121.328 6.9068 121.14 7.09448C119.789 7.09448 118.85 7.33847 118.325 7.82645C117.799 8.2769 117.536 9.00887 117.536 10.0224L118.381 39.4701C118.418 40.4836 118.7 41.2343 119.226 41.7223C119.789 42.1728 120.746 42.398 122.097 42.398C122.285 42.5857 122.379 42.9798 122.379 43.5804C122.379 44.1435 122.341 44.4625 122.266 44.5376L116.016 44.1998L109.316 44.5376C109.203 44.425 109.147 44.1059 109.147 43.5804C109.147 43.0174 109.259 42.6232 109.485 42.398C110.836 42.398 111.793 42.1728 112.356 41.7223C112.957 41.2343 113.257 40.4836 113.257 39.4701L113.482 10.0224C113.482 9.00887 113.201 8.2769 112.638 7.82645C112.112 7.33847 111.174 7.09448 109.823 7.09448C109.597 6.9068 109.485 6.53143 109.485 5.96837C109.485 5.36778 109.522 5.02995 109.597 4.95488C109.597 4.95488 111.681 5.06749 115.847 5.29271ZM147.007 4.61704C147.157 4.46689 147.495 4.39182 148.02 4.39182C148.546 4.39182 148.921 4.46689 149.147 4.61704L149.935 16.1597C149.785 16.3098 149.409 16.3849 148.809 16.3849C148.246 16.3849 147.908 16.3098 147.795 16.1597C147.495 13.6822 146.932 11.7115 146.106 10.2476C145.093 8.55842 143.216 7.71384 140.476 7.71384C138.411 7.71384 136.741 8.37074 135.464 9.68453C134.226 10.9608 133.606 12.406 133.606 14.02C133.606 15.6341 134.244 17.0605 135.521 18.2993C136.797 19.538 138.336 20.6641 140.138 21.6776C141.977 22.6536 143.798 23.6858 145.599 24.7744C147.439 25.863 148.996 27.2518 150.273 28.941C151.549 30.6302 152.187 32.5821 152.187 34.7968C152.187 37.0114 151.474 38.9446 150.047 40.5962C147.457 43.5992 144.004 45.1007 139.687 45.1007C136.572 45.1007 133.794 44.4813 131.354 43.2426C131.204 43.1675 131.054 43.13 130.904 43.13C130.791 43.13 130.716 43.2989 130.678 43.6367L130.509 44.8754C130.359 45.0256 129.984 45.1007 129.383 45.1007C128.82 45.1007 128.482 45.0256 128.37 44.8754L127.582 33.3328C127.732 33.1827 128.07 33.1076 128.595 33.1076C129.121 33.1076 129.496 33.1827 129.721 33.3328C130.059 35.9229 131.241 37.9874 133.268 39.5264C135.295 41.0279 137.642 41.7786 140.307 41.7786C142.071 41.7786 143.647 41.2156 145.036 40.0895C146.463 38.9258 147.176 37.3305 147.176 35.3035C147.176 33.9897 146.538 32.7885 145.262 31.7C143.985 30.5738 142.446 29.5604 140.644 28.6595C138.843 27.721 137.041 26.7263 135.239 25.6753C133.437 24.6242 131.898 23.2166 130.622 21.4524C129.346 19.6881 128.708 17.6611 128.708 15.3714C128.708 12.0306 129.759 9.36547 131.861 7.37601C134 5.34901 136.44 4.33551 139.181 4.33551C141.921 4.33551 144.229 4.95487 146.106 6.19359C146.256 6.3062 146.406 6.36251 146.557 6.36251C146.707 6.36251 146.801 6.19359 146.838 5.85576L147.007 4.61704ZM171.341 44.1998L164.641 44.5376C164.528 44.425 164.472 44.0872 164.472 43.5241C164.472 42.961 164.566 42.5857 164.753 42.398C166.105 42.398 167.062 42.1728 167.625 41.7223C168.225 41.2343 168.526 40.4836 168.526 39.4701L168.751 7.93906H164.19C161.938 7.93906 160.38 8.40828 159.517 9.3467C158.691 10.2851 158.091 11.8241 157.715 13.9637C157.565 14.1139 157.19 14.189 156.589 14.189C156.026 14.189 155.688 14.1139 155.576 13.9637L156.533 4.39182C160.699 4.80473 165.429 5.01118 170.722 5.01118C176.014 5.01118 180.782 4.80473 185.023 4.39182L185.868 13.9637C185.718 14.1139 185.342 14.189 184.742 14.189C184.179 14.189 183.841 14.1139 183.728 13.9637C183.353 11.8241 182.752 10.2851 181.926 9.3467C181.138 8.40828 179.618 7.93906 177.366 7.93906H172.692L173.706 39.4701C173.743 40.4836 174.025 41.2343 174.55 41.7223C175.114 42.1728 176.071 42.398 177.422 42.398C177.61 42.5857 177.704 42.961 177.704 43.5241C177.704 44.0872 177.647 44.425 177.535 44.5376L171.341 44.1998ZM204.295 22.9726C205.909 22.9726 206.941 22.2406 207.391 20.7767C207.542 20.2136 207.729 19.2565 207.955 17.9051C208.105 17.755 208.443 17.6799 208.968 17.6799C209.494 17.6799 209.869 17.755 210.094 17.9051C209.794 20.1949 209.644 22.3908 209.644 24.4929C209.644 26.5574 209.794 28.7345 210.094 31.0243C209.944 31.1744 209.569 31.2495 208.968 31.2495C208.405 31.2495 208.067 31.1744 207.955 31.0243C207.729 29.748 207.523 28.8471 207.335 28.3216C207.185 27.7586 206.866 27.2706 206.378 26.8577C205.89 26.4072 205.196 26.182 204.295 26.182H198.045L198.383 37.1616C198.458 38.7381 198.739 39.8455 199.227 40.4836C199.753 41.0842 200.71 41.3845 202.099 41.3845H209.7C211.427 41.3845 212.872 40.8027 214.036 39.639C215.237 38.4378 216.4 36.5798 217.526 34.0648C217.602 33.9897 217.883 33.9522 218.371 33.9522C218.897 33.9522 219.328 34.1211 219.666 34.4589L216.738 45.1007C211.971 44.6127 206.979 44.3687 201.761 44.3687C196.581 44.3687 192.433 44.425 189.317 44.5376C189.205 44.425 189.149 44.1059 189.149 43.5804C189.149 43.0174 189.261 42.6232 189.486 42.398C190.838 42.398 191.795 42.1728 192.358 41.7223C192.921 41.2343 193.221 40.4836 193.259 39.4701L193.766 10.0224C193.766 9.00887 193.465 8.2769 192.865 7.82645C192.302 7.33847 191.344 7.09448 189.993 7.09448C189.73 6.9068 189.599 6.53143 189.599 5.96837C189.599 5.36778 189.636 5.02995 189.712 4.95488C192.865 5.06749 196.769 5.12379 201.423 5.12379C206.078 5.12379 210.845 4.8798 215.725 4.39182L216.513 14.3016C216.363 14.4517 215.987 14.5268 215.387 14.5268C214.786 14.5268 214.43 14.4517 214.317 14.3016C213.979 11.9367 213.36 10.3602 212.459 9.57192C211.558 8.74611 210.113 8.3332 208.123 8.3332H197.538L197.988 22.9726H204.295ZM235.675 7.82645C234.136 7.82645 232.729 7.95783 231.452 8.22059L232.015 23.9861H235.056C237.871 23.9861 240.18 23.2729 241.981 21.8465C243.783 20.4201 244.684 18.4306 244.684 15.8781C244.684 13.2881 243.896 11.2986 242.319 9.90975C240.743 8.52089 238.528 7.82645 235.675 7.82645ZM229.482 5.29271L237.871 4.95488C241.062 4.95488 243.821 5.94961 246.148 7.93906C248.513 9.89098 249.695 12.2746 249.695 15.0899C249.695 17.8676 248.888 20.27 247.274 22.297C245.698 24.3239 243.502 25.7128 240.686 26.4636L246.373 33.0513C249.601 36.805 251.948 39.3012 253.411 40.5399C254.875 41.7786 256.377 42.398 257.916 42.398C258.141 42.6983 258.254 43.1112 258.254 43.6367C258.254 44.1622 258.216 44.4625 258.141 44.5376C257.578 44.5376 256.583 44.4625 255.157 44.3124C253.768 44.1247 252.567 44.0308 251.553 44.0308C250.54 44.0308 249.132 44.1247 247.331 44.3124C245.529 44.4625 244.29 44.5376 243.614 44.5376C243.539 44.5001 243.502 44.1998 243.502 43.6367C243.502 43.0737 243.633 42.6607 243.896 42.398C245.66 42.398 246.542 42.0226 246.542 41.2719C246.542 40.371 245.041 38.1375 242.038 34.5715C239.072 30.968 237.12 28.8096 236.182 28.0964C235.281 27.3832 234.005 27.0266 232.353 27.0266L232.916 39.4701C232.954 40.4836 233.235 41.2343 233.761 41.7223C234.324 42.1728 235.281 42.398 236.632 42.398C236.82 42.5857 236.914 42.9798 236.914 43.5804C236.914 44.1435 236.876 44.4625 236.801 44.5376L230.608 44.1998L223.851 44.5376C223.739 44.425 223.682 44.1059 223.682 43.5804C223.682 43.0174 223.795 42.6232 224.02 42.398C226.535 42.398 227.793 41.422 227.793 39.4701L228.018 9.96606C228.018 8.95256 227.736 8.22059 227.173 7.77015C226.61 7.3197 225.634 7.09448 224.245 7.09448C224.02 6.9068 223.907 6.53143 223.907 5.96837C223.907 5.36778 223.945 5.02995 224.02 4.95488L229.482 5.29271ZM278.649 1.29502C277.11 5.31148 274.558 12.6312 270.992 23.2541C267.463 33.8771 265.155 41.1593 264.066 45.1007C262.039 45.1007 260.781 44.7628 260.294 44.0872C261.795 40.1458 264.329 32.8073 267.895 22.0717C271.461 11.3362 273.807 3.97891 274.933 -2.05493e-06C276.96 -2.05493e-06 278.199 0.431673 278.649 1.29502ZM289.6 5.29271L295.23 4.95488C295.305 5.02995 295.343 5.36778 295.343 5.96837C295.343 6.53143 295.249 6.9068 295.061 7.09448C293.71 7.09448 292.753 7.33847 292.19 7.82645C291.627 8.2769 291.345 9.00887 291.345 10.0224L292.246 37.1616C292.321 38.7381 292.603 39.8455 293.091 40.4836C293.616 41.0842 294.573 41.3845 295.962 41.3845H300.579C302.343 41.3845 303.807 40.8027 304.971 39.639C306.172 38.4754 307.336 36.6173 308.462 34.0648C308.537 33.9897 308.819 33.9522 309.307 33.9522C309.832 33.9522 310.264 34.1211 310.602 34.4589L307.674 45.1007C302.982 44.6127 298.477 44.3687 294.16 44.3687C289.881 44.3687 286.221 44.425 283.181 44.5376C283.068 44.425 283.012 44.1059 283.012 43.5804C283.012 43.0174 283.124 42.6232 283.35 42.398C285.865 42.398 287.122 41.422 287.122 39.4701L287.46 10.0224C287.46 9.00887 287.16 8.2769 286.559 7.82645C285.996 7.33847 285.039 7.09448 283.688 7.09448C283.425 6.9068 283.293 6.53143 283.293 5.96837C283.293 5.36778 283.331 5.02995 283.406 4.95488L289.6 5.29271ZM313.983 24.7181C313.983 16.6101 316.405 10.7731 321.247 7.20709C323.762 5.33024 326.802 4.39182 330.368 4.39182C335.849 4.39182 340.09 6.32497 343.093 10.1913C346.134 14.0201 347.654 18.8623 347.654 24.7181C347.654 30.5363 346.134 35.3973 343.093 39.3012C340.09 43.1675 335.886 45.1007 330.481 45.1007C325.113 45.1007 321.022 43.1675 318.206 39.3012C315.391 35.4349 313.983 30.5738 313.983 24.7181ZM331.325 41.7786C338.945 41.7786 342.755 36.6736 342.755 26.4636C342.755 21.321 341.873 17.023 340.109 13.5696C339.171 11.7303 337.838 10.3039 336.111 9.29039C334.422 8.23936 332.395 7.71384 330.03 7.71384C326.127 7.71384 323.293 9.10271 321.528 11.8804C319.764 14.6582 318.882 18.2617 318.882 22.6911C318.882 29.185 320.233 34.2149 322.936 37.7809C323.837 38.9821 325 39.9581 326.427 40.7088C327.891 41.422 329.524 41.7786 331.325 41.7786ZM379.023 37.7809L379.08 33.4454C379.08 31.5686 378.648 30.3486 377.784 29.7856C376.959 29.185 374.857 28.7533 371.478 28.4905C371.328 28.3779 371.253 28.0213 371.253 27.4207C371.253 26.8202 371.328 26.4448 371.478 26.2946C373.58 26.4448 376.396 26.5199 379.924 26.5199C383.453 26.5199 386.287 26.4448 388.426 26.2946C388.576 26.5199 388.651 26.914 388.651 27.4771C388.651 28.0026 388.576 28.3404 388.426 28.4905C386.399 28.7158 385.16 29.0911 384.71 29.6167C384.26 30.1422 384.034 31.1557 384.034 32.6572V40.7088C381.782 42.2103 379.661 43.3176 377.672 44.0308C375.72 44.7441 373.243 45.1007 370.24 45.1007C364.834 45.1007 360.686 43.1863 357.796 39.3575C354.943 35.4912 353.517 30.6489 353.517 24.8307C353.517 19.0125 355.168 14.1514 358.472 10.2476C361.775 6.34374 366.242 4.39182 371.872 4.39182C375.138 4.39182 377.972 5.01118 380.375 6.2499C380.525 6.32497 380.656 6.36251 380.769 6.36251C380.919 6.36251 381.013 6.19359 381.05 5.85576L381.219 4.61704C381.369 4.46689 381.707 4.39182 382.233 4.39182C382.758 4.39182 383.134 4.46689 383.359 4.61704L384.147 15.6529C383.997 15.8031 383.621 15.8781 383.021 15.8781C382.458 15.8781 382.12 15.8031 382.007 15.6529C381.67 13.0629 380.562 11.0922 378.685 9.74084C376.809 8.38951 374.575 7.71384 371.985 7.71384C363.051 7.71384 358.584 12.7626 358.584 22.86C358.584 25.7128 359.054 28.5093 359.992 31.2495C360.968 33.9897 362.451 36.3358 364.44 38.2877C366.467 40.2396 368.794 41.2156 371.422 41.2156C374.05 41.2156 376.565 40.7276 378.967 39.7516C379.004 39.6766 379.023 39.0197 379.023 37.7809ZM399.079 5.29271L404.541 4.95488C404.616 5.02995 404.653 5.36778 404.653 5.96837C404.653 6.53143 404.559 6.9068 404.372 7.09448C403.02 7.09448 402.082 7.33847 401.556 7.82645C401.031 8.2769 400.768 9.00887 400.768 10.0224L401.613 39.4701C401.65 40.4836 401.932 41.2343 402.457 41.7223C403.02 42.1728 403.978 42.398 405.329 42.398C405.517 42.5857 405.61 42.9798 405.61 43.5804C405.61 44.1435 405.573 44.4625 405.498 44.5376L399.248 44.1998L392.548 44.5376C392.435 44.425 392.379 44.1059 392.379 43.5804C392.379 43.0174 392.491 42.6232 392.716 42.398C394.068 42.398 395.025 42.1728 395.588 41.7223C396.189 41.2343 396.489 40.4836 396.489 39.4701L396.714 10.0224C396.714 9.00887 396.433 8.2769 395.87 7.82645C395.344 7.33847 394.406 7.09448 393.054 7.09448C392.829 6.9068 392.716 6.53143 392.716 5.96837C392.716 5.36778 392.754 5.02995 392.829 4.95488C392.829 4.95488 394.912 5.06749 399.079 5.29271ZM441.556 5.29271L447.356 4.95488C447.431 5.10502 447.468 5.44285 447.468 5.96837C447.468 6.45635 447.337 6.83172 447.074 7.09448C445.685 7.09448 444.709 7.3197 444.146 7.77015C443.621 8.22059 443.358 8.97133 443.358 10.0224L442.907 44.5376C442.757 44.6877 442.288 44.7628 441.5 44.7628C440.749 44.7628 440.317 44.6877 440.205 44.5376L418.02 10.9233L419.034 39.4701C419.071 40.5211 419.353 41.2719 419.878 41.7223C420.442 42.1728 421.418 42.398 422.806 42.398C423.069 42.7358 423.201 43.1675 423.201 43.693C423.201 44.181 423.163 44.4625 423.088 44.5376L416.106 44.1998L410.25 44.5376C410.138 44.425 410.081 44.1059 410.081 43.5804C410.081 43.0174 410.194 42.6232 410.419 42.398C411.771 42.398 412.709 42.1728 413.234 41.7223C413.798 41.2343 414.098 40.4836 414.135 39.4701L414.755 10.0224C414.792 9.00887 414.511 8.2769 413.91 7.82645C413.31 7.33847 412.334 7.09448 410.982 7.09448C410.719 6.9068 410.588 6.53143 410.588 5.96837C410.588 5.36778 410.626 5.02995 410.701 4.95488C412.277 5.1801 413.816 5.29271 415.318 5.29271C416.819 5.29271 418.358 5.1801 419.935 4.95488L439.98 36.9364L439.022 10.0224C438.985 9.00887 438.685 8.2769 438.121 7.82645C437.558 7.33847 436.62 7.09448 435.306 7.09448C435.081 6.86926 434.968 6.49389 434.968 5.96837C434.968 5.40532 435.025 5.06749 435.137 4.95488L441.556 5.29271Z" fill="#DAA126"/>
</svg>
