<svg width="13" height="265" viewBox="0 0 13 265" fill="none" xmlns="http://www.w3.org/2000/svg">
<path d="M2.73296 259.34C2.76299 262.187 5.04591 264.505 7.84397 264.53C10.642 264.554 12.8765 262.276 12.8464 259.429C12.8164 256.582 10.5335 254.264 7.73543 254.239C4.93737 254.215 2.70294 256.493 2.73296 259.34Z" fill="white"/>
<path d="M2.44012 231.556C2.47015 234.403 4.75306 236.721 7.55112 236.746C10.3492 236.77 12.5836 234.492 12.5536 231.645C12.5236 228.798 10.2406 226.48 7.44258 226.455C4.64452 226.431 2.41009 228.709 2.44012 231.556Z" fill="white"/>
<path d="M2.20147 208.917C2.2315 211.764 4.51441 214.082 7.31247 214.107C10.1105 214.132 12.345 211.853 12.3149 209.006C12.2849 206.159 10.002 203.841 7.20394 203.817C4.40588 203.792 2.17144 206.07 2.20147 208.917Z" fill="white"/>
<path d="M1.96282 186.279C1.99285 189.126 4.27576 191.444 7.07382 191.469C9.87188 191.493 12.1063 189.215 12.0763 186.368C12.0463 183.521 9.76335 181.203 6.96529 181.178C4.16723 181.154 1.93279 183.432 1.96282 186.279Z" fill="white"/>
<path d="M1.72442 163.64C1.75445 166.487 4.03736 168.805 6.83542 168.83C9.63348 168.854 11.8679 166.576 11.8379 163.729C11.8079 160.882 9.52495 158.564 6.72689 158.54C3.92883 158.515 1.69439 160.793 1.72442 163.64Z" fill="white"/>
<path d="M1.48577 141.002C1.5158 143.849 3.79871 146.167 6.59677 146.191C9.39483 146.216 11.6293 143.938 11.5992 141.091C11.5692 138.244 9.2863 135.926 6.48824 135.901C3.69018 135.876 1.45574 138.155 1.48577 141.002Z" fill="white"/>
<path d="M1.24725 118.363C1.27727 121.21 3.56019 123.528 6.35825 123.553C9.15631 123.577 11.3907 121.299 11.3607 118.452C11.3307 115.605 9.04777 113.287 6.24971 113.262C3.45165 113.238 1.21722 115.516 1.24725 118.363Z" fill="white"/>
<path d="M1.0086 95.7244C1.03863 98.5714 3.32154 100.889 6.1196 100.914C8.91766 100.939 11.1521 98.6603 11.1221 95.8133C11.092 92.9664 8.80913 90.6483 6.01107 90.6237C3.21301 90.5991 0.97857 92.8774 1.0086 95.7244Z" fill="white"/>
<path d="M0.770195 73.0857C0.800223 75.9327 3.08314 78.2508 5.8812 78.2754C8.67926 78.3 10.9137 76.0217 10.8837 73.1747C10.8536 70.3277 8.57072 68.0097 5.77266 67.9851C2.9746 67.9605 0.740167 70.2388 0.770195 73.0857Z" fill="white"/>
<path d="M0.531426 50.4471C0.561454 53.2941 2.84437 55.6121 5.64243 55.6367C8.44049 55.6613 10.6749 53.383 10.6449 50.5361C10.6149 47.6891 8.33195 45.3711 5.53389 45.3465C2.73583 45.3219 0.501397 47.6002 0.531426 50.4471Z" fill="white"/>
<path d="M0.2929 27.8082C0.322928 30.6552 2.60584 32.9732 5.4039 32.9978C8.20196 33.0224 10.4364 30.7441 10.4064 27.8971C10.3763 25.0502 8.09343 22.7321 5.29537 22.7075C2.49731 22.6829 0.262872 24.9612 0.2929 27.8082Z" fill="white"/>
<path d="M0.0542528 5.16967C0.0842809 8.01665 2.3672 10.3347 5.16526 10.3593C7.96332 10.3839 10.1978 8.10558 10.1677 5.2586C10.1377 2.41161 7.85478 0.0935898 5.05672 0.0689879C2.25866 0.044386 0.0242246 2.32269 0.0542528 5.16967Z" fill="white"/>
</svg>
